<svg width="638" height="759" viewBox="0 0 638 759" fill="none" xmlns="http://www.w3.org/2000/svg">
<path d="M282.707 719.724C259.312 736.491 229.73 753.57 199.856 756.694C222.583 779.115 249.383 798.099 279.851 812.947C308.529 806.944 336.484 791.89 357.08 771.618C397.822 731.643 407.349 677.407 399.329 622.903C391.986 617.985 384.043 613.103 375.267 608.392C368.959 603.652 362.885 598.778 356.993 593.954C350.485 644.274 324.593 689.799 282.775 719.84" fill="#662F90"/>
<path d="M376.173 778.599C357.177 798.413 333.029 814.683 306.685 824.46C307.303 824.724 308.038 824.921 308.656 825.185C420.082 855.996 538.645 737.256 419.691 637.998C423.576 688.837 412.92 740.31 376.056 778.666" fill="#662F90"/>
<path d="M213.104 360.868C204.892 316.252 211.904 247.171 211.904 247.171C211.904 247.171 169.914 303.543 139.671 381.069C140.106 381.284 140.473 381.382 140.908 381.597C170.363 397.651 195.726 388.595 213.104 360.868Z" fill="#662F90"/>
<path d="M133.491 398.606C121.024 435.915 113.825 472.665 111.607 508.092C111.79 508.141 112.09 508.123 112.274 508.172C163.594 520.138 221.316 492.09 238.884 442.368C229.842 422.134 223.138 402.724 218.442 384.637C196.23 409.102 165.549 414.864 133.491 398.606Z" fill="#662F90"/>
<path d="M134.106 657.605C146.191 687.412 162.585 714.732 183.301 738.779C184.368 738.474 185.501 738.286 186.769 738.33C217.298 740.105 251.758 720.986 274.629 702.504C311.927 672.433 335.159 632.79 339.275 584.782C339.4 582.847 340.095 581.36 341.04 580.038C321.3 562.256 304.312 544.126 289.84 525.785C267.947 597.871 207.284 644.224 134.106 657.605Z" fill="#662F90"/>
<path d="M110.735 526.754C110.054 566.726 115.886 604.799 127.627 639.927C197.759 627.995 255.116 584.791 273.896 514.038C274.536 511.65 275.714 510.194 277.21 509.02C266.489 493.946 257.219 478.966 249.467 464.195C223.603 512.188 165.052 537.456 110.735 526.754Z" fill="#662F90"/>
<path d="M549.338 -44.6514C548.639 -44.248 547.94 -43.8445 547.376 -43.2082C541.378 -37.7277 540.851 -28.4211 546.33 -22.4273C551.809 -16.4334 561.118 -15.9099 567.116 -21.3903C572.15 -25.8491 573.171 -32.9572 570.478 -38.6973C569.806 -39.8613 569.134 -41.0254 568.162 -42.1714C563.453 -47.3685 555.86 -48.4168 549.92 -44.9876C549.804 -44.9204 549.571 -44.7859 549.455 -44.7186M510.03 -32.0457C510.03 -32.0457 509.099 -31.5079 508.7 -31.1225C504.696 -27.5689 504.405 -21.348 507.891 -17.4625C511.444 -13.4605 517.666 -13.1728 521.603 -16.8428C524.859 -19.8094 525.607 -24.4315 523.873 -28.2419C523.403 -29.0567 522.932 -29.8716 522.412 -30.5028C519.312 -33.99 514.272 -34.65 510.313 -32.3639L509.963 -32.1621M444.536 -12.0814C444.536 -12.0814 443.604 -11.5435 443.205 -11.1581C439.201 -7.60447 438.91 -1.38363 442.512 2.43465C446.065 6.43662 452.288 6.72444 456.225 3.05439C459.481 0.0878887 460.229 -4.53444 458.495 -8.34477C458.024 -9.15961 457.554 -9.97443 457.034 -10.6056C453.934 -14.0928 448.894 -14.7529 444.934 -12.4668L444.585 -12.2651M399.458 -3.28389C399.458 -3.28389 398.759 -2.88045 398.361 -2.4951C395.221 0.404228 394.908 5.24113 397.806 8.37907C400.705 11.517 405.476 11.7115 408.683 8.92866C411.258 6.66559 411.876 2.8944 410.429 -0.150269C410.093 -0.732289 409.69 -1.43081 409.354 -2.01285C406.84 -4.75237 402.952 -5.3011 399.807 -3.48561L399.574 -3.35112M531.066 -86.252C530.367 -85.8485 529.668 -85.445 529.104 -84.8087C523.388 -79.6464 522.892 -70.8234 528.053 -65.1115C533.214 -59.3996 541.972 -59.0237 547.687 -64.186C552.373 -68.4431 553.478 -75.1346 550.871 -80.4582C550.199 -81.6223 549.526 -82.7864 548.805 -83.7668C544.347 -88.7983 537.122 -89.7485 531.531 -86.5209L531.066 -86.252ZM489.894 -72.5704C489.894 -72.5704 489.196 -72.167 488.914 -71.8489C485.823 -69.1332 485.626 -64.3635 488.274 -61.3911C490.989 -58.3023 495.76 -58.1078 498.783 -60.9399C501.243 -63.1356 501.927 -66.7905 500.431 -69.6515C500.095 -70.2335 499.759 -70.8156 499.356 -71.514C496.909 -74.1371 493.205 -74.6368 490.177 -72.8886L489.944 -72.7541M417.269 -7.669C427.203 -20.8547 444.95 -36.3778 464.37 -26.9473C465.71 -25.703 467.331 -24.7768 469.052 -24.2179C469.052 -24.2179 469.119 -24.1015 469.302 -24.0523C472.376 -23.0329 475.879 -22.8825 479.359 -24.1159C487.319 -27.0044 491.502 -35.6278 488.617 -43.5846C488.33 -44.3503 487.859 -45.1651 487.456 -45.8636C485.037 -50.0542 480.839 -52.7525 476.216 -53.498C468.47 -55.0792 454.749 -53.8314 442.521 -46.7711C430.292 -39.7109 420.102 -27.7747 417.085 -7.7181M247.577 136.555C249.613 113.184 263.416 80.0716 294.123 76.7769C296.793 77.098 299.445 77.119 302.061 76.5399C302.061 76.5399 302.361 76.5218 302.545 76.571C307.11 75.3325 311.419 72.8445 314.554 68.8614C322.003 59.4391 320.46 45.7401 311.039 38.2972C309.968 37.5185 308.965 36.8562 307.912 36.3776C301.81 33.0712 294.571 32.9049 288.479 35.8013C285.881 36.6804 283.068 37.9941 280.273 39.6079C259.775 51.4422 233.984 81.5428 247.712 136.787M353.047 -17.7742C348.622 -15.2191 344.581 -12.2656 340.541 -9.31209C338.463 -7.80169 336.451 -6.17487 334.624 -4.49892C333.28 -2.79188 332.187 -0.919247 331.413 1.23535C331.48 1.35175 331.314 1.6026 331.265 1.78625C328.385 11.0539 333.498 20.9846 342.717 24.0431C352.12 27.1506 362.423 22.1336 365.535 12.7315C365.683 12.1806 365.831 11.6297 365.862 11.146C368.115 7.51715 370.251 3.95557 372.639 0.559551C383.446 -15.148 396.131 -28.68 408.082 -38.3734C388.067 -34.5784 370.817 -27.8783 356.026 -19.3388C354.978 -18.7336 353.93 -18.1284 352.882 -17.5233M509.552 -109.529C509.552 -109.529 508.853 -109.126 508.571 -108.807C505.48 -106.092 505.283 -101.322 507.931 -98.3496C510.646 -95.2609 515.417 -95.0665 518.441 -97.8985C521.016 -100.162 521.585 -103.749 520.088 -106.61C519.752 -107.192 519.416 -107.774 519.013 -108.473C516.567 -111.096 512.862 -111.595 509.834 -109.847L509.601 -109.713M447.104 -82.9424C447.104 -82.9424 446.056 -82.3372 445.724 -81.8355C441.321 -77.8965 440.95 -71.0083 444.937 -66.7916C448.876 -62.3913 455.698 -62.1397 460.101 -66.0786C463.64 -69.3633 464.535 -74.5365 462.483 -78.6288C462.012 -79.4437 461.475 -80.3749 460.888 -81.1225C457.47 -84.8916 451.879 -85.6993 447.57 -83.2114C447.453 -83.1442 447.337 -83.0769 447.22 -83.0096M295.243 -5.19903C294.544 -4.79559 293.846 -4.39211 293.281 -3.75586C287.216 1.60818 286.805 10.8476 292.217 16.7251C297.513 22.6698 306.822 23.1933 312.819 17.7128C317.738 13.3212 318.942 6.26246 316.133 0.589616C315.46 -0.574449 314.788 -1.73854 313.816 -2.88454C309.107 -8.0816 301.581 -9.01366 295.758 -5.65163C295.642 -5.5844 295.409 -5.44997 295.292 -5.38271M323.89 -54.0215C323.307 -53.6853 322.725 -53.3491 322.277 -52.7801C317.243 -48.3213 316.809 -40.4657 321.383 -35.5014C325.841 -30.4699 333.631 -30.156 338.666 -34.6148C342.719 -38.3521 343.695 -44.1927 341.424 -48.9343C340.886 -49.8655 340.281 -50.9132 339.56 -51.8936C335.622 -56.2939 329.247 -57.1146 324.356 -54.2905C324.239 -54.2233 324.006 -54.0888 323.89 -54.0215ZM358.575 -59.3023C358.978 -58.6038 359.332 -57.7217 359.736 -57.0233C362.155 -52.8326 366.469 -50.2016 371.142 -49.6398C386.247 -46.8756 423.92 -55.5885 429.099 -96.9149C419.482 -83.4472 402.121 -67.5257 382.486 -76.5216C381.03 -77.6987 379.408 -78.6249 377.688 -79.1838C377.688 -79.1838 377.62 -79.3002 377.437 -79.3494C374.247 -80.3016 370.811 -80.3356 367.514 -79.053C366.816 -78.6496 366.05 -78.3625 365.351 -77.9591C358.945 -74.2609 356.043 -66.3771 358.692 -59.3695M411.197 -102.1C425.406 -110.304 447.924 -117.562 462.037 -101.187C462.978 -99.5573 463.919 -97.9276 465.375 -96.7506L465.509 -96.5177C467.987 -94.3783 471.029 -92.8751 474.599 -92.6083C483.007 -92.0305 490.335 -98.4343 490.917 -106.841C491.046 -107.692 490.876 -108.525 490.822 -109.425C490.351 -114.275 487.515 -118.38 483.568 -120.913C474.201 -127.456 451.076 -133.351 430.695 -121.584C423.591 -117.482 416.796 -111.231 411.081 -102.033M384.023 -107.209C384.023 -107.209 383.092 -106.672 382.76 -106.17C378.756 -102.616 378.398 -96.5116 381.951 -92.5097C385.504 -88.5078 391.726 -88.22 395.663 -91.89C398.919 -94.8565 399.667 -99.4788 397.933 -103.289C397.462 -104.104 396.992 -104.919 396.472 -105.55C393.372 -109.037 388.332 -109.697 384.373 -107.411L384.023 -107.209Z" fill="#662F90"/>
<path d="M586.026 280.593C580.79 284.702 579.921 292.343 584.03 297.577C588.138 302.81 595.781 303.674 601.017 299.565C605.389 296.11 606.732 290.368 604.76 285.608C604.339 284.609 603.851 283.494 603.013 282.581C599.357 277.863 592.781 276.693 587.706 279.468C587.589 279.535 587.356 279.67 587.24 279.737C586.774 280.006 586.425 280.207 585.959 280.476M609.772 236.462C602.292 242.333 601.07 253.127 606.939 260.603C612.808 268.079 623.604 269.296 631.085 263.425C637.302 258.594 639.102 250.415 636.404 243.591C635.831 242.06 635.024 240.663 633.985 239.4C628.77 232.788 619.573 231.114 612.218 235.05C611.985 235.184 611.752 235.319 611.636 235.386C611.053 235.722 610.355 236.126 609.839 236.578M563.488 236.178C563.488 236.178 562.79 236.581 562.44 236.783C558.301 240.103 557.46 246.177 560.847 250.43C564.167 254.566 570.241 255.405 574.497 252.017C578.004 249.216 579.052 244.576 577.501 240.814C577.147 239.932 576.677 239.117 576.09 238.37C573.155 234.632 567.981 233.739 563.838 235.976L563.488 236.178ZM615.349 190.715C615.349 190.715 614.65 191.118 614.301 191.32C610.162 194.641 609.32 200.714 612.707 204.967C616.027 209.104 622.102 209.942 626.357 206.554C629.864 203.753 630.912 199.113 629.362 195.352C629.008 194.47 628.604 193.771 628.017 193.024C625.083 189.286 619.842 188.276 615.765 190.63L615.416 190.831M580.617 220.39C584.402 220.223 587.847 218.389 590.068 215.244C590.516 214.675 590.848 214.173 591.112 213.555C594.005 207.539 591.406 200.348 585.39 197.458C582.85 196.286 580.063 196.032 577.514 196.728C577.514 196.728 577.398 196.795 577.282 196.862C575.799 197.252 574.567 197.808 573.353 198.664C557.2 204.576 544.517 190.945 537.765 179.788C539.255 212.763 568.531 221.781 580.568 220.574M549.082 154.474C549.082 154.474 548.733 154.676 548.5 154.81C545.906 156.773 545.588 160.526 547.551 163.118C549.513 165.71 553.267 166.026 555.861 164.063C557.988 162.369 558.611 159.682 557.683 157.269C557.414 156.803 557.146 156.337 556.877 155.872C555.116 153.629 551.944 152.977 549.499 154.389L549.266 154.523M432.591 219.247C436.615 228.099 447.089 231.985 455.945 227.958C463.336 224.623 467.273 216.917 466.156 209.336C465.999 207.719 465.542 206.12 464.785 204.54C461.115 196.57 452.326 192.642 444.146 194.882C443.196 195.12 442.247 195.357 441.315 195.895C440.849 196.164 440.267 196.5 439.801 196.769C431.998 201.275 428.787 211.044 432.542 219.43M500.19 231.437C499.366 233.775 498.91 236.212 499.053 238.612C499.053 238.612 499.071 238.912 498.955 238.98C499.157 243.364 500.627 247.793 503.794 251.396C511.052 259.933 523.931 260.723 532.357 253.531C533.271 252.693 534.068 251.922 534.798 251.035C538.963 246.146 540.437 239.553 538.926 233.441C535.623 213.464 508.037 170.256 453.883 182.431C474.84 188.335 502.754 202.795 500.19 231.437ZM500.585 151.432C496.33 154.82 495.605 160.826 498.992 165.079C502.312 169.215 508.386 170.054 512.641 166.666C516.032 163.932 517.196 159.225 515.646 155.464C515.292 154.582 514.822 153.767 514.302 153.136C511.367 149.398 506.126 148.388 502.05 150.742C501.933 150.809 501.817 150.876 501.7 150.943C501.351 151.145 501.002 151.347 500.652 151.548M393.047 195.67C395.269 200.595 400.999 202.72 405.926 200.496C409.971 198.626 412.072 194.464 411.52 190.282C411.467 189.381 411.113 188.499 410.758 187.617C408.805 183.158 404.043 181.096 399.478 182.334C398.945 182.487 398.412 182.639 397.946 182.908C397.597 183.11 397.364 183.244 397.131 183.379C392.822 185.867 391.093 191.211 393.114 195.787M491.092 103.521C490.545 104.457 490.066 105.51 489.703 106.496C486.278 116.7 491.695 127.696 501.9 131.117C506.259 132.48 510.644 132.276 514.658 130.89C514.658 130.89 514.891 130.756 515.007 130.689C517.189 129.895 519.218 128.568 520.996 127.076C545.543 114.456 568.575 133.907 581.371 150.422C572.76 98.1213 524.271 89.1765 505.193 93.5173C502.81 93.962 500.512 94.8232 498.415 96.0335C495.387 97.7818 492.83 100.345 490.975 103.588M377.83 154.789C380.54 160.829 387.623 163.414 393.666 160.701C398.593 158.477 401.173 153.263 400.567 148.18C400.379 147.047 400.191 145.914 399.653 144.983C397.162 139.592 391.347 137.051 385.766 138.411C385.116 138.631 384.583 138.784 383.817 139.071C383.468 139.272 383.118 139.474 382.769 139.676C377.528 142.702 375.271 149.282 377.897 154.905M442.506 111.084C444.729 116.01 450.459 118.134 455.386 115.91C459.431 114.04 461.531 109.878 460.98 105.696C460.926 104.796 460.572 103.914 460.218 103.031C458.215 98.7555 453.386 96.577 448.938 97.7482C448.472 98.0172 447.872 98.0534 447.406 98.3223C447.173 98.4568 446.823 98.6585 446.591 98.793C442.281 101.281 440.553 106.625 442.574 111.201M445.437 165.112C450.298 166.807 455.633 166.365 460.041 163.51C460.856 163.039 461.604 162.452 462.285 161.749C468.964 155.565 469.486 145.174 463.304 138.5C460.723 135.644 457.314 134.042 453.726 133.476L453.426 133.494C451.423 133.253 449.439 133.312 447.54 133.788C424.187 133.146 415.113 109.361 412.32 91.8829C397.273 134.406 429.507 160.651 445.388 165.296M366.151 110.623C368.373 115.549 374.103 117.673 379.03 115.449C383.075 113.579 385.176 109.417 384.624 105.235C384.57 104.335 384.333 103.385 383.862 102.57C381.976 98.2272 377.03 96.116 372.582 97.2873C372.049 97.4398 371.516 97.5924 371.05 97.8613C370.817 97.9958 370.468 98.1975 370.235 98.332C365.926 100.82 364.197 106.164 366.218 110.74M251.523 170.285C268.75 154.131 297.579 136.555 322.573 154.563C324.199 156.573 326.292 158.314 328.599 159.621C328.666 159.737 328.733 159.854 328.8 159.97C333.029 162.185 337.787 163.163 342.92 162.372C354.787 160.332 362.844 149.006 360.809 137.144C360.554 135.894 360.182 134.712 359.81 133.53C357.547 126.921 352.256 122.06 345.81 120.039C333.163 115.079 307.607 113.848 285.246 126.758C271.27 134.827 258.536 148.542 251.339 170.236" fill="#662F90"/>
<path d="M369.108 485.297C364.467 488.287 363.142 494.329 366.13 498.968C369.051 503.489 375.162 504.928 379.802 501.939C383.511 499.487 385.11 494.994 383.958 490.848C383.721 489.898 383.367 489.016 382.896 488.201C380.244 484.145 375.034 482.652 370.689 484.54C370.34 484.742 369.874 485.011 369.524 485.212C369.524 485.212 369.291 485.347 369.175 485.414M393.539 441.547C388.433 444.806 386.911 451.582 390.235 456.803C393.492 461.907 400.387 463.358 405.493 460.1C409.668 457.379 411.414 452.335 410.178 447.772C409.94 446.823 409.519 445.824 408.981 444.893C405.993 440.255 400.232 438.614 395.421 440.771C394.955 441.04 394.606 441.242 394.14 441.511C394.14 441.511 393.907 441.645 393.79 441.713M371.052 405.018C364.499 409.268 362.551 417.997 366.682 424.614C370.929 431.164 379.661 433.108 386.398 428.908C391.853 425.447 394.11 418.867 392.434 413.006C392.112 411.64 391.623 410.525 390.884 409.245C387.04 403.393 379.742 401.243 373.399 403.974C372.817 404.31 372.167 404.53 371.585 404.866C371.585 404.866 371.352 405 371.236 405.068M410.667 378.422C405.886 403.222 439.784 408.95 443.947 383.886C452.417 332.123 415.023 312.271 400.374 303.035C424.444 350.911 410.667 378.422 410.667 378.422ZM369.814 305.779C365.173 308.768 363.848 314.811 366.836 319.449C369.758 323.971 375.868 325.41 380.509 322.42C384.218 319.968 385.816 315.475 384.665 311.329C384.427 310.379 384.073 309.497 383.486 308.75C380.834 304.694 375.624 303.201 371.395 305.021C371.046 305.223 370.58 305.492 370.231 305.694L369.998 305.828M365.23 377.183C369.759 379.379 375.198 379.654 379.874 377.265C380.689 376.794 381.504 376.323 382.32 375.853C389.769 370.465 391.443 360.186 386.125 352.858C383.827 349.684 380.699 347.764 377.143 346.713C377.143 346.713 376.842 346.731 376.775 346.615C374.822 346.191 372.82 345.95 370.902 346.126C347.805 342.698 341.629 318.016 340.987 300.227C320.994 340.639 349.891 370.518 365.163 377.066M355.231 249.321C346.532 254.964 343.913 266.565 349.437 275.327C355.078 284.021 366.681 286.635 375.496 280.924C382.748 276.272 385.663 267.604 383.328 259.795C382.804 258.08 382.163 256.432 381.29 254.919C376.303 247.088 366.434 244.25 358.093 247.824C357.395 248.227 356.512 248.581 355.697 249.052L355.231 249.321ZM317.03 263.305C312.389 266.295 311.064 272.337 314.053 276.976C316.974 281.497 323.084 282.936 327.725 279.947C331.434 277.495 333.032 273.002 331.881 268.855C331.643 267.906 331.289 267.024 330.819 266.209C328.166 262.153 323.073 260.593 318.728 262.48C318.378 262.682 317.912 262.951 317.563 263.153C317.563 263.153 317.33 263.287 317.214 263.355M252.154 209.033C267.174 207.346 289.336 210.227 298.338 232.812C298.696 234.778 299.422 236.842 300.314 238.655C300.314 238.655 300.448 238.888 300.515 239.005C302.281 242.331 304.745 245.254 307.988 247.107C315.479 251.474 323.605 248.335 326.072 240.236C326.318 239.318 326.448 238.467 326.578 237.616C327.24 232.577 325.717 227.248 322.63 222.978C314.018 209.945 286.39 188.181 260.069 203.377C257.391 204.923 254.914 206.819 252.222 209.149" fill="#662F90"/>
<path d="M163.165 33.651C164.886 38.2451 168.085 41.365 172.112 43.2303C172.112 43.2303 172.363 43.3959 172.479 43.3287C174.701 44.2188 177.089 44.8579 179.624 44.9461C199.547 54.7077 212.944 83.2917 212.042 110.508C231.262 49.124 213.676 15.9742 197.05 4.92993C192.248 1.18393 185.555 0.0812749 178.943 2.34647C177.761 2.71882 176.645 3.20759 175.481 3.88C175.248 4.01448 175.015 4.14895 174.782 4.28344C164.3 10.3351 159.119 23.4152 163.165 33.651ZM196.451 -30.2667C196.451 -30.2667 195.654 -29.496 195.322 -28.9942C191.905 -24.6929 192.564 -18.71 196.847 -15.5952C201.062 -12.5968 207.213 -13.5092 210.63 -17.8104C213.367 -21.4082 213.447 -26.1107 210.965 -29.3339C210.495 -30.1487 209.858 -30.7127 209.106 -31.2094C205.961 -33.4291 201.741 -33.4762 198.48 -31.5934C197.781 -31.19 197.082 -30.7865 196.635 -30.2175M131.381 -16.2903C131.381 -16.2903 130.584 -15.5196 130.252 -15.0178C126.835 -10.7166 127.494 -4.73358 131.777 -1.61878C135.992 1.3796 142.143 0.467194 145.56 -3.83403C148.364 -7.31535 148.377 -12.1343 145.895 -15.3575C145.425 -16.1724 144.788 -16.7363 144.036 -17.2331C140.891 -19.4527 136.671 -19.4998 133.41 -17.6171C132.711 -17.2136 132.013 -16.8101 131.565 -16.2411M85.1817 -63.4965C84.4336 -62.9094 83.7529 -62.206 83.1392 -61.3861C77.2672 -53.8052 78.4286 -43.4559 85.7892 -38.2379C93.1006 -32.8361 103.717 -34.6197 109.656 -42.0841C114.467 -48.2761 114.466 -56.3464 110.272 -61.9961C109.417 -63.2094 108.328 -64.2881 107.123 -65.2996C101.702 -69.3095 94.4136 -69.2922 88.5904 -65.9302C87.4258 -65.2578 86.3284 -64.469 85.2982 -63.5638M100.568 -112.424C100.053 -111.971 99.489 -111.335 99.0411 -110.766C94.5621 -105.076 95.4633 -97.0598 101.068 -93.0007C106.672 -88.9417 114.789 -90.2134 119.385 -95.9708C123.017 -100.707 123.124 -106.977 119.921 -111.18C119.199 -112.161 118.429 -112.957 117.425 -113.62C113.326 -116.685 107.722 -116.709 103.296 -114.154C102.365 -113.616 101.549 -113.146 100.819 -112.258M144.322 -67.8409C142.413 -65.4976 140.823 -62.8723 139.852 -59.9831C139.735 -59.9158 139.686 -59.7322 139.637 -59.5486C137.957 -54.3884 137.747 -48.8349 139.755 -43.4751C144.411 -31.1078 158.728 -25.4053 171.665 -30.7014C173.013 -31.3246 174.245 -31.8806 175.459 -32.7366C182.312 -37.0039 186.836 -43.9615 187.771 -51.4859C192.705 -75.7534 179.56 -135.369 112.356 -140.959C133.882 -126.536 159.397 -99.8257 144.205 -67.7736M24.6257 -105.984C23.5955 -105.079 22.6325 -104.057 21.7367 -102.919C13.4594 -92.2421 15.0065 -77.4591 25.4628 -69.8377C35.9191 -62.2163 51.069 -64.7548 59.3463 -75.4315C66.2305 -84.2177 66.2651 -95.7231 60.2436 -103.732C58.9354 -105.46 57.5107 -107.121 55.6873 -108.396C47.9414 -114.013 37.6337 -114.115 29.3648 -109.341C27.7343 -108.399 26.1218 -107.158 24.6929 -105.867M-28.1045 -108.289C-28.1045 -108.289 -28.9018 -107.518 -29.2332 -107.016C-32.6508 -102.715 -31.9244 -96.6158 -27.7087 -93.6175C-23.493 -90.6191 -17.3426 -91.5314 -13.9251 -95.8327C-11.1212 -99.314 -11.1083 -104.133 -13.5904 -107.356C-14.0608 -108.171 -14.697 -108.735 -15.4496 -109.232C-18.6618 -111.568 -22.8144 -111.498 -26.0754 -109.616C-26.7742 -109.212 -27.473 -108.809 -28.0373 -108.173M-11.8994 -129.441C5.38181 -140.66 32.7558 -151.342 50.1299 -132.815C51.2724 -130.836 52.5807 -129.108 54.1711 -127.698C54.1711 -127.698 54.3055 -127.465 54.3727 -127.349C57.3519 -124.878 61.1777 -123.362 65.6305 -123.449C75.871 -123.464 84.7084 -131.826 85.2986 -142.1C85.294 -143.183 85.2894 -144.267 85.1684 -145.284C84.4599 -151.083 81.0369 -155.936 76.0553 -158.647C64.9853 -165.449 38.4115 -170.594 14.5365 -156.81C4.87003 -151.229 -4.3661 -142.482 -11.9666 -129.557M-74.8426 -125.229C-75.5234 -124.525 -76.1549 -124.006 -76.7685 -123.186C-82.3091 -116.107 -81.233 -106.174 -74.3069 -101.17C-67.3808 -96.167 -57.2972 -97.7981 -51.7567 -104.877C-47.2284 -110.751 -47.1441 -118.405 -51.1361 -123.705C-51.9918 -124.919 -53.0133 -125.881 -54.2184 -126.892C-59.3883 -130.737 -66.3094 -130.621 -71.7832 -127.461C-72.8314 -126.856 -73.9288 -126.067 -74.959 -125.162M29.4988 -195.714C29.4988 -195.714 28.7015 -194.943 28.37 -194.442C24.9525 -190.14 25.6117 -184.157 29.8946 -181.043C34.1775 -177.928 40.2606 -178.957 43.6781 -183.258C46.4148 -186.856 46.495 -191.558 44.0129 -194.781C43.5424 -195.596 42.9063 -196.16 42.1537 -196.657C38.9415 -198.993 34.7889 -198.924 31.5279 -197.041C30.8291 -196.637 30.1303 -196.234 29.6825 -195.665M-12.5418 -186.497C-12.5418 -186.497 -13.572 -185.592 -13.9035 -185.09C-17.9346 -179.969 -17.2036 -172.786 -12.1009 -169.058C-7.06536 -165.446 0.334939 -166.615 4.36605 -171.736C7.66711 -175.97 7.69336 -181.573 4.80803 -185.494C4.27037 -186.426 3.38331 -187.155 2.56347 -187.768C-1.21765 -190.552 -6.15422 -190.496 -10.2304 -188.142C-11.0457 -187.671 -11.8609 -187.201 -12.5418 -186.497ZM-56.2202 -162.366C-56.2202 -162.366 -57.0175 -161.595 -57.3489 -161.093C-60.7664 -156.792 -60.1073 -150.809 -55.8244 -147.694C-51.7252 -144.629 -45.4582 -145.608 -42.1079 -150.026C-39.304 -153.507 -39.2912 -158.326 -41.7732 -161.55C-42.1765 -162.248 -42.8799 -162.928 -43.6325 -163.425C-46.8446 -165.761 -50.9973 -165.692 -54.2583 -163.809C-54.957 -163.406 -55.6558 -163.002 -56.1037 -162.433" fill="#662F90"/>
<path d="M-46.3483 403.413C-47.1635 403.884 -48.0952 404.422 -48.8925 405.193C-56.3862 411.847 -57.2048 423.34 -50.5517 430.829C-43.8986 438.318 -32.3545 438.948 -24.8608 432.293C-18.6794 426.862 -17.0991 418.034 -20.5312 411.013C-21.2885 409.433 -22.2114 408.103 -23.3181 406.724C-29.1334 400.148 -38.7289 398.859 -46.0661 403.095C-46.299 403.23 -46.4155 403.297 -46.5319 403.364M-76.7184 380.128C-76.7184 380.128 -77.6501 380.665 -78.0487 381.051C-81.9367 384.537 -82.3123 390.342 -78.8267 394.227C-75.3411 398.113 -69.419 398.419 -65.4639 395.049C-62.2568 392.266 -61.5091 387.643 -63.1087 384.066C-63.5792 383.251 -63.9824 382.553 -64.4529 381.738C-67.486 378.367 -72.4092 377.64 -76.136 379.791L-76.369 379.926M-16.6152 335.494C-17.1032 338.414 -16.5071 341.329 -15.0958 343.774C-15.0958 343.774 -15.0286 343.89 -14.9614 344.006C-14.2221 345.287 -13.1826 346.549 -11.9775 347.561C-1.22475 362.151 -11.4096 379.206 -20.8068 389.288C12.3682 377.895 13.0814 345.51 8.21075 333.577C6.96051 329.798 4.12902 326.776 0.253976 325.444C-0.364245 325.18 -1.09894 324.983 -1.7664 324.903C-4.80365 324.484 -7.71982 325.081 -10.1656 326.493C-13.4265 328.376 -15.7645 331.588 -16.4316 335.543M-48.0931 342.027C-48.0931 342.027 -48.7918 342.43 -49.2577 342.699C-52.4648 345.482 -52.7779 350.319 -49.8792 353.457C-47.097 356.662 -42.3261 356.857 -39.119 354.074C-36.5435 351.811 -35.8585 348.156 -37.3058 345.111C-37.6418 344.529 -38.045 343.831 -38.3811 343.249C-40.8944 340.509 -44.7828 339.96 -47.9273 341.776C-47.9273 341.776 -48.0438 341.843 -48.1603 341.91M44.8891 283.066C44.8891 283.066 44.1903 283.47 43.7244 283.739C40.5173 286.522 40.2042 291.359 43.1029 294.497C45.8851 297.702 50.656 297.896 53.8631 295.113C56.4387 292.85 57.1237 289.195 55.6764 286.151C55.3404 285.569 54.9371 284.87 54.6011 284.288C52.0877 281.549 48.1994 281 45.0548 282.815C45.0548 282.815 44.9383 282.883 44.8219 282.95M92.0343 254.45C92.0343 254.45 90.9861 255.055 90.471 255.508C86.0679 259.447 85.6297 266.219 89.5678 270.619C93.5058 275.019 100.279 275.455 104.682 271.516C108.288 268.347 109.183 263.174 107.248 259.015C106.777 258.2 106.24 257.269 105.653 256.521C102.167 252.635 96.6436 251.944 92.3345 254.432C92.3345 254.432 92.1015 254.567 91.985 254.634M-89.6732 341.82C-89.6732 341.82 -90.372 342.224 -90.8378 342.493C-94.045 345.276 -94.358 350.113 -91.4593 353.251C-88.6771 356.456 -83.9063 356.65 -80.6991 353.867C-78.1236 351.604 -77.4386 347.95 -78.8858 344.905C-79.2219 344.323 -79.6251 343.624 -79.9612 343.042C-82.4745 340.303 -86.3629 339.754 -89.5074 341.57L-89.7404 341.704M-2.56476 274.3C-4.37169 300.487 -35.7335 302.918 -46.0812 305.167C-31.337 321.022 21.9605 307.634 21.492 283.692C21.1675 266.186 8.28385 264.312 1.52895 268.212C-0.916773 269.624 -2.59192 271.833 -2.56476 274.3ZM107.695 207.072C103.112 212.046 100.757 218.993 101.886 225.791C102.142 227.041 102.33 228.174 102.769 229.472C106.704 240.859 119.355 246.903 130.679 242.848C135.575 241.108 139.297 237.872 141.949 233.858C141.949 233.858 142.182 233.724 142.164 233.424C143.539 231.233 144.529 228.644 145.034 226.023C158.291 197.882 192.287 199.208 215.228 205.053C181.892 174.478 145.563 181.484 123.667 194.125C116.563 198.227 110.996 202.838 107.511 207.023M-72.6822 297.554C-72.6822 297.554 -73.6139 298.092 -74.0126 298.478C-78.017 302.031 -78.3747 308.136 -74.8219 312.138C-71.2691 316.14 -65.1633 316.495 -61.1589 312.941C-57.9025 309.974 -57.0384 305.285 -58.8889 301.542C-59.3594 300.727 -59.8298 299.912 -60.2331 299.214C-63.3334 295.727 -68.4403 294.95 -72.4 297.236L-72.633 297.371M36.1924 226.314C28.6761 231.585 26.769 241.999 31.9706 249.395C37.2395 256.907 47.5877 258.693 55.104 253.422C62.6202 248.151 64.5946 237.854 59.3257 230.342C54.3257 223.295 44.7435 221.222 37.4063 225.458C37.0569 225.66 36.591 225.929 36.1252 226.198M70.3186 187.521C70.3186 187.521 69.2705 188.126 68.7554 188.579C64.3523 192.518 63.914 199.289 67.8521 203.69C71.7902 208.09 78.5635 208.525 82.9665 204.586C86.5723 201.418 87.4676 196.245 85.532 192.085C84.9943 191.154 84.5239 190.339 83.9862 189.408C80.5006 185.522 74.9771 184.831 70.668 187.319L70.3186 187.521ZM-48.6708 260.876C-49.5349 265.565 -48.2308 270.245 -45.0633 273.848C-44.5436 274.479 -43.9074 275.043 -43.1547 275.54C-36.5288 280.561 -26.9604 279.383 -21.9349 272.756C-19.6954 269.911 -18.8088 266.606 -18.8226 263.354C-18.8226 263.354 -18.8898 263.238 -18.957 263.122C-19.0647 261.321 -19.4726 259.539 -20.1806 257.775C-23.0722 236.629 -2.82551 224.629 12.5794 219.304C-2.39184 216.773 -14.388 219.664 -23.7051 225.043C-39.8936 234.389 -47.861 251.251 -49.0381 260.777" fill="#662F90"/>
<path d="M80.8021 115.039C80.8021 115.039 79.8704 115.577 79.4225 116.146C75.5032 120.116 75.3964 126.386 79.3658 130.303C83.2187 134.286 89.6067 134.323 93.526 130.353C96.7644 127.087 97.3776 122.232 95.3434 118.439C94.873 117.624 94.4025 116.81 93.6991 116.129C90.3659 112.777 85.3934 112.233 81.5501 114.452C81.3172 114.586 81.0843 114.721 80.8513 114.855M112.422 94.7655C111.759 95.7691 110.979 96.8399 110.384 97.9598C104.844 109.074 108.523 123.247 118.54 129.57C122.854 132.201 127.477 132.946 131.894 132.259C131.894 132.259 132.127 132.124 132.311 132.173C134.811 131.661 137.041 130.684 139.303 129.223C167.251 120.072 172.937 131.534 205.767 160.694C192.138 101.047 149.826 85.587 129.081 86.234C125.578 86.0836 121.963 87.0842 118.818 88.8997C116.372 90.3117 114.146 92.373 112.305 94.8327M92.2103 60.0272C92.2103 60.0272 91.3951 60.4978 91.1801 60.9324C88.1074 63.9481 88.0944 68.767 91.1096 71.8377C94.0575 74.792 98.9448 74.9193 102.017 71.9036C104.459 69.4077 104.96 65.7037 103.28 62.7935C102.944 62.2115 102.54 61.513 101.972 61.0654C99.4089 58.5096 95.6549 58.1935 92.7433 59.8746C92.5104 60.009 92.394 60.0763 92.161 60.2108M-38.6878 117.597C-38.6878 117.597 -39.2701 117.933 -39.5523 118.251C-42.1099 120.814 -42.1094 124.85 -39.5468 127.405C-36.9841 129.961 -32.948 129.959 -30.3904 127.396C-28.3479 125.286 -27.9272 122.249 -29.222 119.737C-29.4909 119.272 -29.8269 118.689 -30.2794 118.175C-32.4567 116.017 -35.6104 115.665 -38.0562 117.077C-38.1726 117.144 -38.4056 117.279 -38.522 117.346M79.1022 95.6879C82.9676 90.8176 84.1406 84.2425 82.012 77.8662C81.6401 76.684 81.1517 75.5692 80.6633 74.4543C75.0312 63.8924 61.8829 58.6012 51.177 62.9198C46.6483 64.7584 43.4098 68.025 41.475 71.9358C41.475 71.9358 41.3586 72.003 41.3766 72.3031C40.3017 74.4758 39.845 76.9122 39.6885 79.3308C26.6196 104.57 -5.05104 108.886 -28.4532 104.393C20.7194 140.881 67.8646 112.265 79.1694 95.8043M-197.081 180.797C-197.78 181.201 -198.295 181.654 -198.81 182.106C-203.876 187.049 -203.925 195.303 -198.867 200.298C-193.925 205.361 -185.669 205.406 -180.67 200.347C-176.518 196.242 -175.811 189.936 -178.45 185.096C-179.055 184.048 -179.66 183.001 -180.614 182.155C-184.785 177.889 -191.209 177.252 -196.217 180.143C-196.566 180.345 -196.916 180.547 -197.149 180.681M-77.3747 111.374C-77.3747 111.374 -78.3064 111.912 -78.7543 112.481C-82.6736 116.451 -82.7804 122.721 -78.811 126.638C-74.9581 130.622 -68.5701 130.659 -64.6508 126.689C-61.4124 123.422 -60.7992 118.567 -62.8334 114.775C-63.3038 113.96 -63.7743 113.145 -64.4777 112.465C-67.8109 109.112 -72.7834 108.568 -76.7431 110.855C-76.976 110.989 -77.209 111.124 -77.4419 111.258M52.2437 27.3819C51.545 27.7853 50.9134 28.3052 50.349 28.9414C44.7187 34.5202 44.657 43.5579 50.1676 49.0681C55.7454 54.6947 64.7181 54.6362 70.4156 49.1738C75.0829 44.6166 75.8706 37.6431 72.9627 32.3375C72.2906 31.1735 71.6185 30.0094 70.597 29.0471C65.9735 24.2665 58.7657 23.6164 53.2919 26.7767C52.9426 26.9784 52.5931 27.1802 52.2437 27.3819ZM-42.6165 76.0963C-42.6165 76.0963 -43.5974 76.8179 -44.1125 77.2705C-48.5469 81.6932 -48.6671 88.7469 -44.2452 93.1784C-39.8233 97.6098 -32.6514 97.6597 -28.217 93.237C-24.5799 89.585 -24.0027 84.1299 -26.3057 79.872C-26.8433 78.9408 -27.381 78.0095 -28.1515 77.2127C-31.8701 73.4617 -37.4428 72.9541 -41.752 75.442C-41.9849 75.5765 -42.3343 75.7782 -42.5672 75.9127M-170.991 150.679C-173.293 154.491 -173.606 159.328 -171.303 163.586C-170.9 164.285 -170.429 165.099 -170.026 165.798C-164.744 172.526 -154.445 174.496 -147.107 170.26C-143.963 168.444 -141.956 165.734 -140.868 162.777C-140.868 162.777 -140.868 162.777 -140.886 162.477C-140.326 160.757 -140.183 159.122 -140.407 157.389C-133.367 138.114 -110.414 131.071 -92.6839 131.388C-116.633 119.761 -137.746 124.345 -152.187 132.683C-161.853 138.264 -168.644 145.599 -171.34 150.881M14.3754 9.66695C14.3754 9.66695 13.7931 10.0032 13.5109 10.3213C10.9533 12.8844 10.9537 16.9196 13.5164 19.4754C16.079 22.0313 20.1151 22.0292 22.6727 19.4661C24.7152 17.3556 25.136 14.3189 23.8411 11.8071C23.5723 11.3415 23.2362 10.7595 22.8509 10.3611C20.6736 8.2036 17.5199 7.85148 14.9577 9.33075C14.8412 9.398 14.6083 9.53249 14.4918 9.59974M-234.494 148.54C-235.31 149.011 -235.99 149.715 -236.738 150.302C-243.399 156.786 -243.42 167.507 -236.821 174.096C-230.338 180.752 -219.614 180.769 -213.021 174.169C-207.556 168.841 -206.54 160.649 -210.053 154.296C-210.859 152.899 -211.666 151.502 -212.822 150.307C-218.332 144.797 -226.758 143.919 -233.164 147.617C-233.63 147.886 -233.979 148.088 -234.445 148.357M-107.299 106.612C-103.229 91.069 -91.3644 72.8887 -72.0034 72.2649C-70.516 72.9582 -68.8138 73.2171 -67.2459 73.2431L-67.0622 73.2923C-64.1773 73.1788 -61.1626 72.2143 -58.7707 69.9021C-53.1225 64.6233 -52.3127 54.9985 -57.1604 48.4848C-57.5637 47.7864 -58.1998 47.2224 -58.836 46.6584C-62.2185 43.4894 -66.5101 42.2422 -70.6089 43.2117C-73.7759 43.6434 -77.906 45.0966 -82.3316 47.6518C-96.6567 55.9223 -113.52 75.1264 -107.434 106.379M-199.746 107.06C-199.746 107.06 -200.561 107.53 -200.892 108.032C-204.48 111.5 -204.439 117.219 -201.039 120.688C-197.638 124.158 -191.851 124.231 -188.447 120.713C-185.607 117.832 -185.025 113.461 -186.79 110.134C-187.194 109.435 -187.664 108.621 -188.3 108.057C-191.248 105.102 -195.67 104.706 -199.163 106.723C-199.396 106.858 -199.629 106.992 -199.862 107.127M-9.55415 57.7838C-10.0288 59.9203 -10.0868 61.9716 -9.72823 63.9375C-9.72823 63.9375 -9.77743 64.1211 -9.71023 64.2375C-9.01101 67.8692 -7.06204 71.245 -3.66621 73.6303C4.14693 79.3632 16.0492 77.9237 22.8889 70.405C23.5697 69.7016 24.1833 68.8816 24.7297 67.9453C27.8784 63.1785 28.3212 57.4905 26.2332 52.7981C20.6454 36.9335 -11.6521 3.5855 -59.7704 22.9853C-39.7014 24.1256 -14.8068 34.431 -9.55415 57.7838ZM-165.426 78.5532C-166.357 79.0911 -167.155 79.8619 -168.069 80.6999C-175.858 88.4564 -175.955 100.929 -168.2 108.713C-160.512 116.381 -147.969 116.589 -140.18 108.833C-133.752 102.483 -132.642 92.8403 -136.643 85.3722C-137.584 83.7425 -138.525 82.1128 -139.932 80.752C-146.347 74.2123 -156.225 73.2412 -163.979 77.5627C-164.445 77.8316 -165.027 78.1678 -165.493 78.4368M-238.047 105.271C-238.047 105.271 -238.979 105.809 -239.194 106.243C-242.781 109.711 -242.741 115.43 -239.34 118.9C-235.94 122.369 -230.152 122.442 -226.748 118.924C-223.908 116.043 -223.326 111.672 -225.091 108.345C-225.495 107.647 -225.965 106.832 -226.601 106.268C-229.549 103.313 -233.971 102.917 -237.465 104.934C-237.698 105.069 -237.93 105.203 -238.163 105.338M-202.426 53.1974C-203.125 53.6009 -203.756 54.1207 -204.321 54.757C-210.067 60.403 -210.062 69.5572 -204.484 75.1837C-198.906 80.8103 -189.683 80.9174 -184.053 75.3386C-179.385 70.7814 -178.481 63.7406 -181.523 58.2023C-182.195 57.0382 -182.868 55.8741 -183.889 54.9118C-188.629 50.1984 -195.788 49.3647 -201.378 52.5923C-201.727 52.794 -202.077 52.9957 -202.426 53.1974ZM-172.249 30.9633C-172.249 30.9633 -172.831 31.2995 -173.113 31.6176C-175.671 34.1807 -175.671 38.2159 -173.108 40.7718C-170.545 43.3277 -166.509 43.3255 -163.952 40.7624C-161.842 38.7683 -161.488 35.6152 -162.783 33.1034C-163.052 32.6378 -163.388 32.0558 -163.841 31.541C-165.951 29.4999 -169.172 29.0314 -171.617 30.4434C-171.734 30.5106 -171.967 30.6451 -172.083 30.7124M-135.711 6.29835C-139.612 10.5685 -141.121 16.5616 -139.262 22.4723C-138.957 23.538 -138.536 24.5365 -138.115 25.535C-133.253 35.3001 -120.723 40.3274 -110.331 36.8106C-105.9 35.3393 -102.644 32.3728 -100.624 28.8784C-100.624 28.8784 -100.508 28.8112 -100.458 28.6275C-99.4327 26.6385 -98.7745 24.5512 -98.5507 22.2491C-84.9037 -0.374871 -54.1782 -3.36945 -31.9093 1.31222C-66.2262 -24.5063 -101.135 -16.9234 -121.167 -5.35812C-127.805 -1.52542 -132.791 2.74978 -135.644 6.41476" fill="#662F90"/>
</svg>
