<svg width="709" height="915" viewBox="0 0 709 915" fill="none" xmlns="http://www.w3.org/2000/svg">
<g opacity="0.1">
<path d="M401.625 806.244C424.399 814.817 452.294 822.292 477.373 818.306C463.719 841.588 445.988 862.955 424.357 881.747C399.624 883.12 373.5 876.944 352.246 864.896C310.227 841.166 290.58 798.961 285.203 752.696C290.123 747.073 295.541 741.349 301.677 735.581C305.791 730.33 309.686 725.021 313.441 719.792C329.766 759.46 360.872 790.972 401.596 806.354" fill="#666666"/>
<path d="M338.181 874.775C358.03 886.799 381.31 894.801 404.962 897.021C404.515 897.372 403.958 897.693 403.511 898.044C319.26 947.587 196.456 876.564 271.878 769.479C279.83 811.845 299.795 851.548 338.291 874.804" fill="#666666"/>
<path d="M379.942 497.963C376.886 459.732 356.043 404.853 356.043 404.853C356.043 404.853 402.669 441.699 444.33 498.392C444.022 498.662 443.743 498.823 443.436 499.093C422.894 518.648 400.201 516.803 379.942 497.963Z" fill="#666666"/>
<path d="M453.214 511.36C471.559 539.099 485.479 567.535 495.042 595.98C494.903 596.061 494.654 596.112 494.515 596.192C455.224 617.194 401.949 606.919 376.723 570.159C379.68 551.657 380.907 534.339 380.784 518.541C404.276 533.66 430.592 531.652 453.214 511.36Z" fill="#666666"/>
<path d="M509.384 723C506.038 749.986 498.628 775.883 486.972 800.054C486.035 800.038 485.068 800.132 484.042 800.446C459.5 808.575 427.176 800.502 404.454 790.414C367.415 774.019 339.769 746.729 325.903 708.425C325.378 706.872 324.485 705.81 323.424 704.937C335.653 686.096 345.559 667.574 353.364 649.43C387.016 703.506 446.697 728.086 509.384 723Z" fill="#666666"/>
<path d="M499.838 611.03C509.14 643.523 512.709 675.891 510.807 707.146C450.925 712.748 394.632 690.017 363.814 636.347C362.768 634.538 361.488 633.607 360.009 632.975C365.466 618.32 369.758 604.058 372.856 590.3C404.48 623.832 457.823 631.655 499.838 611.03Z" fill="#666666"/>
<path d="M16.6312 240.378C17.2901 240.554 17.949 240.731 18.5491 241.127C24.6462 244.29 27.1134 251.775 23.9505 257.868C20.7875 263.962 13.3003 266.426 7.20324 263.263C2.11616 260.724 -0.272609 255.142 0.670469 249.866C0.964588 248.768 1.25875 247.67 1.80192 246.522C4.50995 241.247 10.4812 238.73 16.082 240.231C16.1919 240.26 16.4115 240.319 16.5213 240.348M51.4891 242.071C51.4891 242.071 52.3675 242.306 52.7774 242.534C56.8251 244.559 58.4236 249.576 56.4274 253.512C54.4018 257.557 49.3835 259.154 45.3652 257.018C42.0568 255.308 40.4349 251.697 41.0172 248.206C41.2231 247.438 41.429 246.669 41.7153 246.04C43.484 242.514 47.4551 240.872 51.189 241.873L51.5185 241.961M109.342 244.043C109.342 244.043 110.221 244.278 110.631 244.506C114.678 246.532 116.277 251.548 114.171 255.454C112.145 259.5 107.127 261.097 103.109 258.961C99.8003 257.251 98.1783 253.64 98.7606 250.149C98.9665 249.38 99.1725 248.612 99.4588 247.983C101.228 244.457 105.199 242.815 108.932 243.816L109.262 243.904M148.079 241.364C148.079 241.364 148.738 241.54 149.148 241.768C152.346 243.448 153.66 247.33 151.98 250.526C150.299 253.723 146.446 254.926 143.218 253.355C140.62 252.071 139.29 249.126 139.805 246.323C139.953 245.774 140.129 245.116 140.276 244.567C141.729 241.78 144.784 240.481 147.75 241.275L147.969 241.334M22.4502 202.407C23.1091 202.584 23.7681 202.76 24.3682 203.157C30.1652 206.122 32.5011 213.218 29.5362 219.012C26.5713 224.806 19.5016 227.029 13.7046 224.064C8.94702 221.613 6.5799 216.39 7.54457 211.472C7.83868 210.375 8.13279 209.277 8.50732 208.318C11.0467 203.234 16.7395 200.877 22.0109 202.29L22.4502 202.407ZM59.0653 204.571C59.0653 204.571 59.7242 204.748 60.0242 204.946C63.1423 206.487 64.3465 210.339 62.8347 213.346C61.2934 216.462 57.44 217.665 54.3513 216.014C51.8626 214.759 50.5036 211.924 51.0996 209.26C51.2467 208.712 51.3938 208.163 51.5702 207.504C52.9939 204.827 55.9098 203.608 58.7651 204.373L58.9848 204.432M132.575 241.68C121.577 233.086 103.688 224.293 89.8922 236.243C89.0706 237.552 87.9489 238.664 86.6664 239.496C86.6664 239.496 86.6369 239.606 86.4977 239.686C84.2112 241.191 81.3834 242.081 78.2712 241.835C71.1388 241.218 65.8359 235.091 66.4514 227.962C66.5181 227.274 66.7239 226.506 66.9004 225.847C67.9592 221.896 70.7968 218.774 74.409 217.153C80.3882 214.167 91.8661 212.184 103.397 215.273C114.928 218.363 125.862 225.881 132.714 241.6M302.708 322.326C295.931 303.687 277.414 279.666 251.617 283.695C249.506 284.541 247.345 285.139 245.082 285.238C245.082 285.238 244.833 285.289 244.694 285.369C240.696 285.357 236.632 284.268 233.2 281.701C225.056 275.637 223.318 264.112 229.383 255.972C230.087 255.102 230.762 254.342 231.517 253.721C235.776 249.685 241.651 247.966 247.26 248.998C249.574 249.147 252.159 249.604 254.794 250.311C274.123 255.49 301.77 274.427 302.649 322.545M182.809 219.375C186.982 220.493 190.927 222.021 194.873 223.549C196.901 224.328 198.899 225.216 200.758 226.185C202.229 227.285 203.531 228.575 204.636 230.165C204.606 230.275 204.796 230.443 204.877 230.582C209.256 237.521 207.254 246.749 200.395 251.264C193.396 255.859 183.884 254.016 179.285 247.019C179.044 246.602 178.803 246.184 178.672 245.796C176.038 243.326 173.514 240.885 170.821 238.634C158.558 228.172 145.239 219.897 133.358 214.596C150.533 213.315 166.086 215.012 180.034 218.749C181.022 219.014 182.01 219.279 182.999 219.544M34.9256 178.691C34.9256 178.691 35.5846 178.868 35.8846 179.066C39.0028 180.607 40.207 184.459 38.6951 187.466C37.1539 190.582 33.3004 191.785 30.2116 190.134C27.6132 188.849 26.3639 186.044 26.96 183.38C27.1071 182.832 27.2541 182.283 27.4306 181.624C28.8542 178.947 31.7701 177.728 34.6255 178.493L34.8452 178.552M91.7397 186.738C91.7397 186.738 92.7281 187.003 93.1085 187.34C97.5661 189.593 99.3764 195.137 97.0428 199.453C94.7898 203.908 89.2734 205.607 84.8158 203.353C81.2074 201.445 79.3443 197.417 80.1246 193.626C80.3305 192.857 80.5658 191.979 80.8815 191.24C82.8483 187.414 87.237 185.531 91.3004 186.62C91.4102 186.65 91.5201 186.679 91.6299 186.709M232.764 216.996C233.423 217.173 234.082 217.349 234.682 217.745C240.809 220.799 243.166 228.254 240.033 234.238C237.009 240.251 229.522 242.715 223.425 239.552C218.448 237.042 215.919 231.541 216.972 226.294C217.266 225.196 217.561 224.099 218.104 222.95C220.812 217.676 226.754 215.268 232.245 216.739C232.355 216.769 232.574 216.827 232.684 216.857M198.688 183.395C199.237 183.542 199.786 183.689 200.276 184.055C205.363 186.595 207.436 192.915 204.787 197.97C202.248 203.054 195.955 205.015 190.868 202.476C186.74 200.311 184.665 195.755 185.482 191.386C185.718 190.507 185.982 189.52 186.357 188.561C188.61 184.106 193.636 182.041 198.249 183.277C198.358 183.306 198.578 183.365 198.688 183.395ZM169.207 186.672C169.031 187.33 168.935 188.128 168.758 188.787C167.7 192.738 164.752 195.831 161.06 197.312C149.329 202.875 116.658 204.003 103.386 171.388C114.186 180.282 131.847 189.485 145.914 177.842C146.845 176.562 147.967 175.451 149.249 174.618C149.249 174.618 149.279 174.508 149.418 174.428C151.814 172.952 154.613 172.173 157.586 172.499C158.245 172.675 158.933 172.742 159.592 172.919C165.632 174.537 169.727 180.34 169.098 186.642M116.87 163.236C103.472 159.646 83.4944 158.646 75.5528 175.107C75.141 176.643 74.7292 178.18 73.7977 179.46L73.7389 179.679C72.1839 181.969 70.0287 183.862 67.1715 184.861C60.4314 187.173 53.046 183.547 50.7317 176.809C50.4395 176.142 50.3963 175.425 50.2433 174.678C49.5666 170.614 50.9844 166.641 53.6533 163.709C59.8715 156.316 77.4656 146.442 96.6842 151.592C103.383 153.387 110.3 157.005 116.98 163.266M137.943 153.118C137.943 153.118 138.822 153.353 139.202 153.691C143.25 155.716 144.878 160.623 142.852 164.669C140.826 168.714 135.808 170.311 131.79 168.175C128.481 166.465 126.859 162.854 127.442 159.363C127.648 158.595 127.853 157.826 128.14 157.197C129.909 153.671 133.88 152.029 137.613 153.03L137.943 153.118Z" fill="#666666"/>
<path d="M57.839 514.009C63.0143 516.219 65.3952 522.269 63.1853 527.441C60.9754 532.614 54.9237 534.992 49.7484 532.782C45.4222 530.917 43.0688 526.522 43.6373 522.203C43.7628 521.296 43.9177 520.278 44.4021 519.349C46.3551 514.696 51.4694 512.302 56.2211 513.457C56.3309 513.487 56.5505 513.546 56.6604 513.575C57.0996 513.693 57.4292 513.781 57.8684 513.899M28.7906 483.166C36.1839 486.324 39.5435 494.871 36.3865 502.26C33.2294 509.65 24.6795 513.006 17.2862 509.848C11.1519 507.263 7.89231 500.978 8.60199 494.816C8.73529 493.439 9.08823 492.122 9.66081 490.864C12.4727 484.323 19.6168 480.943 26.4845 482.548C26.7041 482.607 26.9237 482.666 27.0335 482.695C27.5827 482.843 28.2415 483.019 28.7612 483.276M66.525 472.806C66.525 472.806 67.1839 472.983 67.5134 473.071C71.6199 474.877 73.6361 479.653 71.8007 483.867C69.9947 487.971 65.2176 489.986 61.0013 488.15C57.5243 486.63 55.6533 483.07 56.0964 479.659C56.1924 478.861 56.3983 478.093 56.714 477.354C58.2926 473.659 62.3224 471.798 66.1956 472.718L66.525 472.806ZM14.2265 447.028C14.2265 447.028 14.8855 447.205 15.2149 447.293C19.3214 449.099 21.3375 453.875 19.5021 458.089C17.6962 462.193 12.9191 464.208 8.70274 462.372C5.22573 460.852 3.35483 457.292 3.79791 453.881C3.89397 453.083 4.07044 452.425 4.38615 451.686C5.96467 447.991 10.024 446.02 13.8677 447.05L14.1971 447.138M49.083 463.662C45.9551 464.353 42.7409 463.61 40.2385 461.528C39.7483 461.161 39.3678 460.824 39.0167 460.377C35.3376 456.097 35.8865 449.656 40.1674 445.979C41.9852 444.466 44.2052 443.649 46.4388 443.66C46.4388 443.66 46.5486 443.689 46.6584 443.718C47.9546 443.713 49.0823 443.897 50.2609 444.331C64.7453 445.624 72.1204 431.717 75.193 421.129C81.1909 448.383 59.2569 462.153 49.1634 463.801M60.4118 402.933C60.4118 402.933 60.7413 403.021 60.9609 403.08C63.5084 404.115 64.589 407.111 63.5537 409.657C62.5183 412.203 59.5218 413.283 56.9743 412.247C54.8662 411.329 53.7699 409.271 53.9992 407.097C54.1169 406.658 54.2345 406.219 54.3522 405.78C55.2993 403.563 57.7467 402.336 60.053 402.954L60.2726 403.013M169.714 430.338C168.365 438.447 160.663 443.913 152.55 442.562C145.784 441.455 140.883 436.025 140.136 429.589C139.91 428.234 139.934 426.829 140.206 425.372C141.459 418.061 147.777 412.931 154.947 412.969C155.775 412.956 156.602 412.942 157.481 413.178C157.92 413.295 158.469 413.442 158.908 413.56C166.266 415.532 171.026 422.807 169.795 430.477M117.178 455.085C118.363 456.814 119.269 458.704 119.677 460.695C119.677 460.695 119.728 460.944 119.838 460.974C120.632 464.598 120.401 468.536 118.603 472.172C114.544 480.732 104.199 484.195 95.745 480.165C94.8155 479.681 93.9957 479.226 93.2054 478.661C88.7341 475.581 86.0884 470.519 85.9843 465.197C84.3109 448.16 97.3838 406.839 144.271 404.932C128.449 414.34 108.818 432.256 117.178 455.085ZM99.3501 389.837C103.566 391.672 105.473 396.419 103.637 400.633C101.831 404.737 97.0543 406.751 92.8379 404.915C89.4707 403.425 87.49 399.835 87.933 396.425C88.0291 395.627 88.235 394.859 88.5213 394.229C90.0998 390.535 94.1591 388.564 98.0028 389.593C98.1126 389.623 98.2225 389.652 98.3323 389.682C98.6617 389.77 98.9912 389.858 99.3207 389.947M196.849 402.432C196.111 406.94 191.897 409.929 187.387 409.191C183.674 408.549 181.048 405.61 180.583 402.074C180.43 401.327 180.527 400.529 180.623 399.731C181.242 395.662 184.68 392.936 188.678 392.949C189.147 392.957 189.616 392.965 190.055 393.082C190.385 393.171 190.604 393.229 190.824 393.288C194.887 394.377 197.468 398.363 196.819 402.542M96.6188 348.634C97.2699 349.279 97.8916 350.034 98.4035 350.759C103.434 358.343 101.416 368.508 93.8311 373.534C90.5699 375.602 86.9439 376.395 83.363 376.141C83.363 376.141 83.1434 376.082 83.0336 376.053C81.0784 375.882 79.1311 375.243 77.3524 374.413C54.5451 369.478 39.9928 390.403 33.1571 406.689C28.7451 362.095 66.385 344.18 82.9147 343.55C84.9581 343.392 87.0232 343.592 88.9999 344.122C91.8553 344.887 94.5047 346.421 96.7286 348.664M200.33 365.718C199.438 371.243 194.22 374.904 188.691 374.011C184.181 373.273 180.933 369.579 180.316 365.296C180.221 364.33 180.127 363.363 180.362 362.485C181.217 357.537 185.41 354.19 190.265 354.08C190.844 354.117 191.313 354.125 192.001 354.192C192.33 354.28 192.66 354.368 192.989 354.456C197.931 355.781 201.214 360.66 200.301 365.827M137.95 344.179C137.213 348.688 132.999 351.676 128.488 350.938C124.776 350.296 122.15 347.357 121.685 343.821C121.532 343.074 121.628 342.276 121.724 341.479C122.424 337.549 125.891 334.713 129.78 334.696C130.219 334.814 130.717 334.712 131.157 334.83C131.376 334.888 131.706 334.977 131.925 335.036C135.989 336.124 138.569 340.11 137.921 344.289M147.378 388.941C143.78 391.389 139.326 392.195 135.102 390.828C134.333 390.622 133.594 390.307 132.884 389.881C126.077 386.292 123.377 377.922 126.965 371.118C128.448 368.222 130.881 366.168 133.687 364.92L133.936 364.869C135.519 364.234 137.152 363.848 138.808 363.821C157.738 358.187 159.943 336.778 158.399 321.894C179.991 353.327 159.411 381.812 147.459 389.08M200.203 327.095C199.466 331.604 195.252 334.592 190.741 333.854C187.029 333.212 184.403 330.273 183.938 326.737C183.785 325.99 183.771 325.163 183.977 324.394C184.567 320.435 188.144 317.629 192.033 317.612C192.502 317.62 192.97 317.628 193.41 317.745C193.629 317.804 193.959 317.893 194.178 317.951C198.242 319.04 200.823 323.026 200.174 327.205M306.866 350.734C289.263 341.312 261.875 333.267 245.405 353.442C244.516 355.439 243.189 357.319 241.59 358.891C241.561 359.001 241.532 359.11 241.502 359.22C238.533 361.954 234.862 363.794 230.497 364.271C220.36 365.202 211.302 357.716 210.368 347.584C210.303 346.507 210.348 345.461 210.393 344.414C210.795 338.522 214.052 333.394 218.875 330.333C228.117 323.516 248.717 316.918 269.803 322.568C282.981 326.099 296.382 334.513 307.005 350.654" fill="#666666"/>
<path d="M279.772 633.711C284.216 635.137 286.621 639.781 285.195 644.223C283.799 648.555 279.124 651.067 274.68 649.641C271.115 648.45 268.826 645.131 268.859 641.493C268.846 640.666 268.942 639.868 269.148 639.099C270.426 635.207 274.354 632.847 278.315 633.438C278.645 633.527 279.084 633.644 279.414 633.733C279.414 633.733 279.633 633.791 279.743 633.821M250.248 603.329C255.131 604.873 257.857 610.074 256.284 615.064C254.741 619.945 249.429 622.639 244.546 621.096C240.541 619.787 238.011 616.051 238.023 612.054C238.009 611.226 238.134 610.319 238.37 609.441C239.795 604.999 244.141 602.399 248.541 603.107C248.981 603.225 249.31 603.313 249.75 603.431C249.75 603.431 249.969 603.49 250.079 603.519M260.618 568.579C266.9 570.615 270.401 577.317 268.475 583.625C266.44 589.903 259.735 593.401 253.314 591.445C248.102 589.813 244.819 584.933 244.905 579.78C244.87 578.594 245.024 577.577 245.348 576.369C247.207 570.75 252.696 567.397 258.473 568.239C259.022 568.386 259.601 568.423 260.15 568.571C260.15 568.571 260.369 568.629 260.479 568.659M222.448 555.527C231.779 574.733 205.351 586.828 196.466 567.271C178.223 526.854 204.416 502.46 214.358 491.712C205.178 536.076 222.448 555.527 222.448 555.527ZM239.914 487.266C244.358 488.692 246.763 493.336 245.337 497.778C243.941 502.11 239.266 504.622 234.822 503.196C231.257 502.005 228.968 498.686 229.001 495.048C228.988 494.22 229.084 493.423 229.4 492.684C230.678 488.791 234.606 486.432 238.457 486.993C238.787 487.081 239.226 487.199 239.556 487.287L239.775 487.346M259.282 544.573C256.064 547.358 251.683 548.772 247.341 547.844C246.573 547.638 245.804 547.432 245.035 547.226C237.773 544.457 234.157 536.429 236.896 529.281C238.078 526.186 240.212 523.934 242.887 522.298C242.887 522.298 243.136 522.247 243.165 522.137C244.667 521.363 246.25 520.728 247.854 520.452C265.966 512.599 265.608 491.092 262.241 476.425C287.41 505.051 270.35 535.774 259.311 544.463M239.47 437.97C247.808 440.675 252.485 449.575 249.891 457.939C247.187 466.273 238.284 470.947 229.836 468.212C222.896 466 218.618 459.559 218.816 452.671C218.869 451.156 219.032 449.67 219.414 448.243C221.773 440.758 229.211 436.28 236.804 437.374C237.463 437.55 238.262 437.646 239.03 437.852L239.47 437.97ZM273.725 441.031C278.169 442.457 280.574 447.101 279.148 451.543C277.752 455.875 273.077 458.387 268.633 456.961C265.068 455.77 262.779 452.451 262.812 448.813C262.799 447.986 262.895 447.188 263.101 446.42C264.379 442.527 268.197 440.138 272.158 440.729C272.488 440.817 272.927 440.935 273.257 441.023C273.257 441.023 273.476 441.082 273.586 441.111M314.829 382.515C302.194 384.424 284.727 391.626 282.318 412.039C282.455 413.723 282.314 415.568 281.983 417.243C281.983 417.243 281.924 417.463 281.894 417.573C281.181 420.676 279.808 423.602 277.565 425.824C272.403 431.03 265.081 430.244 261.294 424.171C260.892 423.475 260.599 422.808 260.307 422.141C258.664 418.172 258.742 413.487 260.328 409.324C264.509 396.797 282.308 372.978 307.128 379.628C309.654 380.305 312.091 381.311 314.8 382.625" fill="#666666"/>
<path d="M349.124 219.821C348.724 223.949 346.794 227.197 343.914 229.602C343.914 229.602 343.745 229.792 343.635 229.762C342.016 230.976 340.206 232.02 338.154 232.647C324.021 244.978 319.335 271.252 326.027 293.28C296.9 247.358 304.008 216.438 315.168 203.782C318.27 199.672 323.494 197.307 329.389 197.71C330.436 197.755 331.454 197.91 332.552 198.204C332.772 198.263 332.992 198.322 333.211 198.381C343.095 201.029 350.189 210.577 349.124 219.821ZM307.956 174.908C307.956 174.908 308.776 175.363 309.156 175.7C312.888 178.465 313.659 183.495 310.843 186.976C308.056 190.347 302.834 190.947 299.102 188.183C296.08 185.843 294.986 182.021 296.307 178.846C296.513 178.077 296.909 177.477 297.415 176.907C299.498 174.406 302.933 173.444 306.008 174.268C306.667 174.445 307.326 174.622 307.817 174.988M364.152 172.083C364.152 172.083 364.972 172.538 365.352 172.875C369.084 175.64 369.855 180.67 367.039 184.151C364.252 187.522 359.03 188.123 355.298 185.358C352.247 183.129 351.182 179.196 352.503 176.021C352.709 175.252 353.105 174.653 353.611 174.082C355.694 171.582 359.129 170.62 362.204 171.444C362.863 171.62 363.522 171.797 364.013 172.163M391.55 123.424C392.289 123.74 392.999 124.165 393.68 124.701C400.134 129.607 401.45 138.312 396.581 144.184C391.792 150.195 382.732 151.062 376.249 146.266C370.965 142.262 369.2 135.671 371.389 130.14C371.822 128.962 372.475 127.843 373.238 126.753C376.787 122.292 382.743 120.711 388.234 122.183C389.332 122.477 390.401 122.881 391.44 123.395M368.279 86.8356C368.798 87.0925 369.398 87.4886 369.889 87.8553C374.792 91.5219 375.81 98.2653 372.121 102.806C368.432 107.347 361.526 108.085 356.513 104.389C352.51 101.316 351.051 96.2196 352.747 92.0858C353.122 91.1273 353.577 90.3081 354.251 89.5476C356.928 86.1472 361.499 84.9014 365.672 86.0196C366.551 86.255 367.32 86.461 368.11 87.0257M342.304 132.817C344.375 134.313 346.248 136.109 347.674 138.256C347.784 138.285 347.864 138.425 347.944 138.564C350.445 142.41 351.832 146.899 351.365 151.716C350.269 162.834 339.825 170.624 328.102 169.129C326.864 168.915 325.736 168.731 324.558 168.298C318.027 166.312 312.811 161.62 310.401 155.681C301.061 136.943 298.751 85.3823 352.409 66.1127C337.986 82.6011 322.995 109.996 342.414 132.847M431.705 75.4775C432.744 75.9913 433.754 76.6149 434.735 77.3482C443.83 84.256 445.802 96.6666 438.93 105.178C432.059 113.69 419.132 114.932 410.036 108.025C402.492 102.356 399.946 92.968 403.111 85.1101C403.801 83.4127 404.601 81.7446 405.811 80.3041C410.908 74.0226 419.303 71.6839 427.1 73.7732C428.638 74.1851 430.226 74.846 431.675 75.5873M474.261 62.0569C474.261 62.0569 475.081 62.5118 475.461 62.8491C479.193 65.6138 479.935 70.7536 477.148 74.1246C474.362 77.4956 469.14 78.0964 465.408 75.3317C462.356 73.1023 461.291 69.1698 462.613 65.9945C462.819 65.2261 463.215 64.6264 463.721 64.0561C465.833 61.4455 469.239 60.5935 472.314 61.4175C472.973 61.594 473.632 61.7706 474.232 62.1667M456.399 48.3296C439.832 42.9492 415.14 40.2155 405.006 59.1472C404.506 61.0132 403.816 62.7107 402.826 64.21C402.826 64.21 402.767 64.4296 402.738 64.5393C400.845 67.2088 398.053 69.284 394.397 70.187C386.032 72.4159 376.985 67.5214 374.255 59.2604C374.022 58.3743 373.788 57.4882 373.665 56.6316C372.974 51.7407 374.708 47.0287 378.182 43.7244C385.734 35.7479 406.309 25.7315 428.822 31.7639C437.938 34.2062 447.394 39.3283 456.429 48.2198M508.722 37.9964C509.432 38.4219 510.061 38.7082 510.742 39.2435C516.816 43.8121 518.11 52.159 513.549 57.7604C508.988 63.3618 500.396 64.2362 494.323 59.6676C489.34 55.8618 487.596 49.6299 489.696 44.4278C490.129 43.2498 490.753 42.2404 491.516 41.1507C494.897 36.8801 500.574 35.4601 505.735 36.8431C506.724 37.108 507.793 37.512 508.832 38.0258M408.091 3.26762C408.091 3.26762 408.911 3.72257 409.291 4.05981C413.023 6.82451 413.794 11.8546 410.978 15.3354C408.162 18.8162 402.969 19.3071 399.237 16.5424C396.215 14.2032 395.121 10.3806 396.443 7.20526C396.648 6.43689 397.044 5.83715 397.55 5.26683C399.662 2.65624 403.069 1.80425 406.144 2.62819C406.803 2.80475 407.462 2.9813 407.952 3.34797M444.439 1.59529C444.439 1.59529 445.479 2.10909 445.859 2.44633C450.272 5.74631 451.246 11.7722 447.895 15.9331C444.573 19.9842 438.274 20.6494 433.862 17.3494C430.24 14.6141 428.992 10.0446 430.49 6.21068C430.726 5.33255 431.29 4.54269 431.826 3.8626C434.304 0.762034 438.348 -0.27213 442.192 0.757791C442.961 0.963775 443.729 1.16977 444.439 1.59529ZM485.388 11.7441C485.388 11.7441 486.208 12.199 486.589 12.5363C490.321 15.301 491.092 20.3311 488.276 23.8118C485.599 27.2123 480.267 27.7835 476.564 24.9091C473.513 22.6797 472.448 18.7472 473.769 15.5719C473.946 14.9133 474.371 14.2038 474.877 13.6335C476.989 11.0229 480.396 10.1709 483.47 10.9949C484.129 11.1714 484.788 11.348 485.279 11.7146" fill="#666666"/>
<path d="M601.127 475.935C601.896 476.141 602.775 476.376 603.594 476.831C611.17 480.625 614.353 489.831 610.559 497.403C606.765 504.974 597.475 508.015 589.899 504.22C583.663 501.137 580.441 494.274 581.707 487.79C581.98 486.333 582.443 485.046 583.045 483.678C586.355 477.035 593.909 473.883 600.827 475.736C601.047 475.795 601.157 475.825 601.267 475.854M620.833 450.273C620.833 450.273 621.712 450.509 622.122 450.736C626.059 452.733 627.636 457.39 625.64 461.326C623.644 465.262 618.875 466.807 614.907 464.921C611.679 463.35 610.057 459.739 610.581 456.467C610.787 455.699 610.963 455.041 611.169 454.272C612.909 450.856 616.77 449.185 620.284 450.126L620.504 450.185M561.985 426.976C563.022 429.254 563.173 431.765 562.556 434.07C562.556 434.07 562.526 434.179 562.497 434.289C562.173 435.497 561.601 436.755 560.838 437.845C555.25 452.112 567.299 463.811 577.179 469.988C547.594 467.943 539.925 441.653 541.292 430.843C541.486 427.483 543.137 424.396 546.01 422.46C546.457 422.109 547.014 421.788 547.541 421.576C549.93 420.569 552.442 420.419 554.748 421.036C557.823 421.86 560.435 423.972 561.846 427.056M589.12 425.423C589.12 425.423 589.779 425.599 590.218 425.717C593.446 427.288 594.76 431.169 593.08 434.366C591.509 437.592 587.656 438.795 584.428 437.224C581.829 435.94 580.47 433.105 580.986 430.302C581.133 429.753 581.309 429.095 581.456 428.546C582.909 425.759 585.965 424.46 588.93 425.254C588.93 425.254 589.04 425.284 589.149 425.313M500.287 397.62C500.287 397.62 500.946 397.797 501.385 397.914C504.613 399.485 505.927 403.367 504.247 406.563C502.676 409.79 498.823 410.992 495.595 409.422C492.996 408.137 491.637 405.302 492.153 402.499C492.3 401.951 492.476 401.292 492.623 400.743C494.076 397.956 497.132 396.657 500.097 397.451C500.097 397.451 500.207 397.481 500.316 397.51M455.525 384.567C455.525 384.567 456.514 384.832 457.033 385.089C461.491 387.342 463.331 392.776 461.077 397.232C458.824 401.687 453.388 403.524 448.931 401.271C445.293 399.473 443.43 395.444 444.1 391.624C444.306 390.855 444.542 389.977 444.857 389.238C446.854 385.303 451.213 383.53 455.276 384.618C455.276 384.618 455.496 384.677 455.606 384.707M623.03 416.156C623.03 416.156 623.689 416.333 624.128 416.45C627.356 418.021 628.67 421.903 626.99 425.099C625.419 428.326 621.566 429.528 618.338 427.958C615.739 426.673 614.38 423.838 614.896 421.035C615.043 420.487 615.219 419.828 615.367 419.279C616.82 416.492 619.875 415.193 622.84 415.987L623.06 416.046M537.121 380.078C544.327 401.067 570.469 396.19 579.412 395.763C570.84 411.937 524.387 412.666 519.531 393.012C515.965 378.644 526.076 374.295 532.446 376.001C534.752 376.619 536.603 378.057 537.121 380.078ZM432.37 349.304C437.2 352.363 440.644 357.521 441.209 363.319C441.274 364.396 441.368 365.362 441.293 366.519C440.572 376.678 431.563 384.382 421.428 383.549C417.049 383.199 413.302 381.371 410.258 378.673C410.258 378.673 410.038 378.615 409.987 378.366C408.385 376.877 407.01 374.98 406.024 372.951C389.04 352.87 361.568 361.392 344.113 371.185C364.646 338.922 395.847 336.694 416.493 342.226C423.192 344.021 428.748 346.569 432.509 349.224M599.469 383.725C599.469 383.725 600.347 383.96 600.757 384.188C604.805 386.214 606.433 391.12 604.407 395.166C602.382 399.211 597.473 400.837 593.425 398.812C590.117 397.102 588.385 393.461 589.077 390C589.283 389.231 589.489 388.463 589.666 387.804C591.434 384.278 595.435 382.526 599.169 383.527L599.389 383.586M494.971 349.372C502.262 352.031 506.098 360.118 503.469 367.296C500.81 374.584 492.75 378.306 485.459 375.647C478.167 372.987 474.302 365.01 476.961 357.723C479.502 350.874 486.873 347.085 493.792 348.938C494.122 349.027 494.561 349.144 495 349.262M458.614 325.159C458.614 325.159 459.602 325.424 460.122 325.681C464.579 327.934 466.419 333.369 464.166 337.824C461.913 342.279 456.477 344.116 452.019 341.863C448.381 340.065 446.518 336.036 447.189 332.216C447.424 331.338 447.63 330.569 447.865 329.691C449.862 325.755 454.221 323.982 458.284 325.071L458.614 325.159ZM571.835 359.026C573.566 362.667 573.525 366.773 571.727 370.409C571.441 371.038 571.045 371.638 570.539 372.209C566.227 377.759 558.155 378.89 552.601 374.579C550.15 372.745 548.703 370.24 548.002 367.582C548.002 367.582 548.032 367.472 548.061 367.362C547.755 365.868 547.698 364.324 547.89 362.728C545.625 344.827 526.465 339.458 512.72 338.481C524.392 333.137 534.821 332.873 543.606 335.227C558.871 339.317 569.067 351.344 572.113 358.866" fill="#666666"/>
<path d="M434.193 268.263C434.193 268.263 435.071 268.498 435.561 268.865C439.631 271.249 441.09 276.346 438.705 280.413C436.431 284.509 431.222 285.937 427.153 283.553C423.794 281.594 422.23 277.763 423.062 274.221C423.268 273.453 423.474 272.685 423.899 271.975C425.887 268.508 429.829 266.976 433.453 267.947C433.673 268.006 433.893 268.065 434.112 268.123M403.935 258.626C404.696 259.3 405.567 260.004 406.298 260.788C413.254 268.652 413.351 281.031 406.554 288.386C403.607 291.479 399.995 293.099 396.237 293.504C396.237 293.504 396.018 293.445 395.878 293.526C393.725 293.655 391.689 293.345 389.522 292.646C364.697 291.289 362.562 301.893 342.133 332.89C340.211 281.198 371.381 259.315 388.464 255.304C391.292 254.414 394.463 254.441 397.428 255.235C399.734 255.853 402.003 257.049 404.045 258.655M412.839 225.835C412.839 225.835 413.608 226.041 413.878 226.349C417.047 228.139 418.113 232.071 416.322 235.239C414.561 238.296 410.598 239.47 407.429 237.679C404.889 236.175 403.669 233.26 404.405 230.516C404.552 229.967 404.728 229.309 405.095 228.819C406.628 226.171 409.625 225.091 412.37 225.827C412.59 225.886 412.7 225.915 412.919 225.974M532.331 244.206C532.331 244.206 532.88 244.353 533.18 244.551C535.829 246.084 536.712 249.38 535.179 252.027C533.645 254.675 530.349 255.557 527.699 254.023C525.569 252.747 524.561 250.359 525.069 248.025C525.187 247.585 525.334 247.037 525.591 246.517C526.897 244.279 529.395 243.301 531.701 243.919C531.811 243.949 532.031 244.008 532.141 244.037M431.346 252.088C427.124 248.957 424.728 243.844 425.071 238.171C425.116 237.124 425.271 236.107 425.425 235.09C427.714 225.232 437.293 218.034 446.981 219.218C451.081 219.729 454.441 221.688 456.877 224.458C456.877 224.458 456.986 224.488 457.037 224.737C458.39 226.276 459.297 228.165 459.954 230.106C476.149 247.857 502.956 244.452 521.084 235.663C488.912 276.219 444.151 263.166 431.317 252.198M675.508 261.158C676.167 261.335 676.687 261.591 677.207 261.848C682.425 264.776 684.271 271.506 681.233 276.692C678.306 281.908 671.573 283.751 666.384 280.713C662.095 278.27 660.138 273.275 661.234 268.745C661.499 267.757 661.764 266.769 662.358 265.87C664.831 261.473 669.937 259.548 674.659 260.813C674.989 260.901 675.318 260.989 675.538 261.048M562.562 230.659C562.562 230.659 563.441 230.894 563.931 231.261C568 233.645 569.459 238.742 567.075 242.809C564.8 246.906 559.592 248.334 555.522 245.949C552.163 243.99 550.6 240.16 551.431 236.618C551.637 235.849 551.843 235.081 552.269 234.371C554.257 230.904 558.199 229.372 561.933 230.372C562.152 230.431 562.372 230.49 562.592 230.549M438.333 190.431C438.992 190.607 439.622 190.894 440.222 191.29C446.041 194.613 448.069 201.98 444.774 207.686C441.45 213.501 434.11 215.417 428.262 212.203C423.454 209.503 421.284 203.98 422.498 199.011C422.792 197.914 423.086 196.816 423.71 195.806C426.44 190.891 432.184 188.783 437.345 190.166C437.675 190.254 438.004 190.342 438.333 190.431ZM526.458 209.455C526.458 209.455 527.417 209.83 527.937 210.087C532.526 212.728 534.167 218.462 531.526 223.049C528.885 227.635 523.039 229.245 518.45 226.604C514.681 224.417 513.016 220.089 513.965 216.108C514.2 215.23 514.435 214.351 514.89 213.532C517.106 209.655 521.546 208.021 525.609 209.11C525.829 209.169 526.158 209.257 526.378 209.316M647.612 242.271C650.326 244.881 651.64 248.762 650.691 252.743C650.514 253.402 650.309 254.17 650.132 254.829C647.291 261.48 639.311 265.341 632.393 263.488C629.428 262.693 627.196 260.919 625.66 258.742C625.66 258.742 625.66 258.742 625.609 258.493C624.776 257.211 624.301 255.908 624.105 254.443C614.138 240.243 593.853 239.514 579.443 243.653C596.457 228.917 614.701 228.041 628.318 231.69C637.434 234.132 644.584 238.636 647.941 242.36M465.381 167.678C465.381 167.678 465.931 167.825 466.231 168.023C468.88 169.557 469.763 172.852 468.229 175.5C466.696 178.148 463.399 179.029 460.75 177.496C458.62 176.219 457.612 173.832 458.12 171.497C458.238 171.058 458.385 170.509 458.612 170.099C459.918 167.861 462.416 166.884 464.832 167.531C464.942 167.56 465.162 167.619 465.272 167.649M699.003 226.63C699.771 226.836 700.481 227.261 701.221 227.577C708.079 231.414 710.442 240.165 706.495 246.99C702.657 253.844 693.903 256.204 687.074 252.257C681.446 249.102 678.824 242.635 680.302 236.678C680.655 235.361 681.008 234.043 681.691 232.814C684.985 227.109 691.674 224.548 697.714 226.167C698.153 226.284 698.483 226.373 698.922 226.49M585.957 220.222C579.232 208.42 565.565 196.169 549.618 199.896C548.555 200.788 547.222 201.372 545.947 201.736L545.808 201.816C543.427 202.355 540.754 202.227 538.295 200.862C532.527 197.787 529.76 190.105 532.293 183.725C532.47 183.066 532.866 182.466 533.262 181.867C535.331 178.539 538.563 176.581 542.122 176.476C544.803 176.135 548.493 176.418 552.667 177.537C566.175 181.156 584.148 193.148 586.016 220.002M661.549 200.359C661.549 200.359 662.318 200.565 662.699 200.902C666.387 202.949 667.605 207.628 665.588 211.205C663.57 214.782 658.859 216.109 655.31 213.981C652.36 212.249 650.929 208.807 651.642 205.704C651.819 205.045 652.025 204.277 652.421 203.677C654.182 200.62 657.706 199.329 661 200.212C661.22 200.27 661.44 200.329 661.659 200.388M495.452 201.735C496.307 203.376 496.803 205.039 496.94 206.723C496.94 206.723 497.021 206.862 496.991 206.971C497.215 210.09 496.362 213.274 494.111 215.964C488.985 222.356 478.95 223.785 471.72 219.141C471.01 218.716 470.329 218.18 469.678 217.535C466.064 214.332 464.457 209.784 465.136 205.495C466.228 191.317 485.305 157.017 528.845 162.33C512.706 167.653 494.631 181.515 495.452 201.735ZM627.285 184.589C628.164 184.825 628.983 185.28 629.913 185.764C637.971 190.394 640.78 200.558 636.15 208.612C631.55 216.556 621.352 219.47 613.294 214.841C606.656 211.062 603.639 203.43 605.273 196.456C605.685 194.919 606.096 193.382 606.947 191.963C610.755 185.219 618.609 182.265 625.887 184.097C626.326 184.215 626.875 184.362 627.315 184.48M692.436 190.517C692.436 190.517 693.314 190.752 693.585 191.06C697.274 193.107 698.492 197.787 696.474 201.364C694.456 204.941 689.746 206.267 686.196 204.139C683.247 202.408 681.815 198.965 682.529 195.862C682.705 195.204 682.911 194.435 683.307 193.836C685.068 190.778 688.592 189.487 691.887 190.37C692.106 190.429 692.326 190.487 692.546 190.546M651.952 155.787C652.611 155.964 653.241 156.25 653.841 156.646C659.769 159.999 661.768 167.476 658.444 173.291C655.12 179.106 647.611 181.212 641.793 177.888C636.984 175.188 634.705 169.636 635.978 164.448C636.272 163.35 636.566 162.252 637.19 161.243C640.029 156.357 645.693 154.11 650.964 155.522C651.293 155.61 651.623 155.699 651.952 155.787ZM622.444 144.233C622.444 144.233 622.993 144.38 623.293 144.578C625.942 146.112 626.825 149.407 625.292 152.055C623.758 154.703 620.462 155.584 617.812 154.051C615.653 152.884 614.674 150.387 615.182 148.052C615.3 147.613 615.447 147.064 615.704 146.545C616.98 144.416 619.508 143.329 621.814 143.947C621.924 143.976 622.144 144.035 622.254 144.064M587.209 132.086C591.329 134.719 593.873 139.283 593.648 144.517C593.632 145.454 593.507 146.362 593.381 147.269C591.548 156.308 582.415 163.155 573.159 162.557C569.219 162.325 565.911 160.615 563.497 158.203C563.497 158.203 563.387 158.174 563.307 158.034C562.034 156.635 561.04 155.074 560.353 153.243C544.258 137.754 518.512 142.032 501.351 150.728C523.725 122.134 553.892 120.688 572.781 125.75C579.041 127.427 584.048 129.827 587.18 132.196" fill="#666666"/>
</g>
</svg>
