<svg width="16" height="16" viewBox="0 0 16 16" fill="none" xmlns="http://www.w3.org/2000/svg">
<path d="M5.33397 8C5.33397 6.5273 6.52754 5.33312 8.00032 5.33312C9.47309 5.33312 10.6673 6.5273 10.6673 8C10.6673 9.4727 9.47309 10.6669 8.00032 10.6669C6.52754 10.6669 5.33397 9.4727 5.33397 8ZM3.89225 8C3.89225 10.2688 5.73141 12.1079 8.00032 12.1079C10.2692 12.1079 12.1084 10.2688 12.1084 8C12.1084 5.7312 10.2692 3.8921 8.00032 3.8921C5.73141 3.8921 3.89225 5.7312 3.89225 8ZM11.311 3.72922C11.3109 3.91907 11.3671 4.1047 11.4726 4.26262C11.578 4.42054 11.7279 4.54365 11.9033 4.61638C12.0787 4.68912 12.2717 4.70819 12.458 4.67123C12.6442 4.63427 12.8153 4.54291 12.9496 4.4087C13.0839 4.2745 13.1754 4.10346 13.2125 3.91725C13.2497 3.73107 13.2307 3.53802 13.1581 3.36259C13.0855 3.18714 12.9625 3.03715 12.8047 2.93162C12.6469 2.82605 12.4613 2.76966 12.2714 2.7696H12.271C12.0165 2.76973 11.7724 2.87085 11.5924 3.05078C11.4124 3.23069 11.3112 3.47472 11.311 3.72922ZM4.76818 14.5118C3.9882 14.4763 3.56424 14.3464 3.28251 14.2366C2.90899 14.0912 2.64249 13.918 2.36226 13.6382C2.08207 13.3584 1.90863 13.0922 1.76384 12.7187C1.65402 12.4371 1.52411 12.013 1.48864 11.233C1.44984 10.3898 1.4421 10.1364 1.4421 8.00006C1.4421 5.86368 1.45048 5.61107 1.48864 4.7671C1.52417 3.98714 1.65504 3.5639 1.76384 3.28147C1.90927 2.90797 2.08245 2.64147 2.36226 2.36128C2.6421 2.08109 2.90836 1.90765 3.28251 1.76288C3.56412 1.65306 3.9882 1.52314 4.76818 1.48768C5.61148 1.4489 5.86481 1.44115 8.00032 1.44115C10.1358 1.44115 10.3894 1.44954 11.2334 1.48768C12.0134 1.5232 12.4367 1.65408 12.7191 1.76288C13.0926 1.90765 13.3591 2.08147 13.6393 2.36128C13.9195 2.64109 14.0923 2.90797 14.2378 3.28147C14.3476 3.56307 14.4775 3.98714 14.513 4.7671C14.5518 5.61107 14.5595 5.86368 14.5595 8.00006C14.5595 10.1364 14.5518 10.3891 14.513 11.233C14.4774 12.013 14.3469 12.4369 14.2378 12.7187C14.0923 13.0922 13.9192 13.3587 13.6393 13.6382C13.3595 13.9178 13.0926 14.0912 12.7191 14.2366C12.4375 14.3464 12.0134 14.4764 11.2334 14.5118C10.3901 14.5506 10.1368 14.5583 8.00032 14.5583C5.86385 14.5583 5.61123 14.5506 4.76818 14.5118ZM4.70194 0.0484479C3.85026 0.0872319 3.26828 0.222272 2.76005 0.420032C2.23369 0.624256 1.78812 0.89824 1.34283 1.34278C0.897577 1.78733 0.624291 2.2336 0.420053 2.75994C0.222276 3.26848 0.0872474 3.85011 0.0484531 4.70176C0.00901917 5.55475 0 5.82746 0 8C0 10.1725 0.00901917 10.4452 0.0484531 11.2982C0.0872474 12.15 0.222276 12.7315 0.420053 13.2401C0.624291 13.7661 0.897641 14.2129 1.34283 14.6572C1.78805 15.1016 2.23369 15.3752 2.76005 15.58C3.26924 15.7777 3.85026 15.9128 4.70194 15.9516C5.55542 15.9903 5.82768 16 8.00032 16C10.173 16 10.4457 15.991 11.2987 15.9516C12.1504 15.9128 12.732 15.7777 13.2406 15.58C13.7666 15.3752 14.2125 15.1018 14.6578 14.6572C15.1031 14.2127 15.3758 13.7661 15.5806 13.2401C15.7784 12.7315 15.914 12.1499 15.9522 11.2982C15.991 10.4446 16 10.1725 16 8C16 5.82746 15.991 5.55475 15.9522 4.70176C15.9134 3.85005 15.7784 3.26816 15.5806 2.75994C15.3758 2.23392 15.1024 1.78803 14.6578 1.34278C14.2132 0.897536 13.7666 0.624256 13.2412 0.420032C12.732 0.222272 12.1504 0.0865919 11.2993 0.0484479C10.4463 0.00966388 10.1736 0 8.00096 0C5.82832 0 5.55542 0.00902388 4.70194 0.0484479Z" fill="#da2229"/>
</svg>
