<svg width="18" height="19" viewBox="0 0 18 19" fill="none" xmlns="http://www.w3.org/2000/svg">
<g clip-path="url(#clip0_734_191)">
<path d="M3 7.84233C3 12.9332 9.5 17.2969 9.5 17.2969C9.5 17.2969 16 12.9332 16 7.84233C16 6.10637 15.3152 4.44151 14.0962 3.21399C12.8772 1.98648 11.2239 1.29687 9.5 1.29688C7.77609 1.29688 6.12279 1.98648 4.90381 3.21399C3.68482 4.44151 3 6.10637 3 7.84233Z" stroke="#666666" stroke-width="1.06641" stroke-linecap="round" stroke-linejoin="round"/>
<path d="M9.5 10.2969C8.11929 10.2969 7 9.17759 7 7.79688C7 6.41616 8.11929 5.29688 9.5 5.29688C10.8807 5.29688 12 6.41616 12 7.79688C12 9.17759 10.8807 10.2969 9.5 10.2969Z" stroke="#666666" stroke-width="1.06641" stroke-linecap="round" stroke-linejoin="round"/>
</g>
<defs>
<clipPath id="clip0_734_191">
<rect width="18" height="18" fill="white" transform="matrix(-1 0 0 1 18 0.296875)"/>
</clipPath>
</defs>
</svg>
