<svg width="108" height="80" viewBox="0 0 108 80" fill="none" xmlns="http://www.w3.org/2000/svg">
<path d="M13.8734 69.1593C11.7755 69.3713 9.26743 69.3713 7.25488 68.4585C7.87542 70.733 8.88017 72.9414 10.2737 75.0238C12.3152 75.7 14.6419 75.7676 16.6971 75.2344C20.7588 74.1786 23.3477 71.0603 24.8388 67.2643C24.5537 66.6757 24.2228 66.0702 23.8462 65.4432C23.616 64.9022 23.4087 64.3705 23.212 63.8418C20.9555 66.8248 17.6317 68.7812 13.8719 69.1593" fill="#DA2128"/>
<path d="M17.6497 76.3962C15.7149 76.9602 13.5804 77.1139 11.5557 76.765C11.5877 76.805 11.6197 76.848 11.6517 76.888C17.604 82.9861 29.5009 79.7603 25.5795 68.9994C23.9664 72.4035 21.3943 75.3035 17.6497 76.3962Z" fill="#DA2128"/>
<path d="M22.6136 43.5862C23.7296 40.4234 26.7119 36.2555 26.7119 36.2555C26.7119 36.2555 21.9717 38.3179 17.2041 42.1631C17.2224 42.1861 17.2437 42.2107 17.2605 42.2399C18.5428 44.3546 20.4913 44.7188 22.6121 43.5862" fill="#FFE700"/>
<path d="M16.1674 43.056C14.007 44.9848 12.2003 47.0718 10.7549 49.2587C10.7701 49.271 10.7839 49.2787 10.7976 49.291C13.6243 51.9558 18.3172 52.2909 21.2552 49.7628C21.4199 48.1322 21.7096 46.6399 22.0755 45.3075C19.7641 46.0559 17.6037 45.2829 16.1674 43.056Z" fill="#FFCC03"/>
<path d="M6.70719 59.6815C6.37786 62.0359 6.42665 64.398 6.85508 66.7079C6.93284 66.7248 7.01212 66.7555 7.09293 66.8093C8.96673 68.0495 11.8605 68.0987 13.9935 67.7652C17.4667 67.2196 20.3971 65.5337 22.4203 62.6107C22.5011 62.4939 22.6002 62.4186 22.7039 62.3709C22.1002 60.5021 21.6915 58.7086 21.44 57.0012C17.3996 60.8156 11.8483 61.538 6.70719 59.683" fill="#F37421"/>
<path d="M10.0216 50.4314C8.51681 52.9702 7.48614 55.6244 6.94336 58.3046C11.839 60.1304 17.0671 59.4849 20.8589 55.652C20.984 55.526 21.1197 55.4676 21.2523 55.4569C21.1212 54.0952 21.0846 52.7889 21.1303 51.5548C17.7288 53.6772 13.0771 53.1239 10.0201 50.4314" fill="#F89E1B"/>
<path d="M58.8606 30.039C58.8011 30.0421 58.7401 30.0452 58.6791 30.059C58.0952 30.185 57.7216 30.7613 57.8467 31.3484C57.9717 31.9355 58.5465 32.3089 59.132 32.1829C59.6122 32.0799 59.9461 31.6696 59.9797 31.2024C59.9873 31.101 59.9858 30.998 59.9629 30.895C59.8546 30.3848 59.4049 30.039 58.9063 30.039C58.8911 30.039 58.8758 30.039 58.8621 30.039M55.8951 29.3874C55.8555 29.3889 55.8143 29.3935 55.7747 29.4028C55.3904 29.4842 55.145 29.8653 55.2273 30.2526C55.3096 30.6399 55.6878 30.8858 56.072 30.8028C56.3891 30.7337 56.6102 30.4632 56.6315 30.1543C56.6376 30.0882 56.6361 30.0206 56.6208 29.9514C56.5492 29.6148 56.2534 29.3874 55.9241 29.3874H55.8936M51.0025 28.2594C50.9628 28.2609 50.9217 28.264 50.8835 28.2732C50.4963 28.3546 50.2508 28.7358 50.3347 29.1246C50.4155 29.5119 50.7951 29.7578 51.1809 29.6748C51.498 29.6056 51.7175 29.3351 51.7389 29.0262C51.745 28.9602 51.7435 28.891 51.7282 28.8234C51.6565 28.4868 51.3623 28.2594 51.033 28.2594H51.0025ZM47.8068 27.1605C47.7763 27.1605 47.7443 27.1636 47.7123 27.1713C47.4073 27.2374 47.2122 27.537 47.2792 27.8444C47.3433 28.1518 47.6421 28.3439 47.9486 28.2809C48.2001 28.2255 48.374 28.0104 48.3907 27.7691C48.3938 27.7169 48.3938 27.6615 48.3816 27.6077C48.3252 27.3419 48.0904 27.1605 47.8312 27.1605C47.822 27.1605 47.8144 27.1605 47.8068 27.1605ZM59.2067 26.7179C59.1487 26.7194 59.0923 26.7256 59.0344 26.7364C58.4809 26.8547 58.1272 27.4033 58.2477 27.9597C58.3666 28.5145 58.9094 28.8695 59.4643 28.7511C59.9187 28.6528 60.2358 28.264 60.2678 27.8198C60.277 27.7245 60.2739 27.6246 60.2526 27.5294C60.1504 27.0453 59.7266 26.7164 59.2509 26.7164C59.2356 26.7164 59.2234 26.7164 59.2082 26.7164M56.0903 26.0663C56.0598 26.0663 56.0308 26.0694 55.9988 26.077C55.703 26.1401 55.5155 26.4305 55.5795 26.7271C55.642 27.0237 55.9317 27.2112 56.226 27.1482C56.4684 27.096 56.6376 26.8885 56.6544 26.6518C56.659 26.5996 56.6574 26.5489 56.6452 26.4981C56.5919 26.24 56.3647 26.0648 56.1131 26.0648H56.0903M49.086 27.5432C50.1974 27.0683 51.9005 26.7271 52.7878 28.0488C52.8321 28.1779 52.9007 28.2978 52.9876 28.4023C52.9921 28.41 52.9937 28.4176 52.9982 28.4238L53.0028 28.4207C53.1629 28.6051 53.3794 28.7404 53.6401 28.7896C54.2485 28.9018 54.8339 28.4976 54.9468 27.8844C54.959 27.8229 54.962 27.7583 54.962 27.6953C54.9666 27.3357 54.7989 27.0053 54.5244 26.7932L54.5275 26.7901C54.096 26.4044 53.1812 25.9818 52.1353 25.9818C51.0894 25.9818 50.0175 26.369 49.086 27.5447M33.0191 30.517C34.0025 29.0892 36.0974 27.4802 38.1725 28.4023C38.3249 28.5252 38.4972 28.6174 38.6817 28.6758C38.6908 28.682 38.7 28.6866 38.7107 28.6927V28.6851C39.0476 28.788 39.412 28.7865 39.7627 28.6451C40.5845 28.3162 40.987 27.3803 40.6592 26.5535C40.6241 26.4689 40.5799 26.389 40.5342 26.3122C40.2673 25.8742 39.8145 25.6022 39.322 25.553V25.5468C39.1254 25.5146 38.9012 25.4946 38.6558 25.4946C36.9238 25.4946 34.1748 26.4674 33.0176 30.5154M45.378 24.5049C45.0029 24.5156 44.637 24.5417 44.2757 24.5863C44.0881 24.6094 43.9037 24.637 43.7222 24.6708C43.5743 24.7277 43.4341 24.8061 43.309 24.9152C43.2984 24.926 43.2907 24.9367 43.2816 24.9444C42.7632 25.4362 42.719 26.2522 43.1947 26.7917C43.678 27.3419 44.515 27.3941 45.0639 26.9069C45.0959 26.8793 45.1203 26.8455 45.1493 26.8147C45.4207 26.6641 45.6936 26.5181 45.9711 26.386C47.2381 25.782 48.5371 25.3855 49.6547 25.2057C48.2428 24.7093 46.9042 24.4987 45.6433 24.4987C45.5549 24.4987 45.4664 24.4987 45.3795 24.5018M58.7096 24.405C58.6791 24.405 58.6502 24.4096 58.6181 24.4157C58.3239 24.4787 58.1348 24.7692 58.1989 25.0658C58.2614 25.3624 58.5511 25.5514 58.8468 25.4869C59.0893 25.4346 59.257 25.2272 59.2738 24.9905C59.2783 24.9383 59.2768 24.8875 59.2661 24.8353C59.2112 24.5786 58.9856 24.4019 58.7325 24.4019C58.7249 24.4019 58.7172 24.4019 58.7096 24.4019M53.7545 23.8087C53.7103 23.8102 53.6661 23.8133 53.6218 23.824C53.1965 23.9147 52.9235 24.3358 53.0165 24.7631C53.108 25.1888 53.5243 25.4623 53.9512 25.3716C54.3018 25.2963 54.5443 24.9967 54.5671 24.6555C54.5747 24.5817 54.5732 24.5064 54.5565 24.4311C54.4756 24.0607 54.1509 23.8087 53.7865 23.8087H53.753M41.2401 23.1709C41.1791 23.174 41.1211 23.177 41.0602 23.1909C40.4823 23.3154 40.1149 23.8855 40.2384 24.4664C40.3619 25.0458 40.929 25.4177 41.5084 25.2933C41.9841 25.1903 42.3134 24.7846 42.3455 24.322C42.3546 24.2205 42.3515 24.1207 42.3302 24.0177C42.222 23.5136 41.7798 23.1709 41.2843 23.1709C41.269 23.1709 41.2538 23.1709 41.2385 23.1709M44.8413 21.11C44.791 21.11 44.7407 21.1146 44.6904 21.1254C44.2071 21.2299 43.8976 21.7094 44.0012 22.1965C44.1049 22.6837 44.5806 22.9942 45.067 22.8896C45.4664 22.8036 45.7439 22.4624 45.7698 22.0736C45.7759 21.9906 45.7759 21.9045 45.7561 21.8185C45.6662 21.3943 45.2926 21.1085 44.8779 21.1085C44.8657 21.1085 44.852 21.1085 44.8398 21.1085M47.2381 22.0505C47.2274 22.1135 47.2274 22.1781 47.2274 22.2411C47.2335 22.6007 47.4073 22.9265 47.6863 23.134L47.6833 23.1371C48.5447 23.8686 51.2556 24.7062 53.1065 22.2519C52.0057 22.7544 50.3103 23.134 49.394 21.8354C49.3467 21.7078 49.275 21.5895 49.1851 21.4865C49.182 21.4804 49.1774 21.4742 49.1744 21.4665L49.1698 21.4712C49.0036 21.2913 48.7856 21.1592 48.5249 21.1177C48.4639 21.1085 48.4044 21.1023 48.3465 21.1023C47.8053 21.1023 47.328 21.4973 47.2396 22.0521M52.146 21.2545C53.3565 21.2606 55.0535 21.6264 55.3447 23.1939C55.334 23.3307 55.3493 23.4675 55.3889 23.5981C55.3889 23.6043 55.3889 23.6135 55.3889 23.6196H55.395C55.4712 23.8532 55.6146 24.0638 55.8341 24.2113C56.3479 24.5571 57.0447 24.4188 57.3908 23.9024C57.4259 23.8486 57.4548 23.7918 57.4792 23.7349C57.6256 23.406 57.6012 23.0356 57.435 22.7314H57.4381C57.0828 21.9675 55.8311 20.7289 54.1067 20.7289C53.5029 20.7289 52.8443 20.881 52.1444 21.256M50.6137 19.9189C50.574 19.9205 50.5344 19.9251 50.4932 19.9343C50.109 20.0173 49.8636 20.3969 49.9459 20.7857C50.0267 21.173 50.4079 21.4189 50.7921 21.3359C51.1092 21.2668 51.3303 20.9947 51.3516 20.6889C51.3562 20.6197 51.3547 20.5521 51.3409 20.486C51.2693 20.1495 50.972 19.9205 50.6426 19.9205H50.6137" fill="url(#paint0_linear_815_1964)"/>
<path d="M49.2582 52.2447C48.7719 52.3169 48.4349 52.7703 48.5066 53.259C48.5782 53.7462 49.028 54.0843 49.5144 54.0136C49.9154 53.9537 50.2096 53.6355 50.263 53.2544C50.2752 53.1714 50.2798 53.0869 50.2645 53.0008C50.202 52.5628 49.833 52.2493 49.4077 52.2401H49.368C49.3314 52.2401 49.2948 52.2401 49.2582 52.2462M52.3884 50.3037C51.6977 50.4067 51.2205 51.049 51.3226 51.7422C51.4248 52.4353 52.0636 52.9163 52.7543 52.8149C53.3215 52.7288 53.7438 52.277 53.817 51.7329C53.8353 51.6161 53.8398 51.4963 53.8215 51.3749C53.7331 50.754 53.2071 50.3068 52.6018 50.2929C52.5835 50.2929 52.5667 50.2929 52.5485 50.2929C52.4966 50.2929 52.4433 50.2945 52.3884 50.3037ZM49.368 48.5732C48.9762 48.6301 48.7078 48.9943 48.7658 49.3862C48.8222 49.7765 49.1835 50.0486 49.5738 49.9917C49.8955 49.9441 50.1319 49.6874 50.1746 49.3816C50.1837 49.3155 50.1883 49.2479 50.1761 49.1787C50.1242 48.8299 49.83 48.5778 49.4885 48.5686C49.4778 48.5686 49.4686 48.5686 49.458 48.5686C49.4275 48.5686 49.397 48.5701 49.368 48.5747M54.3277 47.5773C53.9389 47.6357 53.6691 47.9984 53.7255 48.3919C53.7834 48.7822 54.1448 49.0542 54.5351 48.9958C54.8568 48.9482 55.0931 48.6931 55.1343 48.3872C55.145 48.3212 55.148 48.2535 55.1358 48.1844C55.0855 47.8324 54.7897 47.5804 54.4467 47.5727C54.436 47.5727 54.4253 47.5727 54.4162 47.5727C54.3872 47.5727 54.3567 47.5743 54.3277 47.5789M51.1168 48.1859H51.1183C51.3623 48.3135 51.655 48.3273 51.9127 48.2059C51.9569 48.1859 52.0026 48.1613 52.0453 48.1337C52.4494 47.8509 52.55 47.2946 52.271 46.8888C52.152 46.7167 51.9828 46.603 51.7968 46.5461V46.5415H51.7815C51.6763 46.5123 51.5681 46.5016 51.4614 46.5108C50.2188 46.2956 49.9093 44.9478 49.891 43.9842C48.7734 46.1542 50.2996 47.8186 51.1168 48.1875M51.5468 42.787C51.5285 42.787 51.5117 42.787 51.4949 42.7901C51.2571 42.8254 51.0955 43.0452 51.1305 43.2819C51.1656 43.5186 51.3836 43.6845 51.6184 43.6492C51.8151 43.62 51.9569 43.4632 51.9828 43.2803C51.9889 43.2404 51.9904 43.1989 51.9843 43.1574C51.9538 42.9453 51.7739 42.7916 51.5666 42.787H51.5468ZM41.7508 42.6195C41.6822 43.3387 42.2052 43.9765 42.9187 44.0472C43.5072 44.1041 44.0393 43.7537 44.2497 43.2296C44.2955 43.1159 44.3305 42.9976 44.3412 42.8715C44.4052 42.2291 43.9905 41.6513 43.3883 41.4884C43.3166 41.4699 43.2465 41.453 43.1718 41.4438C43.1291 41.4407 43.0864 41.4377 43.0452 41.4377C42.3835 41.4377 41.8164 41.9433 41.7523 42.6195M45.6112 45.8899C45.4725 46.0098 45.3597 46.1511 45.2728 46.3094C45.2651 46.3171 45.2575 46.3248 45.2514 46.3325H45.2575C45.1081 46.623 45.0441 46.958 45.1066 47.3053C45.2591 48.1168 46.0397 48.6516 46.8493 48.4994C46.9347 48.4825 47.0139 48.4549 47.0917 48.4272C47.5384 48.2612 47.8662 47.8939 47.9958 47.4498H48.0034C48.5279 46.042 48.3541 42.2583 44.4662 41.035C45.5869 42.1923 46.8218 44.1502 45.6112 45.8868M48.659 40.7707C48.6301 40.7707 48.6011 40.7707 48.5706 40.7768C48.1803 40.8337 47.912 41.1979 47.9684 41.5898C48.0248 41.9817 48.3861 42.2522 48.778 42.1953C49.0981 42.1477 49.336 41.8926 49.3772 41.5867C49.3863 41.5191 49.3909 41.4515 49.3787 41.3839C49.3284 41.0335 49.0326 40.7814 48.6895 40.7722H48.6575M40.1164 39.6196C40.0767 40.013 40.3634 40.365 40.7567 40.4034C41.0784 40.4341 41.3696 40.242 41.4855 39.9546C41.5114 39.8932 41.5297 39.8286 41.5358 39.7594C41.5709 39.406 41.3422 39.0909 41.0129 39.0003C40.9748 38.9895 40.9366 38.9803 40.8939 38.9772C40.8696 38.9757 40.8467 38.9741 40.8223 38.9741C40.4609 38.9741 40.1514 39.2508 40.1164 39.6211M49.7233 37.3282C49.6562 37.3712 49.5891 37.4158 49.5266 37.4711C48.9365 37.9967 48.8801 38.9034 49.4016 39.4982C49.6242 39.7502 49.9154 39.8978 50.2233 39.9531V39.9592C50.231 39.9592 50.2416 39.9592 50.2508 39.9577C50.4231 39.9854 50.5938 39.9808 50.7646 39.9469C52.7878 40.0499 53.5349 42.1415 53.7468 43.6753C55.1145 39.9992 52.367 37.6402 50.9933 37.2083V37.2144C50.8225 37.1499 50.6457 37.1161 50.4688 37.1161C50.2096 37.1161 49.952 37.1852 49.7217 37.3282M40.6485 36.4261C40.6012 36.9086 40.9534 37.3389 41.4352 37.3866C41.8316 37.4235 42.1884 37.1883 42.3302 36.8364C42.3622 36.7611 42.3851 36.6812 42.3942 36.5951C42.4354 36.1617 42.1564 35.7744 41.7523 35.6638C41.7051 35.6515 41.6563 35.6407 41.606 35.6346C41.577 35.633 41.548 35.6315 41.5206 35.6315C41.0754 35.6315 40.6942 35.9727 40.6515 36.4261M46.3644 36.0111C46.3263 36.4045 46.6114 36.7549 47.0048 36.7949C47.328 36.8256 47.6192 36.6335 47.7336 36.3461C47.758 36.2847 47.7778 36.2186 47.7839 36.1494C47.8174 35.7959 47.5903 35.4809 47.2609 35.3902C47.2228 35.3795 47.1832 35.3718 47.142 35.3672C47.1191 35.3656 47.0947 35.3641 47.0719 35.3641C46.709 35.3641 46.3995 35.6423 46.3644 36.0096M44.5714 39.5735L44.5745 39.5704C44.8154 39.8593 45.1782 40.0284 45.564 40.0069C45.6326 40.0038 45.6982 39.9961 45.7668 39.9823C46.4208 39.8348 46.831 39.1847 46.6846 38.5284C46.6206 38.2503 46.4666 38.0197 46.2608 37.8538L46.2669 37.8492C46.2577 37.8461 46.2501 37.8415 46.2425 37.8384C46.1266 37.7477 45.997 37.6801 45.8552 37.6355C44.3961 36.7288 44.6919 34.8692 45.1584 33.6444C42.6473 35.8113 43.7283 38.6913 44.5714 39.575M41.548 33.1341C41.5099 33.5276 41.795 33.878 42.1884 33.9164C42.5101 33.9471 42.8028 33.7566 42.9172 33.4676C42.9431 33.4077 42.9614 33.3416 42.969 33.2725C43.0026 32.919 42.7754 32.6055 42.4461 32.5148C42.4079 32.504 42.3683 32.4948 42.3271 32.4902C42.3043 32.4887 42.2799 32.4871 42.257 32.4871C41.8941 32.4871 41.5846 32.7653 41.5496 33.1341M32.0723 32.7084C33.7555 32.3119 36.2361 32.2505 37.1616 34.3298C37.1936 34.5234 37.2592 34.7079 37.3583 34.8754C37.3583 34.8861 37.3644 34.8954 37.3674 34.9061L37.3735 34.9015C37.5565 35.2027 37.8279 35.4471 38.1816 35.5793C39.011 35.8866 39.9349 35.4609 40.2429 34.628C40.2734 34.5404 40.2948 34.4528 40.3115 34.3636C40.4045 33.8595 40.2505 33.3539 39.9151 32.9851L39.9197 32.982C39.3022 32.2028 37.7181 31.1747 35.8275 31.1747C34.6413 31.1747 33.3347 31.5804 32.0738 32.7084" fill="url(#paint1_linear_815_1964)"/>
<path d="M27.9634 57.3286C27.5624 57.347 27.2544 57.6897 27.2712 58.0924C27.2895 58.4935 27.6295 58.8055 28.032 58.787C28.3613 58.7717 28.6266 58.5365 28.7013 58.2307C28.7165 58.1646 28.7257 58.0955 28.7242 58.0248C28.7059 57.6636 28.433 57.3778 28.0869 57.3363C28.0533 57.3317 28.0213 57.3286 27.9893 57.3286H27.9634ZM31.1194 55.4229C30.6712 55.4429 30.3266 55.824 30.3449 56.2743C30.3677 56.7246 30.7459 57.0719 31.1926 57.0504C31.5616 57.032 31.8589 56.7692 31.9412 56.428C31.9595 56.3542 31.9702 56.2789 31.9671 56.2005C31.9488 55.7979 31.6424 55.4782 31.2566 55.4321C31.22 55.426 31.1834 55.4229 31.1423 55.4229C31.1347 55.4229 31.127 55.4229 31.1194 55.4229ZM31.0234 52.2248C30.4486 52.2524 30.0034 52.7427 30.0277 53.3221C30.0567 53.9014 30.5446 54.3487 31.1209 54.321C31.5951 54.2995 31.9778 53.9598 32.0845 53.5218C32.1074 53.425 32.1211 53.3267 32.1165 53.2252C32.0937 52.7073 31.6988 52.297 31.2017 52.2355C31.1529 52.2278 31.1042 52.2248 31.0554 52.2248H31.0234ZM34.5072 51.9789C33.2936 53.3943 35.236 55.0141 36.4161 53.5603C38.851 50.5619 37.2104 47.8986 36.6173 46.7644C36.3902 50.7202 34.5072 51.9789 34.5072 51.9789ZM34.5728 45.8131C34.1718 45.8315 33.8623 46.1712 33.8821 46.5753C33.9004 46.978 34.2404 47.2884 34.6398 47.2715C34.9692 47.2546 35.236 47.0195 35.3092 46.7152C35.3259 46.6476 35.3366 46.5784 35.332 46.5093C35.3153 46.1466 35.0408 45.8623 34.6947 45.8208C34.6627 45.8146 34.6307 45.8131 34.5956 45.8131C34.588 45.8131 34.5804 45.8131 34.5728 45.8131ZM31.6485 50.2084L31.6546 50.2053C31.8589 50.5204 32.1973 50.7309 32.5846 50.7571C32.6517 50.7601 32.7188 50.7632 32.7889 50.7571C33.4552 50.6895 33.94 50.0916 33.8729 49.4231C33.8424 49.1372 33.7174 48.8929 33.5314 48.7008L33.5375 48.6977C33.5375 48.6977 33.5223 48.6885 33.5162 48.6854C33.411 48.5809 33.2905 48.4979 33.1548 48.4365C31.8146 47.3622 32.3269 45.5503 32.9368 44.39C30.1863 46.2418 30.9181 49.2295 31.65 50.2084M35.7025 41.6529C34.9372 41.6882 34.3471 42.3414 34.3822 43.1098C34.4172 43.8782 35.0668 44.4714 35.8291 44.4361C36.4603 44.4084 36.968 43.9566 37.1083 43.3726C37.1403 43.245 37.1586 43.1159 37.154 42.9822C37.122 42.2937 36.5975 41.7481 35.9389 41.6667C35.8748 41.659 35.8108 41.6529 35.7452 41.6529H35.701M32.7584 41.138C32.3574 41.1565 32.0494 41.4961 32.0662 41.8988C32.086 42.3029 32.426 42.6134 32.827 42.5949C33.1564 42.578 33.4216 42.3429 33.4948 42.0371C33.5116 41.9694 33.5223 41.9018 33.5192 41.8311C33.5009 41.4715 33.228 41.1857 32.8819 41.1426C32.8499 41.1396 32.8179 41.1365 32.7843 41.1365C32.7752 41.1365 32.766 41.1365 32.7569 41.1365M30.6132 35.2443C31.6256 35.6899 32.9322 36.695 32.6715 38.4762C32.6197 38.6176 32.5892 38.7698 32.5785 38.9219C32.577 38.9311 32.5755 38.9388 32.5724 38.948H32.577C32.5648 39.2247 32.6181 39.5028 32.7538 39.7395C33.074 40.2958 33.7037 40.4003 34.1596 39.9746C34.2068 39.9285 34.248 39.8778 34.2907 39.8256C34.5179 39.5305 34.617 39.1248 34.5743 38.739H34.5804C34.5148 37.5833 33.5482 35.1689 31.3207 35.1689C31.0981 35.1689 30.8617 35.192 30.6132 35.2443Z" fill="url(#paint2_linear_815_1964)"/>
<path d="M31.449 20.7627C31.3941 21.1161 31.4826 21.4389 31.664 21.7047L31.6579 21.7078C31.6655 21.714 31.6731 21.7201 31.6808 21.7278C31.7844 21.8707 31.9201 21.9937 32.0772 22.092C32.9798 23.4537 32.7877 25.7804 31.7341 27.4909C35.2073 24.2651 35.3095 21.4957 34.66 20.171L34.6539 20.174C34.4861 19.753 34.1034 19.4394 33.6003 19.3411C33.5119 19.3226 33.4204 19.3103 33.3289 19.3073C33.3091 19.3073 33.2893 19.3073 33.2695 19.3073C32.3852 19.3073 31.5771 19.9497 31.449 20.7642M35.9102 17.8995C35.869 17.9088 35.8294 17.918 35.7912 17.9364C35.4177 18.087 35.2408 18.4958 35.3964 18.8493C35.5504 19.2028 35.9788 19.3657 36.3508 19.2135C36.6603 19.0906 36.8311 18.7894 36.796 18.4912C36.7899 18.4267 36.7747 18.3621 36.7487 18.3006C36.6344 18.0378 36.366 17.8795 36.0825 17.8795C36.026 17.8795 35.9681 17.8857 35.9102 17.898M31.2554 16.375C31.2142 16.3842 31.1746 16.395 31.1365 16.4103C30.7629 16.5625 30.5861 16.9713 30.74 17.3248C30.894 17.6782 31.3225 17.8411 31.6945 17.689C32.004 17.5645 32.1748 17.2648 32.1412 16.9667C32.1351 16.9021 32.1199 16.8391 32.0939 16.7761C31.9781 16.5133 31.7113 16.3565 31.4292 16.3565C31.3713 16.3565 31.3148 16.3627 31.2569 16.375M30.0418 11.6292C29.9731 11.6446 29.9045 11.663 29.8359 11.6922C29.1879 11.9535 28.8815 12.6635 29.1498 13.2737C29.4182 13.8853 30.1607 14.1696 30.8041 13.9053C31.3377 13.6901 31.635 13.1707 31.5756 12.6543C31.5634 12.5421 31.5374 12.4299 31.4917 12.3224C31.292 11.8659 30.83 11.5954 30.3406 11.5954C30.24 11.5954 30.1393 11.6062 30.0402 11.6292M32.8029 9.0658C32.7496 9.07809 32.6977 9.09192 32.6444 9.11344C32.1488 9.31476 31.914 9.85727 32.1199 10.326C32.3257 10.7932 32.8944 11.0099 33.3884 10.8086C33.797 10.6426 34.0242 10.2445 33.98 9.84958C33.9708 9.76198 33.951 9.67746 33.9159 9.596C33.7635 9.24714 33.4097 9.03813 33.0331 9.03813C32.9584 9.03813 32.8807 9.04735 32.8044 9.06426M33.9403 13.5149C33.7299 13.5949 33.5363 13.7101 33.367 13.8546C33.3564 13.8607 33.3457 13.8653 33.3335 13.873L33.3411 13.8776C33.0423 14.145 32.8288 14.4939 32.7617 14.9058C32.6047 15.874 33.303 16.77 34.3184 16.9037C34.4236 16.919 34.5288 16.9206 34.6325 16.916C35.2256 16.9006 35.7653 16.6132 36.1023 16.1675L36.1084 16.1721C37.3098 14.7905 38.6683 10.492 34.5959 7.6473C35.436 9.36855 36.0825 12.0304 33.9403 13.5149ZM27.741 6.64528C27.6419 6.66679 27.5444 6.69292 27.4468 6.73288C26.5244 7.10787 26.0868 8.11757 26.4695 8.99049C26.8491 9.86188 27.9072 10.2645 28.8281 9.89108C29.5889 9.58217 30.0128 8.84142 29.9289 8.10527C29.9106 7.94698 29.8771 7.78869 29.81 7.635C29.5264 6.98492 28.8662 6.59917 28.1679 6.59917C28.0262 6.59917 27.8844 6.61454 27.7426 6.64682M24.4767 4.53674C24.4356 4.54442 24.3959 4.55518 24.3578 4.57209C23.9843 4.72423 23.8074 5.13303 23.9614 5.4865C24.1169 5.83844 24.5438 6.00288 24.9174 5.85073C25.2254 5.72625 25.3961 5.42657 25.3626 5.12842C25.3565 5.06387 25.3412 4.99933 25.3153 4.93785C25.201 4.67506 24.9341 4.5183 24.6506 4.5183C24.5941 4.5183 24.5347 4.52445 24.4783 4.53674M26.285 3.76679C27.7959 3.69148 29.932 4.01114 30.3513 5.85227C30.3452 6.01671 30.368 6.17654 30.4214 6.33023C30.4214 6.33945 30.4229 6.34867 30.4229 6.35789L30.429 6.35482C30.5312 6.62837 30.7187 6.86966 30.9992 7.02949C31.6548 7.40601 32.5209 7.19393 32.9325 6.55768C32.9752 6.4916 33.0072 6.4209 33.0377 6.35328C33.2085 5.95217 33.1643 5.51417 32.9447 5.16377H32.9508C32.4995 4.31697 30.9962 3.00451 28.9699 3.00298C28.1481 3.00298 27.241 3.21813 26.2819 3.76832M22.1288 1.71665C22.0632 1.73201 21.9976 1.74892 21.9321 1.77505C21.3192 2.02555 21.028 2.69868 21.2826 3.27961C21.5372 3.859 22.2401 4.12948 22.853 3.87897C23.3592 3.67457 23.6428 3.17971 23.5863 2.691C23.5741 2.58342 23.5513 2.47892 23.5071 2.37595C23.318 1.94256 22.8774 1.68591 22.4124 1.68437C22.3194 1.68437 22.2233 1.69513 22.1288 1.71665ZM31.3575 1.06195C31.3179 1.06964 31.2783 1.0804 31.2386 1.0973C30.8651 1.24945 30.6882 1.65978 30.8437 2.01172C30.9977 2.36519 31.4261 2.5281 31.7982 2.37749C32.1077 2.25146 32.2784 1.95332 32.2449 1.65364C32.2388 1.58909 32.2235 1.52608 32.1976 1.46307C32.0817 1.20027 31.8149 1.04351 31.5313 1.04351C31.4749 1.04351 31.417 1.04966 31.3591 1.06349M28.3402 0.0891365C28.293 0.0998943 28.2442 0.112189 28.1969 0.132168C27.7502 0.313515 27.5398 0.802228 27.7258 1.22332C27.9103 1.64441 28.421 1.83959 28.8647 1.65825C29.2322 1.50917 29.4395 1.15109 29.3983 0.794544C29.3892 0.717702 29.3724 0.640861 29.3404 0.567093C29.2017 0.252041 28.883 0.066084 28.5445 0.066084C28.4759 0.066084 28.4088 0.0722313 28.3402 0.0891365ZM24.681 0.0199789C24.6414 0.027663 24.6002 0.0384209 24.5621 0.0553261C24.1886 0.207473 24.0117 0.616271 24.1672 0.969744C24.3212 1.32168 24.7497 1.48612 25.1217 1.33244C25.4312 1.20949 25.6019 0.90827 25.5684 0.610124C25.5623 0.545577 25.5455 0.482567 25.5211 0.419556C25.4053 0.156757 25.1384 0 24.8549 0C24.7984 0 24.7405 0.00614734 24.6826 0.0199789" fill="url(#paint3_linear_815_1964)"/>
<path d="M4.56788 36.715C4.4947 36.715 4.41847 36.7211 4.34223 36.7381C3.61802 36.8856 3.15147 37.5956 3.29784 38.3225C3.44573 39.0479 4.15318 39.5197 4.87587 39.3706C5.47201 39.2477 5.88824 38.7436 5.93703 38.1673C5.94923 38.0413 5.94618 37.9137 5.92178 37.7862C5.79066 37.1484 5.23416 36.7135 4.61057 36.7135C4.59533 36.7135 4.58161 36.7135 4.56788 36.7135M3.50367 34.1024C3.46403 34.1024 3.42591 34.1055 3.38627 34.1131C3.01273 34.19 2.77183 34.5557 2.84807 34.9307C2.9243 35.3073 3.28869 35.5501 3.66224 35.4732C3.96869 35.4102 4.18672 35.149 4.20959 34.8524C4.21569 34.7863 4.21569 34.7217 4.20197 34.6541C4.13488 34.3268 3.84672 34.1008 3.52654 34.1008C3.51892 34.1008 3.51129 34.1008 3.50367 34.1008M8.92689 33.46C8.78814 33.6321 8.72258 33.838 8.72106 34.0455H8.71648C8.71648 34.0455 8.71801 34.0563 8.72106 34.064C8.72106 34.1777 8.74393 34.2914 8.78509 34.399C8.93451 35.7314 7.65837 36.4445 6.68869 36.7488C9.21657 37.2483 10.45 35.1981 10.5827 34.2545H10.5796C10.6391 33.9671 10.5674 33.6644 10.3707 33.4369C10.3357 33.3985 10.2976 33.3601 10.2564 33.3247C10.0811 33.1818 9.87065 33.1127 9.66177 33.1127C9.38581 33.1127 9.11595 33.2325 8.92841 33.4615M6.67954 32.7054C6.64904 32.7054 6.61855 32.7085 6.58653 32.7146C6.28313 32.7761 6.08645 33.0742 6.14896 33.3785C6.20994 33.6828 6.50725 33.8795 6.80913 33.8165C7.05918 33.7658 7.23451 33.5553 7.25434 33.3124C7.25891 33.2602 7.25891 33.2079 7.24824 33.1526C7.19182 32.8867 6.96008 32.7039 6.69783 32.7023C6.69174 32.7023 6.68716 32.7023 6.67954 32.7023M14.7496 32.378C14.7191 32.378 14.6855 32.3827 14.655 32.3888C14.3516 32.4503 14.1565 32.7484 14.2175 33.0527C14.2784 33.357 14.5758 33.5537 14.8776 33.4907C15.1277 33.44 15.303 33.2295 15.3228 32.9866C15.3289 32.9344 15.3274 32.8791 15.3167 32.8283C15.2603 32.5609 15.0286 32.378 14.7663 32.378H14.748M18.796 32.2966C18.7518 32.2966 18.7076 32.3012 18.6618 32.3104C18.2365 32.3965 17.962 32.8145 18.0489 33.2417C18.1358 33.669 18.5505 33.9441 18.9759 33.858C19.3251 33.7873 19.5721 33.4892 19.5995 33.1511C19.6056 33.0773 19.6056 33.002 19.5904 32.9267C19.5141 32.5517 19.1863 32.2966 18.8204 32.2966H18.796ZM4.04645 31.167C4.01596 31.167 3.98394 31.1701 3.95192 31.1762C3.64851 31.2393 3.45336 31.5359 3.51434 31.8402C3.57533 32.1429 3.87264 32.3412 4.17605 32.2782C4.42457 32.2274 4.5999 32.0169 4.61972 31.7741C4.6243 31.7218 4.6243 31.668 4.61362 31.6142C4.55874 31.3484 4.32546 31.1639 4.06627 31.1639C4.05865 31.1639 4.05255 31.1639 4.04645 31.1639M12.0601 30.0697C10.9882 31.6788 8.90097 30.6798 8.16456 30.4401C8.52438 32.0031 12.394 33.1127 13.2447 31.5635C13.8698 30.4247 13.1182 29.833 12.5419 29.833C12.333 29.833 12.147 29.9114 12.0601 30.0713M21.5297 29.8469L21.5328 29.853C21.054 29.996 20.6561 30.3525 20.4762 30.8366C20.4457 30.9227 20.4167 31.0103 20.4 31.1009C20.2338 31.9815 20.8101 32.8314 21.6868 32.9959C22.0603 33.0665 22.4217 32.9959 22.7327 32.833L22.7357 32.8391C22.7434 32.8314 22.7525 32.8253 22.7632 32.8176C22.9324 32.7238 23.0849 32.5978 23.213 32.4487C25.0883 31.1347 27.1984 32.4795 28.4456 33.7013C27.453 30.5062 24.8825 29.6148 23.0269 29.6148C22.4278 29.6148 21.9002 29.7086 21.5282 29.8484M6.74967 28.9847C6.71003 28.9847 6.67039 28.9878 6.6277 28.9955C6.24349 29.0738 5.99344 29.4534 6.07272 29.8407C6.15048 30.228 6.52707 30.4785 6.91281 30.4001C7.22994 30.3356 7.45407 30.0651 7.47846 29.7577C7.48456 29.6917 7.48456 29.624 7.47084 29.5549C7.40223 29.2152 7.10492 28.9832 6.77254 28.9832C6.76492 28.9832 6.75577 28.9832 6.74967 28.9832M16.2681 28.4545C15.5958 28.5114 15.0957 29.1061 15.1536 29.7823C15.21 30.4585 15.8016 30.9595 16.474 30.9011C17.1479 30.8443 17.6464 30.2511 17.5885 29.5749C17.5336 28.9355 17.0015 28.4514 16.3703 28.4514C16.3367 28.4514 16.3017 28.4514 16.2666 28.4545M19.8618 27.245C19.8191 27.245 19.7733 27.2496 19.7291 27.2588C19.3037 27.3464 19.0293 27.7629 19.1162 28.1902C19.2016 28.6174 19.6178 28.8956 20.0432 28.808C20.3923 28.7373 20.6393 28.4391 20.6668 28.0995C20.6729 28.0257 20.6729 27.952 20.6576 27.8767C20.5814 27.5017 20.2536 27.2466 19.8877 27.2466H19.8618M9.60841 27.5478L9.61146 27.5508C9.38886 27.8136 9.29281 28.1702 9.36904 28.516C9.38276 28.5775 9.39953 28.6389 9.42393 28.6973C9.6572 29.269 10.3082 29.5441 10.8785 29.309C11.1209 29.2091 11.3038 29.0308 11.4228 28.8187L11.4258 28.8218C11.4289 28.8141 11.4304 28.8064 11.4334 28.7988C11.4975 28.6804 11.5386 28.5498 11.5554 28.4161C12.1485 26.9484 13.8729 26.9315 15.053 27.1666C14.1961 26.452 13.3255 26.1892 12.5358 26.1892C11.1651 26.1892 10.0338 26.973 9.60994 27.5462" fill="url(#paint4_linear_815_1964)"/>
<path d="M23.2263 22.9357C23.1851 22.9403 23.1455 22.9465 23.1028 22.9557C22.7079 23.0617 22.4716 23.4659 22.5753 23.8624C22.6774 24.2589 23.083 24.4972 23.4779 24.3927C23.8042 24.3066 24.0176 24.0146 24.0283 23.6965C24.0283 23.6273 24.0252 23.5566 24.0069 23.4875C23.92 23.1524 23.6197 22.9327 23.2903 22.9327C23.269 22.9327 23.2477 22.9327 23.2263 22.9342M25.9737 22.8189C25.8914 22.8558 25.8091 22.8988 25.7313 22.9511C24.972 23.4629 24.6839 24.5064 25.0894 25.2779C25.2617 25.6083 25.5316 25.8265 25.8426 25.9402L25.8396 25.9464C25.8502 25.9464 25.8579 25.9479 25.8701 25.9495C26.0454 26.0094 26.2299 26.0325 26.4174 26.0202C28.5321 26.4689 28.4711 27.4079 29.4911 30.4939C30.813 26.1646 28.6937 23.6135 27.349 22.8881V22.8942C27.1264 22.7513 26.8687 22.6775 26.6034 22.6775C26.3961 22.6775 26.1826 22.7236 25.9753 22.8189M25.9661 19.8452C25.9356 19.8467 25.9036 19.8513 25.8716 19.8605C25.5697 19.9389 25.3898 20.2493 25.4676 20.5536C25.5468 20.8564 25.8563 21.0393 26.1582 20.9594C26.4067 20.8948 26.5714 20.672 26.5775 20.4261C26.5775 20.3723 26.576 20.32 26.5607 20.2662C26.4952 20.0096 26.265 19.8421 26.0149 19.8421C25.9997 19.8421 25.9844 19.8421 25.9661 19.8436M15.5466 18.6787C15.5191 18.6787 15.4917 18.6833 15.4658 18.6895C15.2112 18.7586 15.0602 19.0183 15.1273 19.2734C15.1944 19.5286 15.4536 19.6807 15.7067 19.6131C15.9156 19.5593 16.0528 19.3718 16.0574 19.1659C16.0574 19.1213 16.0574 19.0767 16.0436 19.0322C15.9872 18.817 15.7966 18.6772 15.5862 18.6772C15.571 18.6772 15.5588 18.6772 15.5451 18.6787M23.8179 21.6402L23.8148 21.634C24.2356 21.4696 24.5558 21.0931 24.6549 20.6013C24.6732 20.5152 24.6854 20.4261 24.69 20.3354C24.7235 19.4486 24.074 18.6295 23.2431 18.5081C22.8878 18.4543 22.5646 18.5419 22.2993 18.7217L22.2963 18.7156C22.2886 18.7217 22.2825 18.7294 22.2764 18.7386C22.1316 18.8416 22.0081 18.9738 21.909 19.129C20.1526 20.2647 17.9754 19.3687 16.6581 18.213C18.448 22.3702 22.4899 22.2841 23.8179 21.6417M3.14043 16.8668C3.08554 16.8714 3.0337 16.8775 2.98034 16.8914C2.47263 17.0235 2.16922 17.546 2.30339 18.0563C2.43604 18.5634 2.9529 18.8693 3.46061 18.734C3.87837 18.6249 4.15433 18.2515 4.165 17.8411C4.16653 17.7504 4.16195 17.6598 4.13756 17.5706C4.02626 17.1434 3.64204 16.8622 3.22124 16.8622C3.19379 16.8622 3.16635 16.8622 3.13891 16.8652M13.2962 16.8499C13.255 16.8529 13.2139 16.8591 13.1712 16.8698C12.7763 16.9743 12.54 17.3785 12.6452 17.7766C12.7473 18.1715 13.1529 18.4113 13.5478 18.3052C13.8725 18.2192 14.0875 17.9287 14.0966 17.6091C14.0982 17.5399 14.0936 17.4692 14.0753 17.3985C13.9899 17.065 13.6896 16.8468 13.3587 16.8468C13.3389 16.8468 13.3175 16.8468 13.2962 16.8483M24.6183 16.2751C24.5604 16.2812 24.5009 16.2874 24.4415 16.3027C23.8804 16.4518 23.5465 17.0281 23.6929 17.5906C23.8392 18.1531 24.4125 18.4912 24.9751 18.3437C25.4371 18.2223 25.7405 17.8088 25.7527 17.3539C25.7572 17.254 25.7511 17.1542 25.7237 17.0558C25.6017 16.5809 25.1748 16.2705 24.7083 16.2705C24.6778 16.2705 24.6488 16.2705 24.6168 16.2735M16.8029 15.8817C16.7572 15.8847 16.7099 15.8909 16.6642 15.9047C16.2205 16.02 15.9567 16.4764 16.0711 16.9221C16.1869 17.3678 16.6413 17.6352 17.0865 17.5168C17.4524 17.4216 17.6918 17.0942 17.7025 16.7361C17.7055 16.6578 17.7009 16.5794 17.6796 16.4995C17.582 16.1245 17.2466 15.8786 16.8776 15.8786C16.8532 15.8786 16.8304 15.8786 16.8044 15.8832M5.90159 15.9201L5.90464 15.9231C5.61343 16.083 5.4259 16.3796 5.41217 16.7361C5.41065 16.7976 5.41217 16.8606 5.41827 16.9267C5.50365 17.5507 6.08607 18.0578 6.71576 18.0563C6.9841 18.0563 7.21127 17.9625 7.38661 17.8104L7.38966 17.8135C7.38966 17.8135 7.39728 17.8027 7.40186 17.795C7.49639 17.7089 7.56957 17.6029 7.62446 17.483C8.78015 16.5056 10.4969 16.9083 11.616 17.5814C10.5167 15.9493 9.00885 15.4652 7.78302 15.4652C6.9597 15.4652 6.26446 15.6834 5.90159 15.9185M22.8817 13.7424C22.8558 13.7424 22.8299 13.747 22.8025 13.7547C22.5494 13.8223 22.3984 14.082 22.464 14.3371C22.5311 14.5907 22.7903 14.7444 23.0433 14.6768C23.2522 14.6214 23.3894 14.4355 23.394 14.2296C23.3955 14.185 23.394 14.1389 23.3818 14.0958C23.3254 13.8807 23.1333 13.7408 22.9229 13.7408C22.9092 13.7408 22.8955 13.7408 22.8802 13.7424M1.95882 13.435C1.88716 13.4396 1.82007 13.4504 1.74994 13.4673C1.08824 13.6409 0.693351 14.3202 0.867162 14.9857C1.04097 15.6481 1.7164 16.0461 2.37658 15.8709C2.92088 15.728 3.2807 15.2408 3.29442 14.706C3.30052 14.5907 3.29137 14.4724 3.26088 14.354C3.11451 13.7977 2.61595 13.4304 2.06707 13.4304C2.032 13.4304 1.99541 13.4319 1.95882 13.4365M11.5749 15.4636C12.4073 14.6138 13.8298 13.8961 15.0755 14.5723C15.1502 14.6706 15.2401 14.7536 15.3438 14.8166C15.3499 14.8212 15.3545 14.8274 15.3575 14.8305L15.3606 14.8274C15.5496 14.9334 15.7738 14.9765 16.0086 14.9227C16.5651 14.7966 16.9615 14.2096 16.8929 13.6117C16.8852 13.5503 16.8715 13.4903 16.8548 13.4335C16.7617 13.1061 16.5285 12.8679 16.2342 12.7788V12.7742C16.0177 12.6896 15.7006 12.6328 15.3316 12.6328C14.121 12.6328 12.3372 13.2414 11.5764 15.4652M5.68814 12.0949C5.65002 12.0964 5.61343 12.101 5.57684 12.1118C5.22464 12.204 5.01424 12.5652 5.10724 12.9202C5.19872 13.2736 5.55854 13.4842 5.91074 13.3904C6.20042 13.3151 6.39101 13.0554 6.39863 12.7711C6.40015 12.7081 6.39711 12.6451 6.38033 12.5821C6.30105 12.287 6.03576 12.0903 5.74303 12.0903C5.72473 12.0903 5.70491 12.0903 5.68661 12.0933M19.59 15.9739C19.4863 16.0891 19.4086 16.2182 19.3552 16.3611C19.3491 16.3704 19.346 16.3765 19.3415 16.3827H19.3476C19.2622 16.6424 19.2622 16.9282 19.3842 17.2049C19.6693 17.858 20.4773 18.2069 21.1878 17.9825C21.2625 17.9564 21.3312 17.9256 21.3967 17.8934C21.7733 17.7013 22.0066 17.357 22.0462 16.9743H22.0523C22.2764 15.7479 21.4455 12.4222 17.675 11.8859C18.9054 12.7065 20.1175 14.2849 19.5869 15.9754M8.92194 11.5432C8.84114 11.5493 8.76033 11.5616 8.678 11.5831C7.90042 11.7906 7.43387 12.5882 7.63818 13.372C7.84248 14.1527 8.63836 14.6214 9.41746 14.4155C10.0593 14.2465 10.4817 13.6732 10.4984 13.0416C10.5045 12.9063 10.4939 12.768 10.4588 12.6297C10.2865 11.9704 9.69647 11.5401 9.05001 11.5401C9.00885 11.5401 8.96616 11.5401 8.92347 11.5462M3.32187 10.5826C3.28375 10.5842 3.24868 10.5903 3.21057 10.6011C2.85989 10.6933 2.64949 11.0544 2.74249 11.4095C2.83397 11.7629 3.19379 11.9735 3.54599 11.8797C3.83568 11.8044 4.02778 11.5432 4.03388 11.2604C4.03693 11.1974 4.03388 11.1344 4.01559 11.0714C3.93935 10.7747 3.67254 10.5796 3.37828 10.5796C3.35998 10.5796 3.34016 10.5796 3.32187 10.5811M7.50706 8.55863C7.44607 8.56477 7.38661 8.57092 7.32715 8.58783C6.75997 8.7369 6.41998 9.3209 6.57092 9.89106C6.71881 10.4597 7.2997 10.8024 7.8684 10.6518C8.33495 10.5288 8.64293 10.1108 8.65665 9.64978C8.6597 9.54835 8.65208 9.44845 8.62768 9.34702C8.50114 8.86753 8.07118 8.55402 7.60006 8.55402C7.56957 8.55402 7.53755 8.55402 7.50706 8.55709M10.2362 8.25126C10.2088 8.25126 10.1828 8.25741 10.1554 8.26202C9.9023 8.33117 9.75136 8.5909 9.81692 8.84601C9.88248 9.10113 10.1432 9.25328 10.3963 9.18566C10.6052 9.13187 10.7439 8.94437 10.7485 8.73844C10.75 8.69387 10.7485 8.64776 10.7348 8.60473C10.6784 8.38957 10.4878 8.24972 10.2758 8.24972C10.2621 8.24972 10.2484 8.24972 10.2347 8.25126M13.4441 8.02995L13.4487 8.0361C13.0431 8.16366 12.7321 8.49101 12.6284 8.93515C12.6101 9.01199 12.5964 9.09191 12.5888 9.17643C12.5415 9.98481 13.1483 10.7701 13.9411 10.9254C14.2796 10.993 14.5891 10.9315 14.8468 10.7809L14.8498 10.7855C14.8574 10.7794 14.862 10.7747 14.8696 10.7671C15.0099 10.681 15.1288 10.5688 15.2264 10.4305C16.9249 9.48841 18.9893 10.4259 20.2288 11.5524C18.9954 8.62317 16.5026 7.81787 14.798 7.81787C14.2369 7.81787 13.7627 7.90393 13.4441 8.03149" fill="url(#paint5_linear_815_1964)"/>
<path d="M65.4081 68.128C65.4081 66.3529 64.7159 64.9391 63.3559 63.9801C62.8055 63.5482 62.2093 63.2839 61.5888 63.1886C61.2305 63.0933 60.5871 63.0687 59.6784 63.0687H58.0455C57.8397 63.0687 57.6735 63.2362 57.6735 63.4437V64.0354C57.6735 64.747 58.2467 65.3217 58.9542 65.3217H60.0611C60.9683 65.3217 61.6117 65.4892 62.1133 65.8504C62.5905 66.1854 62.9015 66.6649 63.0205 67.2643C63.115 67.6009 63.1638 68.2463 63.1638 69.11V70.7882H55.9643C56.0284 70.3333 56.0406 69.8631 55.9918 69.3805C55.7219 66.6465 53.5203 64.435 50.7973 64.1645C47.1182 63.7987 44.0506 66.8785 44.415 70.5731C44.4211 70.6453 44.4364 70.716 44.4455 70.7882H41.9512V69.2775L41.9618 69.1346L41.9512 69.1162V66.9677L41.9664 66.7064C41.9664 66.6634 41.9664 66.6219 41.9649 66.5835H41.9344V66.5527H41.5182C41.4221 66.5527 41.32 66.5604 41.2087 66.5789C40.4311 66.6957 39.8014 67.2382 39.5559 67.9682H39.5529V72.0254H39.5422V72.4142C39.5422 72.4941 39.5468 72.5725 39.5529 72.6509V72.7108H39.5422V73.1012C39.5422 75.534 37.4702 77.5119 35.0567 77.5119C32.6431 77.5119 30.6092 75.5355 30.6092 73.1012V71.9025C30.8623 70.4947 32.079 69.4235 33.5411 69.4235C35.0033 69.4235 36.281 70.5362 36.4898 71.9901C37.7004 71.8425 37.6425 70.5746 37.612 69.9215C37.3071 67.6208 34.7029 67.0491 33.5396 67.0491C32.4571 67.0491 31.4493 67.3795 30.6077 67.942C29.1654 68.9087 28.2109 70.5654 28.2109 72.4434V73.0997C28.2109 76.9049 31.2816 80 35.0551 80C36.1483 80 37.1958 79.7342 38.1289 79.2593C38.1365 79.2547 38.1441 79.2501 38.1532 79.2455C39.6657 78.4678 40.8732 77.1338 41.4801 75.4741L41.4877 75.4848C41.5258 75.3619 41.5609 75.2236 41.5929 75.0714L41.599 75.0284C41.6097 75.033 41.6173 75.0361 41.6279 75.0422C41.8383 74.3414 41.9405 73.6591 41.9832 73.0413H45.2566C46.1882 74.5458 47.7799 75.6062 49.6095 75.7876C51.9453 76.0196 54.0341 74.8624 55.1547 73.0413H65.4065V68.128H65.4081ZM53.7033 70.5808C53.4624 72.0577 52.2762 73.2487 50.8049 73.4915C48.3761 73.8911 46.3071 71.8133 46.7051 69.3744C46.946 67.8975 48.1321 66.7064 49.6034 66.4651C52.0322 66.0656 54.1012 68.1434 53.7033 70.5823" fill="#DA2229"/>
<path d="M74.5964 58.2738H74.3722C73.4574 58.2738 72.7165 59.0176 72.7165 59.9367V70.4225C72.7165 70.6254 72.5533 70.7883 72.3521 70.7883H69.8105V65.4216C69.8105 65.2188 69.6458 65.0559 69.4461 65.0559H69.2036C68.2995 65.0559 67.5662 65.792 67.5662 66.7003V72.2513C67.5662 74.1939 67.1606 75.5832 66.3251 76.3992C66.0735 76.6528 65.7472 76.8956 65.3417 77.1246C64.8202 77.4197 64.5107 77.9853 64.5107 78.5862V79.3315C64.5107 79.5682 64.7333 79.7465 64.962 79.6896C65.6237 79.5283 66.2931 79.2209 66.9944 78.7721C67.8299 78.2204 68.4977 77.5734 68.9033 76.8772C69.5482 75.846 69.8592 74.6242 69.8592 73.1857V73.0413H74.5979C74.7991 73.0413 74.9623 72.8768 74.9623 72.6755V58.6411C74.9623 58.4382 74.7991 58.2753 74.5979 58.2753" fill="#DA2229"/>
<path d="M78.4766 58.2737H78.3074C77.3758 58.2737 76.6211 59.0313 76.6211 59.9673V72.6754C76.6211 72.8782 76.7842 73.0411 76.9855 73.0411H77.2325C78.1198 73.0411 78.841 72.3188 78.841 71.4259V58.6394C78.841 58.4366 78.6779 58.2737 78.4766 58.2737Z" fill="#DA2229"/>
<path d="M105.863 70.7882H104.379C103.518 70.7882 102.951 70.7652 102.679 70.7421C102.664 70.7421 102.653 70.7391 102.64 70.736C102.405 70.6868 102.126 70.5669 101.799 70.3333C101.083 69.8047 100.702 69.0378 100.702 68.0558C100.702 67.1921 101.013 66.4974 101.633 65.9703C102.133 65.5384 103.042 65.3233 104.355 65.3233H104.733C105.619 65.3233 106.337 64.6009 106.337 63.7111V63.4606C106.337 63.2439 106.163 63.0687 105.948 63.0687H104.07C102.278 63.0687 100.918 63.5236 99.9866 64.4104C98.959 65.4416 98.4345 66.688 98.4345 68.1987C98.4345 69.0854 98.7456 69.9491 99.389 70.7882H95.8091V65.4124C95.8091 65.2157 95.649 65.0543 95.4538 65.0543H95.405C94.4018 65.0543 93.5892 65.8719 93.5892 66.8785V70.7882H90.828V70.8467C90.7777 70.8128 90.7213 70.7882 90.6557 70.7882H89.7546C90.305 69.8047 90.5658 68.8949 90.5658 68.0788C90.5658 66.6403 90.0413 65.417 88.9908 64.4104C88.0363 63.5236 86.6748 63.0687 84.9093 63.0687H82.9333C82.758 63.0687 82.6162 63.2101 82.6162 63.3869V63.8264C82.6162 64.6532 83.2825 65.3217 84.1058 65.3217H85.3606C86.2205 65.3217 86.9127 65.5845 87.4616 66.0886C88.012 66.5927 88.2742 67.2397 88.2742 68.0542C88.2742 69.0378 87.8915 69.7801 87.1764 70.3318C86.7221 70.6438 86.0787 70.7867 85.17 70.7867H82.7534C81.86 70.7867 81.1357 71.5136 81.1357 72.4127V72.7231C81.1357 72.8983 81.2775 73.0413 81.4529 73.0413H90.6557C90.7213 73.0413 90.7777 73.0167 90.828 72.9829V73.0413H107C107.214 73.0413 107.389 72.8661 107.389 72.6509V72.3189C107.389 71.4737 106.706 70.7882 105.864 70.7882" fill="#DA2229"/>
<path d="M94.6915 74.4044C93.9551 74.4044 93.3574 75.0053 93.3574 75.7445C93.3574 76.4838 93.9551 77.0862 94.6915 77.0862C95.4279 77.0862 96.0256 76.4853 96.0256 75.7445C96.0256 75.0038 95.4279 74.4044 94.6915 74.4044Z" fill="#DA2229"/>
<path d="M37.3145 65.4401C38.051 65.4401 38.6486 64.8392 38.6486 64.0984C38.6486 63.3577 38.051 62.7583 37.3145 62.7583C36.5781 62.7583 35.9805 63.3592 35.9805 64.0984C35.9805 64.8376 36.5781 65.4401 37.3145 65.4401Z" fill="#DA2229"/>
<path d="M92.9583 47.668C92.4826 47.293 91.9627 47.061 91.4351 46.9795C91.1089 46.8919 90.5524 46.8735 89.819 46.8735H88.5505C88.2242 46.8735 87.9589 47.1394 87.9589 47.4698V47.6865C87.9589 48.5025 88.6176 49.1664 89.4287 49.1664H90.13C90.8161 49.1664 91.3086 49.2909 91.6806 49.5583C92.0267 49.8027 92.2463 50.1454 92.3362 50.5957C92.4048 50.8431 92.4445 51.3595 92.4445 52.048V53.2006H75.4049V47.4575C75.4049 47.1347 75.1441 46.8719 74.8224 46.8719H73.6241C73.0508 46.8719 72.5095 46.8719 71.9424 46.8904C70.9651 46.9119 70.0823 47.3023 69.3169 48.0553C68.4585 48.9006 68.0225 49.9318 68.0225 51.1228C68.0225 52.675 68.6171 53.8922 69.7972 54.7482C70.3415 55.114 70.7577 55.3123 71.1511 55.3922C71.5414 55.4567 72.4059 55.4936 73.5859 55.4936H94.7193V51.2412C94.7193 49.7166 94.1063 48.4779 92.9583 47.6665M73.1484 49.1664V53.2022H72.5507C71.8738 53.2022 71.549 53.1161 71.3996 53.047C70.6708 52.6981 70.3171 52.088 70.3171 51.1843C70.3171 50.5527 70.5031 50.0947 70.9117 49.7351C71.3035 49.3585 71.8417 49.168 72.5126 49.168H73.1499L73.1484 49.1664Z" fill="#DA2229"/>
<path d="M97.8207 42.9438H97.6163C96.825 42.9438 96.1816 43.5924 96.1816 44.39V54.8728C96.1816 55.217 96.4591 55.4967 96.7991 55.4967H96.9059C97.7505 55.4967 98.4366 54.8036 98.4366 53.9537V43.5663C98.4366 43.2236 98.1606 42.9438 97.8191 42.9438" fill="#DA2229"/>
<path d="M107.34 53.8846L107.296 46.8751H104.591C103.106 46.8751 101.932 47.2655 101.103 48.0385C100.243 48.8853 99.8086 49.9303 99.8086 51.146C99.8086 52.6874 100.389 53.9 101.538 54.7468H101.542C102.025 55.0895 102.548 55.3139 103.088 55.4138C103.393 55.4706 103.872 55.4952 104.689 55.4952H104.936C104.834 56.5787 104.53 57.3748 104.029 57.865C103.82 58.0756 103.546 58.2754 103.213 58.4567C102.762 58.7041 102.481 59.1744 102.481 59.6831V60.4193C102.481 60.5837 102.555 60.7358 102.683 60.8388C102.776 60.9126 102.89 60.951 103.004 60.951C103.047 60.951 103.09 60.9464 103.131 60.9356C103.687 60.7973 104.25 60.5422 104.851 60.1549C105.578 59.6724 106.141 59.1114 106.476 58.5336C107.023 57.6545 107.29 56.6248 107.29 55.3892V55.2785L107.337 53.8831L107.34 53.8846ZM104.893 53.2023H104.534C103.736 53.2023 103.19 53.0932 102.867 52.8703C102.326 52.483 102.064 51.9328 102.064 51.1859C102.064 50.6096 102.257 50.1424 102.658 49.7552C103.062 49.3663 103.706 49.1681 104.572 49.1681H104.892C104.938 49.1681 104.974 49.205 104.974 49.2511V53.1193C104.974 53.1654 104.938 53.2023 104.892 53.2023" fill="#DA2229"/>
<path d="M74.155 45.8731C74.8776 45.8731 75.4662 45.2799 75.4662 44.5514C75.4662 43.823 74.8776 43.2297 74.155 43.2297C73.4323 43.2297 72.8438 43.823 72.8438 44.5514C72.8438 45.2799 73.4323 45.8731 74.155 45.8731Z" fill="#DA2229"/>
<path d="M70.9387 45.7624C71.6004 45.7624 72.1402 45.2199 72.1402 44.5514C72.1402 43.8828 71.602 43.3403 70.9387 43.3403C70.2755 43.3403 69.7373 43.8828 69.7373 44.5514C69.7373 45.2199 70.2755 45.7624 70.9387 45.7624Z" fill="#DA2229"/>
<defs>
<linearGradient id="paint0_linear_815_1964" x1="32.9185" y1="29.9545" x2="59.8507" y2="25.2436" gradientUnits="userSpaceOnUse">
<stop stop-color="#FF7626"/>
<stop offset="1" stop-color="#B61D23"/>
</linearGradient>
<linearGradient id="paint1_linear_815_1964" x1="33.2661" y1="31.2638" x2="55.6185" y2="49.8704" gradientUnits="userSpaceOnUse">
<stop stop-color="#FFB61E"/>
<stop offset="1" stop-color="#FF2329"/>
</linearGradient>
<linearGradient id="paint2_linear_815_1964" x1="33.4903" y1="57.8219" x2="29.511" y2="35.441" gradientUnits="userSpaceOnUse">
<stop stop-color="#FF9522"/>
<stop offset="1" stop-color="#FFE40A"/>
</linearGradient>
<linearGradient id="paint3_linear_815_1964" x1="37.5004" y1="24.1345" x2="23.7545" y2="0.515784" gradientUnits="userSpaceOnUse">
<stop stop-color="#FC3992"/>
<stop offset="1" stop-color="#852889"/>
</linearGradient>
<linearGradient id="paint4_linear_815_1964" x1="28.4456" y1="32.7961" x2="2.83434" y2="32.7961" gradientUnits="userSpaceOnUse">
<stop stop-color="#FFE40B"/>
<stop offset="1" stop-color="#039342"/>
</linearGradient>
<linearGradient id="paint5_linear_815_1964" x1="29.8022" y1="30.1235" x2="4.40494" y2="8.98042" gradientUnits="userSpaceOnUse">
<stop stop-color="#03BFE5"/>
<stop offset="1" stop-color="#153B7F"/>
</linearGradient>
</defs>
</svg>
