<svg version="1.2" xmlns="http://www.w3.org/2000/svg" viewBox="0 0 264 598" width="264" height="598">
	<title>Layer</title>
	<defs>
		<linearGradient id="g1" x1="157.3" y1="572.9" x2="56.7" y2="6.9" gradientUnits="userSpaceOnUse">
			<stop offset="0" stop-color="#ff9522"/>
			<stop offset="1" stop-color="#ffe40a"/>
		</linearGradient>
	</defs>
	<style>
		.s0 { fill: url(#g1) } 
	</style>
	<path id="Layer" class="s0" d="m17.5 560.5c-10.1 0.4-17.9 9.1-17.5 19.3 0.5 10.1 9.1 18 19.3 17.5 8.3-0.3 15-6.3 16.9-14 0.4-1.7 0.6-3.5 0.6-5.2-0.5-9.2-7.4-16.4-16.2-17.5q-1.2-0.1-2.4-0.1zm79.8-48.2c-11.3 0.5-20.1 10.1-19.6 21.5 0.6 11.4 10.2 20.2 21.5 19.6 9.3-0.4 16.8-7.1 18.9-15.7 0.4-1.9 0.7-3.8 0.6-5.8-0.4-10.2-8.2-18.2-17.9-19.4-1-0.2-1.9-0.2-2.9-0.2q-0.3 0-0.6 0zm-2.4-80.9c-14.6 0.7-25.8 13.1-25.2 27.7 0.7 14.7 13.1 26 27.6 25.3 12-0.6 21.7-9.1 24.4-20.2 0.6-2.5 0.9-5 0.8-7.5-0.6-13.1-10.5-23.5-23.1-25.1q-1.9-0.2-3.7-0.2zm88.1-6.3c-30.7 35.8 18.4 76.8 48.3 40 61.6-75.8 20.1-143.1 5.1-171.8-5.8 100-53.4 131.8-53.4 131.8zm1.6-155.9c-10.1 0.5-17.9 9.1-17.4 19.3 0.4 10.2 9 18 19.1 17.6 8.4-0.4 15.1-6.4 17-14.1 0.4-1.7 0.7-3.4 0.6-5.2-0.5-9.2-7.4-16.3-16.2-17.4-0.8-0.2-1.6-0.2-2.5-0.2q-0.3 0-0.6 0zm-73.9 111.2l0.1-0.1c5.2 8 13.8 13.3 23.6 13.9 1.7 0.1 3.4 0.2 5.1 0 16.9-1.7 29.1-16.8 27.5-33.7-0.8-7.2-4-13.4-8.7-18.3h0.2c0 0-0.4-0.3-0.6-0.3q-4-4-9.1-6.3c-33.9-27.2-20.9-73-5.5-102.4-69.6 46.9-51.1 122.4-32.6 147.2zm102.5-216.4c-19.3 0.9-34.3 17.4-33.4 36.8 0.9 19.5 17.3 34.5 36.6 33.6 16-0.7 28.8-12.1 32.4-26.9 0.8-3.2 1.3-6.5 1.1-9.9-0.8-17.4-14-31.2-30.7-33.3-1.6-0.2-3.2-0.3-4.9-0.3 0 0-1.1 0-1.1 0zm-74.4-13c-10.2 0.4-18 9-17.5 19.2 0.5 10.2 9.1 18.1 19.2 17.6 8.3-0.4 15-6.4 16.9-14.1 0.4-1.7 0.7-3.4 0.6-5.2-0.5-9.1-7.4-16.3-16.1-17.4-0.8-0.1-1.6-0.2-2.5-0.2q-0.3 0-0.6 0.1zm-54.3-149.1c25.6 11.3 58.7 36.7 52.1 81.7-1.3 3.6-2.1 7.5-2.4 11.3 0 0.3-0.1 0.4-0.1 0.7h0.1c-0.3 7 1 14 4.4 20 8.1 14.1 24.1 16.7 35.6 5.9 1.2-1.1 2.2-2.4 3.3-3.7 5.8-7.5 8.3-17.7 7.2-27.5h0.1c-1.6-29.2-26.1-90.3-82.4-90.3-5.6 0-11.6 0.6-17.9 1.9z"/>
</svg>