<svg width="21" height="24" viewBox="0 0 21 24" fill="none" xmlns="http://www.w3.org/2000/svg">
<path d="M2.52013 23.77L20.1933 13.3955C20.4396 13.2496 20.6432 13.0447 20.7845 12.8003C20.9258 12.5559 21 12.2803 21 12C21 11.7197 20.9258 11.4441 20.7845 11.1997C20.6432 10.9553 20.4396 10.7504 20.1933 10.6045L2.52013 0.229966C2.26681 0.0824917 1.97768 0.00315409 1.68239 9.21158e-05C1.3871 -0.00296986 1.09629 0.0703544 0.83979 0.212542C0.583288 0.35473 0.37033 0.560664 0.222758 0.809217C0.0751863 1.05777 -0.00168623 1.34 2.80566e-05 1.62694V22.3731C-0.00168623 22.66 0.0751863 22.9422 0.222758 23.1908C0.37033 23.4393 0.583288 23.6453 0.83979 23.7875C1.09629 23.9296 1.3871 24.003 1.68239 23.9999C1.97768 23.9968 2.26681 23.9175 2.52013 23.77Z" fill="#00A79D"/>
</svg>
