<svg width="35" height="40" viewBox="0 0 35 40" fill="none" xmlns="http://www.w3.org/2000/svg">
<path d="M4.20022 0.383266L33.6555 17.6742C34.0661 17.9173 34.4054 18.2589 34.6409 18.6662C34.8763 19.0735 35 19.5328 35 20C35 20.4672 34.8763 20.9265 34.6409 21.3338C34.4054 21.7411 34.0661 22.0827 33.6555 22.3258L4.20022 39.6167C3.77802 39.8625 3.29613 39.9947 2.80399 39.9998C2.31184 40.0049 1.82715 39.8827 1.39965 39.6458C0.972147 39.4088 0.617217 39.0656 0.371264 38.6513C0.12531 38.237 -0.00281037 37.7667 4.67609e-05 37.2884V2.71157C-0.00281037 2.23332 0.12531 1.76294 0.371264 1.34869C0.617217 0.934429 0.972147 0.591206 1.39965 0.354229C1.82715 0.117249 2.31184 -0.00495529 2.80399 0.000148773C3.29613 0.00525284 3.77802 0.137478 4.20022 0.383266Z" fill="#662F90"/>
</svg>
