<svg width="40" height="46" viewBox="0 0 40 46" fill="none" xmlns="http://www.w3.org/2000/svg">
<path d="M4.80026 45.5592L38.4634 25.6747C38.9327 25.3951 39.3205 25.0023 39.5896 24.5339C39.8587 24.0655 40 23.5373 40 23C40 22.4627 39.8587 21.9345 39.5896 21.4661C39.3205 20.9977 38.9327 20.6049 38.4634 20.3253L4.80026 0.440768C4.31774 0.158109 3.76701 0.00604533 3.20456 0.000176555C2.6421 -0.00569222 2.08818 0.134846 1.5996 0.407372C1.11103 0.679899 0.705391 1.07461 0.424301 1.551C0.143212 2.02739 -0.00321186 2.56833 5.34411e-05 3.11831V42.8817C-0.00321186 43.4317 0.143212 43.9726 0.424301 44.449C0.705391 44.9254 1.11103 45.3201 1.5996 45.5926C2.08818 45.8652 2.6421 46.0057 3.20456 45.9998C3.76701 45.994 4.31774 45.8419 4.80026 45.5592Z" fill="#F79520"/>
</svg>
