<svg width="55" height="44" viewBox="0 0 55 44" fill="none" xmlns="http://www.w3.org/2000/svg">
<path d="M23.3299 19.2573C23.3299 32.0963 13.3118 42.5055 0.819626 43.085V36.4031C7.14236 35.6175 12.4899 31.5448 15.0954 25.926L15.3282 25.424L15.8222 24.3585H14.6477H14.0989H5.86269C3.04078 24.3585 0.75 22.0938 0.75 19.2573V6.77957C0.75 3.92704 3.05673 1.60791 5.86269 1.60791H18.217C21.0231 1.60791 23.3299 3.92708 23.3299 6.77957V19.2573ZM54.25 19.2573C54.25 32.0963 44.2319 42.5055 31.7398 43.085V36.4031C38.0625 35.6175 43.4099 31.5448 46.0155 25.926L45.5679 25.7184L46.0155 25.926L46.2483 25.424L46.7423 24.3585H45.5679H45.019H36.783C33.9769 24.3585 31.67 22.0393 31.67 19.1868V6.70906C31.67 3.93509 33.9689 1.60791 36.783 1.60791H49.137C51.9431 1.60791 54.25 3.92709 54.25 6.77957V19.2573Z" stroke="#9CA3AF" stroke-width="1.5"/>
</svg>
