<svg width="16" height="16" viewBox="0 0 16 16" fill="none" xmlns="http://www.w3.org/2000/svg">
<path d="M8.15416 0H8.15336C8.13949 0 8.12669 0 8.11415 0C8.01572 0.00113479 7.85354 0.00283698 7.83914 0.00283698C7.48384 0.00283698 6.77323 0.0561722 6.00981 0.414483C5.57341 0.619313 5.18077 0.896202 4.84307 1.23749C4.44028 1.64403 4.11219 2.14561 3.86812 2.72804C3.51068 3.58084 3.5955 5.0172 3.66352 6.17128V6.17299C3.67099 6.29668 3.67873 6.42576 3.68566 6.55144C3.63312 6.57697 3.54829 6.60421 3.42292 6.60421C3.22126 6.60421 2.98146 6.53555 2.71018 6.40051C2.63042 6.36108 2.53946 6.34093 2.4389 6.34093C2.27752 6.34093 2.10734 6.39143 1.95956 6.48392C1.77391 6.59995 1.65387 6.76393 1.62133 6.9455C1.59972 7.06578 1.60079 7.30324 1.84913 7.54438C1.9857 7.67715 2.18629 7.79943 2.44504 7.90808C2.51306 7.93645 2.59361 7.96369 2.67897 7.99262C2.97532 8.09277 3.42372 8.24398 3.54055 8.53676C3.59977 8.68513 3.57443 8.88031 3.46507 9.11635C3.46213 9.12288 3.45946 9.12912 3.4568 9.13564C3.42959 9.20345 3.17458 9.81765 2.6515 10.4653C2.35434 10.8336 2.02705 11.1414 1.67921 11.3805C1.25456 11.6725 0.795222 11.8631 0.314015 11.9474C0.124894 11.9803 -0.0100789 12.1596 0.000590827 12.363C0.00379176 12.4217 0.0168622 12.4802 0.0392688 12.5366C0.0392688 12.5369 0.0395355 12.5372 0.0398022 12.5378C0.116091 12.7278 0.293476 12.8893 0.58156 13.032C0.933662 13.2059 1.45995 13.3522 2.14602 13.4666C2.18069 13.5367 2.2167 13.7128 2.24151 13.8337C2.26765 13.9619 2.29486 14.0938 2.33354 14.234C2.37542 14.3858 2.48398 14.567 2.76273 14.567C2.86836 14.567 2.98999 14.5418 3.13057 14.5126C3.3365 14.4694 3.61844 14.411 3.97001 14.411C4.165 14.411 4.36693 14.4292 4.57045 14.4652C4.96257 14.5347 5.30053 14.7886 5.69158 15.0825C6.26401 15.5129 6.91194 16 7.90182 16C7.92877 16 7.95597 15.9991 7.98265 15.9972C8.01546 15.9989 8.056 16 8.09868 16C9.08884 16 9.73649 15.5126 10.3084 15.0828L10.3092 15.082C10.7002 14.7883 11.0379 14.5347 11.4298 14.4652C11.633 14.4292 11.8352 14.411 12.0302 14.411C12.3661 14.411 12.6323 14.4567 12.8697 14.5058C13.0246 14.5381 13.1452 14.5537 13.2375 14.5537H13.2466H13.2559C13.4597 14.5537 13.6096 14.4346 13.6667 14.2263C13.7046 14.0893 13.7318 13.9605 13.7585 13.83C13.7817 13.7168 13.819 13.5358 13.8537 13.4649C14.5403 13.3503 15.0666 13.2042 15.4187 13.0302C15.706 12.8884 15.8831 12.7273 15.9599 12.5378C15.9828 12.481 15.9964 12.4223 15.9994 12.3621C16.0103 12.159 15.8751 11.9794 15.686 11.9465C13.5469 11.5715 12.5835 9.23409 12.5434 9.13479C12.5408 9.12827 12.5378 9.12174 12.5349 9.1155C12.4255 8.87946 12.4002 8.68428 12.4597 8.53562C12.5763 8.24313 13.0244 8.09192 13.321 7.99177C13.4069 7.96312 13.4877 7.9356 13.5552 7.90723C13.847 7.78467 14.0556 7.65162 14.1933 7.50069C14.3576 7.32054 14.3896 7.14806 14.3877 7.03514C14.3826 6.76194 14.1863 6.51938 13.874 6.40051C13.7686 6.35398 13.6483 6.32959 13.5256 6.32959C13.4421 6.32959 13.3186 6.34179 13.2018 6.39966C12.9516 6.5242 12.7272 6.59229 12.5349 6.60194C12.4325 6.59655 12.3607 6.57272 12.3143 6.5503C12.3202 6.44363 12.3266 6.33441 12.3332 6.22008L12.3359 6.17128C12.4045 5.01635 12.4896 3.57885 12.1319 2.72549C11.8867 2.14107 11.5576 1.63836 11.1532 1.23068C10.8141 0.88911 10.4202 0.61222 9.98216 0.407674C9.22034 0.0530515 8.50973 0 8.15416 0Z" fill="#407db8"/>
</svg>
