<svg width="24" height="16" viewBox="0 0 24 16" fill="none" xmlns="http://www.w3.org/2000/svg">
<path fill-rule="evenodd" clip-rule="evenodd" d="M20.7517 0.476356C21.7174 0.741795 22.4764 1.51635 22.733 2.49816C23.1998 4.28 23.1998 7.99998 23.1998 7.99998C23.1998 7.99998 23.1998 11.72 22.733 13.5018C22.4728 14.4873 21.7138 15.2618 20.7517 15.5236C19.0056 16 11.9998 16 11.9998 16C11.9998 16 4.99758 16 3.24791 15.5236C2.28221 15.2582 1.52322 14.4836 1.26664 13.5018C0.799805 11.72 0.799805 7.99998 0.799805 7.99998C0.799805 7.99998 0.799805 4.28 1.26664 2.49816C1.52678 1.51273 2.28578 0.738169 3.24791 0.476356C4.99758 0 11.9998 0 11.9998 0C11.9998 0 19.0056 0 20.7517 0.476356ZM15.5195 7.84006L10.0795 11.2001V4.48008L15.5195 7.84006Z" fill="#da2229"/>
</svg>
