<svg xmlns="http://www.w3.org/2000/svg" xmlns:xlink="http://www.w3.org/1999/xlink" width="56.481" height="50" viewBox="0 0 56.481 50">
  <defs>
    <clipPath id="clip-path">
      <rect id="Rectangle_26" data-name="Rectangle 26" width="56.481" height="50" fill="#d96978"/>
    </clipPath>
  </defs>
  <g id="Group_5" data-name="Group 5" transform="translate(-1568.76 -54)">
    <g id="Group_28" data-name="Group 28" transform="translate(1568.76 54)">
      <g id="Group_25" data-name="Group 25" clip-path="url(#clip-path)">
        <path id="Path_394" data-name="Path 394" d="M55.927,27.207,44.11,47.683A4.507,4.507,0,0,1,40.307,50H16.387a4.294,4.294,0,0,1-3.628-2.022L.554,26.828a3.292,3.292,0,0,1,0-3.656L12.814,1.939A4.152,4.152,0,0,1,16.922.009H40.463a4.216,4.216,0,0,1,3.619,2.262L55.927,22.8a4.652,4.652,0,0,1,0,4.4" transform="translate(0 0)" fill="#d96978"/>
      </g>
    </g>
    <g id="Group_4" data-name="Group 4" transform="translate(1585 67)">
      <path id="Path_61" data-name="Path 61" d="M0,0H24V24H0Z" fill="none"/>
      <path id="Path_62" data-name="Path 62" d="M21,14l-3-3H11a1,1,0,0,1-1-1V4a1,1,0,0,1,1-1h9a1,1,0,0,1,1,1V14" fill="none" stroke="#fff" stroke-linecap="round" stroke-linejoin="round" stroke-width="1.5"/>
      <path id="Path_63" data-name="Path 63" d="M14,15v2a1,1,0,0,1-1,1H6L3,21V11a1,1,0,0,1,1-1H6" fill="none" stroke="#fff" stroke-linecap="round" stroke-linejoin="round" stroke-width="1.5"/>
    </g>
  </g>
</svg>
