<svg xmlns="http://www.w3.org/2000/svg" xmlns:xlink="http://www.w3.org/1999/xlink" width="196.346" height="57.18" viewBox="0 0 196.346 57.18">
  <defs>
    <clipPath id="clip-path">
      <rect id="Rectangle_338" data-name="Rectangle 338" width="196.346" height="57.18" fill="none"/>
    </clipPath>
  </defs>
  <g id="Group_768" data-name="Group 768" clip-path="url(#clip-path)">
    <path id="Path_4443" data-name="Path 4443" d="M195.753,39.029a.293.293,0,0,1,.11-.2.3.3,0,0,1,.418.05.286.286,0,0,1,.06.218,23.26,23.26,0,0,1-.951,3.666l0,0q-.845,2.7-4.321,3.836h0q-.676.221-1.381.47h0q-2.35.837-3.493,1.231l-.03.01q-.676.236-1.679.538-.972.289-2.255.646h0c-.238.068-.465.13-.686.188l-.03.008q-.146.034-.285.075l-.048.018a19.9,19.9,0,0,1-4.241.776q-.435,0-2.157-.1a3.648,3.648,0,0,0-3.658,1.984.3.3,0,0,1-.545-.03.288.288,0,0,1,.013-.228,4.156,4.156,0,0,1,4.211-2.317h.013c1.131.065,1.839.1,2.124.1h0a19.318,19.318,0,0,0,3.994-.731.3.3,0,0,1,.123-.038c.11-.033.223-.06.34-.088l.015,0c.21-.058.428-.118.653-.183.853-.235,1.6-.45,2.245-.641q1.013-.3,1.689-.545l.043-.01q1.141-.394,3.441-1.216h0c.473-.168.936-.325,1.386-.478h0a5.571,5.571,0,0,0,3.946-3.453v0a23.208,23.208,0,0,0,.926-3.558m-23.684-27.5a20.36,20.36,0,0,0-5.065-1.4l-4.557-.876a.3.3,0,0,0-.348.235.287.287,0,0,0,.048.22.28.28,0,0,0,.188.125l4.559.876.01,0a19.98,19.98,0,0,1,4.962,1.376l.028.013A14.5,14.5,0,0,1,177,16.653v0c.35.463.7.956,1.038,1.476q.784,1.19,1.531,2.575l.015.028q.4.739,1.351,2.7l.013.023.005.008.008.018q.09.229.618,1.631v0a18.886,18.886,0,0,0,.781,1.8,6.523,6.523,0,0,0,2.813,3.013,24.526,24.526,0,0,0,5.067,1.932.3.3,0,0,0,.36-.215.281.281,0,0,0-.035-.223.288.288,0,0,0-.18-.135,24.046,24.046,0,0,1-4.944-1.887,6.013,6.013,0,0,1-2.552-2.755,18.144,18.144,0,0,1-.753-1.744q-.567-1.509-.636-1.674a.263.263,0,0,0-.025-.045l0-.013q-.946-1.944-1.351-2.7l-.013-.03q-.769-1.423-1.571-2.642c-.348-.533-.7-1.036-1.061-1.511v0a15,15,0,0,0-5.357-4.749l-.05-.018m-21.66-8.755c-.273-.2-.515-.38-.733-.545-.035-.028-.073-.055-.11-.08l-.005-.005A11.1,11.1,0,0,0,139.995.368l-.04.013c-.34.083-.681.18-1.018.293-.223.073-.445.15-.666.233a.25.25,0,0,0-.053.025,6,6,0,0,0-2.592,2.054q-.995,1.362.168,4.039a.288.288,0,0,0,.163.158.282.282,0,0,0,.225,0,.292.292,0,0,0,.16-.163.288.288,0,0,0,0-.228q-1-2.3-.225-3.463v0a5.453,5.453,0,0,1,2.382-1.864l.028-.015q.3-.113.6-.21c.338-.11.678-.205,1.018-.288l.035-.01a10.54,10.54,0,0,1,9.036,1.687l.008,0c.03.023.06.048.093.07l.005.005c.218.165.465.348.738.551l0,0q.612.458,2.007,1.529l.023.018A27.468,27.468,0,0,0,154.5,6.411v0c.48.273,1.2.718,2.147,1.326a.281.281,0,0,0,.223.04.3.3,0,0,0,.225-.35.287.287,0,0,0-.13-.188Q155.522,6.315,154.8,5.9v0a27.479,27.479,0,0,1-2.36-1.579q-1.411-1.081-2.027-1.544v0m-19.29,8.968q3.119-.45,3.643-1.464a.295.295,0,0,0-.113-.4.3.3,0,0,0-.4.11q-.5.777-3.213,1.171-3.175.447-3.08,3.846a6.549,6.549,0,0,0,1.882,4.889,8.257,8.257,0,0,1,2.29,3.428l.013.033a11.68,11.68,0,0,0,2.695,3.881.3.3,0,0,0,.215.075.293.293,0,0,0,.2-.1.289.289,0,0,0,.075-.215.284.284,0,0,0-.1-.205,11.131,11.131,0,0,1-2.545-3.671,8.761,8.761,0,0,0-2.447-3.661,6.076,6.076,0,0,1-1.687-4.472q-.083-2.856,2.572-3.243m7.9,21.585q.221.556.42,1.164h0q.36,1.156.891,3.7v0c.083.4.19,1.018.33,1.844l0,.028a6.694,6.694,0,0,0,.713,1.989l0,0a5.564,5.564,0,0,0,1.709,1.824q.841.589,2.1,1.349a7.428,7.428,0,0,1,2.7,3.015q1.085,2.083,3.616,6.283a4.97,4.97,0,0,0,2.868,2.57,3.571,3.571,0,0,0,3.27-1.129,4.163,4.163,0,0,1,4.179-1.136.283.283,0,0,0,.225-.018.288.288,0,0,0,.148-.173.283.283,0,0,0-.02-.225.277.277,0,0,0-.173-.145,4.668,4.668,0,0,0-4.752,1.254,3.119,3.119,0,0,1-2.738,1,4.56,4.56,0,0,1-2.5-2.3q-2.522-4.178-3.6-6.253a7.964,7.964,0,0,0-2.918-3.245c-.823-.5-1.514-.941-2.067-1.329a5.031,5.031,0,0,1-1.531-1.631l0,0a6.153,6.153,0,0,1-.646-1.812c-.14-.838-.253-1.464-.335-1.872v0q-.537-2.586-.906-3.761v0c-.135-.423-.283-.823-.438-1.2a.278.278,0,0,0-.16-.163.272.272,0,0,0-.225,0,.283.283,0,0,0-.16.158.272.272,0,0,0,0,.225m6.834-13.74a.227.227,0,0,0-.16.063.223.223,0,0,0-.063.16.213.213,0,0,0,.063.158.222.222,0,0,0,.16.068.2.2,0,0,0,.158-.068.208.208,0,0,0,.068-.158.218.218,0,0,0-.068-.16.209.209,0,0,0-.158-.063m20.964,7.157a.322.322,0,0,0,0-.12.15.15,0,0,0-.088-.083.166.166,0,0,0-.12,0,.05.05,0,0,0-.03.02.1.1,0,0,0-.053.063.127.127,0,0,0,0,.12.146.146,0,0,0,.083.09.137.137,0,0,0,.085.01l.035-.01a.217.217,0,0,0,.088-.09M163.727,23.3a.135.135,0,0,0-.088-.093.154.154,0,0,0-.133,0,.163.163,0,0,0-.09.083l-.005.01a.159.159,0,0,0,0,.135.2.2,0,0,0,.1.1.239.239,0,0,0,.133,0,.325.325,0,0,0,.058-.045.092.092,0,0,0,.03-.053.143.143,0,0,0,0-.135m4.392,1.649-.028,0a.2.2,0,0,0-.085,0,.171.171,0,0,0-.078.08.14.14,0,0,0,0,.11.122.122,0,0,0,.053.06l.025.02a.146.146,0,0,0,.113,0,.172.172,0,0,0,.078-.08.122.122,0,0,0,0-.11.2.2,0,0,0-.078-.08m-2.545-.26a.147.147,0,0,0-.07-.075.132.132,0,0,0-.1,0,.125.125,0,0,0-.06.053l-.008.015a.128.128,0,0,0,0,.105.142.142,0,0,0,.165.073.3.3,0,0,0,.05-.045l.02-.028a.162.162,0,0,0,0-.1m.861-.318a.069.069,0,0,0-.063,0,.093.093,0,0,0-.045.048.074.074,0,0,0,0,.065.079.079,0,0,0,.045.053.09.09,0,0,0,.063,0,.128.128,0,0,0,.058-.053.143.143,0,0,0,0-.065.131.131,0,0,0-.058-.048m.448-4.947a.149.149,0,0,0,.06-.058.1.1,0,0,0,.013-.045l-.013-.03a.113.113,0,0,0-.053-.05.1.1,0,0,0-.083,0,.067.067,0,0,0-.058.05.1.1,0,0,0,0,.075.1.1,0,0,0,.055.058.085.085,0,0,0,.078,0m-2.355,2.28a.133.133,0,0,0-.033-.05l-.012-.008a.132.132,0,0,0-.063,0,.125.125,0,0,0-.055.053.143.143,0,0,0,0,.065.1.1,0,0,0,.055.048l.033.008.03-.008a.1.1,0,0,0,.045-.045.069.069,0,0,0,0-.063m-1.8.958a.069.069,0,0,0-.055,0,.074.074,0,0,0-.035.038.07.07,0,0,0,0,.055.116.116,0,0,0,.035.035l.022.01.033-.008a.054.054,0,0,0,.04-.033.083.083,0,0,0,0-.06.055.055,0,0,0-.04-.038m1.251-2.788a.08.08,0,0,0-.075,0,.089.089,0,0,0-.058.055.092.092,0,0,0-.007.073.189.189,0,0,0,.058.06l.025.008a.125.125,0,0,0,.058-.008.158.158,0,0,0,.05-.058.08.08,0,0,0,0-.075c-.013-.03-.028-.045-.05-.05v-.005m.843-1.078.01.035.038.033.03.018a.211.211,0,0,0,.06.015.105.105,0,0,0,.053-.015.132.132,0,0,0,.078-.085.111.111,0,0,0,0-.105.128.128,0,0,0-.078-.075H165a.114.114,0,0,0-.1,0,.147.147,0,0,0-.078.078.105.105,0,0,0,0,.105m-.673-1.286.28-.183h-.348l-.115-.323-.123.323h-.333l.258.183-.123.353.31-.215.33.238Zm2.978.13-.018-.005a.111.111,0,0,0-.075,0,.117.117,0,0,0-.06.06.112.112,0,0,0,0,.07l.008.023a.094.094,0,0,0,.053.04l.018.005a.167.167,0,0,0,.05,0l0-.005a.089.089,0,0,0,.06-.063.085.085,0,0,0,0-.07.1.1,0,0,0-.038-.053m-1.249-.27a.092.092,0,0,0-.007-.08.1.1,0,0,0-.068-.068.113.113,0,0,0-.09,0,.11.11,0,0,0-.07.063l0,.005a.125.125,0,0,0,0,.1.1.1,0,0,0,.075.073.1.1,0,0,0,.09,0,.1.1,0,0,0,.068-.073l.007-.015m11.746,10.277a.178.178,0,0,0-.053.008.2.2,0,0,0-.085.05.194.194,0,0,0,.138.33.178.178,0,0,0,.138-.058.19.19,0,0,0,0-.273.181.181,0,0,0-.08-.05.213.213,0,0,0-.058-.008M174.7,28.932a.181.181,0,0,0-.138-.055.193.193,0,0,0-.138.055.2.2,0,0,0,0,.273.188.188,0,0,0,.138.06.177.177,0,0,0,.138-.06.19.19,0,0,0,0-.273m1.266-1.281a.2.2,0,0,0-.138.058.194.194,0,0,0,.138.33.178.178,0,0,0,.138-.058.194.194,0,0,0-.138-.33m-.891-2.722a.18.18,0,0,0,.138-.06.191.191,0,0,0-.138-.328.2.2,0,0,0-.14.055.2.2,0,0,0,0,.273.193.193,0,0,0,.14.06m.3-1.359a.2.2,0,0,0-.055-.138.193.193,0,0,0-.14-.058.2.2,0,0,0-.138.058.195.195,0,0,0,.278.273.193.193,0,0,0,.055-.135m-2.6,5.362a.2.2,0,0,0,0,.273.188.188,0,0,0,.138.06.18.18,0,0,0,.138-.06.191.191,0,0,0-.138-.328.193.193,0,0,0-.138.055m-3.441-2.855a.13.13,0,0,0-.168.068.089.089,0,0,0-.013.048.063.063,0,0,0,.013.045.131.131,0,0,0,.063.073l.035.01a.114.114,0,0,0,.063-.01l.015-.008a.08.08,0,0,0,.045-.038l.01-.028a.094.094,0,0,0,.005-.093.1.1,0,0,0-.068-.068m.743-2.97a.069.069,0,0,0,.038-.038.07.07,0,0,0,0-.055.056.056,0,0,0-.038-.038.041.041,0,0,0-.053,0,.048.048,0,0,0-.038.038.075.075,0,0,0,.033.093.076.076,0,0,0,.058,0m4.194,1.959a.129.129,0,0,0-.135.135.132.132,0,0,0,.135.133.118.118,0,0,0,.093-.04.128.128,0,0,0,.043-.093.135.135,0,0,0-.043-.1.125.125,0,0,0-.093-.038m-2.645-.168a.148.148,0,0,0,0-.13.14.14,0,0,0-.08-.088l-.018-.008a.141.141,0,0,0-.13,0,.16.16,0,0,0-.1.09.154.154,0,0,0,0,.133.177.177,0,0,0,.1.1.134.134,0,0,0,.13,0,.173.173,0,0,0,.1-.09m-.25-.863a.114.114,0,0,0-.068-.06.1.1,0,0,0-.093,0,.112.112,0,0,0-.075.068l-.005.015a.132.132,0,0,0,.005.083l.01.015a.125.125,0,0,0,.06.053.111.111,0,0,0,.1,0l.008-.005a.113.113,0,0,0,.06-.063.1.1,0,0,0,0-.1Zm1.063-.5-.013-.02a.133.133,0,0,0-.078-.07.144.144,0,0,0-.12,0,.2.2,0,0,0-.085.09.14.14,0,0,0,0,.11.127.127,0,0,0,.053.065l.033.023a.144.144,0,0,0,.12,0,.181.181,0,0,0,.09-.088.166.166,0,0,0,0-.11m1.581.388a.19.19,0,0,0-.055-.14.2.2,0,0,0-.138-.055.21.21,0,0,0-.14.055.191.191,0,0,0-.055.14.182.182,0,0,0,.055.133.193.193,0,0,0,.14.06.184.184,0,0,0,.138-.06.181.181,0,0,0,.055-.133M172.332,21.1l.02,0a.127.127,0,0,0,.068-.068.118.118,0,0,0,.008-.1.14.14,0,0,0-.025-.038.2.2,0,0,0-.05-.035.119.119,0,0,0-.093,0,.1.1,0,0,0-.075.068.162.162,0,0,0,0,.1.115.115,0,0,0,.073.068.164.164,0,0,0,.075.01m-2.129-.085a.08.08,0,0,0,0-.075.083.083,0,0,0-.055-.06.08.08,0,0,0-.075,0,.1.1,0,0,0-.055.058.084.084,0,0,0,0,.078.1.1,0,0,0,.055.055.1.1,0,0,0,.075,0,.081.081,0,0,0,.055-.055m-.741-2.7a.1.1,0,0,0-.045-.015.1.1,0,0,0-.06.01.175.175,0,0,0-.063.058.045.045,0,0,0-.02.028.166.166,0,0,0,0,.11.161.161,0,0,0,.078.075.146.146,0,0,0,.065.015l.045-.015a.152.152,0,0,0,.083-.075.14.14,0,0,0,0-.11.152.152,0,0,0-.083-.08m1.884.07a.124.124,0,0,0-.043-.06l-.033-.018a.133.133,0,0,0-.115,0,.137.137,0,0,0-.073.183l.007.018.02.03a.1.1,0,0,0,.045.035.113.113,0,0,0,.113,0l.035-.02a.154.154,0,0,0,.043-.06.134.134,0,0,0,0-.108M142.209,5.863a.238.238,0,0,1,.175.073.24.24,0,0,1,.075.178.248.248,0,0,1-.425.175.226.226,0,0,1-.075-.175.256.256,0,0,1,.178-.24.242.242,0,0,1,.073-.01m0,.761a.513.513,0,0,0,.51-.51.5.5,0,0,0-.15-.363.519.519,0,0,0-.215-.13.571.571,0,0,0-.29,0,.52.52,0,0,0-.215.13.5.5,0,0,0-.15.363.513.513,0,0,0,.51.51m7.772.03a.231.231,0,0,1,.173.073.24.24,0,0,1,.075.178.257.257,0,0,1-.248.25.242.242,0,0,1-.18-.075.232.232,0,0,1-.073-.175.248.248,0,0,1,.253-.25m0,.761a.51.51,0,0,0,0-1.021.51.51,0,1,0,0,1.021M144.7,6.534h3.245V8.371H144.7Zm3.373,2.1a.129.129,0,0,0,.13-.13V6.4a.129.129,0,0,0-.13-.13h-3.506a.131.131,0,0,0-.13.13V8.5a.131.131,0,0,0,.13.13h3.506m-4.2-2.8h4.807V9.081h-4.807Zm4.939,3.508a.131.131,0,0,0,.13-.13V5.706a.131.131,0,0,0-.13-.13h-5.07a.129.129,0,0,0-.13.13V9.214a.129.129,0,0,0,.13.13h5.07m-.385,4.807a.131.131,0,0,0,.075-.238,1.285,1.285,0,0,0-1.6-.053,1.283,1.283,0,0,0-1.606.058.131.131,0,1,0,.163.205,1.049,1.049,0,0,1,1.374.005.131.131,0,0,0,.155-.005,1.041,1.041,0,0,1,1.364,0,.118.118,0,0,0,.075.025m1.2,1.216a.131.131,0,0,0,.075-.238,1.286,1.286,0,0,0-1.6-.053,1.283,1.283,0,0,0-1.606.058.13.13,0,1,0,.16.205,1.055,1.055,0,0,1,1.376.005.131.131,0,0,0,.155-.005,1.038,1.038,0,0,1,1.361,0,.13.13,0,0,0,.078.025m14.736.085a.118.118,0,0,0-.075.025l-.453.31.183-.49a.133.133,0,0,0-.045-.153l-.338-.24h.44a.129.129,0,0,0,.123-.085l.178-.475.173.475a.133.133,0,0,0,.123.085h.448l-.345.24a.13.13,0,0,0-.05.153l.193.52-.478-.34a.142.142,0,0,0-.075-.025m.821.848a.133.133,0,0,0,.123-.175l-.3-.823.608-.42a.131.131,0,0,0,.05-.148.132.132,0,0,0-.125-.09h-.773l-.263-.721a.129.129,0,0,0-.123-.085.126.126,0,0,0-.123.083l-.27.723h-.758a.13.13,0,0,0-.075.235l.586.42-.293.783a.129.129,0,0,0,.043.148.128.128,0,0,0,.155.005l.718-.493.746.533a.13.13,0,0,0,.078.025m-17.581.018a.125.125,0,0,0,.108-.055.128.128,0,0,0-.03-.18,1.282,1.282,0,0,0-1.6-.055,1.286,1.286,0,0,0-1.606.058.13.13,0,0,0,.16.205,1.051,1.051,0,0,1,1.374.005.131.131,0,0,0,.155-.005,1.038,1.038,0,0,1,1.364.005.138.138,0,0,0,.075.023m23.013.515a.138.138,0,0,0-.075.023l-.16.113.063-.168a.133.133,0,0,0-.045-.153l-.1-.068h.133a.133.133,0,0,0,.123-.085l.07-.183.065.18a.132.132,0,0,0,.123.088h.135l-.1.068a.133.133,0,0,0-.048.153l.068.185-.18-.128a.118.118,0,0,0-.075-.025m.523.636a.133.133,0,0,0,.123-.175l-.178-.488.358-.25a.135.135,0,0,0,.05-.145.131.131,0,0,0-.125-.093h-.46l-.155-.425a.133.133,0,0,0-.123-.085.13.13,0,0,0-.123.085l-.163.425H169.9a.128.128,0,0,0-.123.093.127.127,0,0,0,.048.145l.343.248-.173.463a.129.129,0,0,0,.043.148.128.128,0,0,0,.153.005l.428-.3.448.32a.15.15,0,0,0,.078.025m-9.454-.038a.13.13,0,0,0-.073.023l-.163.11.063-.165a.13.13,0,0,0-.045-.153l-.1-.07h.13a.131.131,0,0,0,.123-.083l.07-.185.065.183a.132.132,0,0,0,.123.085h.138l-.1.07a.129.129,0,0,0-.048.15l.068.188-.178-.13a.141.141,0,0,0-.078-.023m.523.633a.138.138,0,0,0,.08-.025.132.132,0,0,0,.043-.15l-.178-.488.358-.248a.128.128,0,0,0,.05-.145.131.131,0,0,0-.125-.093h-.46l-.155-.425a.133.133,0,0,0-.123-.085.131.131,0,0,0-.123.083l-.163.428h-.445a.132.132,0,0,0-.125.09.134.134,0,0,0,.048.148l.345.248-.175.46a.132.132,0,0,0,.2.155l.428-.3.448.32a.138.138,0,0,0,.075.023m5.6.971h.01a.131.131,0,0,0,.12-.14,4.982,4.982,0,0,0-.558-2.114c-.033-.055-.063-.108-.1-.153a.13.13,0,1,0-.218.143c.028.043.058.09.085.14a4.707,4.707,0,0,1,.525,2,.129.129,0,0,0,.13.12m-1.321.746a.138.138,0,0,0,.075-.023.131.131,0,0,0,.03-.183,3.376,3.376,0,0,0-1.854-1.514.128.128,0,0,0-.155.1.129.129,0,0,0,.1.155,3.16,3.16,0,0,1,1.7,1.411.132.132,0,0,0,.108.055m3.235,1.1a.121.121,0,0,0,.065-.018,4.72,4.72,0,0,0,1.952-1.739.13.13,0,0,0-.06-.173.132.132,0,0,0-.175.058,4.542,4.542,0,0,1-1.849,1.629.13.13,0,0,0-.048.178.133.133,0,0,0,.115.065m-1.616,0a.13.13,0,0,0,.12-.08,4.851,4.851,0,0,0,.235-3.828.13.13,0,0,0-.24.1,4.614,4.614,0,0,1-.235,3.628.13.13,0,0,0,.07.17.112.112,0,0,0,.05.01m-.31.205h.013a.13.13,0,0,0,.118-.143,4.71,4.71,0,0,0-1.444-3.213.128.128,0,0,0-.183.013.133.133,0,0,0,.01.185,4.44,4.44,0,0,1,1.356,3.04.132.132,0,0,0,.13.118m-.571.135a.127.127,0,0,0,.09-.038.131.131,0,0,0,0-.185,5.416,5.416,0,0,0-2.988-1.7.126.126,0,0,0-.148.108.132.132,0,0,0,.108.15,5.165,5.165,0,0,1,2.843,1.621.122.122,0,0,0,.093.04m1.179.078a.12.12,0,0,0,.08-.028,6.487,6.487,0,0,0,2.2-2.793.131.131,0,1,0-.245-.09,6.261,6.261,0,0,1-2.112,2.677.129.129,0,0,0-.022.183.131.131,0,0,0,.1.05m-5.673.448a.13.13,0,0,0,.068-.018,1.365,1.365,0,0,1,.478-.148,7.016,7.016,0,0,1,1.924.085.129.129,0,0,0,.15-.11.132.132,0,0,0-.11-.148,7.167,7.167,0,0,0-2-.085,1.611,1.611,0,0,0-.573.18.134.134,0,0,0-.048.18.135.135,0,0,0,.113.063m4.174.06a.13.13,0,0,0,.078-.235,5.115,5.115,0,0,0-3.471-1.139.13.13,0,0,0-.118.143.126.126,0,0,0,.14.118,4.85,4.85,0,0,1,3.293,1.088.125.125,0,0,0,.078.025m1.6.108h.013a5.6,5.6,0,0,0,3.478-1.146.131.131,0,1,0-.188-.183,5.457,5.457,0,0,1-3.313,1.068.13.13,0,0,0,.01.26m-8.47.075a.129.129,0,0,0,.113-.065l.413-.7.41.7a.148.148,0,0,0,.245,0l.413-.7.41.7a.128.128,0,0,0,.178.048.134.134,0,0,0,.048-.18l-.523-.886a.128.128,0,0,0-.113-.065.132.132,0,0,0-.113.063l-.423.716-.418-.713a.135.135,0,0,0-.113-.065.126.126,0,0,0-.113.063l-.425.718-.42-.716a.135.135,0,0,0-.113-.065.126.126,0,0,0-.113.063l-.423.716-.42-.713a.128.128,0,0,0-.113-.065.132.132,0,0,0-.113.063l-.523.888a.128.128,0,0,0,.043.18.132.132,0,0,0,.18-.048l.413-.7.41.7a.128.128,0,0,0,.12.065.13.13,0,0,0,.123-.065l.413-.7.41.7a.134.134,0,0,0,.125.065h.01m11.01.19a5.022,5.022,0,0,0,1.762-.288.131.131,0,0,0-.093-.245,5.084,5.084,0,0,1-2.119.258.13.13,0,1,0-.018.26c.16.01.315.015.468.015m-7.449.721a.125.125,0,0,0,.093-.04c.525-.533,1.646-.753,3.333-.656a.129.129,0,0,0,.138-.12.132.132,0,0,0-.123-.14c-1.789-.105-2.945.135-3.533.733a.131.131,0,0,0,0,.185.137.137,0,0,0,.093.038m8.107.185a1.89,1.89,0,0,0,.723-.125.13.13,0,0,0-.1-.24c-.633.263-1.844.028-3.6-.7a.13.13,0,1,0-.1.24,8.746,8.746,0,0,0,3.078.826m-11.693.445.293.5h-.591Zm.523.761a.131.131,0,0,0,.113-.065.134.134,0,0,0,0-.13l-.523-.888a.135.135,0,0,0-.113-.065.131.131,0,0,0-.113.063l-.525.888a.132.132,0,0,0,0,.133.135.135,0,0,0,.115.065h1.048m3.02.105a.132.132,0,0,0,.108-.055,3.859,3.859,0,0,1,1.887-1.264.131.131,0,1,0-.09-.245,4.105,4.105,0,0,0-2.009,1.359.13.13,0,0,0,.105.205m11.913-1.261a.808.808,0,0,1,.078-.088,1.016,1.016,0,0,1,.315-.225.557.557,0,0,1,.1-.03.371.371,0,0,1-.028.1,1.088,1.088,0,0,1-.228.32.641.641,0,0,1-.093.075.523.523,0,0,0-.075-.1.422.422,0,0,0-.073-.06m-1.073-.333a.318.318,0,0,1,.108.035,1.024,1.024,0,0,1,.313.225.58.58,0,0,1,.065.075.358.358,0,0,0-.068.058.584.584,0,0,0-.08.1,1,1,0,0,1-.08-.07,1.024,1.024,0,0,1-.225-.313.352.352,0,0,1-.033-.11m.851.513h0m.045.01Zm0,0h0Zm-.018.478Zm0,0Zm-.048.01h0m-.285-.16a.125.125,0,0,0-.048-.078.13.13,0,0,0,.04-.078.209.209,0,0,1,.063-.118.226.226,0,0,1,.108-.063.129.129,0,0,0,.078-.058l.01.018a.141.141,0,0,0,.065.043l.008,0a.253.253,0,0,1,.163.183.136.136,0,0,0,.043.068.145.145,0,0,0-.048.068.237.237,0,0,1-.065.1.227.227,0,0,1-.105.063l-.012.005a.123.123,0,0,0-.06.035.136.136,0,0,0-.063-.033.249.249,0,0,1-.12-.07.235.235,0,0,1-.055-.088m-.188.2a.543.543,0,0,0,.06.073A.435.435,0,0,0,174.9,24a.681.681,0,0,1-.078.1,1.035,1.035,0,0,1-.31.223.408.408,0,0,1-.11.03.323.323,0,0,1,.033-.1.983.983,0,0,1,.225-.318.815.815,0,0,1,.088-.075m.7.193a.475.475,0,0,0,.093-.065.313.313,0,0,0,.058-.058,1.23,1.23,0,0,1,.1.078.993.993,0,0,1,.22.265.358.358,0,0,1,.033.1.749.749,0,0,1-.108-.035.957.957,0,0,1-.313-.193.583.583,0,0,1-.085-.093m.5.581a.543.543,0,0,0,.1-.008.051.051,0,0,0,.028,0,.13.13,0,0,0,.083-.04l.02-.018a.121.121,0,0,0,.038-.105.324.324,0,0,0,0-.11.671.671,0,0,0-.053-.2,1.264,1.264,0,0,0-.28-.393,1.212,1.212,0,0,0-.193-.158l-.013-.008-.035-.015.05-.025a.881.881,0,0,0,.2-.155,1.309,1.309,0,0,0,.288-.4.574.574,0,0,0,.045-.29.152.152,0,0,0,0-.048.131.131,0,0,0-.045-.07.114.114,0,0,0-.055-.043.128.128,0,0,0-.068-.01.558.558,0,0,0-.293.048,1.244,1.244,0,0,0-.4.28,1,1,0,0,0-.158.2.477.477,0,0,0-.023.053l-.018-.033-.008-.013a1.105,1.105,0,0,0-.155-.2,1.252,1.252,0,0,0-.393-.278.461.461,0,0,0-.308-.05.113.113,0,0,0-.058.01.142.142,0,0,0-.045.03.125.125,0,0,0-.055.078l0,.04a.492.492,0,0,0,.048.308,1.284,1.284,0,0,0,.28.4,1.041,1.041,0,0,0,.2.155l.028.015-.02.01a.932.932,0,0,0-.2.153,1.357,1.357,0,0,0-.283.4.494.494,0,0,0-.043.3.14.14,0,0,0,.038.105l.01.01.013.013a.134.134,0,0,0,.105.038l.01,0a.514.514,0,0,0,.285-.045,1.227,1.227,0,0,0,.4-.283.816.816,0,0,0,.155-.2l.012-.023.013.023a.9.9,0,0,0,.163.215,1.18,1.18,0,0,0,.39.275.962.962,0,0,0,.178.058h.025m-11.223.6a.131.131,0,0,0,.128-.1c.205-.781,1.021-1.6,2.425-2.432a.131.131,0,0,0,.045-.18.127.127,0,0,0-.178-.045c-1.464.868-2.32,1.742-2.545,2.59a.13.13,0,0,0,.093.16l.033.005m6.02.483.028,0a.13.13,0,0,0,.1-.155,5.469,5.469,0,0,0-2.144-2.737.13.13,0,1,0-.163.2,5.332,5.332,0,0,1,2.052,2.59.129.129,0,0,0,.128.1m-9.879-.656.3.5h-.591Zm.523.761a.128.128,0,0,0,.113-.065.122.122,0,0,0,0-.13l-.523-.888a.128.128,0,0,0-.113-.065.138.138,0,0,0-.113.063l-.525.888a.132.132,0,0,0,0,.133.128.128,0,0,0,.113.065h1.048m-2.26-.751.3.5h-.591Zm.525.763a.129.129,0,0,0,.113-.068.134.134,0,0,0,0-.13l-.528-.888a.128.128,0,0,0-.113-.065.138.138,0,0,0-.113.065l-.52.888a.128.128,0,0,0,0,.13.133.133,0,0,0,.115.068h1.048m9.011.383a.135.135,0,0,0,.125-.088c.215-.646-.055-1.827-.826-3.608a.132.132,0,0,0-.173-.07.134.134,0,0,0-.068.173c.736,1.7,1.011,2.85.818,3.421a.131.131,0,0,0,.08.168l.043.005m-2.547.12a.135.135,0,0,0,.1-.05,6.51,6.51,0,0,0,1.259-3.321.131.131,0,0,0-.115-.143.128.128,0,0,0-.145.113,6.218,6.218,0,0,1-1.206,3.19.133.133,0,0,0,.023.183.142.142,0,0,0,.083.028m3.854.32a.131.131,0,0,0,.128-.1,3.58,3.58,0,0,0-.666-2.037.131.131,0,0,0-.23.125c.621,1.136.691,1.634.641,1.852a.131.131,0,0,0,.1.158l.028,0m-2.828.1a.131.131,0,0,0,.105-.055,3.771,3.771,0,0,0,.5-2.169.129.129,0,0,0-.13-.13.131.131,0,0,0-.13.13,3.546,3.546,0,0,1-.45,2.019.128.128,0,0,0,.03.18.13.13,0,0,0,.078.025m6.591,1.246a1.792,1.792,0,0,0,.828-.215.132.132,0,1,0-.123-.233,1.552,1.552,0,0,1-.716.188,1.507,1.507,0,0,1-.678-.188.129.129,0,0,0-.175.055.132.132,0,0,0,.053.178,1.783,1.783,0,0,0,.8.215h.015m3.06,1.486a1.744,1.744,0,0,0,.228-.018,1.815,1.815,0,0,0,.6-.2.13.13,0,1,0-.12-.23,1.628,1.628,0,0,1-.515.173,1.387,1.387,0,0,1-.2.013,1.223,1.223,0,0,1-.165-.013c-.025-.005-.05-.008-.078-.015a1.606,1.606,0,0,1-.435-.158.128.128,0,0,0-.175.053.131.131,0,0,0,.053.178,1.965,1.965,0,0,0,.505.185l.093.015a1.706,1.706,0,0,0,.2.018h.015m-29.992-1.6-.015-.018,0-.008c-.008-.01-.018-.028.01-.083a.279.279,0,0,1,.123-.13.3.3,0,0,1,.183-.043c.055.005.073.023.075.033l.005.008,0,.03a.105.105,0,0,1-.015.053.289.289,0,0,1-.128.13.333.333,0,0,1-.178.048.113.113,0,0,1-.06-.02m.921,1.6a.12.12,0,0,0,.078-.025.131.131,0,0,0,.028-.183L147,28.141a.576.576,0,0,0,.165-.068.554.554,0,0,0,.238-.243.4.4,0,0,0,.038-.165.433.433,0,0,0-.015-.118l-.02-.04L147.4,27.5a.335.335,0,0,0-.275-.165.554.554,0,0,0-.338.075.535.535,0,0,0-.233.245.328.328,0,0,0,0,.323.312.312,0,0,0,.07.093l.991,1.356a.128.128,0,0,0,.105.053m-3.005-.333a.3.3,0,0,1,.09.015.32.32,0,0,1,.163.1.126.126,0,0,1,.03.048l-.018.053a.138.138,0,0,1-.053.035.312.312,0,0,1-.185,0,.316.316,0,0,1-.158-.093c-.038-.045-.03-.07-.025-.085s.008-.03.068-.05a.26.26,0,0,1,.088-.018m.13.52a.567.567,0,0,0,.173-.028.376.376,0,0,0,.188-.148l.015-.03.033-.1,0-.01.338-1.1a.462.462,0,0,0,.075.108c.08.09.1.145.088.168s-.033.035-.085.045a.131.131,0,1,0,.048.258.326.326,0,0,0,.293-.243.446.446,0,0,0-.148-.4.694.694,0,0,1-.113-.463.132.132,0,0,0-.113-.13.127.127,0,0,0-.143.09l-.408,1.326a.633.633,0,0,0-.21-.1.517.517,0,0,0-.343.008.327.327,0,0,0-.228.228.334.334,0,0,0,.078.32.55.55,0,0,0,.288.175.613.613,0,0,0,.173.025m4.669-2.072.043.1-.868.5-.045-.1Zm.543,1.439h.028c.055.005.07.025.078.035l0,.008,0,.03a.159.159,0,0,1-.013.053.3.3,0,0,1-.128.128.315.315,0,0,1-.175.048c-.063-.008-.075-.028-.083-.043s-.018-.03.01-.085a.28.28,0,0,1,.125-.128.305.305,0,0,1,.153-.045m-1.1.6.03,0a.172.172,0,0,1,.07.023l.015.038a.184.184,0,0,1-.015.065.285.285,0,0,1-.128.128.331.331,0,0,1-.175.048c-.063-.008-.075-.03-.083-.045s-.015-.028.01-.083a.3.3,0,0,1,.125-.13.3.3,0,0,1,.15-.045m-.2.563a.617.617,0,0,0,.3-.08.565.565,0,0,0,.238-.248.388.388,0,0,0,.03-.233l0-.015-.023-.065-.015-.025-.488-1.1.871-.5.37.838a.554.554,0,0,0-.258.08.511.511,0,0,0-.233.245.323.323,0,0,0,0,.32.337.337,0,0,0,.288.178.582.582,0,0,0,.325-.08.541.541,0,0,0,.235-.245.354.354,0,0,0,.04-.163.464.464,0,0,0-.018-.12l-.005-.015-.563-1.274,0,0-.148-.34a.127.127,0,0,0-.078-.07.135.135,0,0,0-.108.01l-1.1.628a.13.13,0,0,0-.055.165l.148.338,0,0,.418.941a.594.594,0,0,0-.25.078.527.527,0,0,0-.233.248.324.324,0,0,0,0,.32.346.346,0,0,0,.288.178h.03m16.107,4.552a.132.132,0,0,0,.11-.058,1.209,1.209,0,0,0-.15-1.644.762.762,0,0,1-.263-.553.878.878,0,0,1,.375-.588.129.129,0,0,0,.018-.185.13.13,0,0,0-.183-.018,1.128,1.128,0,0,0-.473.776,1.012,1.012,0,0,0,.338.748.955.955,0,0,1,.12,1.321.13.13,0,0,0,.038.18.125.125,0,0,0,.07.02m.758.535a.135.135,0,0,0,.11-.06l.012-.02.008-.008a1.211,1.211,0,0,0-.17-1.616.762.762,0,0,1-.265-.553.894.894,0,0,1,.378-.588.13.13,0,0,0,.018-.183.129.129,0,0,0-.185-.018,1.119,1.119,0,0,0-.47.773,1.008,1.008,0,0,0,.338.751.947.947,0,0,1,.14,1.289l-.02.03a.13.13,0,0,0,.108.2M145.292,34.7h1.576v.35h-1.576Zm1.7.611a.129.129,0,0,0,.13-.13v-.611a.129.129,0,0,0-.13-.13h-1.834a.131.131,0,0,0-.133.13v.611a.131.131,0,0,0,.133.13H147m1.023-.611H149.6v.35H148.02Zm1.7.611a.131.131,0,0,0,.133-.13v-.611a.131.131,0,0,0-.133-.13H147.89a.131.131,0,0,0-.133.13v.611a.131.131,0,0,0,.133.13h1.834m1.018-.611h1.574v.35h-1.574Zm1.707.611a.129.129,0,0,0,.13-.13v-.611a.129.129,0,0,0-.13-.13h-1.837a.129.129,0,0,0-.13.13v.611a.129.129,0,0,0,.13.13h1.837M153.5,34.7h1.574v.35H153.5Zm1.707.611a.131.131,0,0,0,.13-.13v-.611a.131.131,0,0,0-.13-.13h-1.837a.129.129,0,0,0-.13.13v.611a.129.129,0,0,0,.13.13h1.837m1.036-.611h1.574v.35h-1.574Zm1.707.611a.131.131,0,0,0,.13-.13v-.611a.131.131,0,0,0-.13-.13h-1.837a.129.129,0,0,0-.13.13v.611a.129.129,0,0,0,.13.13h1.837m6.488,1.486a.129.129,0,0,0,.11-.06,1.213,1.213,0,0,0-.153-1.644.521.521,0,0,1-.05-.055.614.614,0,0,1,.007-.938,1.35,1.35,0,0,1,.163-.143.136.136,0,0,0,.023-.185.134.134,0,0,0-.185-.023,2.167,2.167,0,0,0-.19.17.869.869,0,0,0-.013,1.291.737.737,0,0,0,.06.065.952.952,0,0,1,.118,1.319.133.133,0,0,0,.038.183.151.151,0,0,0,.073.02m-8.978-19.973a4.262,4.262,0,0,0-2.58-2.755,1.5,1.5,0,0,1,.966-.583,1.673,1.673,0,0,1,1.231.525,4.561,4.561,0,0,1,1.186,2.084,9.927,9.927,0,0,0-.255,1.321,2.855,2.855,0,0,0-.548-.593m1.076-.731a2.746,2.746,0,0,1,.963-1.621c.906-.576,1.822-.4,2.8.53a2.5,2.5,0,0,0-1.944.365,4.21,4.21,0,0,0-1.361,2.99,13.684,13.684,0,0,0-.453-2.265m-.9,1.274a3.311,3.311,0,0,1,.32.46c-.025.218-.04.448-.058.686a10.931,10.931,0,0,0-.263-1.146m-2.527.21a5.22,5.22,0,0,0-.611.038,1.4,1.4,0,0,1,.563-.828,1.966,1.966,0,0,1,1.5-.118,1.824,1.824,0,0,1,.678.315,10.04,10.04,0,0,1,.49,2.192,2.61,2.61,0,0,0-2.62-1.6m3.115.2c.048-.425.108-.813.18-1.161a16.931,16.931,0,0,1,.423,2.773,6.777,6.777,0,0,0-.6-1.611m.943,1.464c.39-1.311.958-1.984,1.687-2a.714.714,0,0,1,.581.263,1.713,1.713,0,0,1,.118,1.279.94.94,0,0,0-1.031-.535,1.675,1.675,0,0,0-1.219.993,2.885,2.885,0,0,0-.153.35c.005-.118.01-.233.018-.345m-3.306.475a3.366,3.366,0,0,0-1.194.253c.223-.616.548-.951.971-.993a2.27,2.27,0,0,1,2.129,1.274c.03.19.058.393.075.606v.028c0,.078,0,.153.005.228v.4a2.2,2.2,0,0,0-1.6-1.759,2.074,2.074,0,0,0-.383-.035m-2.447,3.486.025.025c.02.018.04.04.06.06a1.534,1.534,0,0,1,.408,1.078,1.659,1.659,0,0,1-.068.478,1.49,1.49,0,0,1-.34.6.8.8,0,0,1-.065.065l-.02.02V23.194m-6.106,1.589c.005-.068.023-.075.05-.075s.04.015.043.07v1.684h-.093Zm6.106,1.939h.836v.3h-.836Zm.966.561a.131.131,0,0,0,.13-.133v-.558a.129.129,0,0,0-.13-.13h-.966v-.6a2.151,2.151,0,0,0,.2-.168l.08-.08a1.806,1.806,0,0,0,.4-.706,1.888,1.888,0,0,0,.075-.551A1.818,1.818,0,0,0,151.7,23.1a1.06,1.06,0,0,0-.075-.075,1.9,1.9,0,0,0-.205-.175V21.037a3.572,3.572,0,0,1,1.023.946,5.181,5.181,0,0,1,.988,3.18,5.147,5.147,0,0,1-.991,3.175,3.47,3.47,0,0,1-1.021.946v-2Zm-.513-6.256a3.065,3.065,0,0,1,1.767,1.169,5.066,5.066,0,0,1,0,6.005,3.308,3.308,0,0,1-1.261,1.008,2.6,2.6,0,0,1-.611.18l-.033.005a3.891,3.891,0,0,0,.916-.9,5.408,5.408,0,0,0,1.041-3.331,5.44,5.44,0,0,0-1.041-3.338,4.076,4.076,0,0,0-.778-.8m6.078,1.261h4.134v10.6h-4.134Zm8.645,7.5,0-.015a.5.5,0,0,0-.013-.07,1.8,1.8,0,0,0-.153-.43,1.973,1.973,0,0,0-.238-.345,1.392,1.392,0,0,0-2.142,0,1.819,1.819,0,0,0-.233.345,1.732,1.732,0,0,0-.158.443l-.012.075,0,.018V32.9h-1.3V25.584a2.8,2.8,0,0,0,.826,1.251,1.948,1.948,0,0,0,.9.4h4.647a.357.357,0,0,1,.355.358v5.3H166.6Zm13.69,2.375v.878l-.611.015V32.16Zm-8.152,0v1.058l-.918.02V32.16Zm8.152,1.141v.843l-.611.03v-.861Zm-8.152.178v1.086l-.918.048V33.5Zm8.152.926v.856l-.611.053v-.876Zm-8.152.423v1.134l-.918.08V34.872Zm8.152.7V36.3l-.611.078v-.8Zm-8.152.7v1.066l-.918.11V36.3Zm8.152.34V37.4l-.611.088v-.848Zm-7.892-4.4h7.019v5.367L172.4,38.558v-6.4Zm-.26,5.392V38.6l-.918.133V37.665Zm-13.2,2.137a.541.541,0,0,1,.385.11.386.386,0,0,1,.085.308V41.8h-.718a.6.6,0,0,1-.651-.5,1.9,1.9,0,0,1,.058-1.1.757.757,0,0,1,.781-.513h.06m.47,2.242Zm3.944-1.672h3.791a2.455,2.455,0,0,1-.8,1.867h-2.99Zm-.418,2.487a3.739,3.739,0,0,0-.6-.573,2.425,2.425,0,0,1-.856-1.914h1.616v2a.129.129,0,0,0,.13.13h2.808a3.286,3.286,0,0,0-.348.36h-2.748m-10.162.6.756,1.221h-1.5Zm1.969,0,.748,1.219H154Zm1.984,0,.748,1.219H155.98Zm2.094,1.481c.38,0,.816-.16.851-.888V42.064h.34c.49-.02.751-.338.733-.888V36.249l.01-.055a1.667,1.667,0,0,1,.383-.776,2.082,2.082,0,0,1,.2-.2,1.262,1.262,0,0,1,.818-.288,1.242,1.242,0,0,1,.813.29,1.792,1.792,0,0,1,.2.193,1.674,1.674,0,0,1,.385.766l.005.018.005.028v1.677h-1.531a.132.132,0,0,0-.12.078.424.424,0,0,0-.013.4.553.553,0,0,0,.46.23c.175.01.253.093.265.28a.517.517,0,0,0,.465.5V40h-1.7l-.025,0-.025,0a.132.132,0,0,0-.13.13,2.741,2.741,0,0,0,.958,2.25,3.435,3.435,0,0,1,.6.576.13.13,0,0,0,.1.053h7.462a.917.917,0,0,0,.7-.218.723.723,0,0,0,.19-.551V38.994l1.066-.155.005,0,7.274-1.066h.005l.871-.128a.127.127,0,0,0,.113-.128V32.16h.806v3.253a1.19,1.19,0,0,0,.3.881.817.817,0,0,0,.621.2c.035,0,.065-.005.1-.01.358-.048.786-.27.8-1.068V31.842a.13.13,0,0,0-.073-.118,6.309,6.309,0,0,1-.668-.383,7.465,7.465,0,0,1-2.059-2.084c-.053-.078-.105-.155-.155-.235A11.505,11.505,0,0,1,179.6,27.9a.132.132,0,0,0-.118-.073.13.13,0,0,0-.118.073l-1.231,2.51.668-4.184a.129.129,0,0,0-.038-.115.132.132,0,0,0-.115-.035,10.168,10.168,0,0,1-3.773,0,.129.129,0,0,0-.115.035.131.131,0,0,0-.038.115l.693,4a8.065,8.065,0,0,0-3.393.008l.648-3.108a.131.131,0,0,0-.128-.158h-2.48a.129.129,0,0,0-.13.13V32.9h-.6V27.563a.61.61,0,0,0-.6-.591h-4.629a1.673,1.673,0,0,1-.771-.343,3.353,3.353,0,0,1-.988-2.074v-2.4a.129.129,0,0,0-.13-.13h-4.4a.131.131,0,0,0-.13.13V32.9h-.54V21.087a4.428,4.428,0,0,1,.39-1.734c.3-.533.641-.821,1.013-.858.536-.055.816.215.888.846a.13.13,0,0,0,.255.02,2.459,2.459,0,0,0-.045-2.024.965.965,0,0,0-.786-.368h-.008c-.651.013-1.181.443-1.586,1.276a3.846,3.846,0,0,1,1.234-2.67,2.464,2.464,0,0,1,2.152-.23.133.133,0,0,0,.145-.058.136.136,0,0,0-.015-.158c-1.166-1.289-2.317-1.586-3.426-.881a2.66,2.66,0,0,0-.963,1.419,4.509,4.509,0,0,0-1.144-1.854,1.924,1.924,0,0,0-1.431-.591,1.873,1.873,0,0,0-1.266.831.129.129,0,0,0-.023.12.139.139,0,0,0,.09.085,3.837,3.837,0,0,1,2.457,2.317,2.11,2.11,0,0,0-.455-.165,2.21,2.21,0,0,0-1.7.153,1.751,1.751,0,0,0-.723,1.176.128.128,0,0,0,.033.118.132.132,0,0,0,.113.04c1.739-.258,2.815.3,3.27,1.707a2.309,2.309,0,0,0-2-.9c-.6.06-1.031.548-1.281,1.449a.131.131,0,0,0,.18.155A2.9,2.9,0,0,1,154.205,20c.913.175,1.469,1.146,1.652,2.89V32.9a.47.47,0,0,1-.3-.105,1.363,1.363,0,0,1-.318-.961V30.686c.005-.978-.493-1.224-.911-1.259h-1.792a3.579,3.579,0,0,0,1.309-1.063,5.323,5.323,0,0,0,0-6.331,3.188,3.188,0,0,0-2.422-1.324V14.138l2.983-2.162a.127.127,0,0,0,.048-.145.128.128,0,0,0-.123-.09h-1.366a.141.141,0,0,0-.078.023l-2.65,1.919a.132.132,0,0,0-.053.105V25.829a.633.633,0,0,1-.115.5.607.607,0,0,1-.468.138h-2.29v-3.27l0-.023c-.063-.358-.278-.4-.4-.4s-.33.063-.38.4v3.288h-.858V24.773a.315.315,0,0,0-.273-.325l-.023,0a.312.312,0,0,0-.32.323v1.694h-1.419V25.151c-.04-.33-.238-.718-.968-.706s-.921.4-.953.716v1.3H140.31v-5.8a2.833,2.833,0,0,1,1.516-2.562c.1-.058.2-.11.305-.158a7.764,7.764,0,0,1,1.214-.353,2.41,2.41,0,0,0-.273.238,2.428,2.428,0,0,0,2.943,3.808.131.131,0,0,0,.045-.18.135.135,0,0,0-.18-.045,2.166,2.166,0,0,1-2.625-3.4,2.111,2.111,0,0,1,.863-.53,6.826,6.826,0,0,1,1.429.03c.143.015.285.038.43.065,1.261.233,1.867,1.234,1.844,3.063v1.984a3.388,3.388,0,0,1-1.136-1.554.133.133,0,0,0-.17-.075.13.13,0,0,0-.073.17,3.562,3.562,0,0,0,1.379,1.774l-.013,1.722a.7.7,0,0,0,.228.53.768.768,0,0,0,.578.213.783.783,0,0,0,.6-.285.953.953,0,0,0,.238-.571.131.131,0,0,0-.26-.02.679.679,0,0,1-.175.418.533.533,0,0,1-.4.2.511.511,0,0,1-.393-.14.439.439,0,0,1-.145-.34l.01-1.574a3.876,3.876,0,0,0,1.581.39.131.131,0,0,0,.135-.125.133.133,0,0,0-.125-.138,3.5,3.5,0,0,1-1.591-.425V20.637c.023-1.947-.668-3.063-2.057-3.321-.15-.028-.3-.05-.445-.068a7.132,7.132,0,0,0-1.5-.03,7.477,7.477,0,0,0-2.049.48,3.223,3.223,0,0,0-.335.17,3.123,3.123,0,0,0-1.652,2.785v5.938a.131.131,0,0,0,.133.13h1.669a.129.129,0,0,0,.128-.13V25.181c.023-.2.12-.463.7-.473s.676.258.7.465v1.419a.129.129,0,0,0,.13.13h3.153a.129.129,0,0,0,.13-.13V23.2c.028-.163.093-.165.13-.165s.1-.005.128.168v3.388a.129.129,0,0,0,.13.13h2.42a.829.829,0,0,0,.658-.218.871.871,0,0,0,.188-.691V13.856L153.007,12h.238l-2.532,1.839a.124.124,0,0,0-.055.105V26.592a.131.131,0,0,0,.263,0V14.011L153.69,12h.238l-2.712,1.964a.139.139,0,0,0-.055.108V29.557a.133.133,0,0,0,.133.133h3.02c.288.023.668.155.666,1v1.156a1.568,1.568,0,0,0,.41,1.154.776.776,0,0,0,.613.16.134.134,0,0,0,.115-.13V21.1c0-.078-.005-.153-.005-.225v-.038l0-.158c-.008-.9.018-1.707.075-2.417a10.4,10.4,0,0,1,.7,2.85l.005.035V33.026a.129.129,0,0,0,.13.13h6.759a.131.131,0,0,0,.13-.13V29.813l.008-.045a1.418,1.418,0,0,1,.135-.378,1.506,1.506,0,0,1,.2-.293,1.126,1.126,0,0,1,1.747,0,1.409,1.409,0,0,1,.333.661l0,.008.007.03v3.23a.129.129,0,0,0,.13.13h3.6a.129.129,0,0,0,.13-.13V27.233h2.187l-.653,3.145a.13.13,0,0,0,.035.12.134.134,0,0,0,.12.035,7.823,7.823,0,0,1,3.663,0,.13.13,0,0,0,.123-.028.133.133,0,0,0,.04-.12l-.7-4.016a10.4,10.4,0,0,0,3.5,0l-.776,4.862a.13.13,0,0,0,.09.145.127.127,0,0,0,.155-.068l1.5-3.053c.163.32.335.623.515.906.053.083.105.163.158.243a7.738,7.738,0,0,0,2.132,2.154,6.251,6.251,0,0,0,.626.363v3.486c-.008.663-.33.781-.568.813-.025,0-.053.005-.08.005a.554.554,0,0,1-.43-.125.957.957,0,0,1-.218-.691V32.03a.131.131,0,0,0-.13-.133h-10.4a.131.131,0,0,0-.13.133V42.241a.477.477,0,0,1-.115.363.686.686,0,0,1-.508.143h-4.3a4.36,4.36,0,0,1,.405-.36h2.585a.129.129,0,0,0,.13-.13V39.391a.517.517,0,0,0,.465-.5c.012-.185.09-.268.273-.278a.545.545,0,0,0,.453-.23.424.424,0,0,0-.012-.4.132.132,0,0,0-.12-.078h-3.283l.475-.528a.13.13,0,0,0,.02-.14.128.128,0,0,0-.118-.078h-2.367a.128.128,0,0,0-.118.078.13.13,0,0,0,.02.14l.475.528h-1.094a.131.131,0,0,0,0,.263h1.389a.128.128,0,0,0,.118-.078.13.13,0,0,0-.02-.14l-.475-.528h1.779l-.475.528a.126.126,0,0,0-.023.14.128.128,0,0,0,.118.078h3.488a.11.11,0,0,1-.005.085c-.013.023-.06.075-.248.1a.507.507,0,0,0-.51.52c-.01.128-.058.26-.34.27a.13.13,0,0,0-.125.13v2.855h-2.172a2.87,2.87,0,0,0,.686-2,.131.131,0,0,0-.13-.13h-3.924v-.728a.13.13,0,0,0-.125-.13c-.283-.01-.33-.143-.34-.27a.506.506,0,0,0-.5-.52c-.2-.023-.243-.075-.255-.1a.122.122,0,0,1,0-.085H163.7a.132.132,0,0,0,.13-.13V36.206a.423.423,0,0,0-.02-.085,1.92,1.92,0,0,0-.443-.876,1.772,1.772,0,0,0-.23-.225,1.562,1.562,0,0,0-1.959,0,1.785,1.785,0,0,0-.233.225,1.94,1.94,0,0,0-.445.9l-.012.083v4.952c.015.535-.25.613-.478.623h-.335l0-1.687a.63.63,0,0,0-.158-.5.825.825,0,0,0-.643-.188,1.008,1.008,0,0,0-1.018.688,2.185,2.185,0,0,0-.065,1.241.861.861,0,0,0,.9.706h.721v1.869c-.02.453-.215.651-.633.633h-1l-.9-1.469.34-.55a.132.132,0,0,0-.043-.18.13.13,0,0,0-.18.043l-.14.225v-.478l.363-.593a.133.133,0,0,0-.043-.18.131.131,0,0,0-.18.045l-.14.225v-.37a.13.13,0,1,0-.26,0v.37l-.14-.225a.128.128,0,0,0-.178-.045.131.131,0,0,0-.045.18l.363.593v.478l-.14-.225a.128.128,0,0,0-.178-.043.131.131,0,0,0-.045.18l.34.55-.838,1.371-.841-1.371.338-.55a.131.131,0,1,0-.223-.138l-.138.225v-.478l.36-.593a.13.13,0,1,0-.223-.135l-.138.225v-.37a.131.131,0,0,0-.263,0v.37l-.138-.225a.131.131,0,0,0-.18-.045.133.133,0,0,0-.043.18l.36.593v.478l-.138-.225a.13.13,0,0,0-.18-.043.132.132,0,0,0-.043.18l.338.55-.823,1.351-.838-1.351.338-.55a.132.132,0,0,0-.043-.18.13.13,0,0,0-.18.043l-.14.225v-.478l.363-.593a.133.133,0,0,0-.043-.18.131.131,0,0,0-.18.045l-.14.225v-.37a.13.13,0,1,0-.26,0v.37l-.138-.225a.13.13,0,1,0-.223.135l.36.593v.478l-.138-.225a.131.131,0,0,0-.223.138l.338.55-.936,1.531a.132.132,0,0,0,0,.133.134.134,0,0,0,.113.068h7.029M156.77,46.54a.261.261,0,0,1,.19.078.266.266,0,0,1,.078.193.265.265,0,0,1-.268.268.264.264,0,0,1-.19-.075.26.26,0,0,1-.078-.193.251.251,0,0,1,.075-.19.259.259,0,0,1,.193-.08m0,.8a.531.531,0,0,0,.378-.9l0,0a.538.538,0,0,0-.753,0,.535.535,0,0,0,0,.751.518.518,0,0,0,.375.153m10.993-.8a.253.253,0,0,1,.19.078.265.265,0,0,1,.08.193.261.261,0,0,1-.078.188.255.255,0,0,1-.193.08.264.264,0,0,1-.19-.075.27.27,0,0,1-.078-.193.265.265,0,0,1,.268-.27m0,.8a.525.525,0,0,0,.53-.528.53.53,0,0,0-.155-.378.518.518,0,0,0-.375-.153.525.525,0,0,0-.53.53.53.53,0,0,0,.53.528m-10.99-1.124a.6.6,0,0,1,.6.6.559.559,0,0,1-.175.418.6.6,0,0,1-1.016-.418.58.58,0,0,1,.175-.423.565.565,0,0,1,.42-.175m0,1.454a.859.859,0,0,0,.856-.856.854.854,0,0,0-.856-.858.859.859,0,0,0-.858.858.863.863,0,0,0,.858.856m10.995-1.454a.6.6,0,0,1,.593.6.559.559,0,0,1-.175.418.592.592,0,0,1-.841,0,.559.559,0,0,1-.175-.418.6.6,0,0,1,.6-.6m0,1.454a.859.859,0,0,0,.853-.856.856.856,0,0,0-1.461-.608.831.831,0,0,0-.25.608.816.816,0,0,0,.25.6.829.829,0,0,0,.608.253M143.413,13.545l-.01-.04a2.86,2.86,0,0,1,.636-.07c.085,0,.168,0,.25-.005v1.2a.441.441,0,0,1-.143.318,1.05,1.05,0,0,1-.733.15Zm-1.9,1.116a4.543,4.543,0,0,1,.34-.323,3.769,3.769,0,0,1,1.3-.763v2.242c0,.568-.223.891-.671.986a4.439,4.439,0,0,1-.726.11c-.105.005-.215.01-.335.01a.772.772,0,0,0,.088-.318l0-.01V14.661m-4.614,2.65c-.218,0-.45,0-.691-.01-.355-.018-.743-.05-1.149-.093-.148-.018-.305-.038-.468-.06a3.99,3.99,0,0,1-1.409-.408,1.007,1.007,0,0,1-.631-.746.925.925,0,0,1,.423-.843,4.245,4.245,0,0,1,2.2-.52,17.78,17.78,0,0,0,2.778-.343,3.359,3.359,0,0,0,2.187-1.892,3.4,3.4,0,0,1,1.674-1.657l.02-.008.013-.008.01,0a2.831,2.831,0,0,1,1.091-.17,1.409,1.409,0,0,1,.921.23c.03.025.04.045.038.05s-.023.108-.45.278a.133.133,0,0,0-.08.15.13.13,0,0,0,.135.1,3.22,3.22,0,0,1,2.179.355.619.619,0,0,1,.205.46.747.747,0,0,1-.213.568,2.335,2.335,0,0,1-1.641.425,3.564,3.564,0,0,0-2.362.968c-.133.115-.265.243-.393.378a8.578,8.578,0,0,0-1.031,1.339,6.691,6.691,0,0,1-.806.993c-.32.335-1.179.49-2.552.46m-1.724.173c.313.03.613.055.9.07v.355a.609.609,0,0,0,.008.138l-.581-.07c-.275-.033-.318-.17-.323-.3v-.2m.6,3.611a2.437,2.437,0,0,1-.518-.19c-.328-.168-.485-.353-.485-.571a.452.452,0,0,1,.105-.285.133.133,0,0,0,.023-.115.128.128,0,0,0-.08-.088l-.007-.008a.357.357,0,0,1,0-.673,1.176,1.176,0,0,1,.638-.168,1.2,1.2,0,0,1,.646.168.494.494,0,0,1,.22.24.127.127,0,0,0,.133.088c.033,0,.065,0,.1,0a2.8,2.8,0,0,1,1.286.27c.325.165.49.358.49.573s-.16.4-.49.571a2.68,2.68,0,0,1-1.073.27c-.07,0-.14,0-.213,0a3.377,3.377,0,0,1-.773-.083m.105.288a3.761,3.761,0,0,0,.668.055h.1a10.5,10.5,0,0,0,.215,1.276,1.278,1.278,0,0,1-.986-1.331m6.468,8.455a1.821,1.821,0,0,0,1.274-.41v.756a1.5,1.5,0,0,1-1.274-.345m3.286.9h2.149l.19.3h-2.445Zm-.2.561h7.737c.153.065.178.153.178.223s.005.12-.153.128h-7.249a.422.422,0,0,0-.453.428c0,.253.16.41.448.438h7.925c.125.01.175.058.185.18.005.083,0,.153-.185.168H145.32a.439.439,0,0,0-.408.4.4.4,0,0,0,.048.243h-.3Zm-.068,2.2c-.208-.088-.2-.178-.193-.213.008-.07.035-.138.18-.165h8.528c.29-.02.448-.183.43-.448a.42.42,0,0,0-.43-.42h-7.922c-.19-.02-.205-.1-.2-.175s.018-.158.2-.17H153.2c.378-.018.41-.283.408-.4a.517.517,0,0,0-.055-.215h.225l1.414,2.2h-9.829m-.028.26h15.419a3.366,3.366,0,0,1-.135.415,2.424,2.424,0,0,1-1.161,1.3,2.191,2.191,0,0,0-1.259,1.316H144.909l-.736-1.166-.008-.013a.568.568,0,0,1-.063-.468,1.948,1.948,0,0,1,.073-.265l.4-1.119Zm28.994,7.572a.894.894,0,0,1,.423.1l.01.005.008.005.007,0,.01.005c.15.1.15.18.15.208s0,.113-.155.208a.963.963,0,0,1-.908,0c-.153-.093-.153-.178-.153-.205s0-.113.153-.208a.86.86,0,0,1,.455-.113m.831-2.019a5.4,5.4,0,0,1,1.311.153l.018.005c.493.18.581.338.588.415s-.043.23-.44.473c-.07.038-.138.078-.2.118a1.138,1.138,0,0,0-.591.721.773.773,0,0,0,.2.613.542.542,0,0,1,.143.38.391.391,0,0,1-.183.255,1.253,1.253,0,0,1-.493.205V42.4a1.174,1.174,0,0,0-.606-1.179l-.018-.008-.02-.01a1.219,1.219,0,0,0-1.134.025.5.5,0,0,0-.28.43.493.493,0,0,0,.28.428,1.093,1.093,0,0,0,.591.155,1.121,1.121,0,0,0,.591-.153.578.578,0,0,0,.24-.253,1.426,1.426,0,0,1,.1.561v.3a3.875,3.875,0,0,1-.515.005,6.448,6.448,0,0,1-1.424-.2,2.923,2.923,0,0,1-.878-.385,1.362,1.362,0,0,1-.741-1.146,1.188,1.188,0,0,1,.648-.973,4.52,4.52,0,0,1,1.9-.613,6.78,6.78,0,0,1,.913-.063m.1,3.493Zm3.2.663c-.243,0-.49-.33-.711-.946a2.089,2.089,0,0,1-.22-.9h3.356l-.243,1.619a.286.286,0,0,1-.083.2.28.28,0,0,1-.2.033l-.018,0ZM152.446,46.8a4.693,4.693,0,0,1,2.617-1.033,3.146,3.146,0,0,0-1.479,1.033h-1.139m15.324-1.491h-.025v-.756h2.647l-.148,1.028a.533.533,0,0,0-.38.145c-.215.208-.285.618-.215,1.259l-.408.185a1.617,1.617,0,0,0,.038-.35,1.508,1.508,0,0,0-1.509-1.511m-14.5,2.44a4.777,4.777,0,0,1,.475-.736,2.9,2.9,0,0,1,1.559-1.046.112.112,0,0,0,.07-.048l.19-.248.153-.2h.355a1.525,1.525,0,0,0-.368.273,1.519,1.519,0,0,0-.123,2h-2.312m6.151,0c-.045-.41-.3-.846-1.139-.9v-.033a1.464,1.464,0,0,0-.44-1.071,1.563,1.563,0,0,0-.365-.273h1.339l.423.47a.131.131,0,0,0,.1.043h1.3a.133.133,0,0,0,.1-.048l.728-.9h.52a.129.129,0,0,0,.13-.13V44.1h.438l1.657.928a.136.136,0,0,0,.063.015h1.093l.368.388a.12.12,0,0,0,.038.028,2.482,2.482,0,0,0-.706.623h-3.556a.372.372,0,0,0-.308.133.45.45,0,0,0-.04.4l0,.013.42,1.124h-2.167m1.994-1.206c-.03-.118-.008-.158,0-.168a.155.155,0,0,1,.1-.03h3.618a.132.132,0,0,0,.108-.055,2.23,2.23,0,0,1,.8-.676,2.646,2.646,0,0,1,.293-.138h.733a1.532,1.532,0,0,0-.808,1.344,1.448,1.448,0,0,0,.32.928h-4.712Zm-5.43,1.246-.01-.01c-.03-.025-.058-.05-.085-.078a1.249,1.249,0,1,1,2.132-.881,1.454,1.454,0,0,1-.008.148,1.253,1.253,0,0,1-2.024.826Zm10.982-.01c-.028-.025-.058-.05-.085-.078a1.25,1.25,0,1,1,2.132-.881,1.252,1.252,0,0,1-.113.535,1.305,1.305,0,0,1-.25.345,1.2,1.2,0,0,1-.883.365,1.181,1.181,0,0,1-.8-.288h0m-9.711.473a1.525,1.525,0,0,0,1-1.139c.693.038.863.35.9.636h-.293a.13.13,0,0,0,0,.26h7.972a1.37,1.37,0,0,0,.448.243H157.258m-1.409,3.025a2.6,2.6,0,0,0,1.989-1.364h7.192a2.668,2.668,0,0,0,2.4.841c.728-.225,1.291-1.036,1.677-2.41l1.491-.693a.133.133,0,0,0,.073-.135c-.08-.631.023-.891.125-1a.4.4,0,0,1,.345-.1c.571.048.951-.1,1.129-.43a1.765,1.765,0,0,0,.113-1.119h8.886l.038-.005L190.576,42a.127.127,0,0,0,.09-.105l.843-5.678a.13.13,0,0,0-.043-.118.127.127,0,0,0-.118-.03l-2.287.586a.819.819,0,0,0-.631.656l0,.013-.678,4.572-.55.17.736-4.945a.137.137,0,0,0-.043-.118.132.132,0,0,0-.12-.03l-2.287.586a.81.81,0,0,0-.628.656l0,.013-.713,4.784-.573.175.768-5.18a.134.134,0,0,0-.043-.115.132.132,0,0,0-.12-.03l-2.285.586a.809.809,0,0,0-.631.656l0,.013-.333,2.255h-3.438l-.023,0a.218.218,0,0,0-.155.113c-.068.115-.1.34.2,1.134.268.748.581,1.114.953,1.121h1.877a.466.466,0,0,0,.566-.455l.245-1.621c.1.048.2.18.175.55l-.2,1.326c-.07.43-.31.488-.478.5h-4.819c-.22-.028-.313-.138-.305-.37V42.92a1.587,1.587,0,0,0,.648-.258.646.646,0,0,0,.285-.428.782.782,0,0,0-.2-.583.516.516,0,0,1-.145-.41c.028-.178.185-.36.47-.54.055-.038.118-.073.188-.113.408-.248.593-.485.571-.726s-.278-.458-.766-.636l-.013,0-.008,0-.012,0a6.109,6.109,0,0,0-2.327-.1,4.722,4.722,0,0,0-2.012.653,1.442,1.442,0,0,0-.763,1.191,1.621,1.621,0,0,0,.858,1.364,3.209,3.209,0,0,0,.953.42,6.889,6.889,0,0,0,1.476.208,4.141,4.141,0,0,0,.53,0v.7a.56.56,0,0,0,.546.636h4.844a.738.738,0,0,0,.731-.716l.2-1.331v-.013c.038-.556-.173-.766-.4-.838l.33-2.237a.552.552,0,0,1,.435-.46l2.1-.535-.768,5.19a.128.128,0,0,0,.043.118.13.13,0,0,0,.123.028l.851-.263a.129.129,0,0,0,.093-.105l.723-4.859a.546.546,0,0,1,.433-.458l2.1-.538-.736,4.955a.128.128,0,0,0,.043.118.13.13,0,0,0,.123.028l.831-.255a.13.13,0,0,0,.09-.105l.688-4.647a.549.549,0,0,1,.435-.458l2.1-.538-.8,5.4-9.168,2.838h-9.023a.133.133,0,0,0-.13.133l0,.028a1.662,1.662,0,0,1-.058,1.1c-.125.23-.42.33-.878.293a.642.642,0,0,0-.553.178,1.385,1.385,0,0,0-.208,1.116l-1.459.681a.128.128,0,0,0-.07.083c-.36,1.316-.871,2.087-1.519,2.29-.591.183-1.329-.1-2.2-.823a.128.128,0,0,0-.085-.033h-7.3a.127.127,0,0,0-.108.058c-.608.883-1.226,1.321-1.842,1.309-.7-.018-1.446-.618-2.21-1.792h14.16c.518-.025.661-.275.691-.483a.467.467,0,0,0-.08-.388.3.3,0,0,0-.163-.093,1.465,1.465,0,0,0,.616-.375,1.567,1.567,0,0,0,.28-.373l.726-.328a.133.133,0,0,0,.078-.135c-.093-.748.018-1.028.125-1.134a.315.315,0,0,1,.29-.065.134.134,0,0,0,.15-.11l.188-1.3a.132.132,0,0,0-.03-.105.139.139,0,0,0-.1-.045h-2.93a.131.131,0,0,0-.13.13v.791h-1.591l-.368-.388a.137.137,0,0,0-.1-.04h-1.116l-1.591-.891v-.385h.558a.131.131,0,0,0,0-.263h-1.386a.131.131,0,0,0,0,.263h.568v.333h-.47a.129.129,0,0,0-.13.13v.813h-.45a.133.133,0,0,0-.1.048l-.728.9H159.4l-.423-.47a.133.133,0,0,0-.1-.045h-3.22a.13.13,0,0,0-.1.053l-.155.2a4.88,4.88,0,0,0-3.356,1.379.126.126,0,0,0-.02.14.128.128,0,0,0,.118.078h1.246a5.244,5.244,0,0,0-.44.758.128.128,0,0,0,.118.188h2.783a1.37,1.37,0,0,0,.448.243h-3.871a2.7,2.7,0,0,1,.3-.621.137.137,0,0,0,0-.135.13.13,0,0,0-.115-.068h-.768a4.016,4.016,0,0,1-1.156-3.005v-2.25l0-.015a.919.919,0,0,0-.948-.858l-.658-.068c-.38-.04-.435-.218-.44-.368s.03-.305.343-.323h7.74a.5.5,0,0,0,.555-.54.526.526,0,0,0-.54-.6l-.01,0H145.778c-.275-.05-.31-.193-.308-.325.005-.185.093-.27.3-.285h11.983a.519.519,0,0,0,.513-.566.512.512,0,0,0-.515-.558H144.932c-.285-.058-.32-.2-.32-.323a.261.261,0,0,1,.253-.28h.007l.053-.01h13.387a.132.132,0,0,0,.13-.113c.06-.453.443-.868,1.139-1.234a2.743,2.743,0,0,0,.678-.493,2.794,2.794,0,0,0,.606-.941,3.658,3.658,0,0,0,.183-.613.132.132,0,0,0-.025-.11.133.133,0,0,0-.1-.048H155.5l-1.541-2.4a.141.141,0,0,0-.11-.06h-5.575l-.32-.5a.128.128,0,0,0-.11-.06h-2.312a.132.132,0,0,0-.125.088l-.193.556,0,.008-.828,2.372h-.165c-.133-.01-.29-.063-.345-.358V29.085a.129.129,0,0,0-.09-.125.127.127,0,0,0-.145.05,1.527,1.527,0,0,1-1.494.558V28.416a.912.912,0,0,0-.305-.771.894.894,0,0,0-.561-.165h-.9a.531.531,0,0,1-.488-.235.934.934,0,0,1-.173-.623V18.145c.068-.571.455-.876,1.181-.933l.1-.008h0l.378-.02c.138,0,.27,0,.4-.01a4.615,4.615,0,0,0,.768-.115,1.111,1.111,0,0,0,.873-1.239v-.458a1.265,1.265,0,0,0,.9-.215.685.685,0,0,0,.233-.5V13.413a2.052,2.052,0,0,0,1.316-.48,1.014,1.014,0,0,0,.288-.758.882.882,0,0,0-.29-.648,2.737,2.737,0,0,0-1.824-.443.372.372,0,0,0,.123-.208.3.3,0,0,0-.123-.29,1.621,1.621,0,0,0-1.094-.293,3.542,3.542,0,0,0-.936.1.133.133,0,0,0,.035-.093v-3.4h.363V9.839a.132.132,0,0,0,.108.13,19.261,19.261,0,0,0,2.1.265,21.275,21.275,0,0,0,2.935,0c.7-.048,1.429-.128,2.157-.243a.132.132,0,0,0,.11-.13V7.73h.363v4.517a.131.131,0,0,0,.258.03c.113-.478.518-.706,1.236-.7a1.246,1.246,0,0,0,.238.3.131.131,0,0,0,.185-.005.133.133,0,0,0-.008-.185.941.941,0,0,1-.215-.288h0a.762.762,0,0,1-.07-.315.922.922,0,0,1,.515-.771,1.662,1.662,0,0,1,.145-.083,2.747,2.747,0,0,1,2.345,0,1.364,1.364,0,0,1,.145.083.917.917,0,0,1,.515.771l0,.088a.124.124,0,0,0,.045.11.121.121,0,0,0,.115.025,2.221,2.221,0,0,1,.513-.058,1.8,1.8,0,0,1,1,.263.691.691,0,0,1,.385.576.532.532,0,0,1-.085.293v0a.929.929,0,0,1-.3.283,2.428,2.428,0,0,1-.238.128,2.166,2.166,0,0,1-.32.1.127.127,0,0,0-.1.153.13.13,0,0,0,.153.1,2.345,2.345,0,0,0,.37-.113,2.234,2.234,0,0,0,.275-.148,1.215,1.215,0,0,0,.35-.32,1.459,1.459,0,0,1,.285-.025,1.167,1.167,0,0,1,.618.153c.225.133.225.26.225.3a.252.252,0,0,1-.028.115.13.13,0,1,0,.233.118.5.5,0,0,0,.055-.233.615.615,0,0,0-.35-.528,1.445,1.445,0,0,0-.753-.19c-.053,0-.105,0-.155.008a.871.871,0,0,0,.023-.2.942.942,0,0,0-.5-.8,2.057,2.057,0,0,0-1.139-.305,2.7,2.7,0,0,0-.41.033,1.192,1.192,0,0,0-.636-.926c-.053-.033-.108-.065-.163-.1a3.028,3.028,0,0,0-2.587,0c-.058.03-.113.063-.165.1a1.17,1.17,0,0,0-.636.991,1.066,1.066,0,0,0,.028.238,1.534,1.534,0,0,0-1.129.4V7.6a.129.129,0,0,0-.13-.13h-.623a.129.129,0,0,0-.13.13V9.752c-.683.1-1.364.18-2.024.223a20.734,20.734,0,0,1-2.9,0,18.859,18.859,0,0,1-1.972-.243V6.777a.129.129,0,0,0-.13-.13h-.623a.129.129,0,0,0-.13.13V10.3a.129.129,0,0,0,.1.128c-.045.015-.09.033-.13.05l-.053.023a3.647,3.647,0,0,0-1.8,1.774,3.114,3.114,0,0,1-2.014,1.757,17.564,17.564,0,0,1-2.737.338,4.382,4.382,0,0,0-2.352.578,1.189,1.189,0,0,0-.515,1.081,1.265,1.265,0,0,0,.771.941,4.171,4.171,0,0,0,1.5.435c.12.018.238.033.353.048v.233a.548.548,0,0,0,.55.548l.748.093a.942.942,0,0,0,.731.208h1c.335,0,.781.093.8.971v5.875a4.176,4.176,0,0,1-1.569-2.53l0-.005a10.188,10.188,0,0,1-.258-1.421,2.887,2.887,0,0,0,1.043-.288c.418-.213.631-.483.631-.8s-.213-.591-.631-.806a3.079,3.079,0,0,0-1.406-.3h-.028a.79.79,0,0,0-.288-.288,1.588,1.588,0,0,0-1.561,0,.66.66,0,0,0-.36.558.617.617,0,0,0,.283.505.688.688,0,0,0-.085.328c0,.32.213.591.628.8a2.667,2.667,0,0,0,.478.185A1.547,1.547,0,0,0,136.932,23a4.2,4.2,0,0,0,1.872,2.732.131.131,0,0,0,.193-.115V19.5c-.02-1.026-.588-1.234-1.063-1.229h-1c-.283.008-.475-.043-.555-.15h0a.306.306,0,0,1-.05-.208v-.35c.2.005.385.008.563.005,1.469.033,2.365-.145,2.742-.538A6.923,6.923,0,0,0,140.473,16a8.939,8.939,0,0,1,.773-1.051v1.644a.335.335,0,0,1-.275.353l-.093.008c-.861.07-1.339.463-1.421,1.171l0,.015v8.478a1.214,1.214,0,0,0,.223.783.787.787,0,0,0,.7.343h.9a.635.635,0,0,1,.4.113.669.669,0,0,1,.2.563v1.269a.138.138,0,0,0,.023.075l.008.01a1.786,1.786,0,0,0,1.7.678v2.707l0,.023a.614.614,0,0,0,.591.586h.085l-.365,1.033a2.5,2.5,0,0,0-.083.3.828.828,0,0,0,.11.676l.686,1.088a.5.5,0,0,0-.29.48.568.568,0,0,0,.543.583l.025,0h12.817c.188.018.268.105.27.3a.259.259,0,0,1-.273.3H145.765l-.01,0a.517.517,0,0,0-.545.54.561.561,0,0,0,.533.591l.023,0h10.95c.218.018.305.113.3.325-.01.248-.123.3-.29.29h-7.752c-.54.028-.606.385-.6.593.008.25.13.558.673.618l.663.068a.661.661,0,0,1,.711.621v2.242a4.266,4.266,0,0,0,1.276,3.23.136.136,0,0,0,.09.035h.593a3.509,3.509,0,0,0-.265.656.132.132,0,0,0,.02.118.127.127,0,0,0,.1.053h15.889c.022,0,.048,0,.06.015s.03.075.018.178c-.01.065-.035.238-.438.258H153.375a.13.13,0,0,0-.115.068.139.139,0,0,0,0,.133c.871,1.4,1.707,2.092,2.552,2.112h.035M8.248,33.216a4.838,4.838,0,0,0,.19-1.394v-2.4a.789.789,0,0,0-.788-.786H7.5a.788.788,0,0,0-.788.786v2.367a3.037,3.037,0,0,1-.083.776,1.182,1.182,0,0,1-.25.488.887.887,0,0,1-.433.253,2.328,2.328,0,0,1-.608.073H2.983a2.127,2.127,0,0,1-.591-.073.875.875,0,0,1-.418-.253,1.1,1.1,0,0,1-.248-.488,3.05,3.05,0,0,1-.08-.776V29.42a.786.786,0,1,0-1.571,0v2.4a3.459,3.459,0,0,0,.781,2.422,2.939,2.939,0,0,0,2.28.853H5.4a3.688,3.688,0,0,0,1.324-.218,2.44,2.44,0,0,0,.948-.636,2.71,2.71,0,0,0,.576-1.028m10.72-7.93a.845.845,0,0,0-.846.846v6.053a1.353,1.353,0,0,1-.068.435,1.086,1.086,0,0,1-.205.378,1.043,1.043,0,0,1-.39.27,1.482,1.482,0,0,1-.591.108,1.03,1.03,0,0,1-.808-.293,1.4,1.4,0,0,1-.255-.926v-2.68a.843.843,0,1,0-1.687,0v2.68a1.419,1.419,0,0,1-.248.931,1.021,1.021,0,0,1-.808.288,2.165,2.165,0,0,1-.591-.068.975.975,0,0,1-.378-.19.661.661,0,0,1-.2-.3.976.976,0,0,1-.063-.37V26.132a.845.845,0,1,0-1.689,0V32.47a2.611,2.611,0,0,0,.255,1.2,2.28,2.28,0,0,0,.663.818,2.8,2.8,0,0,0,.936.46,3.974,3.974,0,0,0,1.068.148,2.985,2.985,0,0,0,1.169-.235,2.6,2.6,0,0,0,.53-.31,2.5,2.5,0,0,0,.458-.448,1.846,1.846,0,0,0,.688.751,1.91,1.91,0,0,0,.956.243h.005a3.543,3.543,0,0,0,1.068-.168,2.716,2.716,0,0,0,.938-.525,2.6,2.6,0,0,0,.676-.9,2.96,2.96,0,0,0,.258-1.289V26.132a.844.844,0,0,0-.841-.846m26.942,0a.844.844,0,0,0-.843.846v6.053A1.506,1.506,0,0,1,45,32.62a1.052,1.052,0,0,1-.208.378,1.086,1.086,0,0,1-.385.27,1.5,1.5,0,0,1-.591.108,1.017,1.017,0,0,1-.806-.293,1.423,1.423,0,0,1-.253-.923V26.132a.843.843,0,1,0-1.687,0V32.16a1.415,1.415,0,0,1-.25.928,1.047,1.047,0,0,1-.813.288H38.915c-.143,0-.29-.01-.443-.025a1.525,1.525,0,0,1-.338-.073,5.659,5.659,0,0,0,.445-.51,3.826,3.826,0,0,0,.393-.618,4.222,4.222,0,0,0,.283-.731,3.236,3.236,0,0,0,.113-.858,2.72,2.72,0,0,0-.235-1.141,2.833,2.833,0,0,0-.631-.878,2.734,2.734,0,0,0-.928-.563,3.353,3.353,0,0,0-2.255,0,2.792,2.792,0,0,0-.936.563,2.723,2.723,0,0,0-.633.878,2.682,2.682,0,0,0-.235,1.141,3.347,3.347,0,0,0,.105.858,3.7,3.7,0,0,0,.285.731,4.213,4.213,0,0,0,.4.618,6.1,6.1,0,0,0,.448.51,1.448,1.448,0,0,1-.39.075q-.255.023-.5.023H31.509a3.4,3.4,0,0,1-.683-.063,1.93,1.93,0,0,1-.533-.178,5.11,5.11,0,0,0,.731-.5,3.814,3.814,0,0,0,.586-.606,3.218,3.218,0,0,0,.4-.686,1.926,1.926,0,0,0,.143-.728A2.394,2.394,0,0,0,32,29.73a2.021,2.021,0,0,0-.4-.643,2.225,2.225,0,0,0-.573-.435,3.358,3.358,0,0,0-.7-.26,4.407,4.407,0,0,0-.748-.125c-.255-.02-.5-.033-.728-.033a5.643,5.643,0,0,0-1.859.32l-.018.008A2.665,2.665,0,0,0,25.223,31.1v.06l.578-.285s.32.305.473.475.283.338.408.51.253.345.37.52.235.34.348.5a4.417,4.417,0,0,1-.571.208c-.208.063-.42.118-.638.163a6.565,6.565,0,0,1-.656.1c-.218.02-.425.033-.621.033h-.448a2.171,2.171,0,0,1-.588-.068,1.012,1.012,0,0,1-.378-.19.682.682,0,0,1-.2-.3.976.976,0,0,1-.065-.37V26.132a.843.843,0,1,0-1.687,0V32.47a2.677,2.677,0,0,0,.253,1.2,2.34,2.34,0,0,0,.666.818,2.784,2.784,0,0,0,.938.46,3.952,3.952,0,0,0,1.063.148h.448a7.266,7.266,0,0,0,.911-.058c.323-.04.643-.1.966-.168a7.508,7.508,0,0,0,.958-.29,7.269,7.269,0,0,0,.908-.408,2.924,2.924,0,0,0,.661.453,4.356,4.356,0,0,0,1.459.43,5.855,5.855,0,0,0,.671.04h2.868a3.829,3.829,0,0,0,1.171-.173,5.2,5.2,0,0,0,.956-.405,4.991,4.991,0,0,0,.956.405,3.89,3.89,0,0,0,1.179.173h1.429a2.945,2.945,0,0,0,.588-.058,2.989,2.989,0,0,0,.581-.178,2.522,2.522,0,0,0,.538-.31,2.684,2.684,0,0,0,.46-.448,1.808,1.808,0,0,0,.681.748,1.843,1.843,0,0,0,.961.245,3.535,3.535,0,0,0,1.063-.168,2.737,2.737,0,0,0,.943-.525,2.625,2.625,0,0,0,.673-.9,3,3,0,0,0,.258-1.289V26.132a.847.847,0,0,0-.843-.846M29.945,31.4a3.739,3.739,0,0,1-.465.4,4.021,4.021,0,0,1-.556.34c-.135-.17-.265-.34-.4-.508s-.253-.335-.378-.5-.255-.32-.383-.47a4.4,4.4,0,0,0-.385-.413,3.7,3.7,0,0,1,.378-.153c.138-.045.278-.085.415-.12s.275-.055.413-.073a3.028,3.028,0,0,1,.383-.028,3.892,3.892,0,0,1,.638.045,1.365,1.365,0,0,1,.44.135.613.613,0,0,1,.25.233.6.6,0,0,1,.083.323.783.783,0,0,1-.12.388,2.564,2.564,0,0,1-.318.4m7.629-.268a2.643,2.643,0,0,1-.235.561,3.4,3.4,0,0,1-.378.533,2.757,2.757,0,0,1-.518.47,2.994,2.994,0,0,1-.515-.47,2.848,2.848,0,0,1-.378-.533,2.5,2.5,0,0,1-.23-.561,2.1,2.1,0,0,1-.08-.566,1.4,1.4,0,0,1,.088-.5,1.143,1.143,0,0,1,.248-.4,1.262,1.262,0,0,1,.383-.265,1.3,1.3,0,0,1,.976,0,1.143,1.143,0,0,1,.375.265,1.113,1.113,0,0,1,.25.4,1.35,1.35,0,0,1,.093.5,2.2,2.2,0,0,1-.078.566m32.81-1.9a2.156,2.156,0,0,0-.876-.533,4.007,4.007,0,0,0-1.234-.178,3.458,3.458,0,0,0-1.131.185,4.724,4.724,0,0,0-1.008.483,6.157,6.157,0,0,0-.913.7,10.033,10.033,0,0,0-.821.843l.25-.808v-3.8a.843.843,0,0,0-.843-.846h0a.843.843,0,0,0-.843.846V32.6l-.53.773H60.86V28.634H58.691a3.244,3.244,0,0,0-1.244.223,2.4,2.4,0,0,0-.888.616,2.717,2.717,0,0,0-.535.951,3.975,3.975,0,0,0-.18,1.231v1.722h-2.53a2.38,2.38,0,0,1-.661-.078.979.979,0,0,1-.45-.248,1.114,1.114,0,0,1-.263-.448,2.474,2.474,0,0,1-.08-.676V30.663a.786.786,0,1,0-1.571,0v1.264a4.256,4.256,0,0,0,.175,1.266,2.638,2.638,0,0,0,.556,1,2.606,2.606,0,0,0,.948.661,3.538,3.538,0,0,0,1.371.24h3.416a.783.783,0,0,0,.783-.786v-2.72a2.521,2.521,0,0,1,.075-.663,1.068,1.068,0,0,1,.21-.438.821.821,0,0,1,.355-.245,1.459,1.459,0,0,1,.488-.075h.508v3.871A1.056,1.056,0,0,0,60.227,35.1h9.419a1.054,1.054,0,0,0,1.026-.808v-.01c.07-.3.138-.616.2-.943s.113-.658.158-.991A6.58,6.58,0,0,0,71.1,31.4a3.946,3.946,0,0,0-.183-1.264,2.26,2.26,0,0,0-.53-.9m-1.061,2.7c-.018.18-.04.358-.068.528s-.06.333-.1.488-.07.293-.093.418H63.931q.218-.319.5-.683c.19-.243.4-.483.618-.716a8.76,8.76,0,0,1,.7-.666,6.2,6.2,0,0,1,.761-.556,4.2,4.2,0,0,1,.8-.385,2.381,2.381,0,0,1,.816-.148,1.553,1.553,0,0,1,.5.075,1.058,1.058,0,0,1,.39.228,1.02,1.02,0,0,1,.245.373,1.329,1.329,0,0,1,.09.505c0,.178-.008.358-.025.538m11.468-6.656a.842.842,0,0,0-.841.846v6.053a1.507,1.507,0,0,1-.068.435,1,1,0,0,1-.6.648,1.465,1.465,0,0,1-.586.108h-.813c.023-.2.033-.405.048-.608s.018-.415.018-.636a5.367,5.367,0,0,0-.153-1.271,3.448,3.448,0,0,0-.483-1.126,2.485,2.485,0,0,0-2.169-1.109,2.8,2.8,0,0,0-1.269.263,2.388,2.388,0,0,0-.876.706,2.845,2.845,0,0,0-.5,1.023,4.683,4.683,0,0,0-.158,1.229,4.872,4.872,0,0,0,.158,1.259,2.876,2.876,0,0,0,.52,1.033,2.437,2.437,0,0,0,.953.7,3.565,3.565,0,0,0,1.439.258h.35a3.537,3.537,0,0,1-.4.736,3.191,3.191,0,0,1-.568.611,3.376,3.376,0,0,1-.756.465l-.01,0A.8.8,0,0,0,73.67,38.1l.015.02a.792.792,0,0,0,.926.3,5.273,5.273,0,0,0,.718-.335,4.77,4.77,0,0,0,1.008-.773,4.478,4.478,0,0,0,.736-1,6.169,6.169,0,0,0,.5-1.211H78.7a3.507,3.507,0,0,0,1.061-.168A2.726,2.726,0,0,0,80.7,34.4a2.663,2.663,0,0,0,.676-.9,2.96,2.96,0,0,0,.26-1.289V26.132a.848.848,0,0,0-.846-.846m-4.582,7.489c-.013.205-.028.4-.045.6h-.746a2.339,2.339,0,0,1-.671-.085.982.982,0,0,1-.445-.268,1.03,1.03,0,0,1-.245-.47,2.819,2.819,0,0,1-.075-.706,3.183,3.183,0,0,1,.078-.753,1.555,1.555,0,0,1,.228-.523.9.9,0,0,1,.363-.3,1.216,1.216,0,0,1,.5-.1.848.848,0,0,1,.418.11.958.958,0,0,1,.338.353,1.911,1.911,0,0,1,.238.606,3.964,3.964,0,0,1,.09.893c0,.225-.005.44-.02.643m8.007-7.487a.843.843,0,0,0-.843.841v8.125a.843.843,0,1,0,1.687,0V26.129a.843.843,0,0,0-.843-.841m14.4,6.936a3.156,3.156,0,0,0-.355-.776,4.646,4.646,0,0,0-.533-.683,5.806,5.806,0,0,0-.658-.6,7.063,7.063,0,0,0-.746-.518c-.258-.16-.52-.313-.781-.453l2.99-1.894a.809.809,0,1,0-.883-1.356L94.126,28.3a1.086,1.086,0,0,0,.118,1.872l.015.008c.235.123.48.263.733.423s.5.335.741.523a6.623,6.623,0,0,1,.661.591,2.862,2.862,0,0,1,.475.643,1.435,1.435,0,0,1,.178.666.919.919,0,0,1-.018.188,1.226,1.226,0,0,1-.045.16H92.917a1.277,1.277,0,0,1-.538-.1.894.894,0,0,1-.333-.258,1.011,1.011,0,0,1-.178-.373,2.332,2.332,0,0,1-.063-.445c-.015-.223-.043-.445-.078-.666s-.075-.43-.115-.638-.09-.405-.14-.6-.153-.518-.155-.523c-.018-.015-.033-.023-.048-.038a.84.84,0,0,0-1.619.445l.018.1a1.192,1.192,0,0,0,.123.265l.085.28s.1.4.138.613.075.428.1.648a6.529,6.529,0,0,1,.035.661,5.676,5.676,0,0,1-.22,1.646,4.3,4.3,0,0,1-.633,1.294,4.045,4.045,0,0,1-1,.958,4.637,4.637,0,0,1-.483.288.728.728,0,0,0-.235,1.1l.078.1a.733.733,0,0,0,.911.2,6.867,6.867,0,0,0,.7-.4,5.681,5.681,0,0,0,1.048-.866,5.309,5.309,0,0,0,.8-1.109,5.56,5.56,0,0,0,.515-1.386,1.183,1.183,0,0,0,.233.228,1.278,1.278,0,0,0,.3.163,1.648,1.648,0,0,0,.348.093,2.161,2.161,0,0,0,.4.033h4.922a3.434,3.434,0,0,0,.681-.883,2.394,2.394,0,0,0,.235-1.1,3.108,3.108,0,0,0-.125-.893m15.154-6.939a.846.846,0,0,0-.843.846v6.053a1.426,1.426,0,0,1-.068.435,1.016,1.016,0,0,1-.208.378,1.033,1.033,0,0,1-.388.27,1.478,1.478,0,0,1-.588.108,2.106,2.106,0,0,1-.493-.05.654.654,0,0,1-.325-.178.731.731,0,0,1-.178-.345,2.365,2.365,0,0,1-.053-.545V31.9a4.74,4.74,0,0,0-.155-1.2,3.165,3.165,0,0,0-.488-1.056,2.542,2.542,0,0,0-.861-.756,2.636,2.636,0,0,0-1.266-.288,2.718,2.718,0,0,0-1.3.288,2.577,2.577,0,0,0-.871.756A3.117,3.117,0,0,0,105.2,30.7a4.851,4.851,0,0,0-.15,1.2v.355A2.365,2.365,0,0,1,105,32.8a.8.8,0,0,1-.173.345.644.644,0,0,1-.315.178,2.023,2.023,0,0,1-.48.05,1.285,1.285,0,0,1-.538-.1.936.936,0,0,1-.333-.258,1.009,1.009,0,0,1-.178-.373,2.147,2.147,0,0,1-.06-.443c-.02-.228-.045-.448-.083-.666s-.073-.433-.115-.641-.088-.405-.14-.6c-.033-.108-.06-.21-.09-.31l-.07-.25a.832.832,0,0,0-1.021-.578.845.845,0,0,0-.6,1.023l.02.1a5.688,5.688,0,0,1,.165.545c.05.2.1.4.138.613s.073.428.1.648a6.529,6.529,0,0,1,.035.661,5.7,5.7,0,0,1-.223,1.649,4.252,4.252,0,0,1-.631,1.291,3.991,3.991,0,0,1-1,.958c-.135.09-.273.173-.415.25a.8.8,0,0,0,.731,1.414,6.721,6.721,0,0,0,.656-.373,5.6,5.6,0,0,0,1.046-.866,5.294,5.294,0,0,0,.8-1.109,5.559,5.559,0,0,0,.515-1.386,1.2,1.2,0,0,0,.235.228,1.214,1.214,0,0,0,.3.163,1.814,1.814,0,0,0,.348.1,2.524,2.524,0,0,0,.405.03h0a2.286,2.286,0,0,0,1.1-.228,1.587,1.587,0,0,0,.661-.678,2.043,2.043,0,0,0,.343.43,2.1,2.1,0,0,0,.453.333,2,2,0,0,0,.568.213,3.2,3.2,0,0,0,.706.073,3.126,3.126,0,0,0,.7-.073,2.478,2.478,0,0,0,.576-.2,1.863,1.863,0,0,0,.448-.328,2.447,2.447,0,0,0,.333-.435,1.54,1.54,0,0,0,.651.668,2.365,2.365,0,0,0,1.1.228h.013a3.539,3.539,0,0,0,1.066-.168,2.749,2.749,0,0,0,.941-.525,2.625,2.625,0,0,0,.673-.9,2.96,2.96,0,0,0,.258-1.289V26.132a.846.846,0,0,0-.843-.846M108.914,32.6a1.524,1.524,0,0,1-.23.538.93.93,0,0,1-.36.305,1.076,1.076,0,0,1-.465.1,1.115,1.115,0,0,1-.47-.1.976.976,0,0,1-.37-.305,1.625,1.625,0,0,1-.243-.538,3.136,3.136,0,0,1-.088-.791,2.888,2.888,0,0,1,.093-.793,1.625,1.625,0,0,1,.253-.533.934.934,0,0,1,.368-.3,1.2,1.2,0,0,1,.458-.09.993.993,0,0,1,.435.1,1.006,1.006,0,0,1,.363.3,1.454,1.454,0,0,1,.25.53,3,3,0,0,1,.088.781,3.289,3.289,0,0,1-.08.791m8.283-7.314a.841.841,0,0,0-.841.841v8.125a.843.843,0,1,0,1.687,0V26.129a.844.844,0,0,0-.846-.841M3.869,45.487h-.02L1.121,40.878H0v6.266H.833V42.121H.851l2.965,5.022h.893V40.878H3.869Zm5.265-3.1a3.58,3.58,0,0,0-1.684.4v.683h.288a2.153,2.153,0,0,1,1.281-.385c.618,0,.938.24.938.8V44.5a3.931,3.931,0,0,0-1.021-.125c-1.058,0-1.817.465-1.817,1.424a1.33,1.33,0,0,0,1.466,1.4,1.763,1.763,0,0,0,1.4-.573c.053.42.18.52.535.52h.358V43.823c0-1.031-.633-1.431-1.744-1.431m.823,3.643a1.36,1.36,0,0,1-1.076.535.764.764,0,0,1-.866-.823c0-.563.448-.8,1.073-.8a4.17,4.17,0,0,1,.868.09Zm4.574-.153V43.107h1.038v-.646H14.531V41.191H13.62v1.271h-.566v.646h.566V45.99c0,.876.463,1.209,1.259,1.209a2.981,2.981,0,0,0,.746-.09v-.591H15.2c-.465,0-.673-.143-.673-.636M18.4,42.462h-.51v4.682H18.8V43.16c0-.591-.043-.7-.4-.7m-.043-1.574a.541.541,0,0,0-.538.535.536.536,0,0,0,1.071,0,.54.54,0,0,0-.533-.535m5.047,1.5a2.226,2.226,0,0,0-2.24,2.425,2.244,2.244,0,1,0,4.479,0,2.226,2.226,0,0,0-2.24-2.425m0,4.119c-.788,0-1.3-.566-1.3-1.694s.515-1.737,1.3-1.737,1.306.608,1.306,1.737S24.2,46.51,23.4,46.51m7.279-4.119a2.981,2.981,0,0,0-1.789.661c-.018-.49-.118-.591-.343-.591H27.98v4.682h.913V43.618a2.829,2.829,0,0,1,1.369-.465c.448,0,.708.16.708.743v3.248h.911V43.68c0-1.021-.543-1.289-1.2-1.289m5.505,0a3.593,3.593,0,0,0-1.682.4v.683h.288a2.148,2.148,0,0,1,1.281-.385c.616,0,.941.24.941.8V44.5A3.988,3.988,0,0,0,36,44.378c-1.058,0-1.819.465-1.819,1.424a1.331,1.331,0,0,0,1.469,1.4,1.752,1.752,0,0,0,1.394-.573c.058.42.183.52.538.52h.358V43.823c0-1.031-.636-1.431-1.747-1.431m.828,3.643a1.376,1.376,0,0,1-1.076.535.766.766,0,0,1-.868-.823c0-.563.445-.8,1.071-.8a4.2,4.2,0,0,1,.873.09Zm4.036-5.155h-.513v6.263h.923V41.486c0-.518-.053-.606-.41-.606M48.527,44.3h2.107v-.716H48.527V41.631H51.4v-.753H47.561v6.266H51.5V46.41H48.527Zm6.834,1.744h-.018l-1.326-3.581h-.851v.26l1.7,4.422h.886l1.654-4.422v-.26h-.786Zm6.033-3.651a2.181,2.181,0,0,0-2.137,2.425,2.115,2.115,0,0,0,2.23,2.382,2.893,2.893,0,0,0,1.724-.483V46.08h-.3a1.969,1.969,0,0,1-1.3.428c-.878,0-1.381-.418-1.424-1.531h3.153c0-.035.008-.2.008-.32,0-1.539-.723-2.265-1.962-2.265m-1.181,1.987c.1-.993.573-1.361,1.181-1.361.648,0,1.041.35,1.058,1.361Zm8.182-1.987a2.993,2.993,0,0,0-1.789.661c-.018-.49-.115-.591-.34-.591h-.573v4.682h.913V43.618a2.82,2.82,0,0,1,1.371-.465c.445,0,.706.16.706.743v3.248H69.6V43.68c0-1.021-.548-1.289-1.2-1.289m4.854,3.491V43.107h1.038v-.646H73.249V41.191h-.916v1.271h-.561v.646h.561V45.99c0,.876.468,1.209,1.266,1.209a2.936,2.936,0,0,0,.741-.09v-.591h-.418c-.468,0-.673-.143-.673-.636m4.99-1.539c-.738-.108-1-.27-1-.638,0-.393.278-.6.878-.6a1.659,1.659,0,0,1,1.076.333h.3v-.7a2.6,2.6,0,0,0-1.379-.33c-1.028,0-1.682.483-1.682,1.369,0,.871.525,1.219,1.474,1.351.763.118.986.288.986.683,0,.445-.32.678-.973.678a1.7,1.7,0,0,1-1.191-.42h-.3v.706a2.589,2.589,0,0,0,1.529.413c1.226,0,1.792-.573,1.792-1.459s-.485-1.236-1.511-1.386m9.816,2.119c-1.154,0-1.827-.833-1.827-2.487,0-1.574.763-2.407,1.9-2.407a1.873,1.873,0,0,1,1.406.518h.375v-.761a2.9,2.9,0,0,0-1.807-.5,2.858,2.858,0,0,0-2.865,3.185c0,2.032,1.119,3.188,2.783,3.188a2.878,2.878,0,0,0,1.962-.671v-.743h-.313a2.089,2.089,0,0,1-1.614.678m6.161-4.071a2.183,2.183,0,0,0-2.139,2.425,2.116,2.116,0,0,0,2.23,2.382,2.9,2.9,0,0,0,1.729-.483V46.08h-.3a1.979,1.979,0,0,1-1.3.428c-.878,0-1.379-.418-1.424-1.531h3.15c0-.035.01-.2.01-.32,0-1.539-.726-2.265-1.962-2.265m-1.179,1.987c.1-.993.571-1.361,1.179-1.361.646,0,1.038.35,1.058,1.361Zm8.18-1.987a2.987,2.987,0,0,0-1.789.661c-.018-.49-.115-.591-.34-.591h-.573v4.682h.913V43.618a2.82,2.82,0,0,1,1.369-.465c.448,0,.708.16.708.743v3.248h.916V43.68c0-1.021-.551-1.289-1.2-1.289m4.854,3.491V43.107h1.041v-.646h-1.041V41.191h-.913v1.271H104.6v.646h.563V45.99c0,.876.465,1.209,1.264,1.209a2.952,2.952,0,0,0,.741-.09v-.591h-.42c-.465,0-.671-.143-.671-.636m5.147-3.491a2.183,2.183,0,0,0-2.139,2.425,2.116,2.116,0,0,0,2.23,2.382,2.9,2.9,0,0,0,1.729-.483V46.08h-.3a1.991,1.991,0,0,1-1.3.428c-.878,0-1.379-.418-1.424-1.531h3.15c0-.035.01-.2.01-.32,0-1.539-.726-2.265-1.962-2.265m-1.181,1.987c.1-.993.573-1.361,1.181-1.361.646,0,1.038.35,1.056,1.361Zm6.393-1.271c-.018-.545-.115-.643-.34-.643h-.573v4.679h.913V43.725a2.057,2.057,0,0,1,1.386-.528c.035,0,.205.008.205.008v-.751a.822.822,0,0,0-.25-.038,1.8,1.8,0,0,0-1.341.691M90.09,27.385a.822.822,0,1,0-.823-.823.822.822,0,0,0,.823.823m-30.738,0a.822.822,0,1,0-.823-.823.824.824,0,0,0,.823.823m-22.986,0a.822.822,0,1,0-.821-.823.82.82,0,0,0,.821.823m19.876,9.286a.825.825,0,1,0-.826.823.824.824,0,0,0,.826-.823m-2.1,0a.822.822,0,1,0-.818.823.817.817,0,0,0,.818-.823M14.2,37.495a.822.822,0,1,0-.821-.823.821.821,0,0,0,.821.823m-2.094-1.644a.822.822,0,1,0,.823.821.819.819,0,0,0-.823-.821m-6.6-8.465a.822.822,0,1,0-.818-.823.823.823,0,0,0,.818.823m-2.094,0a.822.822,0,1,0-.823-.823.824.824,0,0,0,.823.823" transform="translate(0 -0.002)" fill="#fff"/>
  </g>
</svg>
