<?xml version="1.0" encoding="utf-8"?>
<!-- Generator: Adobe Illustrator 27.2.0, SVG Export Plug-In . SVG Version: 6.00 Build 0)  -->
<svg version="1.1" id="Layer_1" xmlns="http://www.w3.org/2000/svg" xmlns:xlink="http://www.w3.org/1999/xlink" x="0px" y="0px"
	 viewBox="0 0 117.4 100.1" style="enable-background:new 0 0 117.4 100.1;" xml:space="preserve">
<style type="text/css">
	.st0{fill:#FFFFFF;}
</style>
<g id="Group_265" transform="translate(-809 -2627.001)">
	<path id="Path_38" class="st0" d="M821,2707.7c0.4,0,0.7,0.3,0.7,0.7v2.1c0,0.4-0.1,0.8-0.2,1.2c-0.1,0.3-0.3,0.6-0.5,0.9
		c-0.2,0.2-0.5,0.4-0.9,0.6c-0.4,0.1-0.8,0.2-1.2,0.2h-2c-0.8,0.1-1.5-0.2-2.1-0.7c-0.5-0.6-0.8-1.3-0.7-2.1v-2.1
		c0-0.4,0.3-0.7,0.7-0.7c0.4,0,0.7,0.3,0.7,0.7v2.1c0,0.2,0,0.5,0.1,0.7c0,0.2,0.1,0.3,0.2,0.4c0.1,0.1,0.2,0.2,0.4,0.2
		c0.2,0,0.4,0.1,0.5,0.1h2.1c0.2,0,0.4,0,0.5-0.1c0.1,0,0.3-0.1,0.4-0.2c0.1-0.1,0.2-0.3,0.2-0.4c0.1-0.2,0.1-0.4,0.1-0.7v-2.1
		c0-0.4,0.3-0.7,0.7-0.7L821,2707.7z"/>
	<path id="Path_39" class="st0" d="M824,2704.8c0.4,0,0.8,0.3,0.8,0.7v5.5c0,0.1,0,0.2,0.1,0.3c0,0.1,0.1,0.2,0.2,0.3
		c0.1,0.1,0.2,0.1,0.3,0.2c0.2,0,0.4,0.1,0.5,0.1v1.5c-0.3,0-0.6,0-1-0.1c-0.3-0.1-0.6-0.2-0.8-0.4c-0.3-0.2-0.5-0.4-0.6-0.7
		c-0.2-0.3-0.2-0.7-0.2-1v-5.5C823.3,2705.1,823.6,2704.8,824,2704.8"/>
	<path id="Path_40" class="st0" d="M827.6,2707.7c0.4,0,0.8,0.3,0.8,0.7v2.3c0,0.3,0.1,0.6,0.2,0.8c0.2,0.2,0.5,0.3,0.7,0.3v1.5
		c-0.3,0-0.6-0.1-0.9-0.2c-0.3-0.2-0.5-0.4-0.6-0.7c-0.2,0.3-0.5,0.5-0.9,0.7c-0.2,0.1-0.3,0.1-0.5,0.2c-0.2,0-0.4,0.1-0.5,0.1
		c-0.1,0-0.1,0-0.2,0c-0.1,0-0.1-0.1-0.2-0.1c-0.1-0.1-0.1-0.1-0.2-0.2c0-0.1-0.1-0.2-0.1-0.4v-0.4l0.6-0.3c0.3,0,0.5-0.1,0.7-0.3
		c0.2-0.2,0.2-0.5,0.2-0.8v-2.3C826.8,2708,827.2,2707.7,827.6,2707.7"/>
	<path id="Path_41" class="st0" d="M831.2,2704.8c0.4,0,0.8,0.3,0.8,0.7v5.3c0,0.4-0.1,0.8-0.2,1.1c-0.1,0.3-0.4,0.6-0.6,0.8
		c-0.2,0.2-0.5,0.4-0.8,0.5c-0.3,0.1-0.6,0.1-1,0.1c-0.1,0-0.1,0-0.2,0c-0.1,0-0.1-0.1-0.2-0.1c-0.1-0.1-0.1-0.1-0.2-0.2
		c0-0.1-0.1-0.2-0.1-0.4v-0.4l0.6-0.3c0.2,0,0.4,0,0.5-0.1c0.1-0.1,0.3-0.1,0.3-0.2c0.1-0.1,0.1-0.2,0.2-0.3c0-0.1,0.1-0.3,0.1-0.4
		v-5.3C830.4,2705.1,830.8,2704.8,831.2,2704.8C831.2,2704.8,831.2,2704.8,831.2,2704.8"/>
	<path id="Path_42" class="st0" d="M834.3,2704.8c0.4,0,0.8,0.3,0.8,0.7v5.5c0,0.1,0,0.2,0.1,0.3c0,0.1,0.1,0.2,0.2,0.3
		c0.1,0.1,0.2,0.1,0.3,0.2c0.2,0,0.4,0.1,0.5,0.1v1.5c-0.3,0-0.6,0-1-0.1c-0.3-0.1-0.6-0.2-0.8-0.4c-0.3-0.2-0.5-0.4-0.6-0.7
		c-0.2-0.3-0.2-0.7-0.2-1v-5.5C833.5,2705.1,833.9,2704.8,834.3,2704.8"/>
	<path id="Path_43" class="st0" d="M838.8,2709.1c0.1,0.1,0.2,0.2,0.3,0.4c0.1,0.1,0.2,0.3,0.3,0.4c0.1,0.1,0.2,0.3,0.3,0.4
		s0.2,0.3,0.4,0.4c0.2-0.1,0.3-0.2,0.5-0.3c0.1-0.1,0.3-0.2,0.4-0.3c0.1-0.1,0.2-0.2,0.3-0.4c0.1-0.1,0.1-0.2,0.1-0.3
		c0-0.1,0-0.2-0.1-0.3c-0.1-0.1-0.1-0.2-0.2-0.2c-0.1-0.1-0.3-0.1-0.4-0.1c-0.2,0-0.4,0-0.6,0c-0.1,0-0.2,0-0.3,0
		c-0.1,0-0.2,0-0.4,0.1c-0.1,0-0.3,0.1-0.4,0.1C839,2709,838.9,2709.1,838.8,2709.1 M843.7,2713.4h-1.3c-0.2,0-0.4,0-0.6,0
		c-0.2,0-0.4-0.1-0.7-0.1c-0.2-0.1-0.4-0.1-0.7-0.2c-0.2-0.1-0.4-0.2-0.6-0.4c-0.3,0.1-0.5,0.3-0.8,0.4c-0.3,0.1-0.6,0.2-0.9,0.3
		c-0.3,0.1-0.6,0.1-0.9,0.1c-0.3,0-0.5,0.1-0.8,0.1h-0.4c-0.1,0-0.1,0-0.2,0c-0.1,0-0.1-0.1-0.2-0.1c-0.1-0.1-0.1-0.1-0.2-0.2
		c0-0.1-0.1-0.2-0.1-0.4v-0.4l0.6-0.3h0.4c0.2,0,0.4,0,0.6,0c0.2,0,0.4,0,0.6-0.1c0.2,0,0.4-0.1,0.6-0.1c0.2,0,0.3-0.1,0.5-0.2
		c-0.1-0.1-0.2-0.3-0.3-0.4c-0.1-0.2-0.2-0.3-0.3-0.5c-0.1-0.2-0.2-0.3-0.4-0.4s-0.4-0.4-0.4-0.4l-0.5,0.2v-0.1c0-1,0.6-1.9,1.6-2.2
		h0c0.5-0.2,1.1-0.3,1.7-0.3c0.2,0,0.4,0,0.7,0c0.2,0,0.5,0.1,0.7,0.1c0.2,0.1,0.4,0.1,0.6,0.2c0.2,0.1,0.4,0.2,0.5,0.4
		c0.2,0.2,0.3,0.4,0.4,0.6c0.1,0.2,0.1,0.5,0.1,0.8c0,0.2,0,0.4-0.1,0.6c-0.1,0.2-0.2,0.4-0.4,0.6c-0.2,0.2-0.3,0.4-0.5,0.5
		c-0.2,0.2-0.4,0.3-0.7,0.4c0.2,0.1,0.3,0.1,0.5,0.2c0.2,0,0.4,0.1,0.6,0.1h1.2L843.7,2713.4z"/>
	<path id="Path_44" class="st0" d="M847.9,2709.9c0,0.2-0.1,0.3-0.2,0.5c-0.1,0.2-0.2,0.3-0.3,0.5c-0.1,0.2-0.3,0.3-0.5,0.4
		c-0.2-0.1-0.3-0.3-0.5-0.4c-0.1-0.1-0.2-0.3-0.3-0.5c-0.1-0.2-0.2-0.3-0.2-0.5c0-0.2-0.1-0.3-0.1-0.5c0-0.1,0-0.3,0.1-0.4
		c0-0.1,0.1-0.2,0.2-0.3c0.1-0.1,0.2-0.2,0.3-0.2c0.3-0.1,0.6-0.1,0.9,0c0.3,0.1,0.5,0.3,0.6,0.6c0.1,0.1,0.1,0.3,0.1,0.4
		C848,2709.6,848,2709.7,847.9,2709.9 M849.1,2711.8c-0.1,0-0.3,0-0.4,0c-0.1,0-0.2,0-0.3-0.1c0.1-0.1,0.3-0.3,0.4-0.4
		c0.3-0.3,0.5-0.7,0.6-1.2c0.1-0.2,0.1-0.5,0.1-0.7c0-0.3-0.1-0.7-0.2-1c-0.1-0.3-0.3-0.6-0.6-0.8c-0.2-0.2-0.5-0.4-0.8-0.5
		c-0.7-0.2-1.4-0.2-2,0c-0.3,0.1-0.6,0.3-0.8,0.5c-0.2,0.2-0.4,0.5-0.6,0.8c-0.1,0.3-0.2,0.7-0.2,1c0,0.3,0,0.5,0.1,0.7
		c0.1,0.2,0.1,0.4,0.3,0.6c0.1,0.2,0.2,0.4,0.4,0.5c0.1,0.2,0.3,0.3,0.4,0.4c-0.1,0-0.2,0.1-0.4,0.1c-0.2,0-0.3,0-0.4,0h-0.9
		l-0.6,0.3v0.4c0,0.1,0,0.3,0.1,0.4c0,0.1,0.1,0.2,0.2,0.2c0.1,0.1,0.1,0.1,0.2,0.1c0.1,0,0.1,0,0.2,0h1.3c0.4,0,0.7,0,1.1-0.2
		c0.3-0.1,0.6-0.2,0.9-0.4c0.3,0.1,0.6,0.3,0.9,0.4c0.3,0.1,0.7,0.2,1.1,0.2h1.3v-1.5L849.1,2711.8z"/>
	<path id="Path_45" class="st0" d="M851.8,2704.8c0.4,0,0.8,0.3,0.8,0.7v5.3c0,0.3,0.1,0.6,0.2,0.8c0.2,0.2,0.5,0.3,0.7,0.3v1.5
		c-0.3,0-0.6-0.1-0.9-0.2c-0.3-0.2-0.5-0.4-0.6-0.7c-0.2,0.3-0.5,0.5-0.9,0.7c-0.2,0.1-0.3,0.1-0.5,0.2c-0.2,0-0.4,0.1-0.5,0.1
		c-0.1,0-0.1,0-0.2,0c-0.1,0-0.1-0.1-0.2-0.1c-0.1-0.1-0.1-0.1-0.2-0.2c0-0.1-0.1-0.2-0.1-0.4v-0.4l0.6-0.3c0.3,0,0.5-0.1,0.7-0.3
		c0.2-0.2,0.3-0.5,0.2-0.8v-5.3C851.1,2705.1,851.4,2704.8,851.8,2704.8"/>
	<path id="Path_46" class="st0" d="M855.4,2704.8c0.4,0,0.8,0.3,0.8,0.7v5.3c0,0.4-0.1,0.8-0.2,1.1c-0.1,0.3-0.4,0.6-0.6,0.8
		c-0.2,0.2-0.5,0.4-0.8,0.5c-0.3,0.1-0.6,0.1-1,0.1c-0.1,0-0.1,0-0.2,0c-0.1,0-0.1-0.1-0.2-0.1c-0.1-0.1-0.1-0.1-0.2-0.2
		c0-0.1-0.1-0.2-0.1-0.4v-0.4l0.6-0.3c0.2,0,0.4,0,0.5-0.1c0.1-0.1,0.3-0.1,0.3-0.2c0.1-0.1,0.1-0.2,0.2-0.3c0-0.1,0.1-0.3,0.1-0.4
		v-5.3C854.7,2705.1,855,2704.8,855.4,2704.8C855.4,2704.8,855.4,2704.8,855.4,2704.8"/>
	<path id="Path_47" class="st0" d="M860.1,2708.8c0.4,0,0.7,0.3,0.7,0.7v1.1c0,0.2,0,0.4,0.1,0.6c0.1,0.3,0.3,0.5,0.6,0.6
		c0.2,0,0.4,0.1,0.6,0.1h2.3v-1.5c0-0.4,0.1-0.7,0.2-1.1c0.1-0.3,0.3-0.6,0.5-0.8c0.2-0.2,0.5-0.4,0.8-0.5c0.4-0.1,0.7-0.2,1.1-0.2
		h1.9v4.1h1.2v1.5h-1.8c-0.5,0-0.9-0.4-0.9-0.9v-3.4h-0.5c-0.1,0-0.3,0-0.4,0.1c-0.1,0-0.2,0.1-0.3,0.2c-0.1,0.1-0.2,0.2-0.2,0.4
		c0,0.2-0.1,0.4-0.1,0.6v2.4c0,0.4-0.3,0.7-0.7,0.7h-3.1c-0.4,0-0.8-0.1-1.2-0.2c-0.3-0.1-0.6-0.3-0.9-0.6c-0.2-0.3-0.4-0.5-0.5-0.9
		c-0.1-0.4-0.2-0.7-0.2-1.1v-1.1C859.4,2709.1,859.7,2708.8,860.1,2708.8"/>
	<path id="Path_48" class="st0" d="M876.3,2711.8c0-0.1,0-0.2,0.1-0.4s0.1-0.3,0.1-0.4s0-0.3,0.1-0.5c0-0.2,0-0.3,0-0.5
		c0-0.2,0-0.3-0.1-0.4c-0.1-0.1-0.1-0.2-0.2-0.3c-0.1-0.1-0.2-0.2-0.3-0.2c-0.1,0-0.3-0.1-0.5-0.1c-0.2,0-0.5,0-0.7,0.1
		c-0.3,0.1-0.5,0.2-0.7,0.3c-0.2,0.1-0.5,0.3-0.7,0.5c-0.2,0.2-0.4,0.4-0.6,0.6c-0.2,0.2-0.4,0.4-0.6,0.6c-0.2,0.2-0.3,0.4-0.5,0.6
		L876.3,2711.8z M872.3,2705.5v3.3l-0.2,0.7c0.2-0.3,0.5-0.5,0.7-0.7c0.3-0.2,0.5-0.4,0.8-0.6c0.3-0.2,0.6-0.3,0.9-0.4
		c0.3-0.1,0.7-0.2,1-0.2c0.4,0,0.8,0,1.1,0.2c0.3,0.1,0.6,0.2,0.8,0.5c0.2,0.2,0.4,0.5,0.5,0.8c0.1,0.4,0.2,0.7,0.2,1.1
		c0,0.3,0,0.5-0.1,0.8c0,0.3-0.1,0.6-0.1,0.9c-0.1,0.3-0.1,0.6-0.2,0.8c0,0,0,0,0,0c-0.1,0.4-0.5,0.7-0.9,0.7h-6.7
		c-0.1,0-0.1,0-0.2,0c-0.1,0-0.1-0.1-0.2-0.1c-0.1-0.1-0.6-0.1-0.7-0.2c0-0.1-0.1-0.2-0.1-0.4v-0.4l1.1-0.3h0.2l0.5-0.7v-5.6
		c0-0.4,0.4-0.7,0.8-0.7C872,2704.8,872.3,2705.1,872.3,2705.5"/>
	<path id="Path_49" class="st0" d="M880.7,2710.5c0,0.2,0,0.4,0.1,0.6c0,0.2,0.1,0.3,0.2,0.4c0.1,0.1,0.2,0.2,0.4,0.2
		c0.2,0.1,0.4,0.1,0.6,0.1h0.7c0-0.2,0-0.3,0-0.5s0-0.4,0-0.6c0-0.3,0-0.5-0.1-0.8c0-0.2-0.1-0.4-0.2-0.5c-0.1-0.1-0.2-0.2-0.3-0.3
		c-0.1-0.1-0.2-0.1-0.4-0.1c-0.2,0-0.3,0-0.4,0.1c-0.1,0.1-0.2,0.1-0.3,0.3c-0.1,0.1-0.2,0.3-0.2,0.5
		C880.7,2710.1,880.7,2710.3,880.7,2710.5 M884.9,2713.3h-1c-0.1,0.4-0.3,0.7-0.4,1.1c-0.2,0.3-0.4,0.6-0.7,0.9
		c-0.3,0.3-0.6,0.5-0.9,0.7c-0.2,0.1-0.4,0.2-0.6,0.3c-0.3,0.1-0.6,0-0.8-0.3l0,0c-0.2-0.3-0.1-0.7,0.2-1c0,0,0.1-0.1,0.1-0.1h0
		c0.2-0.1,0.5-0.2,0.7-0.4c0.2-0.2,0.4-0.3,0.5-0.5c0.1-0.2,0.3-0.4,0.4-0.6H882c-0.4,0-0.9-0.1-1.3-0.2c-0.3-0.1-0.6-0.3-0.9-0.6
		c-0.2-0.3-0.4-0.6-0.5-0.9c-0.2-0.7-0.2-1.5,0-2.2c0.1-0.3,0.2-0.6,0.4-0.9c0.2-0.3,0.5-0.5,0.8-0.6c0.4-0.2,0.7-0.2,1.1-0.2
		c0.4,0,0.8,0.1,1.2,0.3c0.3,0.2,0.6,0.4,0.8,0.7c0.2,0.3,0.4,0.6,0.4,1c0.1,0.4,0.1,0.7,0.1,1.1c0,0.2,0,0.4,0,0.6s0,0.4,0,0.5h0.7
		L884.9,2713.3z"/>
	<path id="Path_50" class="st0" d="M886.8,2704.8c0.4,0,0.8,0.3,0.8,0.7v5.3c0,0.4-0.1,0.8-0.2,1.1c-0.1,0.3-0.4,0.6-0.6,0.8
		c-0.2,0.2-0.5,0.4-0.8,0.5c-0.3,0.1-0.6,0.1-1,0.1c-0.1,0-0.1,0-0.2,0c-0.1,0-0.1-0.1-0.2-0.1c-0.1-0.1-0.1-0.1-0.2-0.2
		c0-0.1-0.1-0.2-0.1-0.4v-0.4l0.6-0.3c0.2,0,0.4,0,0.5-0.1c0.1-0.1,0.3-0.1,0.3-0.2c0.1-0.1,0.1-0.2,0.2-0.3c0-0.1,0.1-0.3,0.1-0.4
		v-5.3C886.1,2705.1,886.4,2704.8,886.8,2704.8C886.8,2704.8,886.8,2704.8,886.8,2704.8"/>
	<path id="Path_51" class="st0" d="M889.1,2712.6v-7.1c0-0.4,0.4-0.7,0.8-0.7c0.4,0,0.7,0.3,0.7,0.7v7.1c0,0.4-0.4,0.7-0.8,0.7
		C889.5,2713.3,889.1,2713,889.1,2712.6"/>
	<path id="Path_52" class="st0" d="M892.9,2715.9c-0.2-0.3-0.2-0.7,0.1-0.9c0,0,0.1-0.1,0.1-0.1c0.1-0.1,0.3-0.2,0.4-0.2
		c0.3-0.2,0.7-0.5,0.9-0.8c0.3-0.3,0.4-0.7,0.6-1.1c0.1-0.5,0.2-1,0.2-1.4c0-0.2,0-0.4,0-0.6c0-0.2-0.1-0.4-0.1-0.6
		c0-0.2-0.1-0.5-0.1-0.5l-0.1-0.5l1.4-0.4c0,0,0.1,0.3,0.1,0.5s0.1,0.3,0.1,0.5c0,0.2,0.1,0.4,0.1,0.6c0,0.2,0.1,0.4,0.1,0.6
		c0,0.1,0,0.3,0.1,0.4c0,0.1,0.1,0.2,0.2,0.3c0.1,0.1,0.2,0.2,0.3,0.2c0.2,0.1,0.3,0.1,0.5,0.1v1.5c-0.1,0-0.2,0-0.4,0
		c-0.1,0-0.2,0-0.3-0.1c-0.1,0-0.2-0.1-0.3-0.1c-0.1-0.1-0.1-0.1-0.2-0.2c-0.2,0.8-0.6,1.6-1.2,2.2c-0.3,0.3-0.6,0.5-0.9,0.8
		c-0.2,0.1-0.4,0.2-0.6,0.3C893.5,2716.3,893.2,2716.2,892.9,2715.9L892.9,2715.9z"/>
	<path id="Path_53" class="st0" d="M897.1,2712.2l0.6-0.3h3.7c0,0,0-0.1,0-0.1c0-0.1,0-0.1,0-0.2c0-0.2-0.1-0.4-0.2-0.6
		c-0.1-0.2-0.3-0.4-0.4-0.6c-0.2-0.2-0.4-0.4-0.6-0.5c-0.2-0.2-0.4-0.3-0.7-0.5c-0.2-0.1-0.4-0.3-0.7-0.4l0,0
		c-0.5-0.2-0.7-0.8-0.4-1.2c0.1-0.2,0.2-0.3,0.3-0.4l3.2-2.1c0.3-0.2,0.8-0.1,1,0.2c0.1,0.1,0.1,0.2,0.1,0.3c0,0.3-0.1,0.5-0.3,0.6
		l-2.7,1.7c0.2,0.1,0.5,0.3,0.7,0.4c0.2,0.1,0.5,0.3,0.7,0.5c0.2,0.2,0.4,0.3,0.6,0.5c0.2,0.2,0.3,0.4,0.5,0.6
		c0.1,0.2,0.2,0.4,0.3,0.7c0.1,0.3,0.1,0.5,0.1,0.8c0,0.3-0.1,0.7-0.2,1c-0.2,0.3-0.4,0.6-0.6,0.8h-4.4c-0.1,0-0.1,0-0.2,0
		c-0.1,0-0.1-0.1-0.2-0.1c-0.1-0.1-0.1-0.1-0.2-0.2c0-0.1-0.1-0.2-0.1-0.4L897.1,2712.2z"/>
	<path id="Path_54" class="st0" d="M903,2716c-0.2-0.3-0.2-0.7,0.1-1c0,0,0.1-0.1,0.1-0.1c0.1-0.1,0.3-0.1,0.4-0.2
		c0.3-0.2,0.7-0.5,0.9-0.8c0.3-0.3,0.4-0.7,0.6-1.1c0.1-0.5,0.2-1,0.2-1.4c0-0.2,0-0.4,0-0.6c0-0.2-0.1-0.4-0.1-0.6
		c0-0.2-0.1-0.4-0.1-0.5c0-0.2-0.1-0.3-0.1-0.5l1.4-0.4c0,0.1,0.1,0.3,0.1,0.5s0.1,0.3,0.1,0.5c0,0.2,0.1,0.4,0.1,0.6
		c0,0.2,0.1,0.4,0.1,0.6c0,0.1,0,0.3,0.1,0.4c0,0.1,0.1,0.2,0.2,0.3c0.1,0.1,0.2,0.2,0.3,0.2c0.2,0.1,0.3,0.1,0.5,0.1v1.5
		c-0.1,0-0.2,0-0.4,0c-0.1,0-0.2,0-0.3-0.1c-0.1,0-0.2-0.1-0.3-0.1c-0.1-0.1-0.1-0.1-0.2-0.2c-0.1,0.4-0.3,0.8-0.5,1.2
		c-0.2,0.4-0.4,0.7-0.7,1c-0.3,0.3-0.6,0.5-0.9,0.8c-0.2,0.1-0.4,0.2-0.6,0.3C903.5,2716.3,903.2,2716.2,903,2716"/>
	<path id="Path_55" class="st0" d="M911.2,2709c-0.1,0-0.3,0-0.4,0.1c-0.1,0.1-0.2,0.1-0.3,0.3c-0.1,0.1-0.2,0.3-0.2,0.5
		c-0.1,0.2-0.1,0.5-0.1,0.7c0,0.2,0,0.5,0.1,0.7c0,0.2,0.1,0.3,0.2,0.5c0.1,0.1,0.2,0.2,0.3,0.3c0.1,0.1,0.3,0.1,0.4,0.1
		c0.1,0,0.3,0,0.4-0.1c0.1-0.1,0.2-0.2,0.3-0.3c0.1-0.1,0.2-0.3,0.2-0.5c0.1-0.2,0.1-0.5,0.1-0.7c0-0.2,0-0.5-0.1-0.7
		c0-0.2-0.1-0.3-0.2-0.5c-0.1-0.1-0.2-0.2-0.3-0.3C911.4,2709,911.3,2709,911.2,2709 M914.6,2713.4c-0.3,0-0.7-0.1-1-0.2
		c-0.3-0.1-0.5-0.3-0.6-0.6c-0.1,0.1-0.2,0.3-0.3,0.4c-0.1,0.1-0.3,0.2-0.4,0.3c-0.2,0.1-0.3,0.1-0.5,0.2c-0.2,0-0.4,0.1-0.6,0.1
		c-0.2,0-0.4,0-0.6-0.1c-0.2,0-0.4-0.1-0.5-0.2c-0.1-0.1-0.3-0.2-0.4-0.3c-0.1-0.1-0.2-0.2-0.3-0.4c-0.1,0.3-0.3,0.5-0.6,0.6
		c-0.3,0.1-0.6,0.2-1,0.2c-0.1,0-0.1,0-0.2,0c-0.1,0-0.1-0.1-0.2-0.1c-0.1-0.1-0.1-0.1-0.2-0.2c0-0.1-0.1-0.2-0.1-0.4v-0.4l0.6-0.3
		c0.1,0,0.3,0,0.4,0c0.1,0,0.2-0.1,0.3-0.2c0.1-0.1,0.1-0.2,0.2-0.3c0-0.2,0.1-0.3,0-0.5v-0.3c0-0.4,0-0.7,0.1-1.1
		c0.1-0.3,0.2-0.6,0.4-0.9c0.2-0.3,0.5-0.5,0.8-0.7c0.4-0.2,0.8-0.3,1.2-0.3c0.4,0,0.8,0.1,1.1,0.3c0.3,0.2,0.6,0.4,0.8,0.7
		c0.2,0.3,0.4,0.6,0.4,0.9c0.1,0.3,0.1,0.7,0.1,1v0.3c0,0.2,0,0.3,0,0.5c0,0.1,0.1,0.2,0.2,0.3c0.1,0.1,0.2,0.1,0.3,0.2
		c0.1,0,0.3,0,0.4,0L914.6,2713.4z"/>
	<path id="Path_56" class="st0" d="M916.5,2704.8c0.4,0,0.8,0.3,0.8,0.7v5.3c0,0.4-0.1,0.8-0.2,1.1c-0.1,0.3-0.4,0.6-0.6,0.8
		c-0.2,0.2-0.5,0.4-0.8,0.5c-0.3,0.1-0.6,0.1-1,0.1c-0.1,0-0.1,0-0.2,0c-0.1,0-0.1-0.1-0.2-0.1c-0.1-0.1-0.1-0.1-0.2-0.2
		c0-0.1-0.1-0.2-0.1-0.4v-0.4l0.6-0.3c0.2,0,0.4,0,0.5-0.1c0.1-0.1,0.3-0.1,0.3-0.2c0.1-0.1,0.1-0.2,0.2-0.3c0-0.1,0.1-0.3,0.1-0.4
		v-5.3C915.7,2705.1,916.1,2704.8,916.5,2704.8C916.5,2704.8,916.5,2704.8,916.5,2704.8"/>
	<path id="Path_57" class="st0" d="M918.8,2712.6v-7.1c0-0.4,0.4-0.7,0.8-0.7c0.4,0,0.7,0.3,0.7,0.7v7.1c0,0.4-0.4,0.7-0.8,0.7
		C919.1,2713.3,918.8,2713,918.8,2712.6"/>
	<path id="Path_58" class="st0" d="M814.1,2718.4h1l2.5,4h0v-4h0.8v5.5h-0.8l-2.7-4.4h0v4.4h-0.8V2718.4z"/>
	<path id="Path_59" class="st0" d="M823.1,2722.9v-0.9c-0.3-0.1-0.5-0.1-0.8-0.1c-0.6,0-1,0.2-1,0.7c0,0.5,0.3,0.7,0.8,0.7
		C822.5,2723.4,822.9,2723.2,823.1,2722.9 M823.1,2723.4c-0.3,0.3-0.8,0.5-1.3,0.5c-0.6,0.1-1.2-0.4-1.3-1c0-0.1,0-0.1,0-0.2
		c0-0.8,0.7-1.2,1.6-1.2c0.3,0,0.6,0,0.9,0.1v-0.5c0-0.5-0.3-0.7-0.8-0.7c-0.4,0-0.8,0.1-1.2,0.3h-0.3v-0.6c0.5-0.2,1-0.4,1.5-0.4
		c1,0,1.6,0.4,1.6,1.2v2.9h-0.3C823.3,2723.9,823.2,2723.8,823.1,2723.4"/>
	<path id="Path_60" class="st0" d="M825.9,2719.8h0.5v-1.1h0.8v1.1h0.9v0.6h-0.9v2.4c0,0.4,0.2,0.6,0.6,0.6h0.4v0.5
		c-0.2,0.1-0.4,0.1-0.7,0.1c-0.7,0-1.1-0.3-1.1-1.1v-2.5h-0.5V2719.8z"/>
	<path id="Path_61" class="st0" d="M830.2,2723.9v-4.1h0.5c0.3,0,0.4,0.1,0.4,0.6v3.5H830.2z M830.2,2718.9c0-0.3,0.2-0.5,0.5-0.5
		c0.3,0,0.5,0.2,0.5,0.5c0,0.3-0.2,0.5-0.5,0.5c0,0,0,0,0,0C830.4,2719.3,830.2,2719.1,830.2,2718.9"/>
	<path id="Path_62" class="st0" d="M836.4,2721.8c0-1-0.5-1.5-1.2-1.5s-1.2,0.5-1.2,1.5c0,1,0.5,1.5,1.2,1.5
		S836.4,2722.8,836.4,2721.8 M833.2,2721.8c-0.1-1.1,0.8-2.1,1.9-2.1s2.1,0.8,2.1,1.9c0,0.1,0,0.1,0,0.2c0,1.1-0.8,2-1.9,2.1
		c-1.1,0-2-0.8-2.1-1.9C833.2,2721.9,833.2,2721.9,833.2,2721.8"/>
	<path id="Path_63" class="st0" d="M840.1,2720.3c0.5-0.4,1-0.6,1.6-0.6c0.6,0,1.1,0.2,1.1,1.1v3H842v-2.8c0-0.5-0.2-0.6-0.6-0.6
		c-0.4,0-0.9,0.2-1.2,0.4v3.1h-0.8v-4.1h0.5C840,2719.8,840.1,2719.9,840.1,2720.3"/>
	<path id="Path_64" class="st0" d="M847.4,2722.9v-0.9c-0.3-0.1-0.5-0.1-0.8-0.1c-0.6,0-1,0.2-1,0.7c0,0.5,0.3,0.7,0.8,0.7
		C846.8,2723.4,847.2,2723.2,847.4,2722.9 M847.5,2723.4c-0.3,0.3-0.8,0.5-1.3,0.5c-0.6,0.1-1.2-0.4-1.3-1c0-0.1,0-0.1,0-0.2
		c0-0.8,0.7-1.2,1.6-1.2c0.3,0,0.6,0,0.9,0.1v-0.5c0-0.5-0.3-0.7-0.8-0.7c-0.4,0-0.8,0.1-1.2,0.3h-0.3v-0.6c0.5-0.2,1-0.4,1.5-0.4
		c1,0,1.6,0.4,1.6,1.2v2.9h-0.3C847.6,2723.9,847.5,2723.8,847.5,2723.4"/>
	<path id="Path_65" class="st0" d="M850.6,2723.9v-5.5h0.5c0.3,0,0.4,0.1,0.4,0.5v4.9H850.6z"/>
	<path id="Path_66" class="st0" d="M856.9,2718.4h3.5v0.7h-2.6v1.7h1.9v0.6h-1.9v1.8h2.7v0.6h-3.5L856.9,2718.4z"/>
	<path id="Path_67" class="st0" d="M862,2720v-0.2h0.8l1.2,3.1h0l1.1-3.1h0.7v0.2l-1.5,3.9h-0.8L862,2720z"/>
	<path id="Path_68" class="st0" d="M868.3,2721.4h2c0-0.9-0.4-1.2-0.9-1.2C868.8,2720.3,868.4,2720.6,868.3,2721.4 M868.3,2722
		c0,1,0.5,1.3,1.3,1.3c0.4,0,0.8-0.1,1.2-0.4h0.3v0.6c-0.5,0.3-1,0.4-1.6,0.4c-1,0.1-1.9-0.7-2-1.7c0-0.1,0-0.2,0-0.4
		c-0.1-1.1,0.7-2,1.7-2.1c0.1,0,0.1,0,0.2,0c1.1,0,1.8,0.6,1.8,2c0,0.1,0,0.2,0,0.3L868.3,2722z"/>
	<path id="Path_69" class="st0" d="M874,2720.3c0.5-0.4,1-0.6,1.6-0.6c0.6,0,1.1,0.2,1.1,1.1v3h-0.8v-2.8c0-0.5-0.2-0.6-0.6-0.6
		c-0.4,0-0.9,0.2-1.2,0.4v3.1h-0.8v-4.1h0.5C873.9,2719.8,874,2719.9,874,2720.3"/>
	<path id="Path_70" class="st0" d="M878.7,2719.8h0.5v-1.1h0.8v1.1h0.9v0.6H880v2.4c0,0.4,0.2,0.6,0.6,0.6h0.4v0.5
		c-0.2,0.1-0.4,0.1-0.7,0.1c-0.7,0-1.1-0.3-1.1-1.1v-2.5h-0.5L878.7,2719.8z"/>
	<path id="Path_71" class="st0" d="M882.9,2723.5v-0.6h0.3c0.3,0.3,0.7,0.4,1.1,0.4c0.6,0,0.9-0.2,0.9-0.6c0-0.3-0.2-0.5-0.9-0.6
		c-0.9-0.1-1.3-0.4-1.3-1.2c0-0.8,0.6-1.2,1.5-1.2c0.4,0,0.9,0.1,1.2,0.3v0.6h-0.3c-0.3-0.2-0.6-0.3-1-0.3c-0.5,0-0.8,0.2-0.8,0.5
		c0,0.3,0.2,0.5,0.9,0.6c0.9,0.1,1.4,0.4,1.4,1.2s-0.5,1.3-1.6,1.3C883.8,2723.9,883.3,2723.8,882.9,2723.5"/>
	<path id="Path_72" class="st0" d="M890.8,2721.1c-0.1-1.4,0.9-2.6,2.3-2.8c0.1,0,0.2,0,0.3,0c0.6,0,1.1,0.1,1.6,0.4v0.7h-0.3
		c-0.3-0.3-0.8-0.5-1.3-0.5c-1,0-1.7,0.7-1.7,2.1c0,1.4,0.6,2.2,1.6,2.2c0.5,0,1.1-0.2,1.4-0.6h0.3v0.6c-0.5,0.4-1.1,0.6-1.8,0.6
		C891.8,2723.9,890.8,2722.9,890.8,2721.1"/>
	<path id="Path_73" class="st0" d="M897.8,2721.4h2c0-0.9-0.4-1.2-0.9-1.2C898.3,2720.3,897.9,2720.6,897.8,2721.4 M897.8,2722
		c0,1,0.5,1.3,1.3,1.3c0.4,0,0.8-0.1,1.2-0.4h0.3v0.6c-0.5,0.3-1,0.4-1.6,0.4c-1,0.1-1.9-0.7-2-1.7c0-0.1,0-0.2,0-0.4
		c-0.1-1.1,0.7-2,1.7-2.1c0.1,0,0.1,0,0.2,0c1.1,0,1.8,0.6,1.8,2c0,0.1,0,0.2,0,0.3L897.8,2722z"/>
	<path id="Path_74" class="st0" d="M903.6,2720.3c0.5-0.4,1-0.6,1.6-0.6c0.6,0,1.1,0.2,1.1,1.1v3h-0.8v-2.8c0-0.5-0.2-0.6-0.6-0.6
		c-0.4,0-0.9,0.2-1.2,0.4v3.1h-0.8v-4.1h0.5C903.5,2719.8,903.6,2719.9,903.6,2720.3"/>
	<path id="Path_75" class="st0" d="M908.2,2719.8h0.5v-1.1h0.8v1.1h0.9v0.6h-0.9v2.4c0,0.4,0.2,0.6,0.6,0.6h0.4v0.5
		c-0.2,0.1-0.4,0.1-0.7,0.1c-0.7,0-1.1-0.3-1.1-1.1v-2.5h-0.5L908.2,2719.8z"/>
	<path id="Path_76" class="st0" d="M913.1,2721.4h2c0-0.9-0.4-1.2-0.9-1.2C913.6,2720.3,913.2,2720.6,913.1,2721.4 M913.1,2722
		c0,1,0.5,1.3,1.3,1.3c0.4,0,0.8-0.1,1.2-0.4h0.3v0.6c-0.5,0.3-1,0.4-1.6,0.4c-1,0.1-1.9-0.7-2-1.7c0-0.1,0-0.2,0-0.4
		c-0.1-1.1,0.7-2,1.7-2.1c0.1,0,0.1,0,0.2,0c1.1,0,1.8,0.6,1.8,2c0,0.1,0,0.2,0,0.3L913.1,2722z"/>
	<path id="Path_77" class="st0" d="M918.9,2720.9v3H918v-4.1h0.5c0.2,0,0.3,0.1,0.3,0.6c0.3-0.4,0.7-0.6,1.2-0.6c0.1,0,0.2,0,0.2,0
		v0.7c0,0-0.2,0-0.2,0C919.7,2720.4,919.2,2720.6,918.9,2720.9"/>
	<path id="Path_78" class="st0" d="M895.2,2709.5l-0.4-0.4c0-0.5,0.5-0.8,0.9-0.7c0.2,0,0.4,0.1,0.5,0.3c0,0-0.3,0.6-0.3,0.6
		c-0.1,0.1-0.2,0.1-0.3,0.2C895.7,2709.5,895.2,2709.6,895.2,2709.5"/>
	<path id="Path_79" class="st0" d="M905.8,2709.9L905.8,2709.9c-0.4,0.1-0.9-0.4-1-0.8l0-0.1c-0.1-0.4,0.1-0.8,0.5-0.9c0,0,0,0,0,0
		c0.4-0.1,0.8,0.1,0.9,0.5l0.1,0.3C906.5,2709.4,906.2,2709.8,905.8,2709.9C905.9,2709.9,905.8,2709.9,905.8,2709.9"/>
	<path id="Path_80" class="st0" d="M895.8,2709.9L895.8,2709.9c-0.4,0.1-0.9-0.4-1-0.8l0-0.1c-0.1-0.4,0.1-0.8,0.5-0.9c0,0,0,0,0,0
		c0.4-0.1,0.8,0.1,0.9,0.5l0.1,0.3C896.4,2709.4,896.2,2709.8,895.8,2709.9C895.8,2709.9,895.8,2709.9,895.8,2709.9"/>
	<path id="Path_81" class="st0" d="M895.9,2705.9c0,0.4-0.3,0.8-0.7,0.8c-0.4,0-0.8-0.3-0.8-0.7c0-0.4,0.3-0.8,0.7-0.8c0,0,0,0,0,0
		C895.6,2705.2,895.9,2705.5,895.9,2705.9"/>
	<path id="Path_82" class="st0" d="M868.3,2705.9c0,0.4-0.3,0.7-0.7,0.8c-0.4,0-0.7-0.3-0.8-0.7c0-0.4,0.3-0.7,0.7-0.8c0,0,0,0,0,0
		C867.9,2705.2,868.3,2705.5,868.3,2705.9"/>
	<path id="Path_83" class="st0" d="M847.6,2705.9c0,0.4-0.3,0.8-0.7,0.8c-0.4,0-0.7-0.3-0.8-0.7c0-0.4,0.3-0.8,0.7-0.8c0,0,0,0,0,0
		C847.3,2705.2,847.6,2705.5,847.6,2705.9"/>
	<path id="Path_84" class="st0" d="M864.7,2714.7c0,0.4-0.3,0.7-0.7,0.8c-0.4,0-0.7-0.3-0.8-0.7s0.3-0.7,0.7-0.8c0,0,0,0,0,0
		C864.4,2714,864.7,2714.3,864.7,2714.7"/>
	<path id="Path_85" class="st0" d="M862.8,2714.7c0,0.4-0.3,0.8-0.7,0.8c-0.4,0-0.8-0.3-0.8-0.7c0-0.4,0.3-0.8,0.7-0.8c0,0,0,0,0,0
		C862.5,2714,862.8,2714.3,862.8,2714.7"/>
	<path id="Path_86" class="st0" d="M827.7,2714.7c0,0.4-0.3,0.7-0.7,0.8c-0.4,0-0.7-0.3-0.8-0.7c0-0.4,0.3-0.8,0.7-0.8c0,0,0,0,0,0
		C827.3,2714,827.6,2714.3,827.7,2714.7"/>
	<path id="Path_87" class="st0" d="M825.8,2714.7c0,0.4-0.3,0.7-0.7,0.8c-0.4,0-0.7-0.3-0.8-0.7c0-0.4,0.3-0.8,0.7-0.8c0,0,0,0,0,0
		C825.4,2714,825.8,2714.3,825.8,2714.7"/>
	<path id="Path_88" class="st0" d="M819.8,2705.9c0,0.4-0.3,0.7-0.7,0.8c-0.4,0-0.7-0.3-0.8-0.7c0-0.4,0.3-0.7,0.7-0.8c0,0,0,0,0,0
		C819.5,2705.2,819.8,2705.5,819.8,2705.9"/>
	<path id="Path_89" class="st0" d="M817.9,2705.9c0,0.4-0.3,0.8-0.7,0.8c-0.4,0-0.7-0.3-0.8-0.7c0-0.4,0.3-0.8,0.7-0.8c0,0,0,0,0,0
		C817.6,2705.2,817.9,2705.5,817.9,2705.9"/>
	<path id="Path_90" class="st0" d="M904.9,2676.4c0-0.1,0.1-0.2,0.1-0.2c0.1-0.1,0.2-0.1,0.3-0.1c0.1,0,0.2,0.1,0.2,0.1
		c0.1,0.1,0.1,0.2,0.1,0.3c-0.3,1.4-0.6,2.8-1.1,4.2l0,0c-0.7,2.1-2.4,3.5-5.1,4.4l0,0c-0.5,0.2-1.1,0.4-1.6,0.5l0,0
		c-1.9,0.6-3.2,1.1-4.1,1.4l0,0c-0.5,0.2-1.2,0.4-2,0.6c-0.8,0.2-1.7,0.5-2.7,0.7l0,0c-0.3,0.1-0.5,0.1-0.8,0.2l0,0
		c-0.1,0-0.2,0.1-0.3,0.1c0,0,0,0-0.1,0c-1.6,0.5-3.3,0.8-5,0.9c-0.3,0-1.2,0-2.6-0.1c-2.1,0-3.6,0.7-4.3,2.3c0,0.1-0.1,0.1-0.2,0.2
		c-0.1,0-0.2,0-0.3,0c-0.1,0-0.1-0.1-0.2-0.2c0-0.1,0-0.2,0-0.3c0.9-1.8,2.6-2.7,5-2.7h0c1.3,0.1,2.2,0.1,2.5,0.1l0,0
		c1.6-0.1,3.2-0.4,4.7-0.8c0,0,0.1,0,0.1,0c0.1,0,0.3-0.1,0.4-0.1c0,0,0,0,0,0c0.2-0.1,0.5-0.1,0.8-0.2l0,0c1-0.3,1.9-0.5,2.7-0.7
		c0.8-0.2,1.5-0.4,2-0.6c0,0,0,0,0,0c0.9-0.3,2.3-0.8,4.1-1.4l0,0c0.6-0.2,1.1-0.4,1.6-0.5l0,0c2.5-0.8,4.1-2.1,4.7-4l0,0
		C904.3,2679.1,904.7,2677.8,904.9,2676.4"/>
	<path id="Path_91" class="st0" d="M876.8,2644.8C876.9,2644.8,876.9,2644.8,876.8,2644.8c2.6,1.3,4.8,3.2,6.4,5.5l0,0
		c0.4,0.5,0.8,1.1,1.3,1.7c0.6,0.9,1.3,1.9,1.9,3c0,0,0,0,0,0c0.3,0.6,0.9,1.6,1.6,3.1l0,0c0,0,0,0,0,0.1c0.1,0.1,0.3,0.8,0.8,1.9
		l0,0c0.3,0.7,0.6,1.4,0.9,2c0.6,1.4,1.7,2.5,3,3.2c1.9,0.9,3.8,1.7,5.9,2.2c0.1,0,0.2,0.1,0.2,0.2c0,0.1,0.1,0.2,0,0.3
		c0,0.1-0.1,0.2-0.2,0.2c-0.1,0-0.2,0.1-0.3,0c-2.1-0.5-4.1-1.3-6-2.2c-1.5-0.8-2.6-2-3.3-3.5l0,0c-0.3-0.7-0.7-1.4-0.9-2.1l0,0
		c-0.4-1.1-0.7-1.7-0.7-1.9c0,0,0,0,0,0v0l0,0c-0.8-1.5-1.3-2.5-1.6-3.1c0,0,0,0,0,0c-0.6-1.1-1.2-2-1.8-3c-0.4-0.6-0.8-1.2-1.2-1.7
		l0,0c-1.6-2.2-3.7-4-6.1-5.2c0,0,0,0,0,0c-1.9-0.8-3.9-1.3-5.9-1.6h0l-5.4-1c-0.1,0-0.2-0.1-0.2-0.1c-0.1-0.1-0.1-0.2-0.1-0.3
		c0-0.1,0.1-0.2,0.1-0.2c0.1-0.1,0.2-0.1,0.3-0.1l5.4,1C872.9,2643.4,874.9,2644,876.8,2644.8"/>
	<path id="Path_92" class="st0" d="M851.1,2634.7L851.1,2634.7c0.5,0.4,1.3,0.9,2.4,1.8c0.9,0.7,1.8,1.3,2.8,1.8l0,0
		c0.6,0.3,1.4,0.8,2.6,1.5c0.1,0,0.1,0.1,0.2,0.2c0,0.1,0,0.2,0,0.3c-0.1,0.2-0.3,0.2-0.5,0.1c-1.1-0.7-2-1.2-2.5-1.5l0,0
		c-1-0.6-1.9-1.2-2.9-1.9l0,0c-1.1-0.8-1.9-1.4-2.4-1.8l0,0c-0.3-0.2-0.6-0.4-0.9-0.6h0c0,0-0.1-0.1-0.1-0.1h0
		c-3.1-2.2-7-2.9-10.7-1.9l0,0c-0.4,0.1-0.8,0.2-1.2,0.3c-0.2,0.1-0.5,0.2-0.7,0.2l0,0c-1.1,0.4-2.1,1.2-2.8,2.1l0,0
		c-0.6,0.9-0.5,2.2,0.3,4c0,0.1,0,0.2,0,0.3c0,0.1-0.1,0.2-0.2,0.2c-0.1,0-0.2,0-0.3,0c-0.1,0-0.2-0.1-0.2-0.2
		c-0.9-2.1-1-3.6-0.2-4.6l0,0c0.8-1.1,1.8-1.9,3.1-2.4c0,0,0,0,0.1,0c0.3-0.1,0.5-0.2,0.8-0.3c0.4-0.1,0.8-0.2,1.2-0.3l0,0
		c3.9-1,8.1-0.3,11.3,2h0c0,0,0.1,0.1,0.1,0.1C850.5,2634.3,850.8,2634.5,851.1,2634.7"/>
	<path id="Path_93" class="st0" d="M828.3,2645c-2.1,0.3-3.1,1.5-3.1,3.7c-0.1,1.9,0.6,3.8,2,5.1c1.3,1.1,2.3,2.6,2.9,4.2
		c0.7,1.6,1.7,3,3,4.2c0.1,0.1,0.2,0.3,0,0.5c0,0,0,0,0,0c-0.1,0.1-0.4,0.2-0.5,0c-1.4-1.3-2.5-2.8-3.2-4.5l0,0
		c-0.6-1.5-1.5-2.9-2.7-3.9c-1.5-1.5-2.3-3.5-2.2-5.6c-0.1-2.6,1.1-4.1,3.7-4.4c2.1-0.3,3.4-0.8,3.8-1.3c0-0.1,0.1-0.1,0.2-0.2
		c0.1,0,0.2,0,0.3,0c0.1,0,0.1,0.1,0.2,0.2c0,0.1,0,0.2,0,0.3C832.2,2644.1,830.7,2644.7,828.3,2645"/>
	<path id="Path_94" class="st0" d="M837.6,2669.8c0-0.1,0-0.2,0-0.3c0-0.1,0.1-0.2,0.2-0.2c0.1,0,0.2,0,0.3,0c0.1,0,0.2,0.1,0.2,0.2
		c0.2,0.4,0.4,0.9,0.5,1.4l0,0c0.3,0.9,0.6,2.3,1.1,4.3l0,0c0.1,0.5,0.2,1.2,0.4,2.2c0.1,0.7,0.4,1.4,0.8,2.1l0,0
		c0.5,0.8,1.1,1.4,1.8,1.9c0.7,0.4,1.5,1,2.5,1.5c1.5,0.9,2.7,2.2,3.5,3.7c0.9,1.6,2.3,4,4.3,7.2c0.6,1.2,1.7,2.2,3,2.6
		c1.2,0.2,2.4-0.3,3.2-1.1c1.5-1.5,3.6-2,5.6-1.4c0.1,0,0.2,0.1,0.2,0.2c0,0.1,0.1,0.2,0,0.3c0,0.1-0.1,0.2-0.2,0.2
		c-0.1,0-0.2,0.1-0.3,0c-1.8-0.5-3.7,0-5,1.3c-1,1.1-2.4,1.5-3.9,1.3c-1.2-0.3-2.3-1.3-3.4-3c-2-3.2-3.4-5.6-4.3-7.2
		c-0.7-1.4-1.8-2.6-3.2-3.5c-1-0.6-1.8-1.1-2.5-1.6c-0.8-0.5-1.5-1.3-2-2.1c0,0,0,0,0,0c-0.4-0.7-0.7-1.5-0.8-2.3c0,0,0,0,0,0
		c-0.2-1-0.3-1.7-0.4-2.1l0,0c-0.4-2-0.8-3.4-1.1-4.3l0,0C838,2670.7,837.8,2670.2,837.6,2669.8"/>
	<path id="Path_95" class="st0" d="M845.7,2654c0.1,0,0.1,0,0.2,0.1c0.1,0,0.1,0.1,0.1,0.2c0,0.1,0,0.1-0.1,0.2
		c0,0.1-0.1,0.1-0.2,0.1c-0.1,0-0.1,0-0.2-0.1c0,0-0.1-0.1-0.1-0.2c0-0.1,0-0.1,0.1-0.2C845.6,2654,845.7,2654,845.7,2654
		 M870.6,2662.3c0,0-0.1,0.1-0.1,0.1l0,0c0,0-0.1,0-0.1,0c0,0-0.1-0.1-0.1-0.1c0,0,0-0.1,0-0.1c0,0,0-0.1,0.1-0.1c0,0,0,0,0,0
		c0,0,0.1,0,0.1,0c0,0,0.1,0,0.1,0.1C870.6,2662.2,870.6,2662.2,870.6,2662.3 M866.9,2658.3c0,0,0,0.1,0,0.2c0,0,0,0,0,0.1
		c0,0,0,0-0.1,0.1c-0.1,0-0.1,0-0.2,0c0,0-0.1-0.1-0.1-0.1c0,0,0-0.1,0-0.2c0,0,0,0,0,0c0,0,0.1-0.1,0.1-0.1c0.1,0,0.1,0,0.2,0
		C866.9,2658.2,866.9,2658.2,866.9,2658.3 M872.1,2660.2C872.2,2660.2,872.2,2660.3,872.1,2660.2c0.1,0.1,0.1,0.2,0.1,0.2
		c0,0-0.1,0.1-0.1,0.1c0,0-0.1,0-0.1,0c0,0,0,0,0,0c0,0,0,0-0.1-0.1c0,0,0-0.1,0-0.1c0,0,0.1-0.1,0.1-0.1
		C872,2660.2,872.1,2660.2,872.1,2660.2C872.1,2660.2,872.1,2660.2,872.1,2660.2 M869.1,2659.9c0,0,0,0.1,0,0.1c0,0,0,0,0,0
		c0,0,0,0-0.1,0.1c0,0-0.1,0-0.1,0c0,0-0.1,0-0.1-0.1c0,0,0-0.1,0-0.1l0,0c0,0,0,0,0.1-0.1C869,2659.8,869.1,2659.8,869.1,2659.9
		C869.1,2659.9,869.1,2659.9,869.1,2659.9 M870.1,2659.5C870.2,2659.5,870.2,2659.6,870.1,2659.5c0.1,0.1,0.1,0.1,0.1,0.1
		c0,0,0,0-0.1,0.1c0,0-0.1,0-0.1,0c0,0,0,0-0.1-0.1c0,0,0-0.1,0-0.1C870,2659.6,870,2659.5,870.1,2659.5
		C870.1,2659.5,870.1,2659.5,870.1,2659.5 M870.7,2653.8C870.7,2653.9,870.6,2653.9,870.7,2653.8c-0.1,0-0.1,0-0.2-0.1
		c0,0,0-0.1,0-0.1c0,0,0-0.1,0.1-0.1c0,0,0.1,0,0.1,0c0,0,0,0,0.1,0.1c0,0,0,0,0,0C870.8,2653.7,870.8,2653.8,870.7,2653.8
		C870.7,2653.8,870.7,2653.8,870.7,2653.8 M867.9,2656.5C867.9,2656.5,867.9,2656.5,867.9,2656.5c0,0.1,0,0.1-0.1,0.1l0,0
		c0,0,0,0,0,0c0,0-0.1,0-0.1-0.1c0,0,0,0,0-0.1c0,0,0,0,0.1-0.1C867.8,2656.4,867.8,2656.4,867.9,2656.5
		C867.8,2656.4,867.8,2656.4,867.9,2656.5C867.9,2656.4,867.9,2656.4,867.9,2656.5 M865.8,2657.6
		C865.8,2657.6,865.8,2657.6,865.8,2657.6c0.1,0.1,0.1,0.1,0,0.1c0,0,0,0,0,0c0,0,0,0,0,0c0,0,0,0,0,0c0,0,0,0,0,0c0,0,0,0,0-0.1
		C865.7,2657.6,865.7,2657.6,865.8,2657.6C865.7,2657.6,865.7,2657.6,865.8,2657.6 M867.2,2654.4L867.2,2654.4
		C867.3,2654.4,867.3,2654.4,867.2,2654.4c0.1,0.1,0.1,0.1,0.1,0.1c0,0,0,0-0.1,0.1c0,0,0,0-0.1,0c0,0,0,0,0,0c0,0-0.1,0-0.1-0.1
		c0,0,0-0.1,0-0.1C867.1,2654.4,867.1,2654.4,867.2,2654.4C867.2,2654.3,867.2,2654.3,867.2,2654.4 M868.2,2653.1c0,0,0-0.1,0-0.1
		c0,0,0.1-0.1,0.1-0.1c0,0,0.1,0,0.1,0h0c0,0,0.1,0,0.1,0.1c0,0,0,0.1,0,0.1c0,0,0,0.1-0.1,0.1c0,0,0,0-0.1,0
		C868.4,2653.2,868.3,2653.2,868.2,2653.1C868.3,2653.2,868.3,2653.2,868.2,2653.1L868.2,2653.1
		C868.2,2653.1,868.2,2653.1,868.2,2653.1 M867.6,2652.1l-0.4-0.3l-0.4,0.2l0.1-0.4l-0.3-0.2h0.4l0.1-0.4l0.1,0.4h0.4l-0.3,0.2
		L867.6,2652.1z M871,2651.8C871,2651.8,871,2651.8,871,2651.8c0.1,0.1,0.1,0.1,0,0.1c0,0,0,0.1-0.1,0.1l0,0c0,0,0,0-0.1,0
		c0,0,0,0,0,0c0,0,0,0-0.1,0l0,0c0,0,0-0.1,0-0.1C870.8,2651.8,870.9,2651.7,871,2651.8C870.9,2651.8,870.9,2651.8,871,2651.8
		C871,2651.8,871,2651.8,871,2651.8 M869.5,2651.5C869.5,2651.5,869.5,2651.5,869.5,2651.5c0,0.1-0.1,0.1-0.2,0.1c0,0,0,0,0,0
		c0,0-0.1,0-0.1-0.1c0,0,0-0.1,0-0.1l0,0c0,0,0-0.1,0.1-0.1c0,0,0.1,0,0.1,0C869.4,2651.3,869.5,2651.3,869.5,2651.5
		C869.5,2651.4,869.5,2651.4,869.5,2651.5 M883.4,2663.3C883.4,2663.3,883.5,2663.3,883.4,2663.3c0.1,0,0.1,0,0.2,0.1
		c0,0,0.1,0.1,0.1,0.2c0,0.1,0,0.1-0.1,0.2c0,0-0.1,0.1-0.2,0.1c-0.1,0-0.1,0-0.2-0.1c0,0-0.1-0.1-0.1-0.2c0-0.1,0-0.1,0.1-0.2
		C883.3,2663.3,883.3,2663.3,883.4,2663.3C883.4,2663.3,883.4,2663.3,883.4,2663.3 M880,2664.8c0,0,0.1,0.1,0.1,0.2
		c0,0.1,0,0.1-0.1,0.2c0,0-0.1,0.1-0.2,0.1c-0.1,0-0.1,0-0.2-0.1c0,0-0.1-0.1-0.1-0.2c0-0.1,0-0.1,0.1-0.2c0,0,0.1-0.1,0.2-0.1
		C879.9,2664.7,879.9,2664.7,880,2664.8 M881.5,2663.3c0.1,0,0.1,0,0.2,0.1c0,0,0.1,0.1,0.1,0.2c0,0.1,0,0.1-0.1,0.2
		c0,0-0.1,0.1-0.2,0.1c-0.1,0-0.1,0-0.2-0.1c0,0-0.1-0.1-0.1-0.2c0-0.1,0-0.1,0.1-0.2C881.3,2663.3,881.4,2663.3,881.5,2663.3
		 M880.4,2660.2c-0.1,0-0.1,0-0.2-0.1c0,0-0.1-0.1-0.1-0.2c0-0.1,0-0.1,0.1-0.2c0,0,0.1-0.1,0.2-0.1c0.1,0,0.1,0,0.2,0.1
		c0,0,0.1,0.1,0.1,0.2c0,0.1,0,0.1-0.1,0.2C880.5,2660.1,880.5,2660.2,880.4,2660.2 M880.8,2658.6c0,0.1,0,0.1-0.1,0.2
		c0,0-0.1,0.1-0.2,0.1c-0.1,0-0.1,0-0.2-0.1c0,0-0.1-0.1-0.1-0.2c0-0.1,0-0.1,0.1-0.2c0,0,0.1-0.1,0.2-0.1c0.1,0,0.1,0,0.2,0.1
		C880.7,2658.5,880.8,2658.5,880.8,2658.6 M877.7,2664.8c0,0,0.1-0.1,0.2-0.1c0.1,0,0.1,0,0.2,0.1c0,0,0.1,0.1,0.1,0.2
		c0,0.1,0,0.1-0.1,0.2c0,0-0.1,0.1-0.2,0.1c-0.1,0-0.1,0-0.2-0.1c0,0-0.1-0.1-0.1-0.2C877.6,2664.9,877.6,2664.8,877.7,2664.8
		 M873.6,2661.5C873.6,2661.5,873.7,2661.5,873.6,2661.5c0.1,0.1,0.1,0.2,0.1,0.2c0,0,0,0,0,0c0,0,0,0-0.1,0c0,0,0,0,0,0
		c0,0,0,0-0.1,0c0,0,0,0,0,0c0,0-0.1,0-0.1-0.1c0,0,0,0,0-0.1c0,0,0,0,0-0.1c0,0,0-0.1,0.1-0.1
		C873.5,2661.5,873.6,2661.5,873.6,2661.5 M874.5,2658.1C874.4,2658.1,874.4,2658.1,874.5,2658.1c-0.1,0-0.1,0-0.1,0c0,0,0,0,0-0.1
		c0,0,0,0,0,0c0,0,0,0,0.1,0c0,0,0,0,0,0C874.5,2658,874.5,2658,874.5,2658.1C874.5,2658.1,874.5,2658.1,874.5,2658.1 M879.4,2660.3
		c0.1,0,0.2,0.1,0.2,0.2c0,0,0,0,0,0c0,0,0,0.1,0,0.1c0,0-0.1,0-0.1,0c0,0-0.1,0-0.1,0c0,0,0-0.1,0-0.1c0,0,0-0.1,0-0.1
		C879.4,2660.3,879.4,2660.3,879.4,2660.3 M876.3,2660.1c0,0-0.1,0.1-0.1,0.1c0,0-0.1,0-0.2,0c0,0-0.1-0.1-0.1-0.1c0,0,0-0.1,0-0.2
		c0,0,0.1-0.1,0.1-0.1c0,0,0.1,0,0.2,0l0,0c0,0,0.1,0.1,0.1,0.1C876.3,2660,876.3,2660.1,876.3,2660.1 M876,2659.1c0,0,0,0.1,0,0.1
		c0,0,0,0.1-0.1,0.1c0,0,0,0,0,0c0,0-0.1,0-0.1,0c0,0-0.1,0-0.1-0.1c0,0,0,0,0,0c0,0,0-0.1,0-0.1c0,0,0,0,0,0
		C875.8,2659.1,875.9,2659,876,2659.1C876,2659.1,876,2659.1,876,2659.1L876,2659.1z M877.3,2658.6c0,0,0,0.1,0,0.1
		c0,0-0.1,0.1-0.1,0.1c0,0-0.1,0-0.1,0c0,0,0,0,0,0c0,0-0.1,0-0.1-0.1c0,0,0-0.1,0-0.1c0,0,0.1-0.1,0.1-0.1c0,0,0.1,0,0.1,0
		C877.2,2658.5,877.2,2658.5,877.3,2658.6L877.3,2658.6 M879.1,2659c0,0.1,0,0.1-0.1,0.2c0,0-0.1,0.1-0.2,0.1c-0.1,0-0.1,0-0.2-0.1
		c0,0-0.1-0.1-0.1-0.2c0-0.1,0-0.1,0.1-0.2c0,0,0.1-0.1,0.2-0.1c0.1,0,0.1,0,0.2,0.1C879.1,2658.9,879.1,2658.9,879.1,2659
		 M877.1,2655.8C877.1,2655.8,877.1,2655.8,877.1,2655.8c-0.1,0-0.2-0.1-0.2-0.1c0,0,0-0.1,0-0.1c0,0,0-0.1,0.1-0.1c0,0,0.1,0,0.1,0
		c0,0,0,0,0.1,0c0,0,0,0,0,0c0,0,0,0.1,0,0.1C877.2,2655.7,877.2,2655.7,877.1,2655.8C877.2,2655.8,877.2,2655.8,877.1,2655.8
		 M874.6,2655.7C874.6,2655.7,874.6,2655.7,874.6,2655.7c-0.1,0.1-0.1,0.1-0.2,0.1c0,0-0.1,0-0.1-0.1c0,0,0-0.1,0-0.1
		c0,0,0-0.1,0.1-0.1c0,0,0.1,0,0.1,0C874.6,2655.5,874.6,2655.5,874.6,2655.7C874.6,2655.6,874.6,2655.6,874.6,2655.7 M873.7,2652.6
		C873.8,2652.6,873.8,2652.6,873.7,2652.6c0.1,0.1,0.1,0.2,0.1,0.2c0,0-0.1,0.1-0.1,0.1c0,0,0,0-0.1,0c0,0-0.1,0-0.1,0
		c-0.1,0-0.1-0.1-0.1-0.2c0,0,0,0,0,0c0,0,0,0,0,0c0,0,0,0,0.1-0.1C873.6,2652.5,873.7,2652.5,873.7,2652.6
		C873.7,2652.5,873.7,2652.6,873.7,2652.6 M876,2652.6c0,0,0,0.1,0,0.1c0,0,0,0.1,0,0.1c0,0,0,0,0,0c0,0-0.1,0-0.1,0c0,0,0,0-0.1,0
		c0,0,0,0,0,0c0,0,0,0,0,0c0,0,0-0.1,0-0.1c0,0,0-0.1,0.1-0.1C875.8,2652.5,875.8,2652.5,876,2652.6
		C875.9,2652.6,875.9,2652.6,876,2652.6C876,2652.6,876,2652.6,876,2652.6"/>
	<path id="Path_96" class="st0" d="M841.4,2638.2C841.4,2638.2,841.4,2638.2,841.4,2638.2c-0.1,0-0.2,0.1-0.2,0.1
		c-0.1,0.1-0.1,0.3,0,0.4c0,0,0,0,0,0c0.1,0.1,0.3,0.1,0.4,0c0.1-0.1,0.1-0.3,0-0.4c0,0,0,0,0,0
		C841.6,2638.3,841.6,2638.3,841.4,2638.2C841.5,2638.3,841.5,2638.2,841.4,2638.2 M841.4,2639.1c-0.2,0-0.3-0.1-0.4-0.2
		c-0.2-0.2-0.2-0.6,0-0.8c0,0,0,0,0,0c0.1-0.1,0.2-0.1,0.3-0.1c0.1,0,0.2,0,0.3,0c0.1,0,0.2,0.1,0.3,0.1c0.2,0.2,0.2,0.6,0,0.8
		c0,0,0,0,0,0C841.7,2639.1,841.6,2639.1,841.4,2639.1 M850.6,2639.2c-0.1,0-0.2,0-0.2,0.1c-0.1,0.1-0.1,0.3,0,0.4c0,0,0,0,0,0
		c0.1,0.1,0.3,0.1,0.4,0c0.1-0.1,0.1-0.3,0-0.4C850.8,2639.2,850.7,2639.2,850.6,2639.2 M850.6,2640c-0.2,0-0.3-0.1-0.4-0.2
		c-0.2-0.2-0.2-0.6,0-0.8c0,0,0,0,0,0c0.2-0.2,0.6-0.2,0.9,0c0.2,0.2,0.2,0.6,0,0.8c0,0,0,0,0,0C851,2640,850.8,2640,850.6,2640
		 M844.4,2641.1h3.8v-2.1h-3.8V2641.1z M848.4,2641.4h-4.2c-0.1,0-0.2-0.1-0.2-0.1v-2.4c0-0.1,0.1-0.2,0.2-0.2h4.2
		c0.1,0,0.2,0.1,0.2,0.2v2.4C848.5,2641.4,848.5,2641.4,848.4,2641.4 M843.4,2641.9h5.7v-3.7h-5.7V2641.9z M849.3,2642.2h-6
		c-0.1,0-0.2-0.1-0.2-0.1c0,0,0,0,0,0v-4c0-0.1,0.1-0.2,0.2-0.2h6c0.1,0,0.2,0.1,0.2,0.2v4C849.4,2642.2,849.3,2642.2,849.3,2642.2
		 M848.8,2647.8C848.8,2647.8,848.7,2647.8,848.8,2647.8c-0.6-0.4-1.2-0.4-1.7,0c-0.1,0-0.1,0-0.2,0c-0.5-0.4-1.2-0.4-1.6,0
		c-0.1,0.1-0.2,0-0.2,0c-0.1-0.1,0-0.2,0-0.2c0,0,0,0,0,0c1.3-0.1,2.5-0.1,3.8,0c0.1,0,0.1,0.1,0,0.2c0,0,0,0,0,0
		C848.9,2647.8,848.8,2647.8,848.8,2647.8 M850.2,2649.2C850.2,2649.2,850.2,2649.2,850.2,2649.2c-0.6-0.4-1.2-0.4-1.7,0
		c-0.1,0-0.1,0-0.2,0c-0.5-0.4-1.2-0.4-1.6,0c-0.1,0.1-0.2,0-0.2,0c-0.1-0.1,0-0.2,0-0.2c0,0,0,0,0,0c1.3-0.1,2.5-0.1,3.8,0
		c0.1,0,0.1,0.1,0,0.2c0,0,0,0,0,0C850.3,2649.2,850.3,2649.2,850.2,2649.2 M867.7,2649.3C867.7,2649.3,867.8,2649.3,867.7,2649.3
		l0.7,0.4l-0.2-0.6c0-0.1,0-0.1,0.1-0.2l0.4-0.3h-0.5c-0.1,0-0.1,0-0.1-0.1l-0.2-0.5l-0.2,0.5c0,0.1-0.1,0.1-0.1,0.1h-0.5l0.4,0.3
		c0.1,0,0.1,0.1,0.1,0.2l-0.2,0.6L867.7,2649.3C867.6,2649.3,867.7,2649.3,867.7,2649.3 M868.7,2650.3
		C868.6,2650.3,868.6,2650.3,868.7,2650.3l-1-0.6l-0.9,0.6c-0.1,0-0.1,0-0.2,0c-0.1,0-0.1-0.1,0-0.2l0.3-0.9l-0.7-0.5
		c-0.1,0-0.1-0.1-0.1-0.2c0-0.1,0.1-0.1,0.1-0.1h0.9l0.3-0.8c0-0.1,0.1-0.1,0.1-0.1c0.1,0,0.1,0,0.1,0.1l0.3,0.8h0.9
		c0.1,0,0.1,0,0.1,0.1c0,0.1,0,0.1-0.1,0.2l-0.7,0.5l0.4,0.9C868.8,2650.1,868.8,2650.2,868.7,2650.3
		C868.7,2650.3,868.7,2650.3,868.7,2650.3 M847.8,2650.3C847.8,2650.3,847.8,2650.3,847.8,2650.3c-0.6-0.4-1.2-0.4-1.7,0
		c-0.1,0-0.1,0-0.2,0c-0.5-0.4-1.2-0.4-1.6,0c-0.1,0.1-0.2,0-0.2,0c-0.1-0.1,0-0.2,0-0.2c0,0,0,0,0,0c1.3-0.1,2.5-0.1,3.8,0
		c0.1,0,0.1,0.1,0,0.2c0,0,0,0,0,0C847.9,2650.3,847.9,2650.3,847.8,2650.3 M875.1,2650.9C875.1,2650.9,875.2,2650.9,875.1,2650.9
		l0.3,0.2l-0.1-0.2c0-0.1,0-0.1,0.1-0.2l0.1-0.1h-0.2c-0.1,0-0.1,0-0.1-0.1l-0.1-0.2l-0.1,0.2c0,0.1-0.1,0.1-0.1,0.1h-0.2l0.1,0.1
		c0.1,0,0.1,0.1,0.1,0.2l-0.1,0.2L875.1,2650.9C875,2650.9,875.1,2650.9,875.1,2650.9 M875.7,2651.6
		C875.7,2651.6,875.7,2651.6,875.7,2651.6l-0.6-0.4l-0.5,0.3c-0.1,0-0.1,0-0.2,0c-0.1,0-0.1-0.1,0-0.2l0.2-0.5l-0.4-0.3
		c-0.1,0-0.1-0.1-0.1-0.2c0-0.1,0.1-0.1,0.1-0.1h0.5l0.2-0.5c0-0.1,0.1-0.1,0.1-0.1c0.1,0,0.1,0,0.1,0.1l0.2,0.5h0.5
		c0.1,0,0.1,0,0.1,0.1c0,0.1,0,0.1-0.1,0.2l-0.4,0.3l0.2,0.6C875.9,2651.5,875.9,2651.5,875.7,2651.6
		C875.8,2651.6,875.8,2651.6,875.7,2651.6 M864.5,2651.6C864.6,2651.6,864.6,2651.6,864.5,2651.6l0.3,0.2l-0.1-0.2
		c0-0.1,0-0.1,0.1-0.2l0.1-0.1h-0.2c-0.1,0-0.1,0-0.1-0.1l-0.1-0.2l-0.1,0.2c0,0.1-0.1,0.1-0.1,0.1h-0.2l0.1,0.1
		c0.1,0,0.1,0.1,0.1,0.2l-0.1,0.2L864.5,2651.6C864.5,2651.6,864.5,2651.6,864.5,2651.6 M865.1,2652.3
		C865.1,2652.3,865.1,2652.3,865.1,2652.3l-0.6-0.4l-0.5,0.3c-0.1,0-0.1,0-0.2,0c-0.1,0-0.1-0.1,0-0.2l0.2-0.5l-0.4-0.3
		c-0.1,0-0.1-0.1-0.1-0.2c0-0.1,0.1-0.1,0.1-0.1h0.5l0.2-0.5c0-0.1,0.1-0.1,0.1-0.1l0,0c0.1,0,0.1,0,0.1,0.1l0.2,0.5h0.5
		c0.1,0,0.1,0,0.1,0.1c0,0.1,0,0.1-0.1,0.2l-0.4,0.3l0.2,0.6C865.3,2652.2,865.3,2652.2,865.1,2652.3
		C865.2,2652.3,865.2,2652.3,865.1,2652.3 M871.8,2653.4c-0.1,0-0.1-0.1-0.2-0.1c0-0.8-0.2-1.6-0.6-2.3c0-0.1-0.1-0.1-0.1-0.2
		c0-0.1,0-0.2,0-0.2c0,0,0,0,0,0c0.1,0,0.2,0,0.2,0c0,0.1,0.1,0.1,0.1,0.2c0.4,0.8,0.6,1.6,0.7,2.4
		C871.9,2653.4,871.9,2653.4,871.8,2653.4C871.8,2653.4,871.8,2653.4,871.8,2653.4L871.8,2653.4 M870.2,2654.3c0,0-0.1,0-0.1-0.1
		c-0.5-0.8-1.2-1.3-2-1.6c-0.1,0-0.1-0.1-0.1-0.2c0,0,0,0,0,0c0-0.1,0.1-0.1,0.2-0.1c0.9,0.3,1.7,0.9,2.2,1.7
		C870.4,2654.1,870.4,2654.2,870.2,2654.3C870.3,2654.3,870.3,2654.3,870.2,2654.3C870.3,2654.3,870.2,2654.3,870.2,2654.3
		 M874,2655.6c-0.1,0-0.1,0-0.1-0.1c0-0.1,0-0.2,0.1-0.2c0.9-0.4,1.6-1.1,2.2-1.9c0-0.1,0.1-0.1,0.2-0.1c0.1,0,0.1,0.1,0.1,0.2
		c0,0,0,0,0,0C875.9,2654.4,875.1,2655.1,874,2655.6C874.1,2655.6,874.1,2655.6,874,2655.6 M872.1,2655.6c-0.1,0-0.2-0.1-0.2-0.2
		c0,0,0,0,0-0.1c0.7-1.3,0.8-2.8,0.3-4.2c0-0.1,0-0.2,0.1-0.2c0,0,0,0,0,0c0.1,0,0.2,0,0.2,0.1c0.5,1.4,0.4,3-0.3,4.4
		C872.2,2655.5,872.2,2655.6,872.1,2655.6 M871.8,2655.8c-0.1,0-0.1-0.1-0.2-0.1c-0.1-1.3-0.6-2.6-1.6-3.5c-0.1-0.1-0.1-0.1,0-0.2
		c0,0,0,0,0,0c0.1-0.1,0.2-0.1,0.2,0c1,1,1.7,2.3,1.7,3.7C871.9,2655.7,871.9,2655.8,871.8,2655.8
		C871.8,2655.8,871.8,2655.8,871.8,2655.8L871.8,2655.8 M871.1,2655.9c0,0-0.1,0-0.1,0c-0.9-1-2.1-1.6-3.4-1.9
		c-0.1,0-0.1-0.1-0.1-0.2c0,0,0,0,0,0c0-0.1,0.1-0.1,0.2-0.1c1.4,0.3,2.6,0.9,3.5,2c0.1,0.1,0.1,0.1,0,0.2c0,0,0,0,0,0
		C871.2,2655.9,871.1,2655.9,871.1,2655.9 M872.5,2656c0,0-0.1,0-0.1-0.1c-0.1-0.1,0-0.2,0-0.2c0,0,0,0,0,0c1.1-0.8,2-1.8,2.5-3.1
		c0-0.1,0.1-0.1,0.2-0.1c0.1,0,0.1,0.1,0.1,0.2c0,0,0,0,0,0C874.6,2654.1,873.7,2655.2,872.5,2656C872.6,2656,872.5,2656,872.5,2656
		 M865.8,2656.5c-0.1,0-0.1,0-0.1-0.1c0-0.1,0-0.2,0-0.2c0,0,0,0,0,0c0.2-0.1,0.4-0.2,0.7-0.2c0.8-0.1,1.6,0,2.4,0.1
		c0.1,0,0.1,0.1,0.1,0.2c0,0.1-0.1,0.1-0.2,0.1c0,0,0,0,0,0c-0.8-0.1-1.5-0.2-2.3-0.1C866.2,2656.4,866,2656.4,865.8,2656.5
		C865.8,2656.5,865.8,2656.5,865.8,2656.5 M870.7,2656.6C870.7,2656.6,870.6,2656.6,870.7,2656.6c-1.2-0.9-2.6-1.3-4-1.3
		c-0.1,0-0.2-0.1-0.2-0.1c0-0.1,0.1-0.2,0.1-0.2l0,0c1.5-0.1,2.9,0.4,4.1,1.3c0.1,0,0.1,0.1,0,0.2c0,0,0,0,0,0
		C870.8,2656.6,870.8,2656.6,870.7,2656.6 M872.6,2656.7c-0.1,0-0.1-0.1-0.2-0.1c0-0.1,0.1-0.2,0.1-0.2c0,0,0,0,0,0
		c2-0.2,3.3-0.6,3.9-1.2c0.1-0.1,0.2-0.1,0.2,0c0.1,0.1,0.1,0.1,0,0.2c0,0,0,0,0,0C876,2656.1,874.7,2656.6,872.6,2656.7
		L872.6,2656.7 M862.6,2656.8L862.6,2656.8c-0.1,0-0.1,0-0.2-0.1l-0.5-0.8l-0.5,0.8c0,0-0.1,0.1-0.1,0.1c-0.1,0-0.1,0-0.1-0.1
		l-0.5-0.8l-0.5,0.8c0,0.1-0.1,0.1-0.2,0.1c-0.1,0-0.1-0.1-0.1-0.2c0,0,0,0,0,0l0.6-1c0-0.1,0.1-0.1,0.2,0c0,0,0,0,0,0l0.5,0.8
		l0.5-0.8c0,0,0.1-0.1,0.1-0.1l0,0c0.1,0,0.1,0,0.1,0.1l0.5,0.8l0.5-0.8c0,0,0.1-0.1,0.1-0.1l0,0c0.1,0,0.1,0,0.1,0.1l0.5,0.8
		l0.5-0.8c0,0,0.1-0.1,0.1-0.1l0,0c0.1,0,0.1,0,0.1,0.1l0.6,1c0,0.1,0,0.2,0,0.2c0,0,0,0,0,0c-0.1,0-0.2,0-0.2-0.1l-0.5-0.8
		l-0.5,0.8c-0.1,0.1-0.2,0.1-0.2,0c0,0,0,0,0,0l-0.5-0.8l-0.5,0.8C862.7,2656.8,862.6,2656.8,862.6,2656.8 M875.6,2657
		c-0.2,0-0.4,0-0.6,0c-0.1,0-0.1-0.1-0.1-0.2s0.1-0.1,0.2-0.1l0,0c0.9,0.1,1.7,0,2.5-0.3c0.1,0,0.2,0,0.2,0.1c0,0.1,0,0.2-0.1,0.2
		c0,0,0,0,0,0C877,2656.9,876.3,2657.1,875.6,2657 M866.8,2657.9c0,0-0.1,0-0.1,0c-0.1-0.1-0.1-0.1,0-0.2c0,0,0,0,0,0
		c0.7-0.7,2.1-1,4.2-0.8c0.1,0,0.1,0.1,0.1,0.2c0,0,0,0,0,0c0,0.1-0.1,0.1-0.2,0.1c-2-0.1-3.3,0.1-4,0.8
		C866.9,2657.9,866.8,2657.9,866.8,2657.9 M876.4,2658.1c-1.3-0.1-2.5-0.4-3.7-0.9c-0.1,0-0.1-0.1-0.1-0.2c0,0,0,0,0,0
		c0-0.1,0.1-0.1,0.2-0.1c2.1,0.8,3.5,1.1,4.3,0.8c0.1,0,0.2,0,0.2,0.1c0,0.1,0,0.2-0.1,0.2c0,0,0,0,0,0
		C877,2658,876.7,2658.1,876.4,2658.1 M862.2,2659.2h0.7l-0.3-0.6L862.2,2659.2z M863.2,2659.5h-1.2c-0.1,0-0.1,0-0.1-0.1
		c0,0,0-0.1,0-0.2l0.6-1c0,0,0.1-0.1,0.1-0.1c0.1,0,0.1,0,0.1,0.1l0.6,1c0,0,0,0.1,0,0.2C863.3,2659.4,863.2,2659.5,863.2,2659.5
		 M866.7,2659.6C866.7,2659.6,866.7,2659.6,866.7,2659.6c-0.2-0.1-0.2-0.2-0.1-0.2c0,0,0,0,0,0c0.6-0.7,1.5-1.3,2.4-1.6
		c0.1,0,0.2,0,0.2,0.1c0,0.1,0,0.2-0.1,0.2c0,0,0,0,0,0c-0.9,0.3-1.7,0.8-2.2,1.5C866.8,2659.6,866.8,2659.6,866.7,2659.6
		 M880.9,2658.1C880.9,2658.2,880.9,2658.2,880.9,2658.1c0.1,0.1,0.2,0.1,0.2,0.2c0,0,0.1-0.1,0.1-0.1c0.1-0.1,0.2-0.2,0.3-0.4
		c0,0,0-0.1,0-0.1c0,0-0.1,0-0.1,0C881.2,2657.8,881.1,2657.9,880.9,2658.1C880.9,2658.1,880.9,2658.1,880.9,2658.1 M879.6,2657.8
		c0,0,0,0.1,0,0.1c0.1,0.1,0.2,0.3,0.3,0.4c0,0,0.1,0.1,0.1,0.1c0-0.1,0.1-0.1,0.2-0.2c0,0-0.1-0.1-0.1-0.1
		c-0.1-0.1-0.2-0.2-0.4-0.3C879.7,2657.8,879.6,2657.8,879.6,2657.8L879.6,2657.8z M880.6,2658.9L880.6,2658.9 M880.2,2658.7
		c0,0,0,0.1,0.1,0.1c0,0,0.1,0.1,0.1,0.1c0,0,0.1,0,0.1,0c0,0,0,0,0.1,0h0c0,0,0.1,0,0.1-0.1c0,0,0.1-0.1,0.1-0.1
		c0,0,0.1-0.1,0.1-0.1c0,0,0,0,0,0c0-0.1,0-0.1-0.1-0.1c0,0-0.1-0.1-0.1-0.1h0c0,0-0.1,0-0.1-0.1l0,0c0,0-0.1,0.1-0.1,0.1
		c0,0-0.1,0-0.1,0.1c0,0-0.1,0.1-0.1,0.1C880.2,2658.6,880.2,2658.6,880.2,2658.7C880.2,2658.7,880.2,2658.7,880.2,2658.7 M880,2659
		c0,0-0.1,0.1-0.1,0.1c-0.1,0.1-0.2,0.2-0.3,0.4c0,0,0,0.1,0,0.1c0,0,0.1,0,0.1,0c0.1-0.1,0.3-0.1,0.4-0.3c0,0,0.1-0.1,0.1-0.1
		C880.2,2659.1,880.1,2659.1,880,2659C880.1,2659,880,2659,880,2659 M880.8,2659.1c0,0,0.1,0.1,0.1,0.1c0.1,0.1,0.2,0.2,0.4,0.3
		c0,0,0.1,0,0.1,0c0,0,0-0.1,0-0.1c-0.1-0.2-0.2-0.3-0.4-0.5c0,0,0,0.1-0.1,0.1C880.9,2659.1,880.9,2659.1,880.8,2659.1
		 M881.4,2659.9L881.4,2659.9c-0.1,0-0.2,0-0.2-0.1c-0.2-0.1-0.3-0.2-0.5-0.3c-0.1-0.1-0.1-0.2-0.2-0.2c0,0,0,0,0,0l0,0
		c0,0.1-0.1,0.2-0.2,0.2c-0.1,0.1-0.3,0.2-0.5,0.3c-0.1,0-0.2,0.1-0.3,0.1h0c0,0-0.1,0-0.1,0l0,0l0,0c0,0,0-0.1,0-0.1
		c0-0.1,0-0.2,0.1-0.3c0.1-0.2,0.2-0.3,0.3-0.5c0.1-0.1,0.1-0.1,0.2-0.2l0,0l0,0c-0.1,0-0.2-0.1-0.2-0.2c-0.1-0.1-0.3-0.3-0.3-0.5
		c-0.1-0.1-0.1-0.2-0.1-0.4c0,0,0,0,0,0c0,0,0-0.1,0.1-0.1c0,0,0,0,0.1,0c0,0,0,0,0.1,0c0.1,0,0.3,0,0.4,0.1
		c0.2,0.1,0.3,0.2,0.5,0.3c0.1,0.1,0.1,0.1,0.2,0.2l0,0l0,0c0,0,0,0,0-0.1c0.1-0.1,0.1-0.2,0.2-0.2c0.1-0.1,0.3-0.2,0.5-0.3
		c0.1,0,0.2-0.1,0.3-0.1c0,0,0.1,0,0.1,0c0.1,0,0.1,0.1,0.1,0.1c0,0,0,0,0,0.1c0,0.1,0,0.2-0.1,0.3c-0.1,0.2-0.2,0.3-0.3,0.5
		c-0.1,0.1-0.2,0.1-0.2,0.2l-0.1,0l0,0l0,0c0.1,0.1,0.2,0.1,0.2,0.2c0.1,0.1,0.3,0.3,0.3,0.4c0,0.1,0.1,0.1,0.1,0.2c0,0,0,0.1,0,0.1
		c0,0,0,0.1,0,0.1c0,0,0,0,0,0c0,0-0.1,0-0.1,0c0,0,0,0,0,0C881.5,2659.9,881.5,2659.9,881.4,2659.9 M868.1,2660.5
		c-0.1,0-0.2-0.1-0.2-0.1c0,0,0,0,0,0c0.3-1,1.3-2,3-3c0.1,0,0.2,0,0.2,0.1c0,0.1,0,0.2,0,0.2c0,0,0,0,0,0c-1.7,1-2.6,1.9-2.9,2.8
		C868.3,2660.5,868.2,2660.5,868.1,2660.5 M875.3,2661.1c-0.1,0-0.1,0-0.2-0.1c-0.5-1.2-1.3-2.3-2.4-3c-0.1-0.1-0.1-0.1,0-0.2
		c0,0,0,0,0,0c0.1-0.1,0.2-0.1,0.2,0c1.5,1.2,2.3,2.2,2.5,3.1C875.4,2661,875.4,2661.1,875.3,2661.1
		C875.3,2661.1,875.3,2661.1,875.3,2661.1 M863.2,2660.9h0.7l-0.3-0.6L863.2,2660.9z M864.2,2661.2h-1.2c-0.1,0-0.1,0-0.1-0.1
		c0,0,0-0.1,0-0.2l0.6-1c0,0,0.1-0.1,0.1-0.1c0.1,0,0.1,0,0.1,0.1l0.6,1c0,0,0,0.1,0,0.2C864.3,2661.2,864.2,2661.2,864.2,2661.2
		 M861.1,2660.9h0.7l-0.4-0.6L861.1,2660.9z M862.1,2661.2h-1.2c-0.1,0-0.1,0-0.1-0.1c0,0,0-0.1,0-0.2l0.6-1c0,0,0.1-0.1,0.1-0.1
		l0,0c0.1,0,0.1,0,0.1,0.1l0.6,1c0,0,0,0.1,0,0.2C862.2,2661.2,862.2,2661.2,862.1,2661.2 M872.8,2661.7
		C872.8,2661.7,872.8,2661.7,872.8,2661.7c-0.1,0-0.2-0.1-0.2-0.2c0,0,0,0,0,0c0.2-0.7-0.1-2-1-3.9c0-0.1,0-0.2,0.1-0.2c0,0,0,0,0,0
		c0.1,0,0.2,0,0.2,0.1c0.9,2.1,1.2,3.4,1,4.1C872.9,2661.6,872.8,2661.7,872.8,2661.7 M869.8,2661.8
		C869.7,2661.8,869.7,2661.8,869.8,2661.8c-0.2-0.1-0.2-0.2-0.1-0.2c0,0,0,0,0,0c0.8-1.1,1.3-2.3,1.4-3.7c0-0.1,0.1-0.1,0.2-0.1
		c0.1,0,0.1,0.1,0.1,0.2c0,0,0,0,0,0c-0.1,1.4-0.6,2.7-1.5,3.8C869.9,2661.8,869.8,2661.8,869.8,2661.8 M874.3,2662.2
		C874.3,2662.2,874.3,2662.2,874.3,2662.2c-0.1,0-0.2-0.1-0.2-0.2c0,0,0,0,0,0c0.1-0.3,0-0.8-0.8-2.1c0-0.1,0-0.2,0.1-0.2
		c0.1,0,0.2,0,0.2,0.1c0.5,0.7,0.8,1.5,0.8,2.3C874.5,2662.1,874.4,2662.2,874.3,2662.2 M871,2662.3
		C870.9,2662.3,870.9,2662.3,871,2662.3c-0.2-0.1-0.2-0.2-0.1-0.2c0,0,0,0,0,0c0.4-0.7,0.6-1.5,0.5-2.3c0-0.1,0.1-0.2,0.2-0.1l0,0
		l0,0c0.1,0,0.2,0.1,0.2,0.1c0,0,0,0,0,0c0.1,0.9-0.1,1.7-0.6,2.5C871.1,2662.3,871,2662.3,871,2662.3 M878.8,2663.7L878.8,2663.7
		c-0.3,0-0.7-0.1-1-0.2c-0.1,0-0.1-0.1-0.1-0.2c0,0,0,0,0,0c0-0.1,0.1-0.1,0.2-0.1c0.2,0.1,0.5,0.2,0.8,0.2c0.3,0,0.6-0.1,0.8-0.2
		c0.1,0,0.2,0,0.2,0.1c0,0.1,0,0.2-0.1,0.2c0,0,0,0,0,0C879.5,2663.6,879.1,2663.7,878.8,2663.7 M882.4,2665.4L882.4,2665.4
		c-0.1,0-0.2,0-0.3,0c0,0-0.1,0-0.1,0c-0.2,0-0.4-0.1-0.6-0.2c-0.1,0-0.1-0.1-0.1-0.2c0-0.1,0.1-0.1,0.2-0.1
		c0.2,0.1,0.3,0.1,0.5,0.2c0,0,0.1,0,0.1,0c0.1,0,0.1,0,0.2,0c0.1,0,0.2,0,0.2,0c0.2,0,0.4-0.1,0.6-0.2c0.1,0,0.2,0,0.2,0.1
		c0,0.1,0,0.2-0.1,0.2c0,0,0,0,0,0c-0.2,0.1-0.5,0.2-0.7,0.2C882.6,2665.4,882.5,2665.4,882.4,2665.4 M846.9,2663.6
		C846.9,2663.6,846.9,2663.6,846.9,2663.6c0.1,0,0.2,0,0.3,0c0.1,0,0.1-0.1,0.2-0.1c0,0,0,0,0-0.1c0,0,0,0,0,0v0c0,0,0,0-0.1,0
		c-0.1,0-0.2,0-0.2,0.1c-0.1,0-0.1,0.1-0.1,0.1C846.8,2663.5,846.8,2663.6,846.9,2663.6L846.9,2663.6
		C846.8,2663.6,846.9,2663.6,846.9,2663.6 M847.9,2665.5c0,0-0.1,0-0.1-0.1l-1.2-1.6c-0.1-0.1-0.2-0.3-0.1-0.5
		c0.1-0.1,0.2-0.2,0.3-0.3c0.1-0.1,0.3-0.1,0.4-0.1c0.1,0,0.3,0.1,0.3,0.2l0,0c0,0,0,0,0,0c0,0,0,0.1,0,0.1c0,0.1,0,0.1,0,0.2
		c-0.1,0.1-0.2,0.2-0.3,0.3c-0.1,0-0.1,0.1-0.2,0.1l1,1.3C848.1,2665.3,848.1,2665.4,847.9,2665.5
		C848,2665.4,848,2665.4,847.9,2665.5C848,2665.4,848,2665.5,847.9,2665.5 M844.4,2665.1c0,0-0.1,0-0.1,0c-0.1,0-0.1,0-0.1,0.1
		s0,0,0,0.1c0,0.1,0.1,0.1,0.2,0.1c0.1,0,0.1,0,0.2,0c0,0,0,0,0.1,0l0-0.1c0,0,0,0,0-0.1c-0.1-0.1-0.1-0.1-0.2-0.1
		C844.5,2665.1,844.4,2665.1,844.4,2665.1 M844.5,2665.7c-0.1,0-0.1,0-0.2,0c-0.1,0-0.3-0.1-0.3-0.2c-0.1-0.1-0.1-0.4,0-0.5
		c0,0,0.1-0.1,0.2-0.1c0.1,0,0.3-0.1,0.4,0c0.1,0,0.2,0.1,0.3,0.1l0.5-1.5c0-0.1,0.1-0.1,0.2-0.1c0.1,0,0.1,0.1,0.1,0.1
		c0,0.2,0,0.4,0.1,0.5c0.1,0.1,0.2,0.3,0.2,0.5c0,0.2-0.2,0.3-0.3,0.3c-0.1,0-0.2,0-0.2-0.1c0-0.1,0-0.2,0.1-0.2c0,0,0,0,0,0
		c0.1,0,0.1,0,0.1-0.1s0-0.1-0.1-0.2c0,0-0.1-0.1-0.1-0.1l-0.4,1.3v0l0,0.1c0,0,0,0,0,0c-0.1,0.1-0.1,0.1-0.2,0.2
		C844.7,2665.7,844.6,2665.7,844.5,2665.7 M849,2663.9l0.1,0.1l1-0.6l-0.1-0.1L849,2663.9z M850.7,2664.9c-0.1,0-0.1,0-0.2,0.1
		c-0.1,0-0.1,0.1-0.1,0.1c0,0.1,0,0.1,0,0.1c0,0,0,0,0.1,0.1c0.1,0,0.1,0,0.2-0.1c0.1,0,0.1-0.1,0.2-0.1c0,0,0,0,0-0.1c0,0,0,0,0,0
		c0,0,0,0,0,0C850.9,2665,850.8,2665,850.7,2664.9L850.7,2664.9 M849.4,2665.6c-0.1,0-0.1,0-0.2,0.1c-0.1,0-0.1,0.1-0.1,0.1
		c0,0.1,0,0.1,0,0.1c0,0,0,0,0.1,0.1c0.1,0,0.1,0,0.2-0.1c0.1,0,0.1-0.1,0.2-0.1c0,0,0,0,0-0.1l0,0
		C849.5,2665.7,849.5,2665.6,849.4,2665.6L849.4,2665.6 M849.2,2666.3L849.2,2666.3c-0.2,0-0.3-0.1-0.4-0.2c-0.1-0.1-0.1-0.3,0-0.4
		c0.1-0.1,0.2-0.2,0.3-0.3c0.1-0.1,0.2-0.1,0.3-0.1l-0.5-1.1l0,0l-0.2-0.4c0-0.1,0-0.2,0.1-0.2l1.3-0.7c0,0,0.1,0,0.1,0
		c0,0,0.1,0,0.1,0.1l0.2,0.4l0,0l0.7,1.5c0,0,0,0,0,0c0,0,0,0.1,0,0.1c0,0.1,0,0.1,0,0.2c-0.1,0.1-0.2,0.2-0.3,0.3
		c-0.1,0.1-0.3,0.1-0.4,0.1c-0.1,0-0.3-0.1-0.3-0.2c-0.1-0.1-0.1-0.3,0-0.4c0.1-0.1,0.2-0.2,0.3-0.3c0.1-0.1,0.2-0.1,0.3-0.1l-0.4-1
		l-1,0.6l0.6,1.3c0,0,0,0,0,0c0,0,0,0.1,0,0.1c0,0,0,0,0,0c0,0.1,0,0.2,0,0.3c-0.1,0.1-0.2,0.2-0.3,0.3
		C849.4,2666.3,849.3,2666.3,849.2,2666.3 M868.3,2671.5C868.3,2671.5,868.2,2671.5,868.3,2671.5c-0.2-0.1-0.2-0.2-0.1-0.2
		c0,0,0,0,0,0c0.4-0.5,0.3-1.1-0.1-1.5c0,0,0,0,0,0c-0.3-0.2-0.4-0.5-0.4-0.9c0.1-0.4,0.3-0.7,0.6-0.9c0.1-0.1,0.2,0,0.2,0
		c0.1,0.1,0,0.2,0,0.2c0,0,0,0,0,0c-0.2,0.2-0.4,0.4-0.4,0.7c0,0.2,0.1,0.5,0.3,0.6c0.6,0.5,0.6,1.3,0.2,1.9
		C868.4,2671.5,868.3,2671.5,868.3,2671.5 M869.2,2672.1C869.2,2672.1,869.1,2672.1,869.2,2672.1c-0.2-0.1-0.2-0.2-0.1-0.2
		c0,0,0,0,0,0l0,0c0.4-0.5,0.3-1.1-0.2-1.5c-0.3-0.2-0.4-0.5-0.4-0.9c0.1-0.4,0.3-0.7,0.6-0.9c0.1-0.1,0.2,0,0.2,0
		c0.1,0.1,0,0.2,0,0.2c0,0,0,0,0,0c-0.2,0.2-0.4,0.4-0.4,0.7c0,0.2,0.1,0.5,0.3,0.6c0.5,0.5,0.6,1.3,0.2,1.9l0,0l0,0
		C869.3,2672.1,869.2,2672.1,869.2,2672.1 M845.1,2671.9h1.9v-0.4h-1.9V2671.9z M847.1,2672.2h-2.2c-0.1,0-0.2-0.1-0.2-0.1v-0.7
		c0-0.1,0.1-0.2,0.2-0.1c0,0,0,0,0,0h2.2c0.1,0,0.2,0.1,0.2,0.1c0,0,0,0,0,0v0.7C847.3,2672.1,847.2,2672.2,847.1,2672.2
		 M848.3,2671.9h1.9v-0.4h-1.9L848.3,2671.9z M850.3,2672.2h-2.2c-0.1,0-0.2-0.1-0.2-0.1v-0.7c0-0.1,0.1-0.2,0.2-0.1c0,0,0,0,0,0
		h2.2c0.1,0,0.2,0.1,0.2,0.1v0.7C850.5,2672.1,850.4,2672.2,850.3,2672.2 M851.5,2671.9h1.9v-0.4h-1.9L851.5,2671.9z M853.6,2672.2
		h-2.2c-0.1,0-0.2-0.1-0.2-0.1v-0.7c0-0.1,0.1-0.2,0.2-0.1h2.2c0.1,0,0.2,0.1,0.2,0.1v0.7C853.7,2672.1,853.7,2672.2,853.6,2672.2
		 M854.8,2671.9h1.9v-0.4h-1.9L854.8,2671.9z M856.8,2672.2h-2.2c-0.1,0-0.2-0.1-0.2-0.1v-0.7c0-0.1,0.1-0.2,0.2-0.1c0,0,0,0,0,0
		h2.2c0.1,0,0.2,0.1,0.2,0.1c0,0,0,0,0,0v0.7C857,2672.1,856.9,2672.2,856.8,2672.2C856.8,2672.2,856.8,2672.2,856.8,2672.2
		 M858.1,2671.9h1.9v-0.4h-1.9V2671.9z M860.1,2672.2h-2.2c-0.1,0-0.2-0.1-0.2-0.1c0,0,0,0,0,0v-0.7c0-0.1,0.1-0.2,0.2-0.1l0,0h2.2
		c0.1,0,0.2,0.1,0.2,0.1c0,0,0,0,0,0v0.7C860.3,2672.1,860.2,2672.2,860.1,2672.2 M867.8,2673.9
		C867.8,2673.9,867.7,2673.9,867.8,2673.9c-0.2-0.1-0.2-0.2-0.1-0.2c0,0,0,0,0,0c0.4-0.5,0.3-1.1-0.1-1.5c0,0,0,0,0,0
		c0,0,0,0-0.1-0.1c-0.4-0.4-0.4-1-0.1-1.4c0,0,0.1-0.1,0.1-0.1c0.1-0.1,0.1-0.1,0.2-0.2c0.1-0.1,0.2,0,0.2,0c0.1,0.1,0,0.2,0,0.2
		c0,0,0,0,0,0c-0.1,0.1-0.1,0.1-0.2,0.2c-0.3,0.2-0.4,0.7-0.1,1c0,0,0.1,0.1,0.1,0.1c0,0,0,0,0.1,0.1c0.6,0.5,0.6,1.3,0.2,1.9
		C867.9,2673.9,867.9,2673.9,867.8,2673.9 M857.1,2650.8c0.2,0.2,0.5,0.4,0.6,0.7c0.1-0.5,0.2-1,0.3-1.5c-0.2-0.9-0.7-1.7-1.4-2.4
		c-0.4-0.4-0.9-0.6-1.5-0.6c-0.5,0.1-0.9,0.3-1.1,0.7C855.5,2648.2,856.7,2649.4,857.1,2650.8 M858.4,2650c0.3,0.8,0.4,1.7,0.5,2.6
		c0-1.3,0.6-2.6,1.6-3.4c0.7-0.4,1.5-0.6,2.3-0.4c-1.2-1.1-2.2-1.3-3.3-0.6C859,2648.6,858.6,2649.3,858.4,2650 M857.4,2651.5
		c0.1,0.4,0.2,0.9,0.3,1.3c0-0.3,0-0.5,0.1-0.8C857.6,2651.8,857.5,2651.6,857.4,2651.5 M854.4,2651.7c1.3-0.1,2.6,0.6,3.1,1.8
		c-0.1-0.9-0.3-1.7-0.6-2.5c-0.2-0.2-0.5-0.3-0.8-0.4c-0.6-0.2-1.2-0.1-1.8,0.1c-0.3,0.2-0.6,0.6-0.7,1
		C853.9,2651.7,854.1,2651.7,854.4,2651.7 M858.1,2651.9c0.3,0.6,0.6,1.2,0.7,1.9c-0.1-1.1-0.2-2.1-0.5-3.2
		C858.2,2651,858.1,2651.5,858.1,2651.9 M859.2,2653.6c0,0.1,0,0.3,0,0.4c0.1-0.1,0.1-0.3,0.2-0.4c0.3-0.6,0.8-1,1.4-1.1
		c0.5-0.1,1,0.2,1.2,0.6c0.2-0.5,0.1-1-0.1-1.5c-0.2-0.2-0.4-0.3-0.7-0.3C860.3,2651.3,859.6,2652.1,859.2,2653.6 M855.3,2654.2
		c0.2,0,0.3,0,0.5,0c1,0.2,1.7,1,1.9,2v-0.5c0-0.1,0-0.2,0-0.3v0c0-0.2-0.1-0.5-0.1-0.7c-0.5-0.9-1.5-1.5-2.5-1.5
		c-0.5,0-0.9,0.4-1.2,1.1C854.3,2654.3,854.8,2654.2,855.3,2654.2 M852.4,2658.2v2.7l0,0c0,0,0.1,0,0.1-0.1c0.2-0.2,0.3-0.4,0.4-0.7
		c0.1-0.2,0.1-0.4,0.1-0.6C852.9,2659,852.8,2658.6,852.4,2658.2C852.4,2658.2,852.4,2658.2,852.4,2658.2L852.4,2658.2
		 M845.1,2661.9h0.1v-1.9c0-0.1,0-0.1-0.1-0.1c0,0-0.1,0-0.1,0.1L845.1,2661.9z M852.4,2662.6h1v-0.3h-1L852.4,2662.6z
		 M852.4,2662.9v2.3c0.5-0.3,0.9-0.6,1.2-1.1c1.6-2.2,1.6-5.1,0-7.3c-0.3-0.4-0.7-0.8-1.2-1.1v2.1c0.1,0.1,0.2,0.1,0.2,0.2
		c0,0,0.1,0.1,0.1,0.1c0.4,0.4,0.6,0.9,0.6,1.4c0,0.2,0,0.4-0.1,0.6c-0.1,0.3-0.3,0.6-0.5,0.8c0,0-0.1,0.1-0.1,0.1
		c-0.1,0.1-0.2,0.1-0.2,0.2v0.7h1.1c0.1,0,0.2,0.1,0.2,0.1c0,0,0,0,0,0v0.6c0,0.1-0.1,0.2-0.2,0.2L852.4,2662.9z M852.9,2655.7
		c0.3,0.3,0.7,0.6,0.9,0.9c1.6,2.3,1.6,5.4,0,7.7c-0.3,0.4-0.7,0.8-1.1,1l0,0c0.2,0,0.5-0.1,0.7-0.2c0.6-0.3,1.1-0.7,1.5-1.2
		c1.6-2,1.6-4.9,0-6.9C854.5,2656.3,853.7,2655.9,852.9,2655.7 M860.1,2669.3h4.9v-12.2h-4.9V2669.3z M870.4,2669.3h2.9v-6.1
		c0-0.2-0.2-0.4-0.4-0.4c0,0,0,0,0,0h-5.5c-0.4-0.1-0.8-0.2-1.1-0.5c-0.5-0.4-0.8-0.9-1-1.4v8.4h1.5v-3.6c0,0,0,0,0,0
		c0,0,0-0.1,0-0.1c0-0.2,0.1-0.3,0.2-0.5c0.1-0.1,0.2-0.3,0.3-0.4c0.6-0.7,1.7-0.8,2.4-0.2c0.1,0.1,0.1,0.1,0.2,0.2
		c0.1,0.1,0.2,0.3,0.3,0.4c0.1,0.2,0.1,0.3,0.2,0.5c0,0,0,0.1,0,0.1c0,0,0,0,0,0L870.4,2669.3z M885.9,2668.5v1l0.7,0v-1
		L885.9,2668.5z M875.8,2668.5v1.2l1.1,0v-1.2L875.8,2668.5z M885.9,2669.8v1l0.7,0v-1L885.9,2669.8z M875.8,2670v1.3l1.1-0.1v-1.2
		L875.8,2670z M885.9,2671.1v1l0.7-0.1v-1L885.9,2671.1z M875.8,2671.6v1.3l1.1-0.1v-1.3L875.8,2671.6z M885.9,2672.4v0.9l0.7-0.1
		v-0.9L885.9,2672.4z M875.8,2673.2v1.3l1.1-0.1v-1.2L875.8,2673.2z M885.9,2673.6v1l0.7-0.1v-1L885.9,2673.6z M877.2,2674.5v1.3
		l8.3-1.2v-6.2h-8.3V2674.5z M875.8,2674.8v1.2l1.1-0.2v-1.2L875.8,2674.8z M861.3,2677.1L861.3,2677.1c-0.5,0-0.9,0.2-1,0.6
		c-0.1,0.4-0.2,0.8-0.1,1.3c0.1,0.4,0.4,0.6,0.8,0.6h0.9v-1.9c0-0.1,0-0.3-0.1-0.4C861.6,2677.2,861.4,2677.1,861.3,2677.1
		L861.3,2677.1z M866.5,2679.9h3.5c0.6-0.5,1-1.3,0.9-2.1h-4.5L866.5,2679.9z M866,2680.7h3.3c0.1-0.1,0.3-0.3,0.4-0.4h-3.3
		c-0.1,0-0.2-0.1-0.2-0.1v-2.3h-1.9c0,0.9,0.4,1.7,1,2.2C865.5,2680.2,865.8,2680.4,866,2680.7 M853.1,2682.7h1.8l-0.9-1.4
		L853.1,2682.7z M855.4,2682.7h1.8l-0.9-1.4L855.4,2682.7z M857.8,2682.7h1.8l-0.9-1.4L857.8,2682.7z M861.1,2683h-8.3
		c-0.1,0-0.1,0-0.1-0.1c0,0,0-0.1,0-0.2l1.1-1.8l-0.4-0.6c0-0.1,0-0.2,0-0.2c0,0,0,0,0,0c0.1,0,0.2,0,0.2,0.1l0.2,0.3v-0.5l-0.4-0.7
		c0-0.1,0-0.2,0-0.2c0,0,0,0,0,0c0.1,0,0.2,0,0.2,0.1l0.2,0.3v-0.4c0-0.1,0.1-0.2,0.2-0.2c0.1,0,0.2,0.1,0.2,0.2v0.4l0.2-0.3
		c0-0.1,0.1-0.1,0.2,0c0.1,0,0.1,0.1,0.1,0.2c0,0,0,0,0,0l-0.4,0.7v0.6l0.2-0.3c0-0.1,0.1-0.1,0.2-0.1c0.1,0,0.1,0.1,0.1,0.2
		c0,0,0,0,0,0l-0.4,0.6l1,1.6l1-1.6l-0.4-0.6c0-0.1,0-0.2,0-0.2c0,0,0,0,0,0c0.1,0,0.2,0,0.2,0.1l0.2,0.3v-0.6l-0.4-0.7
		c0-0.1,0-0.2,0-0.2c0,0,0,0,0,0c0.1,0,0.2,0,0.2,0.1l0.2,0.3v-0.4c0-0.1,0.1-0.2,0.2-0.2c0.1,0,0.2,0.1,0.2,0.2v0.4l0.2-0.3
		c0-0.1,0.1-0.1,0.2,0c0.1,0,0.1,0.1,0.1,0.2c0,0,0,0,0,0l-0.4,0.7v0.6l0.2-0.3c0-0.1,0.1-0.1,0.2-0.1c0.1,0,0.1,0.1,0.1,0.2
		c0,0,0,0,0,0l-0.4,0.6l1,1.6l1-1.6l-0.4-0.6c0-0.1,0-0.2,0-0.2c0,0,0,0,0,0c0.1,0,0.2,0,0.2,0.1l0.2,0.3v-0.6l-0.4-0.7
		c0-0.1,0-0.2,0-0.2c0,0,0,0,0,0c0.1,0,0.2,0,0.2,0.1l0.2,0.3v-0.4c0-0.1,0.1-0.2,0.2-0.2c0.1,0,0.2,0.1,0.2,0.2v0.4l0.2-0.3
		c0-0.1,0.1-0.1,0.2,0c0.1,0,0.1,0.1,0.1,0.2c0,0,0,0,0,0l-0.4,0.7v0.6l0.2-0.3c0-0.1,0.1-0.1,0.2-0.1c0.1,0,0.1,0.1,0.1,0.2
		c0,0,0,0,0,0l-0.4,0.6l1.1,1.7h1.2c0.5,0,0.7-0.2,0.8-0.7v-2.1H861c-0.5,0-1-0.3-1.1-0.8c-0.1-0.5-0.1-1,0.1-1.4
		c0.2-0.5,0.7-0.8,1.2-0.8c0.3,0,0.5,0,0.8,0.2c0.1,0.2,0.2,0.4,0.2,0.6v1.9h0.4c0.3,0,0.6-0.1,0.6-0.7v-5.7c0,0,0-0.1,0-0.1
		c0.1-0.5,0.4-1,0.8-1.3c0.7-0.5,1.6-0.5,2.3,0c0.1,0.1,0.2,0.2,0.3,0.3c0.3,0.3,0.4,0.6,0.5,1c0,0,0,0.1,0,0.1c0,0,0,0,0,0v2.1
		c0,0.1-0.1,0.2-0.2,0.1c0,0,0,0,0,0H865c0,0,0,0.1,0,0.1c0,0,0.1,0.1,0.3,0.1c0.3,0,0.6,0.3,0.6,0.6c0,0,0,0,0,0
		c0,0.1,0.1,0.3,0.4,0.3c0.1,0,0.1,0.1,0.2,0.1v0.8h4.7c0.1,0,0.2,0.1,0.2,0.2c0,0.8-0.3,1.7-0.8,2.3h2.6v-3.3
		c0-0.1,0.1-0.1,0.1-0.2c0.3,0,0.4-0.2,0.4-0.3c0-0.3,0.3-0.6,0.6-0.6c0,0,0,0,0,0c0.2,0,0.3-0.1,0.3-0.1c0,0,0-0.1,0-0.1h-4.1
		c-0.1,0-0.1,0-0.1-0.1c0-0.1,0-0.1,0-0.2l0.6-0.6h-2.1l0.6,0.6c0,0,0.1,0.1,0,0.2c0,0.1-0.1,0.1-0.1,0.1h-1.6
		c-0.1,0-0.2-0.1-0.2-0.1c0-0.1,0.1-0.2,0.1-0.2c0,0,0,0,0,0h1.3l-0.6-0.6c0,0-0.1-0.1,0-0.2c0-0.1,0.1-0.1,0.1-0.1h2.8
		c0.1,0,0.1,0,0.1,0.1c0,0.1,0,0.1,0,0.2l-0.6,0.6h3.9c0.1,0,0.1,0,0.1,0.1c0.1,0.1,0.1,0.3,0,0.5c-0.1,0.2-0.3,0.3-0.5,0.3
		c-0.2,0-0.3,0.1-0.3,0.3c0,0,0,0,0,0c0,0.3-0.2,0.6-0.6,0.6v3.3c0,0.1-0.1,0.2-0.2,0.2h-3.1c-0.2,0.1-0.3,0.3-0.5,0.4h5.1
		c0.2,0,0.4,0,0.6-0.2c0.1-0.1,0.2-0.3,0.1-0.4v-11.7c0-0.1,0.1-0.2,0.2-0.1c0,0,0,0,0,0H888c0.1,0,0.2,0.1,0.2,0.1c0,0,0,0,0,0v3.9
		c0,0.3,0.1,0.6,0.3,0.8c0.1,0.1,0.3,0.2,0.5,0.1c0,0,0.1,0,0.1,0c0.3,0,0.7-0.2,0.7-0.9v-4c-0.3-0.1-0.5-0.3-0.7-0.4
		c-1-0.7-1.9-1.5-2.5-2.5c-0.1-0.1-0.1-0.2-0.2-0.3c-0.2-0.3-0.4-0.7-0.6-1l-1.8,3.5c0,0.1-0.1,0.1-0.2,0.1c-0.1,0-0.1-0.1-0.1-0.2
		l0.9-5.6c-1.4,0.2-2.8,0.2-4.2,0l0.8,4.6c0,0.1,0,0.1,0,0.1c0,0-0.1,0-0.1,0c-1.4-0.3-2.9-0.3-4.3,0c-0.1,0-0.1,0-0.1,0
		c0,0-0.1-0.1,0-0.1l0.8-3.6h-2.6v6.7c0,0.1-0.1,0.2-0.2,0.1c0,0,0,0,0,0h-4.3c-0.1,0-0.2-0.1-0.2-0.1c0,0,0,0,0,0v-3.7c0,0,0,0,0,0
		c0,0,0,0,0,0c0-0.1-0.1-0.3-0.2-0.4c-0.1-0.1-0.1-0.2-0.2-0.3c-0.5-0.6-1.4-0.6-1.9-0.1c-0.1,0-0.1,0.1-0.1,0.1
		c-0.1,0.1-0.2,0.2-0.2,0.3c-0.1,0.1-0.1,0.3-0.2,0.4c0,0,0,0,0,0.1v3.7c0,0.1-0.1,0.2-0.2,0.1c0,0,0,0,0,0h-8
		c-0.1,0-0.2-0.1-0.2-0.1c0,0,0,0,0,0v-13.7c0,0,0,0,0,0c-0.1-1.1-0.4-2.2-0.8-3.3c-0.1,0.8-0.1,1.7-0.1,2.8v0.2v0
		c0,0.1,0,0.2,0,0.3v13.7c0,0.1-0.1,0.1-0.1,0.1c-0.3,0-0.5,0-0.7-0.2c-0.3-0.4-0.5-0.8-0.5-1.3v-1.3c0-1-0.4-1.1-0.8-1.1h-3.6
		c-0.1,0-0.2-0.1-0.2-0.1v-17.8c0,0,0-0.1,0.1-0.1l3.2-2.3H855l-3.3,2.3v14.5c0,0.1-0.1,0.2-0.2,0.2c-0.1,0-0.2-0.1-0.2-0.2v-14.5
		c0,0,0-0.1,0.1-0.1l3-2.1h-0.3l-3,2.1v13.8c0,0.3,0,0.6-0.2,0.8c-0.2,0.2-0.5,0.3-0.8,0.2h-2.9c-0.1,0-0.2-0.1-0.2-0.1c0,0,0,0,0,0
		v-3.9c0-0.2-0.1-0.2-0.2-0.2c0,0-0.1,0-0.2,0.2v3.9c0,0.1-0.1,0.2-0.2,0.2c0,0,0,0,0,0H843c-0.1,0-0.2-0.1-0.2-0.2v-1.6
		c0-0.2-0.2-0.5-0.8-0.5s-0.8,0.3-0.8,0.5v1.6c0,0.1-0.1,0.2-0.2,0.2c0,0,0,0,0,0h-2c-0.1,0-0.2-0.1-0.2-0.1c0,0,0,0,0,0v-6.8
		c0-1.4,0.8-2.6,2-3.2c0.1-0.1,0.3-0.1,0.4-0.2c0.8-0.3,1.6-0.5,2.4-0.6l0,0c0.6,0,1.2,0,1.8,0c0.2,0,0.4,0,0.5,0.1
		c1.6,0.3,2.5,1.6,2.4,3.8v2.5c0.6,0.3,1.2,0.5,1.9,0.5c0.1,0,0.2,0.1,0.1,0.2c0,0,0,0,0,0c0,0.1-0.1,0.1-0.2,0.1
		c-0.6,0-1.3-0.2-1.9-0.4l0,1.8c0,0.2,0.1,0.3,0.2,0.4c0.1,0.1,0.3,0.2,0.5,0.2c0.2,0,0.4-0.1,0.5-0.2c0.1-0.1,0.2-0.3,0.2-0.5
		c0-0.1,0.1-0.1,0.2-0.1c0.1,0,0.1,0.1,0.1,0.2c0,0,0,0,0,0c0,0.2-0.1,0.5-0.3,0.7c-0.4,0.4-1,0.4-1.4,0.1c-0.2-0.2-0.3-0.4-0.3-0.6
		l0-2c-0.8-0.5-1.3-1.2-1.6-2c0-0.1,0-0.2,0.1-0.2c0,0,0,0,0,0c0.1,0,0.2,0,0.2,0.1c0.3,0.7,0.7,1.3,1.3,1.8v-2.3
		c0-2.1-0.7-3.3-2.2-3.5c-0.2,0-0.3-0.1-0.5-0.1c-0.6-0.1-1.1-0.1-1.7,0c-0.4,0.1-0.7,0.3-1,0.6c-1,0.9-1,2.5-0.1,3.5
		c0,0,0,0,0.1,0.1c0.5,0.5,1.1,0.7,1.8,0.7c0.5,0,0.9-0.1,1.3-0.3c0.1,0,0.2,0,0.2,0.1c0,0.1,0,0.2,0,0.2c0,0,0,0,0,0
		c-0.4,0.3-0.9,0.4-1.5,0.4c-0.8,0-1.5-0.3-2-0.8c-1.1-1-1.1-2.8-0.1-3.9c0,0,0,0,0.1-0.1c0.1-0.1,0.2-0.2,0.3-0.3
		c-0.5,0.1-1,0.2-1.4,0.4c-0.1,0.1-0.2,0.1-0.4,0.2c-1.1,0.6-1.8,1.7-1.8,2.9v6.7h1.7v-1.5c0-0.4,0.3-0.8,1.1-0.8s1.1,0.4,1.1,0.8
		c0,0,0,0,0,0v1.5h1.7v-1.9c0,0,0,0,0,0c0-0.2,0.2-0.4,0.4-0.4c0,0,0,0,0,0h0c0.2,0,0.3,0.2,0.3,0.4v1.9h1v-3.8c0,0,0,0,0,0
		c0.1-0.4,0.3-0.5,0.4-0.5s0.4,0,0.5,0.5c0,0,0,0,0,0v3.8h2.7c0.2,0,0.4,0,0.6-0.2c0.1-0.2,0.2-0.4,0.1-0.6c0,0,0,0,0,0v-13.8
		c0,0,0-0.1,0.1-0.1l3.1-2.2c0,0,0.1,0,0.1,0h1.6c0.1,0,0.1,0,0.1,0.1c0,0.1,0,0.1-0.1,0.2l-3.5,2.5v7.6c1.1,0.1,2.2,0.6,2.9,1.5
		c1.6,2.1,1.6,5.1,0,7.3c-0.4,0.5-0.9,0.9-1.6,1.2h2.1c0.5,0,1.1,0.3,1.1,1.4v1.3c0,0.4,0.1,0.8,0.4,1.1c0.1,0.1,0.2,0.1,0.4,0.1
		v-11.5c-0.2-2-0.9-3.1-2-3.3c-0.7-0.1-1.4,0-2,0.4c-0.1,0-0.1,0-0.2,0c0,0-0.1-0.1,0-0.2c0.3-1,0.8-1.6,1.5-1.7
		c0.9-0.1,1.8,0.3,2.4,1c-0.5-1.6-1.8-2.3-3.9-2c-0.1,0-0.1,0-0.1,0c0,0,0-0.1,0-0.1c0.1-0.6,0.4-1,0.9-1.4c0.6-0.3,1.3-0.4,2-0.2
		c0.2,0,0.4,0.1,0.5,0.2c-0.5-1.3-1.6-2.3-2.9-2.7c0,0-0.1-0.1-0.1-0.1c0,0,0-0.1,0-0.1c0.3-0.5,0.9-0.9,1.5-1
		c0.6,0,1.3,0.2,1.7,0.7c0.6,0.6,1.1,1.3,1.4,2.1c0.2-0.7,0.6-1.2,1.1-1.6c1.3-0.8,2.7-0.5,4.1,1c0,0,0.1,0.1,0,0.2
		c0,0.1-0.1,0.1-0.2,0.1c-0.8-0.3-1.8-0.2-2.6,0.3c-0.9,0.8-1.4,1.9-1.5,3.1c0.3-0.8,1-1.4,1.9-1.5h0c0.4,0,0.7,0.1,0.9,0.4
		c0.4,0.7,0.4,1.6,0.1,2.3c0,0.1-0.1,0.1-0.2,0.1c-0.1,0-0.1-0.1-0.1-0.1c-0.1-0.7-0.4-1-1.1-1c-0.5,0.1-1,0.5-1.2,1
		c-0.3,0.6-0.4,1.3-0.5,2v13.6h0.6V2657c0-0.1,0.1-0.2,0.2-0.2h5.2c0.1,0,0.2,0.1,0.2,0.2v2.8c0.1,0.9,0.5,1.8,1.2,2.4
		c0.3,0.2,0.6,0.3,0.9,0.4h5.5c0.4,0,0.7,0.3,0.7,0.7c0,0,0,0,0,0v6.1h0.7v-6.7c0-0.1,0.1-0.2,0.2-0.2l0,0h2.9c0,0,0.1,0,0.1,0.1
		c0,0,0,0.1,0,0.1l-0.8,3.6c1.3-0.3,2.7-0.3,4,0l-0.8-4.6c0,0,0-0.1,0-0.1c0,0,0.1,0,0.1,0c1.5,0.3,3,0.3,4.5,0c0,0,0.1,0,0.1,0
		c0,0,0.1,0.1,0,0.1l-0.8,4.8l1.5-2.9c0-0.1,0.1-0.1,0.1-0.1l0,0c0.1,0,0.1,0,0.1,0.1c0.2,0.4,0.5,0.9,0.7,1.3
		c0.1,0.1,0.1,0.2,0.2,0.3c0.6,1,1.5,1.8,2.4,2.4c0.3,0.2,0.5,0.3,0.8,0.4c0.1,0,0.1,0.1,0.1,0.1v4.1c0,0.9-0.5,1.2-0.9,1.2
		c0,0-0.1,0-0.1,0c-0.3,0-0.5-0.1-0.7-0.2c-0.3-0.3-0.4-0.6-0.4-1v-3.7h-1v6.2c0,0.1-0.1,0.1-0.1,0.1l-1,0.1h0l-8.6,1.2h0l-1.3,0.2
		v3.7c0,0.2-0.1,0.5-0.2,0.6c-0.2,0.2-0.5,0.3-0.8,0.2h-8.8c0,0-0.1,0-0.1-0.1c-0.2-0.2-0.4-0.5-0.7-0.7c-0.8-0.6-1.2-1.6-1.1-2.6
		c0-0.1,0.1-0.2,0.2-0.2h0c0,0,0,0,0,0h0h2v-0.7c-0.3,0-0.5-0.3-0.6-0.6c0-0.2-0.1-0.3-0.3-0.3c-0.2,0-0.4-0.1-0.5-0.3
		c-0.1-0.1-0.1-0.3,0-0.5c0-0.1,0.1-0.1,0.1-0.1h1.8v-1.9c0,0,0,0,0,0c0,0,0,0,0,0c-0.1-0.4-0.3-0.8-0.7-1.1c-0.6-0.4-1.4-0.4-1.9,0
		c-0.1,0.1-0.2,0.1-0.2,0.2c-0.2,0.3-0.4,0.6-0.5,0.9c0,0,0,0,0,0.1v5.7c0,0.6-0.3,1-0.9,1h-0.4v2.2c0.1,0.5-0.3,1-0.8,1
		C861.2,2683.1,861.2,2683.1,861.1,2683 M858.7,2685c-0.1,0-0.2,0-0.2,0.1c-0.1,0.1-0.1,0.3,0,0.4c0.1,0.1,0.1,0.1,0.2,0.1
		c0.1,0,0.2,0,0.2-0.1c0.1-0.1,0.1-0.1,0.1-0.2c0-0.1,0-0.2-0.1-0.2C858.9,2685,858.8,2685,858.7,2685 M858.7,2685.9
		c-0.2,0-0.3-0.1-0.4-0.2c-0.2-0.2-0.2-0.6,0-0.8c0,0,0,0,0,0c0.3-0.2,0.6-0.2,0.9,0l0,0c0.2,0.2,0.2,0.6,0,0.9c0,0,0,0,0,0
		C859,2685.9,858.9,2685.9,858.7,2685.9 M871.7,2685c-0.1,0-0.2,0-0.2,0.1c-0.1,0.1-0.1,0.3,0,0.4c0.1,0.1,0.1,0.1,0.2,0.1
		c0.1,0,0.2,0,0.2-0.1c0.1-0.1,0.1-0.1,0.1-0.2c0-0.1,0-0.2-0.1-0.2C871.9,2685,871.8,2685,871.7,2685 M871.7,2685.9
		c-0.2,0-0.3-0.1-0.4-0.2c-0.2-0.2-0.2-0.6,0-0.8c0,0,0,0,0,0c0.3-0.2,0.6-0.2,0.9,0c0.2,0.2,0.2,0.6,0,0.9c0,0,0,0,0,0
		C872.1,2685.9,871.9,2685.9,871.7,2685.9 M858.7,2684.6c-0.2,0-0.4,0.1-0.5,0.2c-0.3,0.3-0.3,0.7,0,0.9c0,0,0,0,0,0
		c0.3,0.3,0.7,0.3,1,0c0.3-0.3,0.3-0.7,0-0.9c0,0,0,0,0,0C859.1,2684.7,858.9,2684.6,858.7,2684.6 M858.7,2686.3
		c-0.3,0-0.5-0.1-0.7-0.3c-0.4-0.4-0.4-1,0-1.4c0,0,0,0,0,0c0.4-0.4,1-0.4,1.4,0c0.4,0.4,0.4,1,0,1.4c0,0,0,0,0,0
		C859.2,2686.2,859,2686.3,858.7,2686.3 M871.7,2684.6c-0.2,0-0.4,0.1-0.5,0.2c-0.3,0.3-0.3,0.7,0,0.9c0,0,0,0,0,0
		c0.3,0.3,0.7,0.3,1,0c0.3-0.3,0.3-0.7,0-0.9c0,0,0,0,0,0C872.1,2684.7,871.9,2684.6,871.7,2684.6 M871.7,2686.3
		c-0.3,0-0.5-0.1-0.7-0.3c-0.4-0.4-0.4-1,0-1.4c0,0,0,0,0,0c0.4-0.4,1-0.4,1.4,0c0.4,0.4,0.4,1,0,1.4c0,0,0,0,0,0
		C872.3,2686.2,872,2686.3,871.7,2686.3 M842.9,2648.9c0.3,0,0.6,0,0.9-0.2c0.1-0.1,0.2-0.2,0.2-0.4v-1.4c-0.1,0-0.2,0-0.3,0
		c-0.3,0-0.5,0-0.8,0.1c0,0,0,0,0,0L842.9,2648.9z M840.6,2648.4v2.2c0,0.1,0,0.3-0.1,0.4c0.1,0,0.3,0,0.4,0c0.3,0,0.6-0.1,0.9-0.1
		c0.5-0.1,0.8-0.5,0.8-1.1v-2.6c-0.6,0.2-1.1,0.5-1.5,0.9C840.9,2648.1,840.7,2648.2,840.6,2648.4 M835.1,2651.4
		c1.6,0,2.6-0.1,3-0.5c0.4-0.3,0.7-0.7,1-1.1c0.4-0.6,0.8-1.1,1.2-1.5c0.2-0.2,0.3-0.3,0.5-0.4c0.8-0.7,1.8-1.1,2.8-1.1
		c0.7,0.1,1.4-0.1,1.9-0.5c0.2-0.2,0.3-0.4,0.3-0.7c0-0.2-0.1-0.4-0.2-0.5c-0.8-0.4-1.7-0.6-2.6-0.4c-0.1,0-0.1,0-0.2-0.1
		c0-0.1,0-0.1,0.1-0.2c0.5-0.2,0.5-0.3,0.5-0.3c0,0,0,0,0-0.1c-0.3-0.2-0.7-0.3-1.1-0.3c-0.4,0-0.9,0-1.3,0.2h0l0,0l0,0
		c-0.9,0.4-1.6,1.1-2,1.9c-0.5,1.1-1.4,1.9-2.6,2.2c-1.1,0.2-2.2,0.3-3.3,0.4c-0.9,0-1.8,0.2-2.6,0.6c-0.3,0.2-0.5,0.6-0.5,1
		c0.1,0.4,0.4,0.7,0.8,0.9c0.5,0.3,1.1,0.4,1.7,0.5c0.2,0,0.4,0,0.6,0.1l0,0c0.5,0.1,0.9,0.1,1.4,0.1
		C834.6,2651.4,834.9,2651.4,835.1,2651.4 M833.1,2651.6v0.2c0,0.1,0.1,0.3,0.4,0.3l0.7,0.1c0-0.1,0-0.1,0-0.2v-0.4
		C833.8,2651.7,833.5,2651.6,833.1,2651.6 M833.8,2655.8c0.3,0.1,0.6,0.1,0.9,0.1c0.1,0,0.2,0,0.3,0c0.4,0,0.9-0.1,1.3-0.3
		c0.4-0.2,0.6-0.4,0.6-0.7s-0.2-0.5-0.6-0.7c-0.5-0.2-1-0.3-1.5-0.3c0,0-0.1,0-0.1,0c-0.1,0-0.1,0-0.2-0.1c-0.1-0.1-0.1-0.2-0.3-0.3
		c-0.5-0.3-1-0.3-1.5,0c-0.2,0.1-0.3,0.3-0.3,0.5c0,0.1,0.1,0.2,0.3,0.3l0,0c0,0,0.1,0.1,0.1,0.1c0,0,0,0.1,0,0.1
		c-0.1,0.1-0.1,0.2-0.1,0.3c0,0.2,0.2,0.5,0.6,0.7C833.4,2655.6,833.6,2655.7,833.8,2655.8 M833.9,2656.1c0,0.7,0.5,1.4,1.2,1.5
		c-0.1-0.5-0.2-1-0.3-1.5h-0.1C834.4,2656.2,834.2,2656.1,833.9,2656.1 M841.6,2665.8c0.4,0.4,1,0.5,1.5,0.4v-0.9
		C842.7,2665.7,842.1,2665.8,841.6,2665.8 M845.4,2667.2h2.9l-0.2-0.3h-2.5L845.4,2667.2z M844.3,2670h0.4c0-0.1-0.1-0.2-0.1-0.3
		c0-0.2,0.2-0.4,0.5-0.5h0h10.1c0.2,0,0.2-0.1,0.2-0.2c0-0.1-0.1-0.2-0.2-0.2h-9.4c-0.3,0-0.5-0.2-0.5-0.5c0-0.3,0.2-0.5,0.5-0.5
		h8.6c0.2,0,0.2-0.1,0.2-0.1c0-0.1,0-0.2-0.2-0.3h-9.2L844.3,2670z M845.2,2670h11.7l-1.7-2.5h-0.3c0,0.1,0.1,0.2,0.1,0.2
		c0,0.1,0,0.4-0.5,0.5h-8.6c-0.2,0-0.2,0.1-0.2,0.2c0,0.1,0,0.2,0.2,0.2h9.4c0.3,0,0.5,0.2,0.5,0.5c0,0.3-0.2,0.5-0.5,0.5h-10.1
		c-0.2,0-0.2,0.1-0.2,0.2C844.9,2669.8,844.9,2669.9,845.2,2670 M844.2,2670.3l-0.5,1.3c0,0.1-0.1,0.2-0.1,0.3
		c-0.1,0.2,0,0.4,0.1,0.5l0,0l0.9,1.3h15.8c0.3-0.7,0.8-1.3,1.5-1.5c0.3-0.1,0.5-0.3,0.7-0.5c0.3-0.3,0.5-0.6,0.6-1
		c0.1-0.2,0.1-0.3,0.2-0.5H844.2L844.2,2670.3z M879.5,2679c-0.2,0-0.4,0-0.5,0.1c-0.2,0.1-0.2,0.2-0.2,0.2s0,0.1,0.2,0.2
		c0.3,0.2,0.7,0.2,1.1,0c0.2-0.1,0.2-0.2,0.2-0.2c0,0,0-0.1-0.2-0.2l0,0h0h0l0,0C879.9,2679.1,879.7,2679,879.5,2679 M880.5,2676.7
		c-0.4,0-0.7,0-1.1,0.1c-0.8,0.1-1.6,0.3-2.3,0.7c-0.4,0.2-0.7,0.6-0.8,1.1c0,0.6,0.4,1.1,0.9,1.3c0.3,0.2,0.7,0.4,1,0.4
		c0.6,0.1,1.1,0.2,1.7,0.2c0.2,0,0.4,0,0.6,0v-0.3c0-0.2,0-0.4-0.1-0.6c-0.1,0.1-0.2,0.2-0.3,0.3c-0.4,0.2-1,0.2-1.4,0
		c-0.2-0.1-0.3-0.3-0.3-0.5c0-0.2,0.1-0.4,0.3-0.5c0.4-0.2,0.9-0.2,1.3,0l0,0l0,0c0.5,0.3,0.8,0.8,0.7,1.4v0.3
		c0.2,0,0.4-0.1,0.6-0.2c0.1-0.1,0.2-0.2,0.2-0.3c0-0.2-0.1-0.3-0.2-0.4c-0.2-0.2-0.3-0.4-0.2-0.7c0.1-0.4,0.4-0.7,0.7-0.8
		c0.1,0,0.2-0.1,0.2-0.1c0.5-0.3,0.5-0.5,0.5-0.5s-0.1-0.3-0.7-0.5l0,0C881.6,2676.8,881,2676.7,880.5,2676.7L880.5,2676.7z
		 M886.7,2681.5L886.7,2681.5c0.1,0,0.2,0,0.3,0c0.1-0.1,0.1-0.1,0.1-0.2l0.3-1.9h-4c0,0.4,0.1,0.7,0.3,1l0,0
		c0.3,0.7,0.6,1.1,0.8,1.1L886.7,2681.5z M853.6,2685.3h1.3c0.5-0.6,1.1-1,1.8-1.2C855.5,2684.2,854.5,2684.6,853.6,2685.3
		 M871.7,2683.6c0.5,0,0.9,0.2,1.3,0.5c0.3,0.3,0.5,0.8,0.5,1.2c0,0.1,0,0.3,0,0.4l0.5-0.2c-0.1-0.7,0-1.2,0.3-1.4
		c0.1-0.1,0.3-0.2,0.5-0.2l0.2-1.2h-3.1L871.7,2683.6L871.7,2683.6 M854.6,2686.4h2.7c-0.2-0.3-0.4-0.7-0.4-1.1
		c0-0.5,0.2-0.9,0.5-1.2c0.1-0.1,0.3-0.2,0.4-0.3h-0.4l-0.2,0.2l0,0l-0.2,0.3c0,0-0.1,0-0.1,0.1c-0.7,0.2-1.4,0.6-1.8,1.2
		C854.9,2685.8,854.7,2686.1,854.6,2686.4 M861.8,2686.4h2.6l-0.5-1.3c0,0,0,0,0,0c-0.1-0.2,0-0.3,0-0.5c0.1-0.1,0.2-0.2,0.4-0.2
		h4.2c0.2-0.3,0.5-0.5,0.8-0.7c0,0,0,0,0,0l-0.4-0.4h-1.3c0,0-0.1,0-0.1,0l-2-1.1H865v0.9c0,0.1-0.1,0.2-0.2,0.1h-0.6l-0.9,1
		c0,0-0.1,0.1-0.1,0.1h-1.5c0,0-0.1,0-0.1-0.1l-0.5-0.5h-1.6c0.2,0.1,0.3,0.2,0.4,0.3c0.3,0.3,0.5,0.8,0.5,1.2v0
		C861.5,2685.4,861.8,2685.9,861.8,2686.4 M864.7,2686.4h5.6c-0.2-0.3-0.4-0.7-0.4-1.1c0-0.5,0.2-0.9,0.5-1.2
		c0.1-0.1,0.3-0.2,0.4-0.3H870c-0.1,0-0.2,0.1-0.3,0.2c-0.4,0.2-0.7,0.4-0.9,0.8c0,0-0.1,0.1-0.1,0.1h-4.3c0,0-0.1,0-0.1,0
		c0,0,0,0.1,0,0.2L864.7,2686.4z M857.8,2686.5c0.6,0.5,1.4,0.4,2-0.1c0.2-0.2,0.4-0.5,0.4-0.8c0-0.1,0-0.1,0-0.2
		c0-0.4-0.1-0.8-0.4-1c-0.6-0.6-1.5-0.6-2.1,0c-0.6,0.5-0.6,1.4,0,2c0,0,0,0,0,0C857.7,2686.4,857.7,2686.4,857.8,2686.5
		L857.8,2686.5L857.8,2686.5z M870.8,2686.4L870.8,2686.4c0.7,0.5,1.6,0.4,2.1-0.2c0.1-0.1,0.1-0.2,0.2-0.2c0.1-0.2,0.1-0.4,0.1-0.6
		c0-0.4-0.1-0.8-0.4-1c-0.6-0.6-1.5-0.6-2.1,0c-0.6,0.5-0.6,1.4,0,2c0,0,0,0,0,0C870.7,2686.4,870.8,2686.4,870.8,2686.4
		 M859.3,2687h11.9c-0.2-0.1-0.4-0.2-0.5-0.3h-9.5c-0.1,0-0.2-0.1-0.2-0.1s0.1-0.2,0.2-0.2h0.3c0-0.3-0.2-0.7-1.1-0.7
		c-0.1,0.3-0.2,0.7-0.5,0.9C859.8,2686.8,859.5,2686.9,859.3,2687 M857.6,2690.5L857.6,2690.5c-1,0-2-0.8-3.1-2.4c0,0,0-0.1,0-0.2
		c0,0,0.1-0.1,0.1-0.1h17.1c0.5,0,0.5-0.2,0.5-0.3c0-0.1,0-0.1,0-0.2c0,0,0,0-0.1,0h-18.8c0,0-0.1,0-0.1-0.1c0,0,0-0.1,0-0.1
		c0.1-0.3,0.2-0.5,0.3-0.8h-0.7c0,0-0.1,0-0.1,0c-1-1-1.6-2.3-1.5-3.7v-2.6c0-0.4-0.4-0.7-0.8-0.7c0,0,0,0,0,0l-0.8-0.1
		c-0.6-0.1-0.8-0.4-0.8-0.7c0-0.2,0.1-0.7,0.7-0.7h9.2c0.2,0,0.3,0,0.3-0.3c0-0.2-0.1-0.4-0.4-0.4h-13h0c-0.4,0-0.6-0.3-0.6-0.7
		c0,0,0,0,0,0c0-0.3,0.3-0.6,0.6-0.6c0,0,0,0,0.1,0h14.2c0.2,0,0.3-0.1,0.3-0.3c0-0.2-0.1-0.3-0.3-0.3c0,0,0,0-0.1,0h-15.2h0
		c-0.6-0.1-0.6-0.5-0.6-0.7c0-0.2,0.1-0.5,0.3-0.6l-0.8-1.3c-0.2-0.2-0.2-0.5-0.1-0.8c0-0.1,0.1-0.2,0.1-0.3l0.4-1.2h-0.1
		c-0.4,0-0.7-0.3-0.7-0.7c0,0,0,0,0,0v-3.1c-0.8,0.1-1.5-0.2-2-0.8l0,0l0,0c0,0,0-0.1,0-0.1v-1.5c0-0.2-0.1-0.5-0.2-0.6
		c-0.1-0.1-0.3-0.1-0.5-0.1h-1.1c-0.3,0-0.6-0.1-0.8-0.4c-0.2-0.3-0.3-0.6-0.3-0.9v-9.8c0,0,0,0,0,0c0.1-0.8,0.7-1.3,1.7-1.3l0.1,0
		c0.2,0,0.3-0.2,0.3-0.4v-1.9c-0.3,0.4-0.6,0.8-0.9,1.2c-0.3,0.4-0.6,0.8-1,1.2c-0.4,0.5-1.5,0.7-3.3,0.6c-0.2,0-0.4,0-0.7,0v0.4
		c0,0.1,0,0.2,0.1,0.2l0,0c0.2,0.1,0.4,0.2,0.7,0.2h1.2c0.6,0,1.2,0.2,1.3,1.4v7c0,0.1,0,0.1-0.1,0.1c0,0-0.1,0-0.2,0
		c-1.1-0.7-1.9-1.8-2.2-3.1c-1-0.1-1.6-1-1.6-1.9c-0.2-0.1-0.4-0.1-0.6-0.2c-0.5-0.2-0.7-0.6-0.7-0.9c0-0.1,0-0.3,0.1-0.4
		c-0.2-0.1-0.3-0.3-0.3-0.6c0-0.3,0.2-0.5,0.4-0.6c0.6-0.3,1.3-0.3,1.9,0c0.1,0.1,0.3,0.2,0.3,0.3h0c0.6,0,1.1,0.1,1.7,0.3
		c0.5,0.2,0.7,0.6,0.7,0.9s-0.3,0.7-0.7,0.9c-0.4,0.2-0.8,0.3-1.2,0.3c0.1,0.6,0.2,1.1,0.3,1.6v0c0.2,1.2,0.9,2.2,1.9,2.9v-6.8
		c0-1-0.6-1.1-0.9-1.1h-1.2c-0.3,0-0.6,0-0.9-0.2l-0.9-0.1c-0.4,0-0.6-0.3-0.7-0.6v-0.3c-0.1,0-0.3,0-0.4-0.1
		c-0.6-0.1-1.2-0.2-1.8-0.5c-0.5-0.2-0.8-0.6-0.9-1.1c0-0.5,0.2-1,0.6-1.2c0.9-0.5,1.8-0.7,2.8-0.7c1.1,0,2.2-0.2,3.2-0.4
		c1.1-0.3,1.9-1,2.4-2c0.4-0.9,1.2-1.6,2.1-2c0,0,0,0,0.1,0c0,0,0.1,0,0.2-0.1c-0.1,0-0.1-0.1-0.1-0.1v-4.1c0-0.1,0.1-0.2,0.2-0.1
		h0.7c0.1,0,0.2,0.1,0.2,0.1v3.4c0.8,0.1,1.6,0.2,2.3,0.3c1.1,0.1,2.3,0.1,3.4,0c0.8-0.1,1.6-0.1,2.4-0.3v-2.5
		c0-0.1,0.1-0.2,0.2-0.2h0.7c0.1,0,0.2,0.1,0.2,0.2v4.7c0.4-0.3,0.8-0.5,1.3-0.5c0-0.1,0-0.2,0-0.3c0-0.5,0.3-0.9,0.8-1.1
		c0.1,0,0.1-0.1,0.2-0.1c1-0.4,2.1-0.4,3.1,0c0.1,0,0.1,0.1,0.2,0.1c0.4,0.2,0.7,0.6,0.8,1.1c0.2,0,0.3,0,0.5,0
		c0.5,0,0.9,0.1,1.3,0.4c0.4,0.2,0.6,0.5,0.6,0.9c0,0.1,0,0.2,0,0.2c0.1,0,0.1,0,0.2,0c0.3,0,0.6,0.1,0.9,0.2
		c0.2,0.1,0.4,0.3,0.4,0.6c0,0.1,0,0.2-0.1,0.3c0,0.1-0.1,0.1-0.2,0.1c-0.1,0-0.1-0.1-0.1-0.2c0,0,0,0,0,0c0,0,0-0.1,0-0.1
		c0,0,0-0.2-0.3-0.3c-0.2-0.1-0.5-0.2-0.7-0.2c-0.1,0-0.2,0-0.3,0c-0.1,0.1-0.3,0.3-0.4,0.4c-0.1,0.1-0.2,0.1-0.3,0.2
		c-0.1,0.1-0.3,0.1-0.4,0.1c-0.1,0-0.2,0-0.2-0.1c0-0.1,0-0.2,0.1-0.2c0,0,0,0,0,0c0.1,0,0.3-0.1,0.4-0.1c0.1,0,0.2-0.1,0.3-0.1
		c0.1-0.1,0.3-0.2,0.4-0.3l0,0c0.1-0.1,0.1-0.2,0.1-0.3c0-0.3-0.2-0.5-0.5-0.7c-0.4-0.2-0.8-0.3-1.2-0.3c-0.2,0-0.4,0-0.6,0.1
		c0,0-0.1,0-0.1,0c0,0-0.1-0.1-0.1-0.1c0,0,0-0.1,0-0.1c0-0.4-0.3-0.7-0.6-0.9c-0.1,0-0.1-0.1-0.2-0.1c-0.9-0.4-1.9-0.4-2.8,0
		c-0.1,0-0.1,0.1-0.2,0.1c-0.3,0.2-0.6,0.5-0.6,0.9c0,0.1,0,0.2,0.1,0.4l0,0c0.1,0.1,0.2,0.2,0.3,0.3c0.1,0.1,0.1,0.1,0,0.2
		c0,0,0,0,0,0c-0.1,0.1-0.2,0.1-0.2,0c-0.1-0.1-0.2-0.2-0.3-0.3c-0.9,0-1.3,0.3-1.5,0.8c0,0.1-0.1,0.1-0.2,0.1
		c-0.1,0-0.1-0.1-0.1-0.2v-5.2h-0.4v2.5c0,0.1-0.1,0.1-0.1,0.1c-0.9,0.1-1.7,0.2-2.6,0.3c-1.2,0.1-2.3,0.1-3.5,0
		c-0.8-0.1-1.7-0.2-2.5-0.3c-0.1,0-0.1-0.1-0.1-0.1v-3.4h-0.4v3.9c0,0,0,0.1,0,0.1c0.4-0.1,0.7-0.1,1.1-0.1c0.5,0,0.9,0.1,1.3,0.3
		c0.1,0.1,0.2,0.2,0.1,0.3c0,0.1-0.1,0.2-0.1,0.2c0.8-0.1,1.5,0.1,2.2,0.5c0.2,0.2,0.3,0.5,0.3,0.7c0,0.3-0.1,0.6-0.3,0.9
		c-0.4,0.4-1,0.6-1.6,0.6v1.4c0,0.2-0.1,0.4-0.3,0.6c-0.3,0.2-0.7,0.3-1.1,0.2v0.5c0.1,0.7-0.4,1.3-1,1.4c-0.3,0.1-0.6,0.1-0.9,0.1
		c-0.1,0-0.3,0-0.5,0l-0.5,0l0,0l-0.1,0c-0.9,0.1-1.3,0.4-1.4,1.1v9.7c0,0.3,0,0.5,0.2,0.7c0.1,0.2,0.4,0.3,0.6,0.3h1.1
		c0.2,0,0.5,0.1,0.7,0.2c0.3,0.2,0.4,0.6,0.4,0.9v1.3c0.7,0.1,1.3-0.1,1.8-0.6c0-0.1,0.1-0.1,0.2-0.1c0.1,0,0.1,0.1,0.1,0.1v4.7
		c0.1,0.3,0.2,0.4,0.4,0.4h0.2l1-2.7c0,0,0,0,0,0l0.2-0.6c0-0.1,0.1-0.1,0.1-0.1h2.7c0.1,0,0.1,0,0.1,0.1l0.4,0.6h6.6
		c0.1,0,0.1,0,0.1,0.1l1.8,2.8h6.4c0,0,0.1,0,0.1,0.1c0,0,0,0.1,0,0.1c-0.1,0.2-0.1,0.5-0.2,0.7c-0.2,0.4-0.4,0.8-0.7,1.1
		c-0.2,0.2-0.5,0.4-0.8,0.6c-0.8,0.4-1.3,0.9-1.4,1.4c0,0.1-0.1,0.1-0.2,0.1h-15.9c0,0,0,0-0.1,0h0c-0.2,0-0.3,0.1-0.3,0.3
		c0,0.1,0,0.3,0.4,0.4h15.2c0.4,0,0.6,0.3,0.6,0.7c0,0.3-0.3,0.6-0.6,0.6h-14.2c-0.2,0-0.4,0.1-0.4,0.3c0,0.2,0,0.3,0.4,0.4h13
		c0.3,0,0.6,0.2,0.6,0.6c0,0,0,0.1,0,0.1c0,0.3-0.2,0.6-0.5,0.6c0,0-0.1,0-0.1,0h-9.2c-0.4,0-0.4,0.2-0.4,0.4c0,0.2,0.1,0.4,0.5,0.4
		l0.8,0.1c0.6,0,1.1,0.4,1.1,1v2.6c-0.1,1.3,0.4,2.6,1.4,3.5h0.9c0.1,0,0.1,0,0.1,0.1c0,0,0,0.1,0,0.2c-0.1,0.2-0.3,0.5-0.4,0.7h4.6
		c-0.2-0.1-0.4-0.2-0.5-0.3h-3.3c-0.1,0-0.1,0-0.1-0.1c0,0,0-0.1,0-0.1c0.2-0.3,0.3-0.6,0.5-0.9h-1.5c-0.1,0-0.1,0-0.1-0.1
		c0-0.1,0-0.1,0-0.2c1.1-1,2.5-1.6,4-1.6l0.2-0.2c0,0,0.1-0.1,0.1-0.1h3.8c0,0,0.1,0,0.1,0l0.5,0.5h1.4l0.9-1c0,0,0.1-0.1,0.1-0.1
		h0.5v-0.9c0-0.1,0.1-0.2,0.2-0.2h0.6v-0.4h-0.7c-0.1,0-0.2-0.1-0.2-0.1c0-0.1,0.1-0.2,0.1-0.2c0,0,0,0,0,0h1.6
		c0.1,0,0.2,0.1,0.2,0.1s-0.1,0.2-0.1,0.2c0,0,0,0,0,0h-0.7v0.4l1.9,1h1.3c0,0,0.1,0,0.1,0l0.4,0.4h1.9v-0.9c0-0.1,0.1-0.2,0.2-0.2
		c0,0,0,0,0,0h3.5c0,0,0.1,0,0.1,0.1c0,0,0,0.1,0,0.1l-0.2,1.5c0,0,0,0.1-0.1,0.1c0,0-0.1,0-0.1,0c-0.1,0-0.2,0-0.3,0.1
		c-0.1,0.1-0.3,0.4-0.1,1.3c0,0.1,0,0.1-0.1,0.2l-0.9,0.4c-0.1,0.2-0.2,0.3-0.3,0.4c-0.2,0.2-0.5,0.4-0.7,0.4c0.1,0,0.1,0.1,0.2,0.1
		c0.1,0.1,0.1,0.3,0.1,0.4c0,0.2-0.2,0.5-0.8,0.6H855c0.9,1.3,1.8,2,2.6,2.1c0.7,0,1.5-0.5,2.2-1.5c0,0,0.1-0.1,0.1-0.1h8.7
		c0,0,0.1,0,0.1,0c1,0.8,1.9,1.2,2.6,0.9c0.8-0.2,1.4-1.1,1.8-2.6c0,0,0-0.1,0.1-0.1l1.7-0.8c-0.1-0.4,0-0.9,0.3-1.3
		c0.2-0.2,0.4-0.2,0.7-0.2c0.5,0,0.9-0.1,1-0.3c0.2-0.4,0.2-0.8,0.1-1.3c0,0,0,0,0,0c0-0.1,0.1-0.2,0.2-0.2h10.7l10.9-3.3l1-6.2
		l-2.5,0.6c-0.3,0-0.5,0.3-0.5,0.5l-0.8,5.3c0,0.1-0.1,0.1-0.1,0.1l-1,0.3c-0.1,0-0.1,0-0.1,0c0,0-0.1-0.1-0.1-0.1l0.9-5.7l-2.5,0.6
		c-0.3,0-0.5,0.3-0.5,0.5l-0.9,5.6c0,0.1-0.1,0.1-0.1,0.1l-1,0.3c-0.1,0-0.1,0-0.1,0c0,0-0.1-0.1-0.1-0.1l0.9-6l-2.5,0.6
		c-0.3,0-0.5,0.3-0.5,0.5l-0.4,2.6c0.3,0.1,0.5,0.3,0.5,1c0,0,0,0,0,0l-0.2,1.5c0,0.5-0.4,0.8-0.9,0.8h-5.7c-0.4,0-0.7-0.3-0.7-0.7
		c0,0,0-0.1,0-0.1v-0.8c-0.2,0-0.4,0-0.6,0c-0.6,0-1.2-0.1-1.8-0.2c-0.4-0.1-0.8-0.3-1.1-0.5c-0.6-0.3-1-0.9-1-1.6
		c0-0.6,0.4-1.1,0.9-1.4c0.7-0.4,1.5-0.7,2.4-0.8c0.9-0.1,1.9-0.1,2.8,0.1c0,0,0,0,0,0h0h0c0.6,0.2,0.9,0.4,0.9,0.7
		c0,0.3-0.2,0.6-0.7,0.8c-0.1,0-0.2,0.1-0.2,0.1c-0.3,0.2-0.5,0.4-0.6,0.6c0,0.2,0,0.3,0.2,0.5c0.2,0.2,0.2,0.4,0.2,0.7
		c0,0.2-0.2,0.4-0.3,0.5c-0.2,0.2-0.5,0.3-0.8,0.3v0.9c0,0.2,0.1,0.4,0.3,0.4c0,0,0.1,0,0.1,0h5.7c0.2,0,0.5-0.1,0.6-0.6l0.2-1.5
		c0-0.4-0.1-0.6-0.2-0.6l-0.3,1.9c0,0.2-0.1,0.3-0.2,0.4c-0.1,0.1-0.3,0.1-0.5,0.1h-2.2c-0.4,0-0.8-0.4-1.1-1.3
		c-0.3-0.9-0.3-1.2-0.2-1.3c0-0.1,0.1-0.1,0.2-0.1h0h4.1l0.4-2.6v0c0.1-0.4,0.4-0.7,0.7-0.8l2.7-0.7c0,0,0.1,0,0.1,0
		c0,0,0.1,0.1,0,0.1l-0.9,6l0.7-0.2l0.8-5.5c0,0,0,0,0,0c0.1-0.4,0.4-0.7,0.7-0.8l2.7-0.7c0,0,0.1,0,0.1,0c0,0,0.1,0.1,0,0.1
		l-0.9,5.7l0.7-0.2l0.8-5.3v0c0.1-0.4,0.4-0.7,0.7-0.8l2.7-0.7c0.1,0,0.1,0,0.1,0c0,0,0.1,0.1,0,0.1l-1,6.5c0,0.1-0.1,0.1-0.1,0.1
		l-11,3.3c0,0,0,0,0,0h-10.5c0.1,0.4,0.1,0.9-0.1,1.3c-0.2,0.4-0.7,0.5-1.3,0.5c-0.1,0-0.3,0-0.4,0.1c-0.1,0.1-0.2,0.4-0.1,1.1
		c0,0.1,0,0.1-0.1,0.2l-1.8,0.8c-0.5,1.6-1.1,2.5-2,2.8c-0.8,0.2-1.8-0.1-2.9-1H860C859.5,2689.8,858.6,2690.4,857.6,2690.5"/>
</g>
</svg>
