<svg width="553" height="714" viewBox="0 0 553 714" fill="none" xmlns="http://www.w3.org/2000/svg">
<g opacity="0.1">
<path d="M313.313 629.631C331.079 636.319 352.84 642.15 372.405 639.04C361.754 657.204 347.921 673.872 331.046 688.533C311.751 689.604 291.372 684.785 274.791 675.386C242.011 656.875 226.684 623.949 222.489 587.857C226.327 583.47 230.554 579.004 235.341 574.505C238.55 570.409 241.589 566.267 244.518 562.188C257.254 593.134 281.52 617.716 313.29 629.717" fill="#666666"/>
<path d="M263.819 683.093C279.303 692.473 297.464 698.716 315.916 700.448C315.567 700.722 315.133 700.972 314.784 701.246C249.058 739.896 153.256 684.489 212.094 600.949C218.297 634 233.873 664.973 263.904 683.116" fill="#666666"/>
<path d="M296.397 389.134C294.013 359.309 277.753 316.497 277.753 316.497C277.753 316.497 314.127 345.241 346.627 389.468C346.387 389.679 346.17 389.805 345.93 390.016C329.905 405.271 312.201 403.831 296.397 389.134Z" fill="#666666"/>
<path d="M353.558 399.586C367.869 421.226 378.729 443.409 386.189 465.6C386.081 465.662 385.886 465.702 385.778 465.765C355.126 482.148 313.565 474.133 293.886 445.456C296.192 431.022 297.149 417.512 297.054 405.188C315.381 416.982 335.91 415.416 353.558 399.586Z" fill="#666666"/>
<path d="M397.378 564.691C394.767 585.743 388.986 605.945 379.894 624.802C379.162 624.789 378.408 624.863 377.608 625.107C358.462 631.45 333.245 625.152 315.52 617.282C286.625 604.491 265.057 583.202 254.24 553.32C253.83 552.109 253.134 551.28 252.306 550.599C261.846 535.901 269.574 521.451 275.663 507.297C301.915 549.482 348.474 568.658 397.378 564.691Z" fill="#666666"/>
<path d="M389.93 477.34C397.187 502.688 399.971 527.939 398.488 552.322C351.772 556.692 307.857 538.96 283.815 497.091C283 495.679 282 494.953 280.847 494.46C285.104 483.027 288.453 471.901 290.869 461.168C315.539 487.327 357.153 493.43 389.93 477.34Z" fill="#666666"/>
<path d="M12.9704 188.186C13.4845 188.324 13.9985 188.462 14.4666 188.771C19.2231 191.238 21.1478 197.077 18.6803 201.831C16.2129 206.585 10.372 208.507 5.61551 206.04C1.64699 204.059 -0.216596 199.705 0.519107 195.588C0.748551 194.732 0.977996 193.876 1.40178 192.979C3.51436 188.865 8.1727 186.901 12.542 188.071C12.6277 188.094 12.7991 188.14 12.8848 188.163M40.1638 189.507C40.1638 189.507 40.8491 189.691 41.1689 189.868C44.3266 191.449 45.5736 195.362 44.0163 198.432C42.4361 201.588 38.5212 202.834 35.3864 201.168C32.8055 199.834 31.5402 197.017 31.9945 194.293C32.1551 193.694 32.3157 193.094 32.539 192.604C33.9189 189.853 37.0169 188.572 39.9298 189.353L40.1868 189.421M85.2963 191.046C85.2963 191.046 85.9817 191.229 86.3015 191.407C89.4592 192.987 90.7062 196.901 89.0632 199.948C87.483 203.104 83.5681 204.35 80.4333 202.684C77.8524 201.35 76.5871 198.532 77.0414 195.809C77.202 195.21 77.3627 194.61 77.586 194.119C78.9658 191.369 82.0637 190.088 84.9766 190.868L85.2336 190.937M115.516 188.955C115.516 188.955 116.03 189.093 116.349 189.271C118.845 190.582 119.87 193.61 118.559 196.104C117.248 198.597 114.242 199.536 111.723 198.31C109.696 197.308 108.659 195.011 109.061 192.825C109.176 192.396 109.314 191.883 109.428 191.454C110.562 189.28 112.945 188.267 115.259 188.887L115.43 188.932M17.5099 158.565C18.024 158.702 18.5381 158.84 19.0062 159.149C23.5286 161.462 25.3509 166.999 23.0379 171.518C20.7249 176.038 15.2097 177.773 10.6873 175.46C6.97585 173.547 5.12921 169.473 5.88174 165.636C6.11119 164.78 6.34064 163.924 6.6328 163.176C8.61384 159.21 13.0549 157.371 17.1672 158.473L17.5099 158.565ZM46.0742 160.253C46.0742 160.253 46.5882 160.391 46.8222 160.545C49.2548 161.748 50.1942 164.753 49.0148 167.098C47.8124 169.529 44.8063 170.468 42.3967 169.18C40.4553 168.201 39.395 165.989 39.86 163.911C39.9747 163.483 40.0894 163.055 40.2271 162.541C41.3377 160.452 43.6125 159.501 45.84 160.098L46.0114 160.144M103.421 189.202C94.8408 182.498 80.8852 175.638 70.1229 184.961C69.482 185.982 68.6069 186.849 67.6064 187.499C67.6064 187.499 67.5834 187.584 67.4748 187.647C65.691 188.821 63.485 189.515 61.0571 189.323C55.493 188.842 51.3561 184.062 51.8363 178.501C51.8882 177.964 52.0488 177.364 52.1865 176.851C53.0125 173.768 55.2262 171.332 58.0441 170.068C62.7086 167.739 71.6628 166.192 80.6585 168.602C89.6542 171.012 98.1834 176.877 103.529 189.139M236.145 252.116C230.858 237.575 216.413 218.836 196.288 221.979C194.641 222.639 192.956 223.105 191.19 223.183C191.19 223.183 190.996 223.222 190.887 223.285C187.768 223.275 184.598 222.426 181.921 220.424C175.567 215.692 174.211 206.702 178.943 200.352C179.492 199.673 180.018 199.08 180.607 198.595C183.93 195.447 188.513 194.106 192.889 194.911C194.694 195.028 196.71 195.384 198.767 195.935C213.845 199.976 235.414 214.749 236.099 252.287M142.609 171.802C145.865 172.674 148.943 173.866 152.021 175.058C153.603 175.665 155.162 176.358 156.612 177.114C157.759 177.972 158.775 178.979 159.637 180.219C159.614 180.305 159.762 180.436 159.825 180.545C163.241 185.957 161.679 193.157 156.328 196.679C150.868 200.264 143.448 198.826 139.861 193.368C139.672 193.042 139.484 192.716 139.382 192.413C137.327 190.486 135.358 188.582 133.257 186.826C123.691 178.664 113.3 172.209 104.032 168.073C117.43 167.074 129.564 168.398 140.444 171.313C141.215 171.52 141.986 171.727 142.757 171.933M27.2423 140.063C27.2423 140.063 27.7563 140.201 27.9904 140.355C30.423 141.558 31.3624 144.563 30.183 146.909C28.9806 149.34 25.9744 150.278 23.5648 148.99C21.5377 147.988 20.5632 145.8 21.0282 143.721C21.1429 143.293 21.2577 142.865 21.3953 142.351C22.5059 140.263 24.7807 139.312 27.0082 139.909L27.1796 139.955M71.5642 146.341C71.5642 146.341 72.3352 146.547 72.632 146.81C76.1095 148.568 77.5217 152.893 75.7013 156.26C73.9436 159.736 69.6401 161.061 66.1627 159.303C63.3477 157.814 61.8943 154.671 62.503 151.714C62.6636 151.115 62.8472 150.43 63.0935 149.853C64.6278 146.868 68.0516 145.4 71.2215 146.249C71.3072 146.272 71.3929 146.295 71.4785 146.318M181.581 169.946C182.095 170.083 182.609 170.221 183.077 170.53C187.856 172.912 189.695 178.728 187.251 183.396C184.892 188.087 179.051 190.01 174.295 187.542C170.412 185.584 168.44 181.293 169.261 177.199C169.49 176.343 169.72 175.487 170.144 174.591C172.256 170.476 176.892 168.597 181.175 169.745C181.261 169.768 181.432 169.814 181.518 169.837M154.997 143.732C155.425 143.847 155.854 143.962 156.236 144.248C160.205 146.229 161.822 151.16 159.755 155.103C157.774 159.07 152.865 160.599 148.896 158.618C145.676 156.929 144.057 153.375 144.695 149.966C144.878 149.281 145.085 148.511 145.377 147.763C147.135 144.287 151.056 142.676 154.654 143.641C154.74 143.664 154.911 143.709 154.997 143.732ZM131.998 146.289C131.861 146.803 131.786 147.425 131.648 147.939C130.822 151.022 128.523 153.434 125.642 154.59C116.491 158.929 91.0031 159.81 80.6496 134.366C89.0748 141.304 102.853 148.484 113.826 139.401C114.553 138.402 115.428 137.535 116.429 136.886C116.429 136.886 116.452 136.8 116.56 136.737C118.43 135.586 120.613 134.978 122.932 135.233C123.446 135.37 123.983 135.422 124.497 135.56C129.209 136.823 132.404 141.35 131.913 146.266M91.1687 128.006C80.7166 125.206 65.1319 124.426 58.9364 137.267C58.6152 138.466 58.2939 139.664 57.5673 140.663L57.5214 140.834C56.3083 142.62 54.627 144.097 52.398 144.876C47.1399 146.68 41.3784 143.851 39.573 138.595C39.345 138.075 39.3113 137.515 39.192 136.932C38.6641 133.762 39.7701 130.663 41.8521 128.375C46.7031 122.608 60.4287 114.905 75.4215 118.923C80.6476 120.323 86.0435 123.146 91.2544 128.029M107.608 120.113C107.608 120.113 108.294 120.297 108.591 120.56C111.748 122.14 113.018 125.968 111.438 129.124C109.858 132.28 105.943 133.525 102.808 131.859C100.227 130.525 98.9619 127.708 99.4161 124.985C99.5768 124.386 99.7373 123.786 99.9607 123.295C101.341 120.544 104.438 119.264 107.351 120.044L107.608 120.113Z" fill="#666666"/>
<path d="M45.1175 401.652C49.1549 403.376 51.0123 408.096 49.2883 412.131C47.5643 416.166 42.8432 418.021 38.8058 416.297C35.4309 414.842 33.5949 411.413 34.0385 408.045C34.1363 407.337 34.2572 406.543 34.6351 405.818C36.1587 402.188 40.1484 400.32 43.8553 401.222C43.941 401.245 44.1124 401.291 44.198 401.313C44.5407 401.405 44.7978 401.474 45.1405 401.566M22.4563 377.591C28.224 380.054 30.8448 386.722 28.382 392.487C25.9191 398.251 19.2491 400.869 13.4814 398.406C8.69589 396.39 6.15302 391.486 6.70667 386.679C6.81065 385.605 7.08598 384.578 7.53267 383.596C9.72633 378.494 15.2995 375.857 20.6572 377.109C20.8285 377.155 20.9998 377.201 21.0855 377.224C21.5139 377.338 22.0279 377.476 22.4333 377.676M51.8937 369.509C51.8937 369.509 52.4077 369.647 52.6647 369.715C55.8683 371.125 57.4412 374.85 56.0093 378.138C54.6004 381.339 50.8737 382.911 47.5845 381.479C44.872 380.293 43.4124 377.516 43.7581 374.855C43.833 374.233 43.9936 373.633 44.2399 373.057C45.4713 370.174 48.6151 368.722 51.6366 369.44L51.8937 369.509ZM11.0945 349.399C11.0945 349.399 11.6085 349.537 11.8655 349.606C15.0691 351.015 16.642 354.74 15.2101 358.028C13.8012 361.229 10.0745 362.801 6.78527 361.369C4.07276 360.183 2.61327 357.406 2.95891 354.745C3.03386 354.122 3.17153 353.609 3.4178 353.032C4.64924 350.15 7.81597 348.612 10.8145 349.416L11.0716 349.484M38.2868 362.375C35.8467 362.915 33.3392 362.335 31.387 360.71C31.0045 360.424 30.7077 360.161 30.4339 359.812C27.5637 356.473 27.9919 351.448 31.3315 348.58C32.7497 347.4 34.4815 346.763 36.224 346.771C36.224 346.771 36.3096 346.794 36.3953 346.817C37.4065 346.812 38.2862 346.956 39.2057 347.294C50.5053 348.303 56.2587 337.454 58.6557 329.194C63.3348 350.456 46.2237 361.198 38.3495 362.484M47.1246 314.999C47.1246 314.999 47.3817 315.068 47.553 315.114C49.5403 315.922 50.3834 318.258 49.5757 320.245C48.768 322.231 46.4303 323.073 44.443 322.265C42.7984 321.549 41.9431 319.943 42.122 318.248C42.2138 317.905 42.3056 317.562 42.3974 317.22C43.1362 315.491 45.0455 314.534 46.8447 315.016L47.016 315.062M132.394 336.378C131.342 342.705 125.332 346.968 119.003 345.915C113.725 345.051 109.902 340.815 109.319 335.794C109.143 334.737 109.161 333.641 109.374 332.505C110.351 326.801 115.28 322.798 120.874 322.829C121.519 322.818 122.165 322.808 122.85 322.991C123.193 323.083 123.621 323.198 123.964 323.29C129.704 324.828 133.417 330.503 132.457 336.487M91.4095 355.684C92.3336 357.033 93.0404 358.507 93.3587 360.061C93.3587 360.061 93.3986 360.255 93.4842 360.278C94.1039 363.106 93.9235 366.178 92.5207 369.014C89.3541 375.692 81.2842 378.394 74.6888 375.25C73.9636 374.872 73.3242 374.517 72.7076 374.076C69.2194 371.673 67.1555 367.724 67.0743 363.573C65.7688 350.282 75.9673 318.047 112.545 316.559C100.202 323.898 84.8871 337.875 91.4095 355.684ZM77.5012 304.783C80.7905 306.215 82.2776 309.917 80.8458 313.205C79.4369 316.406 75.7102 317.978 72.4209 316.546C69.7941 315.383 68.2489 312.583 68.5945 309.922C68.6695 309.3 68.8301 308.7 69.0534 308.209C70.2849 305.327 73.4516 303.789 76.4502 304.593C76.5359 304.616 76.6215 304.639 76.7072 304.662C76.9642 304.73 77.2213 304.799 77.4783 304.868M153.562 314.608C152.987 318.125 149.699 320.457 146.18 319.881C143.284 319.38 141.236 317.088 140.873 314.329C140.754 313.746 140.829 313.124 140.904 312.501C141.387 309.327 144.069 307.2 147.188 307.21C147.554 307.216 147.919 307.223 148.262 307.314C148.519 307.383 148.691 307.429 148.862 307.475C152.032 308.324 154.045 311.434 153.539 314.694M75.3705 272.639C75.8784 273.143 76.3634 273.732 76.7627 274.297C80.687 280.213 79.1131 288.143 73.1957 292.065C70.6516 293.677 67.8229 294.296 65.0293 294.098C65.0293 294.098 64.858 294.052 64.7724 294.03C63.2471 293.896 61.7279 293.397 60.3403 292.75C42.5479 288.9 31.1953 305.224 25.8627 317.929C22.4208 283.14 51.7844 269.165 64.6796 268.673C66.2738 268.55 67.8847 268.706 69.4268 269.12C71.6544 269.716 73.7212 270.913 75.4561 272.662M156.278 285.967C155.582 290.277 151.511 293.133 147.198 292.436C143.68 291.861 141.146 288.979 140.664 285.638C140.591 284.884 140.517 284.13 140.701 283.445C141.368 279.585 144.638 276.974 148.426 276.888C148.878 276.917 149.243 276.923 149.78 276.975C150.037 277.044 150.294 277.113 150.551 277.182C154.407 278.215 156.968 282.021 156.255 286.052M107.614 269.164C107.039 272.681 103.751 275.013 100.232 274.437C97.3363 273.936 95.2877 271.644 94.9251 268.885C94.8057 268.302 94.8807 267.68 94.9557 267.057C95.5017 263.991 98.2064 261.779 101.24 261.766C101.583 261.858 101.971 261.778 102.314 261.87C102.485 261.916 102.742 261.985 102.914 262.031C106.084 262.88 108.097 265.99 107.591 269.25M114.969 304.084C112.162 305.993 108.688 306.623 105.392 305.556C104.793 305.395 104.216 305.149 103.662 304.817C98.3517 302.017 96.2448 295.487 99.0443 290.18C100.201 287.92 102.099 286.318 104.288 285.344L104.483 285.304C105.717 284.809 106.992 284.508 108.283 284.487C123.05 280.092 124.771 263.39 123.567 251.779C140.411 276.3 124.356 298.522 115.032 304.192M156.179 255.836C155.604 259.354 152.316 261.685 148.797 261.109C145.901 260.609 143.853 258.316 143.49 255.557C143.371 254.974 143.36 254.329 143.521 253.73C143.981 250.641 146.771 248.451 149.805 248.438C150.171 248.445 150.536 248.451 150.879 248.543C151.05 248.588 151.307 248.657 151.479 248.703C154.649 249.553 156.662 252.662 156.156 255.922M239.389 274.278C225.656 266.927 204.29 260.651 191.441 276.39C190.748 277.948 189.713 279.415 188.466 280.641C188.443 280.727 188.42 280.812 188.397 280.898C186.081 283.031 183.217 284.466 179.812 284.838C171.904 285.565 164.837 279.725 164.109 271.82C164.058 270.98 164.093 270.164 164.128 269.347C164.442 264.75 166.983 260.751 170.745 258.363C177.955 253.044 194.026 247.897 210.475 252.305C220.756 255.059 231.21 261.623 239.497 274.215" fill="#666666"/>
<path d="M218.253 495.034C221.719 496.147 223.595 499.77 222.483 503.235C221.394 506.614 217.747 508.574 214.28 507.461C211.499 506.532 209.713 503.943 209.739 501.105C209.728 500.46 209.803 499.837 209.964 499.238C210.961 496.201 214.026 494.36 217.116 494.821C217.373 494.89 217.716 494.982 217.973 495.051C217.973 495.051 218.144 495.097 218.23 495.12M195.22 471.333C199.029 472.537 201.156 476.594 199.929 480.487C198.725 484.295 194.581 486.397 190.771 485.192C187.647 484.172 185.674 481.257 185.683 478.139C185.672 477.493 185.77 476.785 185.953 476.1C187.065 472.635 190.456 470.607 193.889 471.16C194.231 471.251 194.488 471.32 194.831 471.412C194.831 471.412 195.002 471.458 195.088 471.481M203.31 444.223C208.21 445.811 210.941 451.04 209.439 455.961C207.851 460.859 202.621 463.587 197.612 462.061C193.546 460.788 190.984 456.982 191.052 452.961C191.024 452.036 191.145 451.242 191.397 450.3C192.847 445.917 197.129 443.301 201.636 443.958C202.065 444.073 202.516 444.102 202.944 444.217C202.944 444.217 203.116 444.262 203.201 444.285M173.532 434.041C180.812 449.024 160.194 458.46 153.264 443.203C139.032 411.672 159.465 392.642 167.221 384.258C160.06 418.867 173.532 434.041 173.532 434.041ZM187.159 380.789C190.625 381.901 192.501 385.525 191.389 388.99C190.3 392.369 186.653 394.329 183.186 393.216C180.405 392.287 178.619 389.698 178.645 386.86C178.634 386.214 178.709 385.592 178.956 385.016C179.953 381.979 183.017 380.138 186.022 380.576C186.279 380.645 186.622 380.737 186.879 380.806L187.05 380.852M202.268 425.496C199.757 427.668 196.339 428.772 192.952 428.048C192.353 427.887 191.753 427.726 191.153 427.566C185.488 425.405 182.667 419.142 184.804 413.566C185.726 411.151 187.391 409.395 189.477 408.118C189.477 408.118 189.672 408.078 189.695 407.993C190.866 407.389 192.101 406.894 193.352 406.678C207.482 400.552 207.203 383.774 204.576 372.332C224.211 394.664 210.902 418.631 202.29 425.41M186.811 342.332C193.316 344.442 196.965 351.386 194.942 357.911C192.832 364.412 185.887 368.058 179.296 365.925C173.882 364.199 170.545 359.175 170.699 353.801C170.741 352.619 170.867 351.46 171.166 350.347C173.006 344.507 178.809 341.014 184.732 341.867C185.246 342.005 185.869 342.08 186.469 342.24L186.811 342.332ZM213.535 344.72C217.002 345.833 218.878 349.456 217.765 352.921C216.676 356.3 213.029 358.26 209.563 357.147C206.781 356.219 204.996 353.629 205.022 350.791C205.011 350.146 205.086 349.523 205.246 348.924C206.244 345.887 209.222 344.024 212.313 344.485C212.57 344.553 212.913 344.645 213.17 344.714C213.17 344.714 213.341 344.76 213.427 344.783M245.601 299.071C235.744 300.56 222.118 306.178 220.238 322.103C220.345 323.417 220.235 324.856 219.977 326.163C219.977 326.163 219.931 326.334 219.908 326.42C219.351 328.841 218.28 331.124 216.53 332.857C212.504 336.918 206.791 336.305 203.837 331.567C203.523 331.024 203.295 330.504 203.067 329.984C201.785 326.887 201.846 323.232 203.084 319.985C206.345 310.212 220.231 291.63 239.593 296.818C241.564 297.346 243.465 298.131 245.578 299.156" fill="#666666"/>
<path d="M272.355 172.15C272.043 175.37 270.538 177.904 268.291 179.78C268.291 179.78 268.159 179.928 268.073 179.905C266.81 180.851 265.398 181.666 263.798 182.155C252.772 191.775 249.116 212.272 254.337 229.456C231.614 193.631 237.159 169.511 245.865 159.637C248.285 156.431 252.361 154.586 256.96 154.9C257.776 154.935 258.571 155.056 259.427 155.286C259.599 155.332 259.77 155.378 259.941 155.424C267.652 157.49 273.186 164.938 272.355 172.15ZM240.239 137.112C240.239 137.112 240.879 137.467 241.175 137.73C244.087 139.887 244.688 143.811 242.491 146.526C240.317 149.156 236.243 149.625 233.332 147.468C230.974 145.643 230.121 142.661 231.152 140.184C231.312 139.584 231.621 139.116 232.016 138.671C233.641 136.721 236.321 135.97 238.72 136.613C239.234 136.751 239.748 136.888 240.13 137.175M284.079 134.908C284.079 134.908 284.718 135.263 285.015 135.526C287.926 137.683 288.528 141.607 286.331 144.323C284.157 146.952 280.083 147.421 277.172 145.264C274.791 143.525 273.96 140.457 274.991 137.98C275.152 137.381 275.461 136.913 275.856 136.468C277.48 134.517 280.161 133.767 282.56 134.409C283.074 134.547 283.588 134.685 283.97 134.971M305.453 96.9483C306.029 97.1946 306.583 97.5266 307.114 97.9442C312.149 101.771 313.176 108.563 309.377 113.144C305.642 117.833 298.574 118.509 293.516 114.767C289.394 111.644 288.017 106.502 289.724 102.187C290.062 101.268 290.572 100.395 291.167 99.545C293.936 96.0651 298.582 94.832 302.866 95.9798C303.722 96.2094 304.556 96.5245 305.367 96.9254M287.298 68.4048C287.704 68.6052 288.172 68.9142 288.554 69.2002C292.379 72.0607 293.173 77.3213 290.296 80.8639C287.418 84.4065 282.03 84.9819 278.12 82.0985C274.997 79.7016 273.859 75.7254 275.182 72.5006C275.474 71.7528 275.829 71.1137 276.355 70.5205C278.443 67.8677 282.009 66.8959 285.265 67.7682C285.95 67.9519 286.55 68.1125 287.167 68.5531M267.035 104.276C268.651 105.443 270.112 106.844 271.224 108.519C271.31 108.542 271.372 108.65 271.435 108.759C273.386 111.76 274.467 115.262 274.103 119.019C273.249 127.693 265.101 133.77 255.955 132.604C254.99 132.437 254.11 132.293 253.191 131.955C248.096 130.406 244.027 126.746 242.146 122.112C234.86 107.494 233.058 67.271 274.918 52.2384C263.666 65.1013 251.971 86.4728 267.121 104.299M336.778 59.5441C337.589 59.9449 338.377 60.4314 339.142 61.0035C346.238 66.3924 347.776 76.0742 342.415 82.7144C337.055 89.3547 326.97 90.3237 319.874 84.9348C313.989 80.5126 312.003 73.1887 314.472 67.0586C315.01 65.7344 315.634 64.4332 316.578 63.3094C320.554 58.4091 327.103 56.5846 333.186 58.2145C334.386 58.5359 335.625 59.0514 336.755 59.6297M369.978 49.0743C369.978 49.0743 370.617 49.4293 370.914 49.6923C373.825 51.8491 374.404 55.8589 372.23 58.4887C370.056 61.1185 365.982 61.5871 363.071 59.4303C360.69 57.6911 359.859 54.6233 360.89 52.1462C361.051 51.5468 361.36 51.0789 361.755 50.634C363.402 48.5974 366.059 47.9327 368.458 48.5755C368.972 48.7132 369.486 48.851 369.955 49.16M356.043 38.3654C343.119 34.1681 323.856 32.0354 315.95 46.8045C315.56 48.2602 315.022 49.5844 314.249 50.7541C314.249 50.7541 314.203 50.9253 314.18 51.011C312.704 53.0934 310.526 54.7124 307.674 55.4168C301.148 57.1557 294.09 53.3373 291.96 46.8927C291.778 46.2015 291.596 45.5102 291.5 44.842C290.961 41.0265 292.314 37.3505 295.024 34.7728C300.916 28.5501 316.967 20.7361 334.53 25.4421C341.641 27.3475 349.018 31.3433 356.066 38.2798M396.861 30.3042C397.415 30.6362 397.906 30.8595 398.437 31.2771C403.175 34.8412 404.185 41.3528 400.627 45.7226C397.068 50.0923 390.366 50.7745 385.628 47.2104C381.74 44.2414 380.38 39.3797 382.019 35.3216C382.357 34.4026 382.843 33.6151 383.438 32.765C386.076 29.4334 390.504 28.3256 394.531 29.4046C395.302 29.6112 396.136 29.9264 396.947 30.3272M318.357 3.21158C318.357 3.21158 318.996 3.56649 319.293 3.82958C322.204 5.98637 322.806 9.91047 320.609 12.6259C318.412 15.3413 314.361 15.7243 311.45 13.5675C309.092 11.7427 308.238 8.76053 309.269 6.28341C309.43 5.684 309.739 5.21612 310.134 4.7712C311.781 2.73463 314.439 2.06997 316.838 2.71274C317.352 2.85047 317.866 2.98821 318.248 3.27426M346.713 1.90695C346.713 1.90695 347.524 2.30778 347.82 2.57086C351.263 5.14525 352.023 9.84621 349.409 13.0922C346.817 16.2525 341.903 16.7715 338.461 14.1971C335.635 12.0632 334.662 8.49842 335.831 5.50751C336.014 4.82246 336.455 4.20628 336.873 3.67573C338.806 1.25691 341.961 0.450141 344.959 1.2536C345.559 1.4143 346.159 1.57499 346.713 1.90695ZM378.658 9.82423C378.658 9.82423 379.298 10.1791 379.594 10.4422C382.506 12.599 383.107 16.5231 380.91 19.2386C378.822 21.8913 374.662 22.337 371.774 20.0945C369.393 18.3553 368.563 15.2876 369.594 12.8104C369.731 12.2966 370.063 11.7431 370.458 11.2982C372.106 9.26164 374.763 8.59699 377.162 9.23976C377.676 9.37749 378.19 9.51523 378.572 9.80128" fill="#666666"/>
<path d="M468.948 371.949C469.548 372.11 470.234 372.294 470.873 372.648C476.783 375.609 479.266 382.79 476.306 388.697C473.346 394.604 466.099 396.976 460.189 394.016C455.324 391.611 452.81 386.256 453.799 381.198C454.011 380.062 454.372 379.057 454.842 377.99C457.424 372.808 463.317 370.349 468.714 371.795C468.886 371.841 468.971 371.864 469.057 371.887M484.321 351.93C484.321 351.93 485.007 352.114 485.327 352.291C488.399 353.849 489.629 357.483 488.071 360.553C486.514 363.623 482.794 364.829 479.699 363.357C477.18 362.132 475.915 359.315 476.323 356.763C476.484 356.163 476.622 355.649 476.782 355.05C478.139 352.385 481.151 351.081 483.893 351.816L484.064 351.862M438.413 333.755C439.222 335.532 439.34 337.491 438.858 339.29C438.858 339.29 438.835 339.375 438.812 339.461C438.56 340.403 438.113 341.384 437.518 342.235C433.158 353.365 442.558 362.492 450.266 367.31C427.186 365.715 421.204 345.206 422.27 336.772C422.421 334.151 423.709 331.743 425.95 330.232C426.299 329.959 426.733 329.708 427.145 329.543C429.008 328.757 430.968 328.64 432.767 329.122C435.166 329.765 437.204 331.412 438.304 333.818M459.581 332.544C459.581 332.544 460.095 332.682 460.438 332.774C462.956 333.999 463.981 337.027 462.67 339.521C461.445 342.038 458.439 342.976 455.921 341.751C453.893 340.749 452.833 338.537 453.236 336.35C453.35 335.922 453.488 335.408 453.603 334.98C454.736 332.806 457.12 331.793 459.433 332.412C459.433 332.412 459.519 332.435 459.604 332.458M390.281 310.854C390.281 310.854 390.795 310.992 391.137 311.084C393.656 312.309 394.681 315.337 393.37 317.831C392.144 320.348 389.138 321.286 386.62 320.061C384.593 319.059 383.533 316.848 383.935 314.661C384.05 314.233 384.187 313.719 384.302 313.291C385.436 311.116 387.819 310.103 390.132 310.723C390.132 310.723 390.218 310.746 390.304 310.769M355.361 300.672C355.361 300.672 356.132 300.878 356.538 301.079C360.015 302.837 361.45 307.076 359.693 310.551C357.935 314.027 353.694 315.46 350.217 313.703C347.379 312.3 345.925 309.157 346.448 306.177C346.609 305.577 346.793 304.892 347.039 304.316C348.596 301.245 351.997 299.862 355.167 300.711C355.167 300.711 355.338 300.757 355.424 300.78M486.035 325.315C486.035 325.315 486.549 325.452 486.892 325.544C489.41 326.77 490.435 329.798 489.124 332.292C487.899 334.808 484.893 335.747 482.375 334.521C480.348 333.519 479.287 331.308 479.69 329.121C479.804 328.693 479.942 328.179 480.057 327.751C481.19 325.577 483.574 324.563 485.887 325.183L486.058 325.229M419.016 297.169C424.637 313.544 445.031 309.739 452.008 309.405C445.321 322.023 409.082 322.592 405.293 307.259C402.511 296.051 410.399 292.658 415.368 293.989C417.167 294.471 418.612 295.593 419.016 297.169ZM337.297 273.162C341.065 275.548 343.752 279.572 344.193 284.096C344.243 284.935 344.317 285.689 344.258 286.591C343.696 294.517 336.668 300.527 328.761 299.877C325.345 299.604 322.422 298.178 320.047 296.074C320.047 296.074 319.876 296.028 319.836 295.834C318.586 294.673 317.514 293.192 316.744 291.609C303.495 275.944 282.063 282.592 268.446 290.232C284.464 265.063 308.804 263.325 324.911 267.64C330.137 269.041 334.471 271.028 337.406 273.099M467.655 300.015C467.655 300.015 468.34 300.198 468.66 300.376C471.818 301.956 473.087 305.784 471.507 308.94C469.927 312.096 466.098 313.364 462.94 311.784C460.359 310.45 459.008 307.61 459.548 304.909C459.709 304.31 459.869 303.711 460.007 303.197C461.387 300.446 464.508 299.08 467.421 299.86L467.592 299.906M386.133 273.215C391.821 275.29 394.814 281.598 392.763 287.198C390.688 292.883 384.401 295.787 378.713 293.713C373.025 291.638 370.009 285.415 372.083 279.73C374.066 274.387 379.816 271.431 385.214 272.877C385.471 272.946 385.814 273.038 386.156 273.129M357.771 254.326C357.771 254.326 358.542 254.533 358.947 254.733C362.424 256.491 363.86 260.73 362.102 264.206C360.344 267.681 356.103 269.115 352.626 267.357C349.788 265.954 348.335 262.811 348.858 259.831C349.041 259.146 349.202 258.547 349.385 257.862C350.943 254.791 354.344 253.408 357.514 254.257L357.771 254.326ZM446.097 280.747C447.448 283.587 447.416 286.79 446.013 289.627C445.79 290.118 445.48 290.585 445.086 291.03C441.722 295.36 435.425 296.243 431.092 292.879C429.18 291.449 428.051 289.495 427.504 287.421C427.504 287.421 427.527 287.335 427.55 287.25C427.312 286.084 427.267 284.879 427.417 283.634C425.65 269.669 410.703 265.481 399.98 264.718C409.085 260.55 417.221 260.344 424.075 262.18C435.984 265.371 443.938 274.753 446.314 280.621" fill="#666666"/>
<path d="M338.719 209.94C338.719 209.94 339.404 210.124 339.787 210.41C342.961 212.27 344.1 216.246 342.24 219.419C340.465 222.614 336.402 223.728 333.227 221.868C330.607 220.34 329.387 217.352 330.036 214.588C330.196 213.989 330.357 213.39 330.689 212.836C332.24 210.131 335.315 208.936 338.142 209.694C338.314 209.739 338.485 209.785 338.656 209.831M315.115 202.422C315.708 202.948 316.387 203.497 316.958 204.109C322.385 210.244 322.46 219.901 317.158 225.639C314.858 228.052 312.04 229.316 309.109 229.632C309.109 229.632 308.938 229.586 308.829 229.648C307.149 229.749 305.561 229.507 303.871 228.962C284.504 227.903 282.839 236.176 266.901 260.357C265.402 220.031 289.719 202.96 303.045 199.83C305.251 199.137 307.725 199.157 310.038 199.777C311.837 200.259 313.608 201.192 315.2 202.445M322.061 176.841C322.061 176.841 322.66 177.002 322.871 177.242C325.344 178.639 326.175 181.706 324.778 184.177C323.404 186.563 320.312 187.478 317.84 186.081C315.859 184.908 314.907 182.634 315.481 180.493C315.596 180.065 315.733 179.551 316.019 179.169C317.216 177.103 319.553 176.261 321.695 176.835C321.866 176.881 321.952 176.904 322.123 176.95M415.279 191.172C415.279 191.172 415.707 191.287 415.941 191.442C418.008 192.638 418.697 195.209 417.5 197.274C416.304 199.34 413.732 200.028 411.666 198.832C410.004 197.836 409.218 195.973 409.614 194.152C409.706 193.809 409.82 193.381 410.021 192.976C411.04 191.23 412.989 190.467 414.788 190.949C414.873 190.972 415.045 191.018 415.13 191.041M336.499 197.322C333.205 194.879 331.335 190.89 331.603 186.465C331.638 185.648 331.759 184.855 331.88 184.061C333.665 176.371 341.138 170.756 348.695 171.679C351.894 172.078 354.515 173.606 356.415 175.767C356.415 175.767 356.501 175.79 356.541 175.984C357.596 177.185 358.303 178.659 358.816 180.173C371.45 194.021 392.363 191.365 406.505 184.508C381.407 216.147 346.488 205.964 336.476 197.407M526.975 204.397C527.489 204.535 527.894 204.736 528.3 204.936C532.371 207.22 533.81 212.47 531.441 216.516C529.157 220.585 523.905 222.023 519.857 219.653C516.511 217.747 514.984 213.85 515.839 210.316C516.046 209.546 516.252 208.775 516.716 208.073C518.645 204.643 522.628 203.141 526.312 204.128C526.569 204.197 526.826 204.266 526.998 204.312M438.863 180.604C438.863 180.604 439.548 180.788 439.931 181.074C443.105 182.934 444.244 186.91 442.383 190.083C440.609 193.279 436.546 194.393 433.371 192.533C430.75 191.004 429.531 188.016 430.18 185.253C430.34 184.653 430.501 184.054 430.833 183.501C432.384 180.796 435.459 179.6 438.372 180.381C438.543 180.427 438.714 180.473 438.886 180.519M341.949 149.221C342.463 149.359 342.955 149.583 343.423 149.892C347.962 152.485 349.544 158.232 346.974 162.683C344.381 167.219 338.655 168.714 334.093 166.206C330.341 164.1 328.649 159.792 329.596 155.915C329.825 155.059 330.055 154.203 330.541 153.415C332.671 149.58 337.152 147.936 341.178 149.015C341.435 149.084 341.692 149.153 341.949 149.221ZM410.697 164.063C410.697 164.063 411.446 164.355 411.851 164.556C415.431 166.616 416.712 171.09 414.651 174.667C412.59 178.245 408.03 179.501 404.45 177.441C401.51 175.735 400.211 172.358 400.951 169.253C401.134 168.568 401.318 167.883 401.673 167.243C403.402 164.219 406.865 162.944 410.035 163.794C410.206 163.84 410.463 163.909 410.635 163.954M505.212 189.663C507.329 191.699 508.354 194.727 507.614 197.833C507.476 198.347 507.316 198.946 507.178 199.46C504.962 204.648 498.737 207.661 493.339 206.215C491.026 205.595 489.285 204.211 488.087 202.513C488.087 202.513 488.087 202.513 488.047 202.319C487.397 201.319 487.027 200.302 486.874 199.159C479.099 188.081 463.274 187.512 452.032 190.741C465.305 179.246 479.537 178.562 490.161 181.409C497.272 183.314 502.85 186.828 505.469 189.732M363.05 131.472C363.05 131.472 363.479 131.586 363.713 131.741C365.78 132.937 366.468 135.508 365.272 137.574C364.076 139.639 361.504 140.327 359.437 139.131C357.775 138.135 356.989 136.272 357.385 134.451C357.477 134.108 357.592 133.68 357.769 133.361C358.788 131.615 360.737 130.852 362.622 131.357C362.708 131.38 362.879 131.426 362.965 131.449M545.303 177.461C545.903 177.622 546.457 177.954 547.033 178.2C552.383 181.194 554.227 188.021 551.148 193.345C548.154 198.692 541.325 200.533 535.998 197.454C531.607 194.992 529.561 189.947 530.715 185.3C530.99 184.272 531.265 183.245 531.798 182.286C534.368 177.835 539.586 175.837 544.298 177.1C544.641 177.192 544.898 177.261 545.24 177.352M457.114 172.462C451.868 163.255 441.206 153.698 428.765 156.606C427.936 157.301 426.895 157.757 425.901 158.041L425.792 158.104C423.935 158.524 421.85 158.424 419.931 157.359C415.432 154.961 413.273 148.967 415.25 143.99C415.387 143.476 415.696 143.008 416.005 142.54C417.619 139.944 420.14 138.417 422.917 138.335C425.008 138.069 427.888 138.29 431.143 139.163C441.681 141.986 455.703 151.342 457.16 172.291M516.085 156.967C516.085 156.967 516.685 157.127 516.982 157.39C519.859 158.987 520.809 162.638 519.235 165.428C517.661 168.219 513.986 169.253 511.217 167.594C508.916 166.243 507.799 163.557 508.356 161.137C508.494 160.623 508.655 160.023 508.964 159.556C510.337 157.17 513.086 156.163 515.657 156.852C515.828 156.898 515.999 156.944 516.171 156.989M386.509 158.041C387.176 159.321 387.563 160.618 387.67 161.931C387.67 161.931 387.733 162.04 387.71 162.125C387.884 164.558 387.219 167.042 385.463 169.141C381.464 174.127 373.635 175.242 367.995 171.619C367.441 171.287 366.91 170.87 366.402 170.366C363.582 167.867 362.329 164.319 362.859 160.973C363.71 149.913 378.593 123.154 412.56 127.3C399.969 131.452 385.869 142.267 386.509 158.041ZM489.355 144.665C490.04 144.848 490.68 145.203 491.405 145.581C497.691 149.193 499.882 157.122 496.27 163.405C492.682 169.602 484.726 171.876 478.44 168.264C473.261 165.316 470.908 159.363 472.182 153.922C472.504 152.723 472.825 151.524 473.489 150.417C476.46 145.156 482.587 142.851 488.264 144.28C488.607 144.372 489.035 144.487 489.378 144.579M540.18 149.289C540.18 149.289 540.865 149.472 541.077 149.713C543.954 151.31 544.904 154.96 543.33 157.751C541.756 160.541 538.082 161.576 535.312 159.916C533.011 158.565 531.895 155.879 532.451 153.459C532.589 152.945 532.75 152.346 533.059 151.878C534.432 149.492 537.182 148.485 539.752 149.174C539.923 149.22 540.094 149.266 540.266 149.312M508.598 122.195C509.112 122.333 509.603 122.556 510.071 122.865C514.696 125.481 516.255 131.314 513.662 135.851C511.069 140.387 505.212 142.03 500.673 139.437C496.921 137.33 495.143 132.999 496.136 128.952C496.366 128.095 496.595 127.239 497.081 126.452C499.297 122.64 503.715 120.887 507.827 121.989C508.084 122.057 508.341 122.126 508.598 122.195ZM485.578 113.182C485.578 113.182 486.006 113.297 486.24 113.451C488.307 114.647 488.996 117.218 487.799 119.284C486.603 121.35 484.032 122.037 481.965 120.841C480.28 119.931 479.517 117.982 479.913 116.161C480.005 115.818 480.119 115.39 480.32 114.985C481.316 113.325 483.288 112.476 485.087 112.958C485.172 112.981 485.344 113.027 485.43 113.05M458.09 103.706C461.305 105.76 463.289 109.32 463.113 113.403C463.101 114.134 463.003 114.842 462.905 115.55C461.475 122.601 454.351 127.943 447.13 127.477C444.056 127.295 441.475 125.961 439.592 124.08C439.592 124.08 439.506 124.057 439.444 123.949C438.451 122.856 437.675 121.639 437.14 120.211C424.584 108.127 404.498 111.464 391.111 118.248C408.565 95.9422 432.099 94.8139 446.835 98.7624C451.718 100.071 455.624 101.943 458.068 103.791" fill="#666666"/>
</g>
</svg>
