<svg width="553" height="714" viewBox="0 0 553 714" fill="none" xmlns="http://www.w3.org/2000/svg">
<g opacity="0.1">
<path d="M239.576 629.177C221.809 635.865 200.048 641.696 180.483 638.586C191.135 656.75 204.967 673.418 221.843 688.078C241.137 689.149 261.517 684.331 278.098 674.932C310.877 656.42 326.205 623.495 330.399 587.403C326.561 583.016 322.334 578.55 317.547 574.051C314.338 569.955 311.3 565.813 308.37 561.733C295.635 592.68 271.368 617.262 239.599 629.263" fill="#666666"/>
<path d="M289.07 682.639C273.586 692.019 255.424 698.262 236.973 699.994C237.321 700.268 237.756 700.518 238.105 700.792C303.831 739.441 399.633 684.035 340.794 600.495C334.591 633.546 319.016 664.519 288.984 682.662" fill="#666666"/>
<path d="M256.491 388.68C258.876 358.855 275.135 316.043 275.135 316.043C275.135 316.043 238.762 344.787 206.261 389.015C206.501 389.226 206.719 389.351 206.959 389.562C222.984 404.817 240.687 403.377 256.491 388.68Z" fill="#666666"/>
<path d="M199.331 399.132C185.019 420.772 174.16 442.955 166.699 465.146C166.808 465.208 167.002 465.248 167.111 465.311C197.762 481.694 239.323 473.679 259.003 445.002C256.696 430.568 255.739 417.058 255.834 404.734C237.508 416.528 216.978 414.962 199.331 399.132Z" fill="#666666"/>
<path d="M155.511 564.236C158.121 585.289 163.902 605.491 172.995 624.348C173.726 624.335 174.48 624.409 175.281 624.653C194.427 630.995 219.643 624.697 237.369 616.827C266.264 604.037 287.831 582.748 298.648 552.866C299.058 551.655 299.754 550.826 300.582 550.145C291.042 535.447 283.314 520.997 277.226 506.843C250.973 549.028 204.414 568.204 155.511 564.236Z" fill="#666666"/>
<path d="M162.958 476.886C155.701 502.234 152.917 527.485 154.401 551.868C201.116 556.238 245.032 538.506 269.073 496.637C269.889 495.225 270.888 494.499 272.041 494.006C267.784 482.573 264.436 471.447 262.019 460.714C237.349 486.873 195.735 492.976 162.958 476.886Z" fill="#666666"/>
<path d="M539.918 187.733C539.404 187.87 538.89 188.008 538.421 188.317C533.665 190.785 531.74 196.624 534.208 201.377C536.675 206.131 542.516 208.054 547.273 205.586C551.241 203.605 553.105 199.251 552.369 195.134C552.14 194.278 551.91 193.422 551.486 192.526C549.374 188.411 544.715 186.447 540.346 187.618C540.26 187.641 540.089 187.687 540.003 187.71M512.724 189.053C512.724 189.053 512.039 189.237 511.719 189.414C508.562 190.995 507.315 194.908 508.872 197.979C510.452 201.135 514.367 202.38 517.502 200.714C520.083 199.38 521.348 196.563 520.894 193.84C520.733 193.24 520.572 192.641 520.349 192.15C518.969 189.399 515.871 188.118 512.958 188.899L512.701 188.968M467.592 190.592C467.592 190.592 466.906 190.776 466.587 190.953C463.429 192.533 462.182 196.447 463.825 199.494C465.405 202.65 469.32 203.896 472.455 202.23C475.036 200.896 476.301 198.079 475.847 195.355C475.686 194.756 475.526 194.156 475.302 193.666C473.922 190.915 470.825 189.634 467.912 190.414L467.655 190.483M437.373 188.502C437.373 188.502 436.859 188.639 436.539 188.817C434.044 190.128 433.018 193.156 434.329 195.65C435.64 198.144 438.647 199.082 441.165 197.857C443.192 196.855 444.229 194.557 443.827 192.371C443.712 191.943 443.574 191.429 443.46 191.001C442.326 188.826 439.943 187.813 437.63 188.433L437.458 188.479M535.378 158.111C534.864 158.249 534.35 158.387 533.882 158.696C529.36 161.009 527.537 166.545 529.85 171.065C532.163 175.585 537.678 177.319 542.201 175.006C545.912 173.094 547.759 169.019 547.006 165.183C546.777 164.326 546.547 163.47 546.255 162.722C544.274 158.756 539.833 156.917 535.721 158.019L535.378 158.111ZM506.814 159.799C506.814 159.799 506.3 159.937 506.066 160.091C503.633 161.294 502.694 164.299 503.873 166.645C505.076 169.076 508.082 170.014 510.492 168.726C512.433 167.747 513.493 165.535 513.028 163.457C512.913 163.029 512.799 162.601 512.661 162.087C511.55 159.998 509.276 159.048 507.048 159.645L506.877 159.691M449.468 188.748C458.047 182.044 472.003 175.184 482.765 184.507C483.406 185.528 484.281 186.395 485.282 187.045C485.282 187.045 485.305 187.131 485.413 187.193C487.197 188.367 489.403 189.061 491.831 188.87C497.395 188.388 501.532 183.609 501.052 178.047C501 177.51 500.839 176.911 500.702 176.397C499.876 173.314 497.662 170.879 494.844 169.615C490.18 167.285 481.225 165.738 472.23 168.148C463.234 170.559 454.705 176.423 449.359 188.686M316.744 251.662C322.03 237.121 336.476 218.382 356.601 221.525C358.247 222.185 359.933 222.651 361.698 222.729C361.698 222.729 361.892 222.769 362.001 222.831C365.12 222.822 368.29 221.972 370.968 219.97C377.321 215.239 378.677 206.248 373.946 199.898C373.396 199.219 372.87 198.626 372.281 198.142C368.958 194.994 364.375 193.652 360 194.457C358.194 194.574 356.178 194.931 354.122 195.481C339.043 199.522 317.475 214.295 316.79 251.833M410.279 171.348C407.024 172.22 403.946 173.412 400.867 174.604C399.286 175.211 397.727 175.905 396.276 176.66C395.129 177.518 394.113 178.525 393.252 179.765C393.275 179.851 393.126 179.982 393.063 180.091C389.647 185.504 391.209 192.703 396.56 196.225C402.02 199.81 409.44 198.372 413.028 192.914C413.216 192.588 413.404 192.262 413.507 191.96C415.561 190.032 417.53 188.128 419.631 186.372C429.197 178.21 439.588 171.755 448.856 167.619C435.458 166.621 423.325 167.944 412.444 170.86C411.673 171.066 410.902 171.273 410.131 171.48M525.646 139.61C525.646 139.61 525.132 139.747 524.898 139.902C522.465 141.104 521.526 144.109 522.705 146.455C523.908 148.886 526.914 149.824 529.323 148.536C531.35 147.534 532.325 145.346 531.86 143.268C531.745 142.84 531.631 142.411 531.493 141.898C530.382 139.809 528.108 138.858 525.88 139.455L525.709 139.501M481.324 145.887C481.324 145.887 480.553 146.094 480.256 146.357C476.779 148.115 475.366 152.439 477.187 155.806C478.945 159.282 483.248 160.607 486.725 158.849C489.541 157.361 490.994 154.218 490.385 151.26C490.225 150.661 490.041 149.976 489.795 149.399C488.26 146.415 484.837 144.946 481.667 145.795C481.581 145.818 481.495 145.841 481.41 145.864M371.308 169.492C370.794 169.63 370.28 169.767 369.811 170.076C365.032 172.458 363.193 178.274 365.638 182.943C367.996 187.634 373.837 189.556 378.594 187.089C382.477 185.13 384.449 180.839 383.627 176.746C383.398 175.889 383.168 175.033 382.745 174.137C380.632 170.022 375.997 168.144 371.713 169.292C371.627 169.314 371.456 169.36 371.37 169.383M397.891 143.279C397.463 143.394 397.035 143.508 396.652 143.794C392.684 145.776 391.067 150.706 393.133 154.649C395.114 158.616 400.024 160.146 403.992 158.164C407.212 156.475 408.831 152.921 408.193 149.513C408.01 148.828 407.803 148.057 407.511 147.309C405.753 143.834 401.832 142.223 398.234 143.187C398.149 143.21 397.977 143.256 397.891 143.279ZM420.89 145.835C421.028 146.349 421.102 146.972 421.24 147.485C422.066 150.568 424.365 152.981 427.246 154.136C436.398 158.476 461.885 159.356 472.239 133.912C463.813 140.85 450.035 148.03 439.062 138.947C438.335 137.949 437.46 137.082 436.46 136.432C436.46 136.432 436.437 136.346 436.328 136.284C434.459 135.133 432.276 134.524 429.956 134.779C429.442 134.917 428.905 134.969 428.391 135.106C423.679 136.369 420.485 140.896 420.976 145.812M461.72 127.553C472.172 124.752 487.756 123.972 493.952 136.813C494.273 138.012 494.594 139.211 495.321 140.209L495.367 140.38C496.58 142.166 498.261 143.643 500.49 144.423C505.748 146.226 511.51 143.397 513.315 138.141C513.543 137.621 513.577 137.061 513.696 136.479C514.224 133.309 513.118 130.209 511.036 127.922C506.185 122.155 492.46 114.452 477.467 118.469C472.241 119.869 466.845 122.692 461.634 127.576M445.28 119.659C445.28 119.659 444.594 119.843 444.298 120.106C441.14 121.686 439.87 125.514 441.45 128.67C443.03 131.826 446.945 133.072 450.08 131.406C452.661 130.072 453.926 127.255 453.472 124.531C453.311 123.932 453.151 123.332 452.928 122.842C451.548 120.091 448.45 118.81 445.537 119.59L445.28 119.659Z" fill="#666666"/>
<path d="M507.771 401.198C503.733 402.922 501.876 407.642 503.6 411.677C505.324 415.712 510.045 417.567 514.082 415.843C517.457 414.388 519.293 410.959 518.85 407.591C518.752 406.883 518.631 406.089 518.253 405.364C516.729 401.734 512.74 399.866 509.033 400.768C508.947 400.791 508.776 400.837 508.69 400.86C508.347 400.951 508.09 401.02 507.748 401.112M530.432 377.137C524.664 379.6 522.043 386.268 524.506 392.033C526.969 397.797 533.639 400.415 539.407 397.952C544.192 395.936 546.735 391.033 546.181 386.225C546.077 385.151 545.802 384.124 545.355 383.142C543.162 378.04 537.589 375.403 532.231 376.655C532.06 376.701 531.888 376.747 531.803 376.77C531.374 376.884 530.86 377.022 530.455 377.223M500.995 369.055C500.995 369.055 500.481 369.193 500.223 369.262C497.02 370.671 495.447 374.396 496.879 377.684C498.288 380.886 502.014 382.457 505.304 381.025C508.016 379.839 509.476 377.062 509.13 374.401C509.055 373.779 508.895 373.179 508.648 372.603C507.417 369.72 504.273 368.268 501.252 368.986L500.995 369.055ZM541.794 348.945C541.794 348.945 541.28 349.083 541.023 349.152C537.819 350.561 536.246 354.286 537.678 357.574C539.087 360.775 542.814 362.347 546.103 360.915C548.815 359.729 550.275 356.952 549.929 354.291C549.854 353.669 549.717 353.155 549.47 352.578C548.239 349.696 545.072 348.158 542.074 348.962L541.817 349.031M514.601 361.921C517.041 362.461 519.549 361.881 521.501 360.256C521.884 359.97 522.18 359.707 522.454 359.358C525.324 356.019 524.896 350.995 521.557 348.126C520.139 346.946 518.407 346.309 516.664 346.317C516.664 346.317 516.579 346.34 516.493 346.363C515.482 346.358 514.602 346.502 513.683 346.841C502.383 347.849 496.629 337 494.232 328.74C489.553 350.002 506.665 360.744 514.539 362.03M505.764 314.545C505.764 314.545 505.507 314.614 505.335 314.66C503.348 315.468 502.505 317.805 503.313 319.791C504.12 321.777 506.458 322.619 508.445 321.811C510.09 321.095 510.945 319.489 510.766 317.794C510.674 317.451 510.583 317.109 510.491 316.766C509.752 315.037 507.843 314.08 506.044 314.562L505.872 314.608M420.494 335.924C421.547 342.251 427.556 346.514 433.885 345.461C439.163 344.597 442.986 340.361 443.569 335.34C443.745 334.283 443.727 333.187 443.514 332.051C442.537 326.347 437.608 322.345 432.015 322.375C431.369 322.364 430.723 322.354 430.038 322.537C429.695 322.629 429.267 322.744 428.924 322.836C423.184 324.374 419.471 330.049 420.432 336.033M461.479 355.23C460.555 356.579 459.848 358.053 459.53 359.607C459.53 359.607 459.49 359.801 459.404 359.824C458.784 362.652 458.965 365.724 460.368 368.56C463.534 375.238 471.604 377.94 478.199 374.796C478.925 374.418 479.564 374.063 480.181 373.623C483.669 371.219 485.733 367.271 485.814 363.119C487.119 349.828 476.921 317.593 440.344 316.105C452.686 323.444 468.001 337.421 461.479 355.23ZM475.387 304.329C472.098 305.761 470.611 309.463 472.042 312.751C473.451 315.953 477.178 317.524 480.467 316.092C483.094 314.929 484.639 312.129 484.294 309.468C484.219 308.846 484.058 308.246 483.835 307.755C482.603 304.873 479.437 303.335 476.438 304.139C476.352 304.162 476.267 304.185 476.181 304.208C475.924 304.277 475.667 304.345 475.41 304.414M399.326 314.154C399.902 317.671 403.189 320.003 406.708 319.427C409.604 318.927 411.652 316.634 412.015 313.875C412.134 313.292 412.06 312.67 411.985 312.048C411.501 308.873 408.82 306.746 405.7 306.756C405.335 306.762 404.969 306.769 404.626 306.861C404.369 306.929 404.198 306.975 404.026 307.021C400.857 307.871 398.843 310.98 399.349 314.24M477.518 272.186C477.01 272.689 476.525 273.278 476.125 273.844C472.201 279.759 473.775 287.69 479.692 291.611C482.237 293.224 485.065 293.842 487.859 293.645C487.859 293.645 488.03 293.599 488.116 293.576C489.641 293.442 491.16 292.943 492.548 292.296C510.34 288.447 521.693 304.77 527.025 317.475C530.467 282.686 501.104 268.711 488.209 268.22C486.614 268.096 485.003 268.253 483.461 268.666C481.234 269.263 479.167 270.459 477.432 272.209M396.61 285.513C397.306 289.823 401.377 292.679 405.69 291.983C409.209 291.407 411.742 288.525 412.224 285.184C412.298 284.43 412.371 283.676 412.188 282.991C411.521 279.131 408.25 276.52 404.462 276.434C404.011 276.463 403.645 276.469 403.108 276.521C402.851 276.59 402.594 276.659 402.337 276.728C398.482 277.761 395.921 281.568 396.633 285.598M445.274 268.71C445.85 272.227 449.137 274.559 452.656 273.983C455.552 273.482 457.601 271.19 457.963 268.431C458.083 267.848 458.008 267.226 457.933 266.604C457.387 263.538 454.682 261.325 451.648 261.312C451.305 261.404 450.917 261.325 450.574 261.416C450.403 261.462 450.146 261.531 449.974 261.577C446.805 262.426 444.791 265.536 445.297 268.796M437.919 303.63C440.726 305.539 444.201 306.169 447.496 305.102C448.096 304.941 448.672 304.695 449.226 304.363C454.537 301.564 456.643 295.033 453.844 289.726C452.687 287.466 450.789 285.864 448.6 284.89L448.405 284.851C447.171 284.355 445.897 284.054 444.605 284.033C429.838 279.638 428.117 262.937 429.322 251.325C412.477 275.846 428.532 298.069 437.856 303.739M396.709 255.383C397.285 258.9 400.572 261.231 404.091 260.655C406.987 260.155 409.035 257.862 409.398 255.103C409.517 254.521 409.528 253.875 409.368 253.276C408.907 250.187 406.117 247.998 403.083 247.985C402.717 247.991 402.352 247.997 402.009 248.089C401.838 248.135 401.581 248.203 401.409 248.249C398.24 249.099 396.226 252.208 396.732 255.468M313.5 273.824C327.232 266.473 348.598 260.197 361.447 275.936C362.14 277.495 363.176 278.961 364.422 280.187C364.445 280.273 364.468 280.358 364.491 280.444C366.807 282.577 369.671 284.012 373.077 284.385C380.984 285.111 388.051 279.271 388.78 271.366C388.83 270.527 388.795 269.71 388.76 268.893C388.446 264.297 385.905 260.297 382.144 257.909C374.933 252.59 358.862 247.443 342.413 251.851C332.132 254.605 321.679 261.17 313.391 273.761" fill="#666666"/>
<path d="M334.636 494.58C331.169 495.693 329.293 499.316 330.405 502.781C331.495 506.16 335.142 508.12 338.608 507.007C341.39 506.078 343.175 503.489 343.149 500.651C343.16 500.006 343.085 499.383 342.924 498.784C341.927 495.747 338.863 493.906 335.772 494.367C335.515 494.436 335.173 494.528 334.916 494.597C334.916 494.597 334.744 494.643 334.659 494.666M357.669 470.879C353.859 472.083 351.733 476.14 352.959 480.033C354.163 483.841 358.308 485.943 362.117 484.738C365.241 483.718 367.215 480.803 367.206 477.685C367.216 477.039 367.118 476.331 366.935 475.646C365.823 472.181 362.433 470.153 359 470.706C358.657 470.797 358.4 470.866 358.057 470.958C358.057 470.958 357.886 471.004 357.8 471.027M349.578 443.769C344.678 445.357 341.947 450.586 343.449 455.507C345.037 460.405 350.268 463.133 355.276 461.607C359.343 460.334 361.904 456.528 361.837 452.507C361.864 451.582 361.743 450.788 361.491 449.846C360.041 445.463 355.759 442.847 351.252 443.504C350.824 443.619 350.372 443.648 349.944 443.763C349.944 443.763 349.773 443.809 349.687 443.831M379.356 433.587C372.076 448.57 392.694 458.006 399.625 442.749C413.857 411.218 393.423 392.188 385.667 383.804C392.828 418.413 379.356 433.587 379.356 433.587ZM365.73 380.335C362.263 381.448 360.387 385.071 361.499 388.536C362.589 391.915 366.236 393.875 369.702 392.762C372.484 391.833 374.269 389.244 374.243 386.406C374.254 385.761 374.179 385.138 373.933 384.562C372.935 381.525 369.871 379.684 366.866 380.122C366.609 380.191 366.267 380.283 366.01 380.352L365.838 380.398M350.621 425.042C353.131 427.214 356.549 428.318 359.936 427.594C360.536 427.433 361.135 427.272 361.735 427.112C367.4 424.951 370.222 418.688 368.085 413.112C367.162 410.697 365.498 408.941 363.411 407.664C363.411 407.664 363.217 407.625 363.194 407.539C362.022 406.935 360.787 406.44 359.536 406.224C345.406 400.098 345.685 383.32 348.313 371.878C328.678 394.21 341.986 418.177 350.598 424.956M366.077 341.878C359.572 343.988 355.923 350.932 357.947 357.457C360.056 363.958 367.001 367.604 373.592 365.471C379.006 363.745 382.343 358.721 382.189 353.347C382.148 352.165 382.021 351.006 381.722 349.893C379.882 344.053 374.08 340.56 368.156 341.413C367.642 341.551 367.019 341.626 366.42 341.787L366.077 341.878ZM339.353 344.266C335.886 345.379 334.011 349.002 335.123 352.467C336.212 355.846 339.859 357.806 343.326 356.694C346.107 355.765 347.893 353.175 347.867 350.337C347.877 349.692 347.802 349.069 347.642 348.47C346.644 345.433 343.666 343.57 340.576 344.031C340.319 344.1 339.976 344.191 339.719 344.26C339.719 344.26 339.547 344.306 339.462 344.329M307.287 298.617C317.144 300.106 330.771 305.724 332.65 321.649C332.543 322.963 332.653 324.402 332.912 325.709C332.912 325.709 332.957 325.881 332.98 325.966C333.537 328.387 334.608 330.67 336.358 332.403C340.385 336.464 346.097 335.851 349.051 331.113C349.365 330.57 349.593 330.05 349.821 329.53C351.103 326.433 351.042 322.779 349.805 319.531C346.543 309.758 332.657 291.177 313.295 296.365C311.325 296.893 309.423 297.677 307.31 298.703" fill="#666666"/>
<path d="M280.533 171.696C280.845 174.917 282.35 177.45 284.598 179.326C284.598 179.326 284.729 179.474 284.815 179.451C286.079 180.398 287.491 181.212 289.091 181.701C300.116 191.321 303.772 211.818 298.551 229.003C321.274 193.178 315.729 169.057 307.023 159.183C304.603 155.977 300.528 154.132 295.929 154.446C295.112 154.482 294.318 154.603 293.461 154.832C293.29 154.878 293.118 154.924 292.947 154.97C285.237 157.036 279.703 164.484 280.533 171.696ZM312.649 136.658C312.649 136.658 312.01 137.013 311.713 137.276C308.802 139.433 308.2 143.357 310.397 146.072C312.571 148.702 316.645 149.171 319.556 147.014C321.914 145.189 322.768 142.207 321.737 139.73C321.576 139.131 321.267 138.663 320.872 138.218C319.248 136.267 316.567 135.517 314.168 136.159C313.654 136.297 313.14 136.435 312.758 136.721M268.81 134.455C268.81 134.455 268.17 134.809 267.873 135.073C264.962 137.229 264.361 141.153 266.557 143.869C268.731 146.499 272.805 146.967 275.717 144.81C278.097 143.071 278.928 140.003 277.897 137.526C277.736 136.927 277.427 136.459 277.033 136.014C275.408 134.063 272.728 133.313 270.329 133.956C269.815 134.093 269.301 134.231 268.918 134.517M247.436 96.4947C246.859 96.741 246.305 97.0729 245.774 97.4905C240.739 101.318 239.713 108.109 243.511 112.69C247.247 117.379 254.315 118.055 259.373 114.314C263.494 111.19 264.871 106.049 263.164 101.734C262.826 100.815 262.317 99.9415 261.722 99.0914C258.953 95.6115 254.306 94.3784 250.023 95.5262C249.166 95.7557 248.332 96.0709 247.521 96.4717M265.59 67.9512C265.185 68.1516 264.717 68.4606 264.334 68.7466C260.509 71.6071 259.715 76.8677 262.593 80.4103C265.47 83.9529 270.858 84.5283 274.769 81.6449C277.891 79.248 279.03 75.2718 277.707 72.0469C277.414 71.2992 277.059 70.6601 276.533 70.0668C274.445 67.4141 270.879 66.4423 267.623 67.3146C266.938 67.4982 266.338 67.6589 265.722 68.0995M285.853 103.822C284.238 104.989 282.777 106.391 281.665 108.065C281.579 108.088 281.516 108.197 281.453 108.305C279.503 111.306 278.421 114.808 278.785 118.565C279.64 127.239 287.788 133.316 296.933 132.15C297.899 131.983 298.778 131.839 299.698 131.501C304.792 129.953 308.862 126.292 310.742 121.658C318.028 107.041 319.83 66.8174 277.97 51.7848C289.222 64.6477 300.917 86.0191 285.768 103.845M216.11 59.0905C215.299 59.4913 214.511 59.9778 213.746 60.5498C206.651 65.9387 205.113 75.6205 210.473 82.2608C215.834 88.9011 225.918 89.87 233.014 84.4811C238.9 80.0589 240.886 72.7351 238.417 66.605C237.878 65.2808 237.254 63.9796 236.31 62.8558C232.334 57.9555 225.785 56.131 219.702 57.7609C218.503 58.0822 217.264 58.5978 216.133 59.1761M182.911 48.6207C182.911 48.6207 182.271 48.9757 181.975 49.2387C179.063 51.3955 178.485 55.4053 180.659 58.035C182.833 60.6648 186.907 61.1335 189.818 58.9767C192.198 57.2375 193.029 54.1697 191.998 51.6926C191.838 51.0932 191.529 50.6253 191.134 50.1804C189.486 48.1438 186.829 47.4791 184.43 48.1219C183.916 48.2596 183.402 48.3974 182.934 48.7064M196.845 37.9118C209.77 33.7145 229.032 31.5818 236.938 46.3509C237.328 47.8066 237.867 49.1308 238.639 50.3005C238.639 50.3005 238.685 50.4717 238.708 50.5574C240.184 52.6398 242.363 54.2588 245.214 54.9632C251.741 56.7021 258.798 52.8837 260.928 46.4391C261.11 45.7479 261.292 45.0566 261.389 44.3884C261.927 40.5729 260.575 36.8969 257.864 34.3192C251.973 28.0965 235.922 20.2825 218.359 24.9885C211.248 26.8939 203.871 30.8897 196.822 37.8262M156.027 29.8507C155.474 30.1826 154.982 30.406 154.452 30.8236C149.713 34.3876 148.704 40.8992 152.262 45.269C155.82 49.6387 162.522 50.3209 167.261 46.7568C171.148 43.7878 172.508 38.9262 170.87 34.868C170.532 33.949 170.045 33.1615 169.45 32.3114C166.813 28.9798 162.384 27.872 158.357 28.951C157.586 29.1576 156.753 29.4728 155.942 29.8736M234.532 2.75802C234.532 2.75802 233.892 3.11293 233.595 3.37602C230.684 5.53281 230.083 9.45691 232.279 12.1723C234.476 14.8878 238.527 15.2708 241.439 13.114C243.796 11.2891 244.65 8.30697 243.619 5.82985C243.458 5.23043 243.149 4.76256 242.755 4.31764C241.107 2.28106 238.45 1.61641 236.051 2.25918C235.537 2.39692 235.023 2.53465 234.64 2.8207M206.176 1.45339C206.176 1.45339 205.365 1.85422 205.068 2.11731C201.626 4.69169 200.865 9.39265 203.48 12.6386C206.071 15.799 210.985 16.3179 214.427 13.7435C217.253 11.6097 218.226 8.04486 217.058 5.05396C216.874 4.36891 216.433 3.75272 216.016 3.22217C214.082 0.803354 210.928 -0.00341749 207.929 0.800045C207.329 0.960737 206.73 1.12144 206.176 1.45339ZM174.23 9.37067C174.23 9.37067 173.591 9.72558 173.294 9.98867C170.383 12.1455 169.781 16.0696 171.978 18.785C174.066 21.4377 178.226 21.8834 181.114 19.641C183.495 17.9018 184.326 14.834 183.295 12.3569C183.157 11.8431 182.825 11.2896 182.43 10.8446C180.783 8.80808 178.126 8.14342 175.727 8.78619C175.213 8.92393 174.699 9.06167 174.316 9.34771" fill="#666666"/>
<path d="M83.9401 371.495C83.3404 371.656 82.655 371.84 82.0155 372.195C76.1055 375.155 73.6223 382.337 76.5823 388.243C79.5424 394.15 86.7893 396.522 92.6993 393.562C97.5643 391.157 100.078 385.802 99.09 380.744C98.8773 379.608 98.5163 378.603 98.0467 377.536C95.4645 372.354 89.5716 369.895 84.1741 371.341C84.0028 371.387 83.9171 371.41 83.8315 371.433M68.5672 351.476C68.5672 351.476 67.8818 351.66 67.5621 351.838C64.49 353.395 63.2599 357.029 64.8172 360.099C66.3745 363.169 70.0951 364.375 73.19 362.903C75.7082 361.678 76.9735 358.861 76.5651 356.309C76.4045 355.709 76.2669 355.195 76.1063 354.596C74.7494 351.931 71.7371 350.627 68.9956 351.362L68.8242 351.408M114.476 333.301C113.667 335.079 113.549 337.037 114.031 338.836C114.031 338.836 114.054 338.921 114.076 339.007C114.329 339.949 114.776 340.931 115.371 341.781C119.73 352.911 110.331 362.038 102.623 366.856C125.702 365.261 131.685 344.752 130.619 336.318C130.468 333.697 129.18 331.289 126.938 329.779C126.59 329.505 126.155 329.254 125.744 329.089C123.88 328.303 121.92 328.186 120.121 328.668C117.723 329.311 115.685 330.958 114.585 333.364M93.3073 332.09C93.3073 332.09 92.7933 332.228 92.4506 332.32C89.9324 333.545 88.9073 336.573 90.2183 339.067C91.4436 341.584 94.4497 342.522 96.9679 341.297C98.995 340.295 100.055 338.083 99.653 335.896C99.5383 335.468 99.4007 334.955 99.2859 334.526C98.1524 332.352 95.7689 331.339 93.4557 331.959C93.4557 331.959 93.3701 331.982 93.2844 332.004M162.608 310.401C162.608 310.401 162.094 310.538 161.751 310.63C159.233 311.856 158.208 314.884 159.519 317.377C160.744 319.894 163.75 320.833 166.268 319.607C168.296 318.605 169.356 316.394 168.954 314.207C168.839 313.779 168.701 313.265 168.586 312.837C167.453 310.663 165.069 309.649 162.756 310.269C162.756 310.269 162.671 310.292 162.585 310.315M197.527 300.218C197.527 300.218 196.756 300.425 196.351 300.625C192.873 302.383 191.438 306.622 193.196 310.098C194.954 313.573 199.194 315.007 202.672 313.249C205.51 311.846 206.963 308.703 206.44 305.723C206.279 305.123 206.096 304.438 205.85 303.862C204.292 300.791 200.892 299.408 197.722 300.258C197.722 300.258 197.55 300.304 197.465 300.326M66.8532 324.861C66.8532 324.861 66.3392 324.999 65.9965 325.09C63.4783 326.316 62.4531 329.344 63.7641 331.838C64.9895 334.355 67.9956 335.293 70.5138 334.067C72.5409 333.065 73.6012 330.854 73.1989 328.667C73.0842 328.239 72.9465 327.725 72.8318 327.297C71.6983 325.123 69.3148 324.11 67.0016 324.729L66.8302 324.775M133.873 296.716C128.252 313.09 107.857 309.285 100.881 308.951C107.568 321.569 143.807 322.138 147.595 306.805C150.377 295.597 142.489 292.204 137.52 293.535C135.721 294.018 134.277 295.139 133.873 296.716ZM215.591 272.708C211.823 275.095 209.137 279.118 208.696 283.642C208.645 284.481 208.572 285.235 208.63 286.138C209.193 294.063 216.221 300.073 224.127 299.423C227.543 299.15 230.467 297.724 232.841 295.62C232.841 295.62 233.013 295.574 233.052 295.38C234.302 294.219 235.375 292.738 236.144 291.155C249.394 275.49 270.825 282.138 284.442 289.778C268.424 264.609 244.084 262.871 227.977 267.187C222.751 268.587 218.417 270.574 215.483 272.645M85.2339 299.561C85.2339 299.561 84.5485 299.744 84.2287 299.922C81.071 301.502 79.8011 305.33 81.3814 308.486C82.9616 311.642 86.7908 312.91 89.9485 311.33C92.5294 309.996 93.8804 307.156 93.3405 304.456C93.1798 303.856 93.0192 303.257 92.8816 302.743C91.5017 299.992 88.3808 298.626 85.4679 299.406L85.2966 299.452M166.755 272.761C161.067 274.836 158.074 281.145 160.126 286.744C162.2 292.429 168.488 295.334 174.176 293.259C179.864 291.184 182.879 284.961 180.805 279.276C178.823 273.933 173.072 270.977 167.675 272.423C167.418 272.492 167.075 272.584 166.732 272.675M195.118 253.872C195.118 253.872 194.347 254.079 193.941 254.28C190.464 256.037 189.029 260.277 190.787 263.752C192.544 267.228 196.785 268.661 200.262 266.903C203.1 265.5 204.554 262.358 204.031 259.377C203.847 258.692 203.687 258.093 203.503 257.408C201.946 254.337 198.545 252.954 195.375 253.804L195.118 253.872ZM106.792 280.293C105.441 283.133 105.473 286.337 106.876 289.173C107.099 289.664 107.408 290.132 107.803 290.577C111.167 294.907 117.464 295.789 121.796 292.426C123.709 290.995 124.838 289.041 125.384 286.967C125.384 286.967 125.361 286.881 125.338 286.796C125.577 285.63 125.621 284.425 125.471 283.181C127.239 269.215 142.186 265.027 152.909 264.265C143.803 260.096 135.667 259.89 128.813 261.727C116.905 264.917 108.951 274.299 106.575 280.167" fill="#666666"/>
<path d="M214.169 209.486C214.169 209.486 213.484 209.67 213.102 209.956C209.927 211.816 208.789 215.792 210.649 218.965C212.423 222.161 216.487 223.275 219.661 221.414C222.282 219.886 223.501 216.898 222.853 214.135C222.692 213.535 222.532 212.936 222.2 212.382C220.648 209.677 217.573 208.482 214.746 209.24C214.575 209.286 214.403 209.332 214.232 209.378M237.774 201.968C237.18 202.494 236.501 203.043 235.93 203.655C230.504 209.79 230.428 219.447 235.731 225.185C238.03 227.598 240.848 228.862 243.779 229.178C243.779 229.178 243.951 229.132 244.059 229.194C245.739 229.295 247.327 229.053 249.017 228.508C268.384 227.449 270.05 235.722 285.987 259.903C287.486 219.577 263.17 202.506 249.843 199.377C247.637 198.683 245.163 198.703 242.85 199.323C241.051 199.805 239.281 200.738 237.688 201.991M230.828 176.387C230.828 176.387 230.228 176.548 230.017 176.788C227.545 178.185 226.714 181.253 228.11 183.724C229.484 186.109 232.576 187.024 235.048 185.628C237.03 184.454 237.981 182.18 237.408 180.039C237.293 179.611 237.155 179.097 236.869 178.715C235.673 176.649 233.335 175.807 231.193 176.381C231.022 176.427 230.936 176.45 230.765 176.496M137.61 190.719C137.61 190.719 137.181 190.833 136.947 190.988C134.88 192.184 134.192 194.755 135.388 196.821C136.584 198.886 139.156 199.574 141.223 198.378C142.884 197.382 143.671 195.519 143.275 193.698C143.183 193.355 143.068 192.927 142.868 192.522C141.849 190.776 139.9 190.013 138.101 190.495C138.015 190.518 137.844 190.564 137.758 190.587M216.39 196.868C219.684 194.425 221.553 190.437 221.286 186.011C221.25 185.195 221.13 184.401 221.009 183.607C219.224 175.917 211.751 170.302 204.193 171.226C200.994 171.624 198.373 173.152 196.473 175.313C196.473 175.313 196.388 175.336 196.348 175.531C195.292 176.731 194.585 178.205 194.073 179.72C181.439 193.568 160.525 190.911 146.384 184.054C171.481 215.693 206.401 205.51 216.413 196.954M25.9139 203.944C25.3998 204.081 24.9944 204.282 24.589 204.482C20.5179 206.766 19.0781 212.016 21.4478 216.062C23.7317 220.131 28.9837 221.569 33.0318 219.199C36.3776 217.293 37.9046 213.396 37.0495 209.862C36.843 209.092 36.6365 208.321 36.173 207.619C34.2439 204.19 30.2602 202.687 26.5763 203.674C26.3193 203.743 26.0623 203.812 25.8909 203.858M114.026 180.151C114.026 180.151 113.34 180.334 112.958 180.62C109.783 182.48 108.645 186.457 110.505 189.629C112.28 192.825 116.343 193.939 119.517 192.079C122.138 190.551 123.358 187.562 122.709 184.799C122.548 184.2 122.388 183.6 122.056 183.047C120.505 180.342 117.43 179.147 114.517 179.927C114.345 179.973 114.174 180.019 114.003 180.065M210.939 148.768C210.425 148.906 209.934 149.129 209.466 149.438C204.927 152.031 203.344 157.778 205.914 162.229C208.507 166.766 214.234 168.26 218.796 165.753C222.547 163.646 224.239 159.338 223.292 155.462C223.063 154.605 222.833 153.749 222.347 152.962C220.218 149.127 215.737 147.482 211.71 148.561C211.453 148.63 211.196 148.699 210.939 148.768ZM142.191 163.609C142.191 163.609 141.443 163.902 141.037 164.102C137.458 166.163 136.177 170.636 138.237 174.214C140.298 177.792 144.859 179.048 148.439 176.987C151.379 175.281 152.678 171.905 151.938 168.799C151.754 168.114 151.57 167.429 151.216 166.79C149.487 163.765 146.023 162.491 142.853 163.34C142.682 163.386 142.425 163.455 142.254 163.501M47.6767 189.21C45.5593 191.246 44.5342 194.274 45.2745 197.379C45.4122 197.893 45.5728 198.493 45.7105 199.006C47.9271 204.194 54.152 207.207 59.5494 205.761C61.8625 205.141 63.6036 203.757 64.8015 202.059C64.8015 202.059 64.8015 202.059 64.8413 201.865C65.4915 200.865 65.8618 199.848 66.0148 198.705C73.79 187.628 89.6149 187.059 100.856 190.287C87.5836 178.792 73.3513 178.108 62.7278 180.955C55.6169 182.86 50.0389 186.374 47.4197 189.279M189.838 131.018C189.838 131.018 189.41 131.133 189.176 131.287C187.109 132.484 186.42 135.054 187.617 137.12C188.813 139.186 191.385 139.873 193.452 138.677C195.113 137.681 195.899 135.818 195.503 133.997C195.411 133.655 195.297 133.227 195.119 132.907C194.1 131.161 192.151 130.398 190.267 130.903C190.181 130.926 190.01 130.972 189.924 130.995M7.58556 177.007C6.98585 177.168 6.43202 177.5 5.85525 177.746C0.505212 180.74 -1.33852 187.567 1.7409 192.891C4.73464 198.238 11.5639 200.079 16.891 197C21.2818 194.538 23.3274 189.493 22.174 184.846C21.8987 183.819 21.6234 182.791 21.091 181.832C18.521 177.381 13.3027 175.384 8.59069 176.646C8.248 176.738 7.99098 176.807 7.64829 176.899M95.7747 172.008C101.021 162.801 111.683 153.245 124.124 156.152C124.953 156.848 125.993 157.303 126.987 157.587L127.096 157.65C128.953 158.07 131.039 157.97 132.957 156.906C137.456 154.507 139.615 148.513 137.639 143.536C137.501 143.023 137.192 142.555 136.883 142.087C135.269 139.49 132.748 137.963 129.971 137.881C127.88 137.616 125.001 137.836 121.745 138.709C111.208 141.532 97.186 150.888 95.7288 171.837M36.8036 156.513C36.8036 156.513 36.2039 156.674 35.9071 156.937C33.0294 158.534 32.0792 162.184 33.6533 164.975C35.2275 167.765 38.9022 168.8 41.6713 167.14C43.9722 165.789 45.0891 163.104 44.5323 160.683C44.3947 160.169 44.2341 159.57 43.925 159.102C42.5513 156.717 39.8022 155.709 37.232 156.398C37.0606 156.444 36.8893 156.49 36.7179 156.536M166.38 157.587C165.713 158.867 165.326 160.164 165.219 161.477C165.219 161.477 165.156 161.586 165.179 161.672C165.004 164.105 165.67 166.588 167.426 168.687C171.425 173.673 179.253 174.788 184.894 171.166C185.448 170.834 185.979 170.416 186.486 169.913C189.306 167.413 190.559 163.865 190.03 160.52C189.178 149.459 174.295 122.701 140.329 126.846C152.92 130.998 167.02 141.813 166.38 157.587ZM63.5338 144.211C62.8484 144.394 62.209 144.749 61.4838 145.127C55.1974 148.739 53.0064 156.668 56.6182 162.951C60.207 169.148 68.1622 171.422 74.4485 167.81C79.6272 164.863 81.9804 158.909 80.7062 153.468C80.385 152.269 80.0638 151.07 79.3998 149.963C76.429 144.702 70.302 142.397 64.6246 143.827C64.2819 143.919 63.8536 144.033 63.5109 144.125M12.7086 148.835C12.7086 148.835 12.0232 149.019 11.812 149.259C8.93431 150.856 7.98413 154.506 9.55826 157.297C11.1324 160.087 14.8071 161.122 17.5762 159.462C19.8772 158.111 20.9941 155.426 20.4373 153.005C20.2996 152.491 20.139 151.892 19.83 151.424C18.4563 149.039 15.7071 148.032 13.1369 148.72C12.9656 148.766 12.7942 148.812 12.6229 148.858M44.2905 121.742C43.7765 121.879 43.2854 122.103 42.8172 122.412C38.1923 125.028 36.6332 130.86 39.2262 135.397C41.8191 139.934 47.6769 141.576 52.2161 138.983C55.9674 136.877 57.7453 132.546 56.7525 128.498C56.5231 127.642 56.2936 126.785 55.8072 125.998C53.5921 122.186 49.1739 120.433 45.0616 121.535C44.8045 121.604 44.5475 121.673 44.2905 121.742ZM67.3107 112.728C67.3107 112.728 66.8823 112.843 66.6482 112.997C64.5813 114.194 63.8928 116.764 65.0891 118.83C66.2854 120.896 68.8571 121.583 70.9239 120.387C72.6084 119.477 73.3718 117.529 72.9757 115.707C72.8839 115.365 72.7691 114.937 72.5688 114.531C71.5729 112.871 69.6009 112.023 67.8018 112.505C67.7161 112.528 67.5447 112.574 67.4591 112.597M94.7981 103.252C91.5837 105.306 89.5994 108.867 89.7752 112.95C89.7874 113.681 89.8853 114.389 89.9832 115.097C91.4133 122.148 98.5377 127.489 105.759 127.023C108.832 126.842 111.413 125.508 113.296 123.626C113.296 123.626 113.382 123.603 113.445 123.495C114.438 122.403 115.213 121.185 115.749 119.757C128.305 107.674 148.39 111.011 161.778 117.795C144.323 95.4885 120.789 94.3603 106.053 98.3087C101.17 99.6172 97.2643 101.49 94.821 103.338" fill="#666666"/>
</g>
</svg>
